<?xml version="1.0" encoding="UTF-8"?>
<svg id="a" data-name="Layer 1" xmlns="http://www.w3.org/2000/svg" viewBox="0 0 168 168">
  <defs>
    <style>
      .b {
        fill: #fff;
      }

      .b, .c {
        stroke-width: 0px;
      }

      .c {
        fill: #0064ff;
      }
    </style>
  </defs>
  <rect class="c" y="0" width="168" height="168" rx="42.06" ry="42.06"/>
  <g>
    <path class="b" d="m131.16,88.36c-.23-.04-.5-.05-.82-.04-.51.02-1.02.04-1.53.05-1.87.02-3.74.01-5.62,0-.32,0-.64-.01-.96-.01-.16,0-.32-.01-.48-.03-2.53-.24-4.25-1.99-4.25-4.34,0-2.48,1.97-4.29,4.76-4.35,1.38-.02,2.75,0,4.13,0,1.03,0,2.07,0,3.1,0,.36,0,.73.01,1.09.02.4.01.71-.02.94-.1.82-.17.77-.71.51-2.42-.05-.35-.11-.71-.17-1.06-.68-4.22-1.85-8.3-3.68-12.16-.33-.72-.69-1.42-1.07-2.12-.32-.58-.64-1.15-.97-1.72-.14-.24-.28-.48-.42-.71-.08-.13-.15-.26-.23-.38-7.91-12.99-19.62-20.73-35.17-23.12-.29-.04-.55-.06-.78-.06-.86-.08-1.1.08-1.16.88-.05.23-.07.52-.06.86.02.44.03.89.03,1.33,0,1.84,0,3.68,0,5.51,0,.36-.01.73-.01,1.09-.01,1.05-.24,1.97-.64,2.73-.03.06-.06.12-.09.18,0,0,0,.01-.01.02-.76,1.28-2.06,2.06-3.63,2.07-1.57,0-2.87-.78-3.63-2.07,0,0,0-.01-.01-.02-.03-.06-.06-.12-.09-.18-.4-.76-.63-1.69-.63-2.73,0-.36,0-.73-.01-1.09-.01-1.84,0-3.67,0-5.51.01-.44.02-.89.03-1.33.01-.35,0-.63-.06-.86-.06-.8-.3-.96-1.16-.88-.22,0-.48.02-.77.06-15.55,2.39-27.26,10.14-35.17,23.12-.08.13-.16.26-.23.39-.14.24-.28.47-.42.71-.33.56-.66,1.14-.97,1.72-.38.7-.73,1.41-1.07,2.12-1.82,3.86-3,7.94-3.68,12.15-.06.35-.12.71-.17,1.06-.26,1.71-.31,2.25.51,2.42.24.08.55.11.95.1.36-.01.72-.02,1.08-.02,1.04,0,2.07,0,3.11,0,1.38,0,2.75-.02,4.12,0,2.78.05,4.75,1.87,4.76,4.35,0,2.35-1.72,4.1-4.25,4.34-.16.01-.31.02-.48.03-.32,0-.64,0-.96.01-1.87.02-3.74.03-5.62,0-.51-.01-1.02-.02-1.52-.05-.32-.01-.59,0-.82.04-.75.08-1.06.43-1.03,1.25,0,.23.02.49.06.79.75,5.15,2.13,10.09,4.41,14.72,2.61,5.56,6.2,10.4,10.77,14.52,3.93,3.7,8.38,6.62,13.36,8.78,3.96,1.86,8.16,2.96,12.48,3.61.23.04.47.08.7.12.22.03.41.05.59.06.92.08,1.35-.22,1.43-1.05.04-.23.05-.5.03-.81-.02-.46-.03-.91-.04-1.37-.02-2.19,0-4.38.02-6.57,0-.48.06-.94.17-1.37.01-.04.02-.09.03-.14,0-.01,0-.02.01-.03.52-1.87,1.92-3.14,3.75-3.31.02,0,.05,0,.07,0,.11-.01.22-.01.33-.01s.22,0,.33.01c.02,0,.05,0,.07,0,1.83.17,3.24,1.44,3.75,3.31,0,.01,0,.02.01.03.01.04.02.09.03.14.1.43.16.89.17,1.37.02,2.19.04,4.38.02,6.57-.01.46-.02.92-.04,1.37-.01.31,0,.58.03.81.09.83.51,1.12,1.43,1.05.18,0,.37-.03.59-.06.24-.04.47-.08.7-.12,4.32-.65,8.52-1.75,12.48-3.61,4.98-2.15,9.43-5.08,13.36-8.78,4.56-4.12,8.16-8.96,10.77-14.52,2.28-4.63,3.66-9.57,4.41-14.72.04-.29.06-.56.06-.79.03-.83-.28-1.17-1.03-1.25Zm-27.9-27.28c3.8.05,6.97,3.34,6.99,7.31.02,4.02-3.09,7.36-6.9,7.46-3.82-.08-6.89-3.28-6.96-7.29-.07-4,3.05-7.36,6.87-7.48Zm-19.26,4.82c4.89,0,8.85,3.96,8.85,8.85,0,1.65-.45,3.2-1.24,4.52h0c-1.55,2.6-4.38,4.33-7.61,4.33s-6.07-1.74-7.61-4.33c-.79-1.32-1.24-2.87-1.24-4.52,0-4.89,3.96-8.85,8.85-8.85Zm-19.26-4.82c3.82.11,6.94,3.48,6.87,7.48-.07,4.01-3.14,7.21-6.96,7.29-3.81-.1-6.93-3.45-6.9-7.46.02-3.97,3.19-7.26,6.99-7.31Zm2.67,32.3c-3.37-.03-6.75.06-10.12.04-.04,0-.09,0-.13,0-1.35-.1-2.36-.7-2.87-1.7,0-.01-.01-.02-.01-.02-.04-.09-.08-.18-.12-.28,0,0,0-.02,0-.02-.16-.42-.23-.9-.22-1.42.01-.61.03-1.22.04-1.83.08-1.97.21-3.93.38-5.89.02-.18.04-.35.07-.53.18-1.3.64-2.32,1.3-3.07.05-.06.11-.12.17-.18.05-.05.11-.1.16-.16.13-.12.26-.23.4-.34.05-.03.09-.07.15-.1.08-.06.17-.11.25-.16.05-.03.11-.06.17-.09.43-.23.9-.4,1.39-.48.57-.09,1.15-.18,1.73-.21.79.02,1.62.14,2.48.38.12.03.23.06.34.08.08.04.16.07.23.11.87.46,1.91.53,2.78.06.12-.06.24-.11.35-.17.17-.03.33-.07.5-.11.46-.12.9-.21,1.33-.26.7-.03,1.4.04,2.1.09,2.36.17,3.83,1.58,4.48,3.75.11.37.22.75.31,1.13.07.58.08,1.21.04,1.88-.14.51-.45.98-1.01,1.39-.03.01-.06.02-.09.03-1.45.39-2.51,1.11-3.25,2.06-1.07,1.04-1.5,2.12-1.79,4.55-.12,1.02-.43,1.5-1.53,1.49Zm26.13,13.54c-2.86.01-5.72.02-8.58.02h-1.9c-2.86,0-5.72-.01-8.58-.02-2.53-.03-4.06-1.59-3.96-4.16.03-.87.07-1.74.11-2.61.13-2.12.3-4.24.41-6.37.02-.18.03-.35.05-.52.1-.95.35-1.9.49-2.86.42-1.14,1.14-2.06,2.08-2.72.31-.04.64-.36.94-.47,1.12-.41,2.24-.66,3.37-.72.26,0,.53,0,.79,0,1.02.04,2.03.26,3.04.69.74.32,1.5.5,2.23.48.74.01,1.49-.17,2.23-.48,1.01-.44,2.02-.65,3.04-.69.26,0,.52,0,.79,0,1.12.05,2.24.31,3.37.72.3.11.63.43.94.47.94.66,1.65,1.58,2.07,2.72.14.96.38,1.91.49,2.86.02.17.03.35.04.52.11,2.12.28,4.24.41,6.37.04.87.07,1.74.11,2.61.09,2.57-1.43,4.13-3.96,4.16Zm20.33-15.53s0,.02-.01.02c-.04.1-.07.19-.12.28,0,0,0,.01-.01.02-.51,1-1.52,1.6-2.87,1.7-.04,0-.08,0-.13,0-3.37.03-6.75-.07-10.12-.04-1.11.01-1.41-.47-1.54-1.49-.29-2.42-.71-3.5-1.78-4.55-.75-.95-1.8-1.67-3.25-2.06-.03-.01-.06-.02-.09-.03-.56-.42-.87-.89-1.01-1.39-.05-.68-.03-1.3.04-1.88.08-.38.2-.76.31-1.13.64-2.16,2.11-3.58,4.48-3.75.7-.05,1.4-.12,2.1-.09.43.06.87.15,1.33.26.17.04.33.08.5.11.12.05.24.1.35.17.87.46,1.91.4,2.78-.06.08-.04.16-.08.23-.11.11-.03.23-.05.34-.08.85-.24,1.68-.36,2.47-.38.58.03,1.16.12,1.73.21.5.08.97.25,1.4.48.05.03.11.06.16.09.09.05.17.1.26.16.05.03.09.07.14.1.14.1.27.22.41.34.05.05.11.1.16.16.06.06.11.12.17.18.66.76,1.12,1.78,1.3,3.07.02.18.04.35.07.53.17,1.96.29,3.92.37,5.89.02.61.03,1.22.05,1.83.01.53-.06,1.01-.22,1.42Z"/>
    <path class="b" d="m30.01,85.09s0,0,0,0c.04.02.07.04.11.06.01,0,.02.01.04.02.03.01.06.03.09.04.03.01.06.02.09.03.01,0,.02,0,.04.01.21.06.45.09.7.1.1,0,.21,0,.32,0,2.35,0,4.71,0,7.06,0,1.97,0,3.94,0,5.91,0,.4,0,.8,0,1.2,0,.21,0,.42,0,.61-.04.03,0,.07,0,.1-.02,0,0,.02,0,.03,0,.63-.11,1.11-.44,1.11-1.31,0-.79-.41-1.13-.96-1.27-.02,0-.05-.01-.07-.02,0,0-.02,0-.02,0-.24-.05-.51-.07-.78-.07-.48,0-.96,0-1.44,0-4.25,0-8.5,0-12.75,0-.1,0-.2,0-.3,0-.01,0-.02,0-.03,0-.01,0-.03,0-.04,0-.22.01-.43.04-.62.1-.02,0-.04.01-.06.02-.02,0-.04.01-.06.02-.04.01-.07.03-.11.05,0,0,0,0,0,0-.37.17-.62.5-.64,1.07,0,.03,0,.06,0,.09,0,0,0,0,0,0,0,0,0,0,0,0,0,.01,0,.02,0,.04,0,.06,0,.12,0,.17,0,.02,0,.04,0,.05,0,.04.01.09.02.13,0,.03.01.05.02.08,0,.03.01.05.02.08.01.03.03.07.04.1,0,.01.01.03.02.04.02.04.04.07.06.1,0,0,0,.01.01.02.03.04.05.07.08.1,0,0,0,0,0,0,.03.03.06.06.1.09,0,0,0,0,0,0,.03.03.07.05.11.08Z"/>
    <path class="b" d="m85.16,121.21s0,0,0,0c-.02-.04-.04-.08-.07-.12-.17-.26-.45-.44-.88-.48,0,0-.02,0-.03,0-.05,0-.1,0-.15,0-.01,0-.02,0-.03,0-.01,0-.02,0-.03,0-.05,0-.1,0-.15,0,0,0-.02,0-.03,0-.44.04-.71.22-.88.48-.26.4-.29.98-.29,1.54-.01,2.3,0,4.6,0,6.9,0,2.36,0,4.72,0,7.07,0,.62.06,1.24.43,1.6.01.01.02.02.03.03.02.02.04.04.06.05.03.02.06.04.09.07,0,0,.01,0,.02.01.17.1.39.16.67.17.01,0,.03,0,.04,0,.01,0,.02,0,.03,0,.01,0,.02,0,.03,0,.02,0,.03,0,.04,0,.28,0,.5-.07.67-.17,0,0,.01,0,.02-.01.03-.02.06-.04.09-.07.02-.02.04-.03.06-.05.01,0,.02-.02.03-.03.37-.37.43-.98.43-1.6,0-2.36,0-4.72,0-7.07,0-2.3,0-4.6,0-6.9,0-.51-.02-1.03-.22-1.42Z"/>
    <path class="b" d="m138.3,84.79s.04-.07.06-.1c0-.01.01-.03.02-.04.01-.03.03-.06.04-.1,0-.02.02-.05.02-.08,0-.03.02-.05.02-.08,0-.04.02-.08.02-.13,0-.02,0-.04,0-.06,0-.05,0-.11,0-.17,0-.01,0-.02,0-.04,0,0,0,0,0,0s0,0,0,0c0-.03,0-.06,0-.08-.02-.58-.27-.9-.64-1.08,0,0,0,0,0,0-.04-.02-.07-.03-.11-.05-.02,0-.04-.02-.06-.02-.02,0-.04-.01-.06-.02-.19-.06-.4-.09-.62-.1-.01,0-.03,0-.04,0-.01,0-.02,0-.03,0-.1,0-.2,0-.3,0-4.25,0-8.5,0-12.75,0-.48,0-.96,0-1.44,0-.27,0-.54.02-.78.07,0,0-.02,0-.02,0-.02,0-.05.01-.07.02-.55.14-.96.48-.96,1.27,0,.87.47,1.19,1.11,1.31,0,0,.02,0,.03,0,.03,0,.07.01.1.02.19.03.4.04.61.04.4,0,.8,0,1.2,0,1.97,0,3.94,0,5.91,0,2.35,0,4.71,0,7.06,0,.11,0,.21,0,.32,0,.25,0,.49-.04.7-.1.01,0,.03,0,.04-.01.03,0,.06-.02.09-.03.03-.01.06-.02.09-.04.01,0,.02-.01.04-.02.04-.02.07-.04.11-.06,0,0,0,0,0,0,.04-.02.07-.05.11-.08,0,0,0,0,0,0,.04-.03.07-.06.1-.09,0,0,0,0,0,0,.03-.03.06-.07.08-.1,0,0,0-.01.01-.02Z"/>
    <path class="b" d="m82.62,45.46c0,.79.09,1.6.83,1.85.01,0,.02,0,.03.01.04.01.08.02.12.03.03,0,.06.01.09.02.03,0,.06,0,.1.01.04,0,.08,0,.12,0,.02,0,.04,0,.06,0,.01,0,.02,0,.04,0,.01,0,.02,0,.04,0,.02,0,.04,0,.06,0,.04,0,.08,0,.12,0,.03,0,.06,0,.1-.01.03,0,.06,0,.09-.02.04,0,.08-.02.12-.03.01,0,.02,0,.03-.01.74-.26.83-1.06.83-1.85.01-2.3,0-4.6,0-6.9,0-2.36,0-4.71,0-7.07,0-.63-.03-1.27-.39-1.67-.17-.19-.42-.32-.78-.36-.01,0-.03,0-.04,0-.04,0-.09,0-.13,0-.01,0-.02,0-.03,0-.01,0-.02,0-.03,0-.05,0-.09,0-.13,0-.01,0-.03,0-.04,0-.36.03-.61.16-.78.36-.36.39-.39,1.04-.39,1.67,0,2.36,0,4.71,0,7.07,0,2.3,0,4.6,0,6.9Z"/>
  </g>
</svg>