<?xml version="1.0" encoding="UTF-8"?>
<svg id="a" data-name="Layer 1" xmlns="http://www.w3.org/2000/svg" viewBox="0 0 168 168">
  <defs>
    <style>
      .b {
        fill: #fff;
      }

      .b, .c {
        stroke-width: 0px;
      }

      .c {
        fill: #0064ff;
      }
    </style>
  </defs>
  <rect class="c" y="0" width="168" height="168" rx="42.06" ry="42.06"/>
  <g>
    <path class="b" d="m78.51,120.93c.42-3.44.86-6.8,1.98-9.99.74-2.12.9-4-.37-5.98-.65-1-.84-2.26-1.05-3.45-.11-.65.06-.86.77-.73,2.78.54,5.58.55,8.36.01.93-.18.82.26.7.86-.36,1.81-.91,3.56-1.83,5.17-.26.46-.53.89-.31,1.49,1.48,4.06,2.23,8.27,2.5,12.59.59-.08.59-.56.72-.87,3.6-8.24,7.22-16.47,10.75-24.74.48-1.13.91-1.24,2.01-.82,4.52,1.73,8.97,3.61,13.37,5.62,8.88,4.06,13.69,11.01,14.86,20.62.32,2.65.37,5.31.35,7.97-.02,2.45-.23,2.66-2.65,2.66-27.81,0-55.63,0-83.44,0-2.13,0-4.26,0-6.39,0-1.74-.01-2.14-.4-2.17-2.13-.05-4.02.06-8.02.99-11.97,1.85-7.89,6.49-13.46,13.77-16.91,4.63-2.2,9.37-4.16,14.16-5.96.94-.35,1.24-.08,1.59.73,3.37,7.81,6.78,15.61,10.18,23.41.36.82.75,1.63,1.13,2.44Z"/>
    <path class="b" d="m83.95,64.93c-8.85,0-17.7,0-26.55,0-2.04,0-2.48-.57-1.96-2.56.45-1.69,1.45-2.97,3.07-3.62.8-.32,1.04-.75,1.09-1.59.54-9.22,4.89-16.11,12.89-20.7,1.39-.8,1.39-.77,1.59.82.29,2.3.59,4.6.89,6.91.11.87.37,1.71,1.44,1.65,1.08-.06,1.21-.91,1.21-1.8-.01-3.14-.01-6.29,0-9.43,0-2.08.78-2.98,2.85-3.31,2.36-.38,4.72-.38,7.08-.02,2.17.33,2.93,1.19,2.94,3.38.02,3.1.02,6.19,0,9.29,0,.94.09,1.85,1.27,1.89,1.09.04,1.28-.83,1.39-1.69.31-2.35.68-4.69.91-7.05.12-1.23.52-1.19,1.43-.67,7.91,4.52,12.25,11.3,12.94,20.38.08,1.02.29,1.64,1.32,2.07,1.61.68,2.52,2.08,2.9,3.76.4,1.76-.05,2.29-1.87,2.3-5.08,0-10.16,0-15.24,0-3.87,0-7.74,0-11.61,0Z"/>
    <path class="b" d="m84.08,68.9c7.21,0,14.42.03,21.62-.03,1.29,0,1.52.38,1.33,1.59-1.17,7.24-3.8,13.78-9.02,19.09-8.11,8.25-19.77,8.25-27.89-.01-5.34-5.42-7.96-12.12-9.06-19.53-.2-1.34.65-1.12,1.4-1.12,7.21,0,14.42,0,21.63,0h0Z"/>
  </g>
</svg>