<?xml version="1.0" encoding="UTF-8"?>
<svg id="a" data-name="Layer 1" xmlns="http://www.w3.org/2000/svg" viewBox="0 0 168 168">
  <defs>
    <style>
      .b {
        fill: #fff;
      }

      .b, .c {
        stroke-width: 0px;
      }

      .c {
        fill: #0064ff;
      }
    </style>
  </defs>
  <rect class="c" y="0" width="168" height="168" rx="42.06" ry="42.06"/>
  <g>
    <path class="b" d="m129.49,77.65c-1.29-.5-2.63-.37-3.94-.31-1.02.05-1.31-.27-1.36-1.28-.29-6.9-2.24-13.3-5.89-19.18-.13-.21-.23-.51-.41-.65-.59-.89-1.42-2.01-1.92-2.67-.04-.22-.29-.39-.42-.56-1.07-1.37-2.24-2.65-3.5-3.84-.47-.45-.9-.97-1.64-1.32,0,3.37,0,6.59,0,9.82,0,.07,0,.13,0,.19v5.17c-.02.26,0,.52,0,.78,0,1.57,0,3.13,0,4.7,0,.6-.01,1.26-.82,1.26-.82,0-.8-.68-.8-1.27,0-3.42,0-6.83,0-10.25,0-3.81.01-7.62.05-11.43,0-.38-.16-.56-.41-.74-4.78-3.51-9.99-6.05-15.85-7.18-.96-.18-1.18.02-1.18,1,.03,10.31,0,20.62.05,30.93,0,1.08-.33,1.29-1.32,1.28-4.08-.05-8.17-.05-12.25,0-1,.01-1.32-.21-1.32-1.28.05-10.21.03-20.42.03-30.63,0-1.43,0-1.43-1.38-1.19-5.82,1.03-10.93,3.65-15.66,7.1-.28.2-.44.4-.44.82.04,7.18.04,14.36.05,21.54,0,.17,0,.34-.02.51-.08.49-.31.85-.86.81-.48-.04-.7-.36-.72-.83-.01-.27,0-.54,0-.82,0-6.36,0-12.73,0-19.09,0-.36,0-.72,0-1.23-.29.21-.43.29-.55.39-2.11,1.83-3.96,3.9-5.6,6.15-3.12,4.27-5.32,8.99-6.56,14.15-.63,2.62-.94,5.29-1.07,7.97-.03.66-.25.89-.91.86-.92-.04-1.84-.03-2.76,0-2.11.07-3.96,1.47-4.62,3.43-1.06,3.15,1.18,6.7,5.32,6.69,28.79-.05,57.58-.03,86.37-.03.44,0,.89-.02,1.32-.09,2.3-.34,4.02-2.16,4.24-4.45.23-2.32-1.08-4.38-3.26-5.23Z"/>
    <path class="b" d="m122.87,90.07c-2.08.03-4.15.01-6.23.01-5.24,0-10.48,0-15.72,0-.47,0-1.08-.19-.86.73.67,2.73.5,5.47-.09,8.19,0,0,.01,0,.02-.01-.09.44-.26.93-.45,1.39-.24.57-.51,1.1-.69,1.45-.09.14-.16.28-.24.43,0,0,0,0,0,0-3.24,6.28-10.45,9.93-17.54,8.52-6.2-1.23-10.43-4.87-12.63-10.79-1.09-2.94-1.16-5.99-.5-9.04.14-.64.07-.95-.69-.89-.78.06-1.56.01-2.35.01-6.54,0-13.07,0-19.6-.01-.65,0-1.08.04-1.1.88-.09,3.1-.18,6.18.2,9.27.1.81.44,1.07,1.22,1.13,2.31.17,4.61.42,6.91.6.55.04.84.18.99.77.26,1.02.6,2.02.97,3,.22.58.2.95-.33,1.4-1.8,1.51-3.54,3.08-5.29,4.63-.26.23-.71.34-.52.86.01.04.03.07.04.1.14.31.58,1.29.8,1.67.24.41.93,1.41,1.18,1.77.02.03.04.06.06.09,1.58,2.13,3.04,4.35,4.93,6.24.47.47.79.54,1.37.19,2.03-1.25,4.1-2.42,6.13-3.66.49-.3.81-.31,1.26.06.84.68,1.73,1.33,2.64,1.92.47.31.62.59.49,1.16-.55,2.28-1.01,4.58-1.59,6.85-.19.75-.03,1.09.65,1.41,3.53,1.65,7.21,2.84,11.04,3.57.58.11.84-.04,1.07-.59.91-2.2,1.9-4.36,2.81-6.56.25-.61.58-.79,1.23-.75,1.02.06,2.04.07,3.06,0,.66-.04.97.19,1.21.78.91,2.2,1.89,4.37,2.81,6.57.2.49.44.69.99.59,3.93-.75,7.71-1.95,11.33-3.66.55-.26.61-.54.48-1.11-.57-2.34-1.07-4.7-1.61-7.05-.11-.48-.06-.8.41-1.11.97-.63,1.9-1.32,2.8-2.04.39-.31.67-.31,1.08-.04.83.54,1.7,1,2.53,1.53.12.08.24.15.35.21l3.69,2.19c.42.25.62-.04.86-.28,1.27-1.28,2.44-2.65,3.47-4.14,1.74-2.04,3.6-5.4,3.83-5.75.23-.36,0-.44-.09-.55-.1-.1-1.12-.92-1.12-.92-1.45-1.24-2.83-2.54-4.32-3.74-.8-.65-1.1-1.22-.57-2.22.41-.77.63-1.66.82-2.52.14-.64.46-.79,1.05-.84,2.37-.18,4.74-.43,7.12-.61.57-.04.82-.22.91-.82.5-3.22.37-6.44.27-9.67-.02-.69-.32-.84-.95-.83Z"/>
    <path class="b" d="m78.74,70.96c3.47-.04,6.94-.05,10.41,0,.95.02,1.1-.31,1.1-1.16-.03-6.26-.02-12.52-.02-18.78,0-6.23,0-12.45,0-18.68,0-2.26-1.42-3.72-3.67-3.76-1.7-.03-3.4-.03-5.1,0-2.25.04-3.68,1.49-3.68,3.75,0,12.55,0,25.11-.02,37.66,0,.79.25.96.99.95Z"/>
    <path class="b" d="m71.96,90.09c-1.16-.36-1.9.05-2.13,1.26-.61,3.25-.41,6.42,1.03,9.46,3,6.32,10.12,9.72,16.98,7.77,7.64-2.17,11.87-9.27,10.37-17.06-.27-1.42-.39-1.49-1.78-1.46-.61.01-.77.17-.59.78.38,1.24.67,2.5.6,3.54-.02,6.32-4.6,11.65-10.51,12.51-7.74,1.13-14.51-4.85-14.35-12.67.02-1.17.31-2.28.58-3.41.06-.26.31-.57-.19-.73Z"/>
  </g>
</svg>