<?xml version="1.0" encoding="utf-8"?>
<!-- Generator: Adobe Illustrator 27.9.0, SVG Export Plug-In . SVG Version: 6.00 Build 0)  -->
<svg version="1.1" id="Layer_1" xmlns="http://www.w3.org/2000/svg" xmlns:xlink="http://www.w3.org/1999/xlink" x="0px" y="0px"
	 viewBox="0 0 32 32" enable-background="new 0 0 32 32" xml:space="preserve">
<g>
	<path fill="#0039A5" d="M30.6,5.7v-1c0-1.4-1.2-2.6-2.6-2.6H4c-1.4,0-2.6,1.2-2.6,2.6v1h9.9l-6,3L3.7,9.5L4,9.9l0.7,1.1l0.4,0.7
		h6.9l-3.6,1.8l-1.6,0.8l0.6,1L7.6,16l0.8,1.3h4.2L11,18l-1.6,0.8l0.9,1.4l0.1,0.1l1,1.7h7.3l-1.5,2.4h-4.4l1.1,1.8l1.1,1.9l1,1.7h0
		l1.1-1.8l1.1-1.9l1.1-1.8h0l0.6-0.9l0.9-1.5l1.1-1.8l1.8-3l1.1-1.8H9.4l-0.2-0.3l6.8-3.4h10.9L28,9.9H6.9l8.5-4.2L30.6,5.7
		L30.6,5.7z M21.5,17.2l-1.8,3h-7.4l-0.4-0.7l4.7-2.4L21.5,17.2L21.5,17.2z"/>
	<path fill="#0039A5" d="M11.7,26.3l2.2,3.6H4c-1.4,0-2.6-1.2-2.6-2.6v-1L11.7,26.3L11.7,26.3z"/>
	<path fill="#0039A5" d="M30.6,26.3v1c0,1.4-1.2,2.6-2.6,2.6h-9.8l2.2-3.6L30.6,26.3L30.6,26.3z"/>
</g>
</svg>
