<svg width="42" height="41" viewBox="0 0 42 41" fill="none" xmlns="http://www.w3.org/2000/svg">
<ellipse cx="20.9357" cy="20.5" rx="20.8156" ry="20" fill="#0064FF"/>
<path d="M20.9359 29.5C26.1091 29.5 30.3029 25.4706 30.3029 20.5C30.3029 15.5294 26.1091 11.5 20.9359 11.5C15.7626 11.5 11.5688 15.5294 11.5688 20.5C11.5688 25.4706 15.7626 29.5 20.9359 29.5Z" stroke="white" stroke-width="2" stroke-linecap="round" stroke-linejoin="round"/>
<path d="M15.3767 27.7444C16.7661 25.5327 18.7268 23.7036 21.0686 22.4343C23.4103 21.1651 26.0537 20.4987 28.7424 20.5C29.269 20.5 29.7891 20.5247 30.3026 20.574" stroke="white" stroke-width="2" stroke-linecap="round" stroke-linejoin="round"/>
<path d="M26.7931 13.4771C25.3304 15.2044 23.4852 16.5964 21.3917 17.5518C19.2982 18.5072 17.0093 19.0018 14.6917 18.9996C13.7045 19.0001 12.7195 18.911 11.7498 18.7337" stroke="white" stroke-width="2" stroke-linecap="round" stroke-linejoin="round"/>
<path d="M16.8311 12.4082C19.1786 13.7316 21.125 15.622 22.477 17.8917C23.8291 20.1613 24.5398 22.7313 24.5386 25.3464C24.5395 26.5717 24.3845 27.7925 24.077 28.9817" stroke="white" stroke-width="2" stroke-linecap="round" stroke-linejoin="round"/>
</svg>
