<svg width="96" height="88" viewBox="0 0 96 88" fill="none" xmlns="http://www.w3.org/2000/svg">
<path d="M87.2196 75.5552V13.3023C87.2196 6.42706 81.6467 0.851685 74.769 0.851685H12.516C5.63831 0.851685 0.0654297 6.42706 0.0654297 13.3023V75.5552C0.0654297 82.428 5.63831 88.0058 12.516 88.0058H74.769C81.6467 88.0058 87.2196 82.4329 87.2196 75.5552ZM18.1188 16.4149H43.1146C45.1764 16.4149 46.8498 18.0858 46.8498 20.1501C46.8498 22.2144 45.1764 23.8853 43.1146 23.8853H18.1188C16.057 23.8853 14.3836 22.2144 14.3836 20.1501C14.3836 18.0858 16.057 16.4149 18.1188 16.4149ZM18.1188 32.6007H43.02C45.0818 32.6007 46.7551 34.2716 46.7551 36.3359C46.7551 38.4002 45.0818 40.0711 43.02 40.0711H18.1188C16.057 40.0711 14.3836 38.4002 14.3836 36.3359C14.3836 34.2716 16.057 32.6007 18.1188 32.6007ZM69.1662 72.4426H18.1188C16.057 72.4426 14.3836 70.7692 14.3836 68.7074C14.3836 66.6406 16.057 64.9722 18.1188 64.9722H69.1662C71.228 64.9722 72.9014 66.6406 72.9014 68.7074C72.9014 70.7692 71.228 72.4426 69.1662 72.4426ZM69.1662 56.2568H18.1188C16.057 56.2568 14.3836 54.5835 14.3836 52.5216C14.3836 50.4548 16.057 48.7865 18.1188 48.7865H69.1662C71.228 48.7865 72.9014 50.4548 72.9014 52.5216C72.9014 54.5835 71.228 56.2568 69.1662 56.2568ZM74.4179 31.6719H69.7389V36.3508C69.7389 38.2309 68.215 39.7573 66.335 39.7573C64.4524 39.7573 62.931 38.2333 62.931 36.3508V31.6719H58.2495C56.3645 31.6719 54.8431 30.1479 54.8431 28.2654C54.8431 26.3829 56.3645 24.8589 58.2495 24.8589H62.931V20.1775C62.931 18.2975 64.4524 16.7735 66.335 16.7735C68.215 16.7735 69.7389 18.295 69.7389 20.1775V24.8589H74.4179C76.3029 24.8589 77.8269 26.3829 77.8269 28.2654C77.8293 30.1504 76.3029 31.6719 74.4179 31.6719ZM95.935 21.928V76.9945C95.935 83.0729 91.007 88.0058 84.9212 88.0058H78.7133C85.591 88.0058 91.1639 82.4329 91.1639 75.5552V13.3023C91.1639 13.1404 91.1191 12.9885 91.1141 12.8267C94.0226 14.8063 95.935 18.1431 95.935 21.928Z" fill="white"/>
</svg>
