<svg width="42" height="41" viewBox="0 0 42 41" fill="none" xmlns="http://www.w3.org/2000/svg">
<ellipse cx="20.8156" cy="20.5" rx="20.8156" ry="20" fill="#0064FF"/>
<path d="M20.8155 24.25C22.971 24.25 24.7184 22.5711 24.7184 20.5C24.7184 18.4289 22.971 16.75 20.8155 16.75C18.66 16.75 16.9126 18.4289 16.9126 20.5C16.9126 22.5711 18.66 24.25 20.8155 24.25Z" stroke="white" stroke-width="2" stroke-miterlimit="10"/>
<path d="M25.1088 11.875H16.5224C13.9357 11.875 11.8389 13.8897 11.8389 16.375V24.625C11.8389 27.1103 13.9357 29.125 16.5224 29.125H25.1088C27.6954 29.125 29.7923 27.1103 29.7923 24.625V16.375C29.7923 13.8897 27.6954 11.875 25.1088 11.875Z" stroke="white" stroke-width="2" stroke-linecap="round" stroke-linejoin="round"/>
<path d="M25.8894 16.75C26.536 16.75 27.0603 16.2463 27.0603 15.625C27.0603 15.0037 26.536 14.5 25.8894 14.5C25.2427 14.5 24.7185 15.0037 24.7185 15.625C24.7185 16.2463 25.2427 16.75 25.8894 16.75Z" fill="white"/>
</svg>
