<svg width="32" height="32" viewBox="0 0 32 32" fill="none" xmlns="http://www.w3.org/2000/svg">
<rect width="32" height="32" rx="16" fill="#0064FF"/>
<path d="M20.4182 9.83043C19.1977 8.61 17.5989 8 16 8C14.4012 8 12.8015 8.61044 11.5819 9.83043C9.35167 12.0602 9.13347 15.6033 11.0732 18.0901L15.4864 23.7497C15.747 24.0834 16.2526 24.0834 16.5132 23.7497L20.9264 18.0901C22.8666 15.6033 22.6484 12.0602 20.4182 9.83043ZM16 16.722C14.6257 16.722 13.5114 15.6078 13.5114 14.2334C13.5114 12.859 14.6257 11.7452 16 11.7452C17.3744 11.7452 18.4887 12.859 18.4887 14.2334C18.4887 15.6078 17.3744 16.722 16 16.722Z" fill="white"/>
</svg>
