<svg width="32" height="34" viewBox="0 0 32 34" fill="none" xmlns="http://www.w3.org/2000/svg">
<rect width="32" height="33.166" rx="16" fill="#0064FF"/>
<path d="M18.1773 16.4204C20.6047 14.5635 22.7962 12.7018 23.8358 11.8025C23.965 11.6906 24.1661 11.7765 24.1753 11.9472C24.224 12.8966 24.2915 14.5741 24.2915 16.5834C24.2915 18.5927 24.224 20.2702 24.1753 21.2197C24.1666 21.3904 23.965 21.4762 23.8358 21.3643C22.7957 20.4641 20.6008 18.5995 18.1773 16.7464C18.0698 16.6644 18.0698 16.5024 18.1773 16.4204ZM23.4525 11.5846C22.1052 12.7471 19.1195 15.2685 16.1198 17.434C16.048 17.4856 15.9511 17.4856 15.8797 17.434C12.88 15.2685 9.89475 12.7471 8.54751 11.5846C8.40864 11.4645 8.48482 11.2364 8.66805 11.2244C9.95791 11.1395 12.4802 11.0117 15.9998 11.0117C19.5193 11.0117 22.0416 11.1395 23.3319 11.2244C23.5152 11.2364 23.5914 11.4645 23.4525 11.5846ZM8.16417 21.3643C8.03494 21.4762 7.83338 21.3904 7.8247 21.2197C7.776 20.2702 7.7085 18.5927 7.7085 16.5834C7.7085 14.5741 7.77648 12.8961 7.82519 11.9472C7.83387 11.7765 8.03542 11.6906 8.16465 11.8025C9.20377 12.7018 11.3958 14.5635 13.8231 16.4204C13.9307 16.5024 13.9307 16.6644 13.8231 16.7464C11.3997 18.5995 9.20521 20.4641 8.16465 21.3643H8.16417ZM8.54702 21.5818C9.65028 20.6295 11.8529 18.7653 14.2562 16.9374C14.329 16.8819 14.4302 16.8814 14.5035 16.9369C14.9587 17.2783 15.4187 17.6163 15.8787 17.9451C15.9149 17.9712 15.9573 17.9837 15.9993 17.9837C16.0412 17.9837 16.0841 17.9707 16.1198 17.9451C16.5793 17.6163 17.0398 17.2783 17.495 16.9369C17.5683 16.8819 17.6696 16.8819 17.7424 16.9374C20.1456 18.7658 22.3483 20.6295 23.4515 21.5818C23.5904 21.7019 23.5142 21.9299 23.331 21.942C22.0411 22.0269 19.5188 22.1546 15.9988 22.1546C12.4788 22.1546 9.95647 22.0269 8.66661 21.942C8.48338 21.9299 8.40719 21.7019 8.54606 21.5818H8.54702Z" fill="white"/>
</svg>
