<svg width="32" height="34" viewBox="0 0 32 34" fill="none" xmlns="http://www.w3.org/2000/svg">
<rect width="32" height="33.166" rx="16" fill="#0064FF"/>
<path d="M24.1537 22.8421L23.6659 23.7404C23.295 24.4235 22.586 24.8568 21.8088 24.8724C19.7994 24.9119 15.7832 24.4271 11.9712 20.6152C8.13654 16.7799 7.66073 12.7744 7.70807 10.7723C7.72664 9.99803 8.15931 9.29329 8.84008 8.92354L9.74497 8.43275C10.198 8.18645 10.7589 8.26795 11.1239 8.6329L13.5719 11.0809C14.0267 11.5357 14.0267 12.2728 13.5719 12.7277L13.0655 13.2335C12.8078 13.4911 12.7227 13.8759 12.8498 14.2175C13.1128 14.927 13.7259 16.1908 15.0605 17.526C16.3956 18.8612 17.6595 19.4736 18.369 19.7373C18.7106 19.8643 19.0953 19.7792 19.353 19.521L19.8594 19.0152C20.3142 18.5603 21.0513 18.5603 21.5062 19.0152L23.9542 21.4632C24.3185 21.8275 24.4 22.389 24.1543 22.8421H24.1537Z" fill="white"/>
</svg>
