<svg width="42" height="41" viewBox="0 0 42 41" fill="none" xmlns="http://www.w3.org/2000/svg">
<ellipse cx="21.0563" cy="20.5" rx="20.8156" ry="20" fill="#0064FF"/>
<path d="M13.2506 27.25C13.2506 27.25 17.1535 26.5 17.9341 24.25C17.9341 24.25 11.6894 22 13.2506 13.75C13.2506 13.75 16.3729 17.5 21.0564 18.25V16.7503C21.0565 15.8887 21.3653 15.0534 21.931 14.3848C22.4966 13.7162 23.2846 13.2552 24.1624 13.0791C25.0402 12.9031 25.9544 13.0228 26.7511 13.4181C27.5479 13.8135 28.1787 14.4603 28.5375 15.25L31.9846 15.25L28.8623 18.25C28.8623 23.5 24.9593 28.75 17.9341 28.75C14.8117 28.75 13.2506 27.25 13.2506 27.25Z" stroke="white" stroke-width="2" stroke-linecap="round" stroke-linejoin="round"/>
</svg>
