<?xml version="1.0" encoding="UTF-8"?>
<svg id="a" data-name="Layer 1" xmlns="http://www.w3.org/2000/svg" viewBox="0 0 103 103">
  <path d="m35.47,81.77c-3.11,0-6.23-.01-9.34.01-.53,0-.72-.06-.63-.67.6-4.05,1.14-8.1,1.72-12.15.4-2.81.62-5.65,1.31-8.41.87-3.49,2.44-6.56,5.66-8.46,4.47-2.64,11.57-2.58,15.7,3.19,1.42,1.98,2.24,4.24,3.18,6.44,1.54,3.58,3.06,7.18,4.58,10.77.12.29.25.48.61.51,3.16.29,6.32.59,9.48.91.53.05.61-.07.41-.55-.45-1.06-.85-2.13-1.27-3.2-.44-1.13-.01-2.19,1.03-2.59.99-.38,2.03.14,2.46,1.23.68,1.75,1.37,3.5,2.04,5.25.1.27.24.46.52.56,2.18.8,2.84,2.85,2.54,5.03-.28,2.06-1.85,3.47-3.92,3.68-1.52.15-3.05.03-4.57.03-4.26,0-8.53-.06-12.79.02-3.03.06-5.03-1.31-6.31-3.96-1.94-4.02-3.91-8.03-5.84-12.06-.23-.47-.44-.61-.94-.42-.62.23-1.28.39-1.93.52-.49.09-.55.26-.33.69,1.41,2.82,2.8,5.65,4.19,8.48.75,1.52,1.48,3.04,2.25,4.54.28.54.11.6-.4.6-3.13-.02-6.27,0-9.4,0Z" style="fill: #0064ff; stroke-width: 0px;"/>
  <path d="m50.01,49.61c-5.43-.08-9.97-3.94-10.81-9.25-.33-2.13-.07-4.21.85-6.17.24-.52.08-.64-.37-.75-.38-.1-.77-.22-1.12-.39-.92-.45-1.41-1.46-1.23-2.45.18-.99.92-1.73,1.94-1.84.39-.04.55-.19.68-.56,2.69-7.67,12.97-12.03,20.34-5.2,3.03,2.81,4.17,6.42,3.89,10.5-.08,1.17-.31,2.32-.7,3.43-.13.36,0,.47.3.58.99.37,1.86.99,2.63,1.67.69.61-.07,1.35-.21,2.01-.09.42-.57.43-.96.32-.44-.13-.87-.28-1.31-.42-.82-.26-1.64-.5-2.45-.78-.41-.14-.57-.16-.67.38-.94,5.17-5.6,9-10.81,8.92Zm-8.94-18.55c.16.07.21.11.27.13,6.16,1.94,12.32,3.89,18.48,5.82.8.25.78.23,1.05-.6.64-1.96.86-3.93.53-5.98-.73-4.46-4.4-7.84-8.95-8.16-4.09-.29-8.75,2.87-9.98,6.79-.25.8-.61,1.49-1.4,2Z" style="fill: #0064ff; stroke-width: 0px;"/>
  <path d="m77.19,74.5c-.48-.63-1-1.22-1.66-1.68-.33-.22-.05-.4.06-.57,1.73-2.73,3.47-5.46,5.21-8.19.43-.67.43-.67-.31-1-4.36-1.94-8.73-3.88-13.09-5.83-.38-.17-.56-.12-.79.24-2.35,3.72-4.72,7.43-7.16,11.27-.26-.78-.43-1.47-.73-2.11-.38-.78-.18-1.36.27-2.05,2.02-3.09,3.99-6.22,5.97-9.34.77-1.21,1.29-1.37,2.6-.79,5.36,2.38,10.72,4.76,16.07,7.15.95.42,1.16,1.05.61,1.9-2.3,3.63-4.62,7.25-6.93,10.88-.02.03-.06.06-.11.11Z" style="fill: #0064ff; stroke-width: 0px;"/>
</svg>