<svg width="42" height="32" viewBox="0 0 42 32" fill="none" xmlns="http://www.w3.org/2000/svg">
<path d="M15.7827 0.571201C16.7216 0.372932 17.6723 0.0930212 18.6347 0.0696953C19.3624 0.0580324 20.0783 0.291291 20.7826 0.489561C22.5196 0.991067 24.1158 1.79581 25.5829 2.85714C27.0383 3.9068 28.1415 5.28303 29.057 6.81087C31.017 10.0998 32.0381 13.692 32.625 17.4475C32.8362 18.8237 32.9653 20.2116 33.071 21.5878C33.0945 21.8677 33.1766 21.8561 33.3761 21.7278C33.7635 21.4945 34.1156 21.2263 34.4677 20.9463C34.6672 20.7947 34.7259 20.6198 34.7024 20.3865C34.5029 18.4271 34.2212 16.4794 33.7869 14.5667C33.2118 12.0475 32.402 9.59831 31.1931 7.30071C30.3715 5.73788 29.3974 4.29168 28.1298 3.05541C27.3669 2.30898 26.5218 1.67918 25.5946 1.16601C25.5125 1.11936 25.4068 1.1077 25.3482 0.956078C25.8881 1.08437 26.3927 1.28264 26.874 1.50424C29.7729 2.84547 31.909 4.97979 33.47 7.72058C35.0076 10.438 35.8057 13.3771 36.1812 16.4445C36.2634 17.1559 36.3456 17.8673 36.369 18.5788C36.369 18.8004 36.5099 18.9287 36.639 19.0803C37.8244 20.3165 39.045 21.5178 40.0779 22.8824C40.653 23.6405 41.1694 24.4336 41.4628 25.3433C41.8618 26.6029 41.5215 27.6992 40.4652 28.5039C39.4206 29.297 38.2 29.7402 36.9441 30.0434C35.0662 30.4983 33.2001 31.0115 31.287 31.338C29.7612 31.6063 28.2237 31.8162 26.6744 31.8978C24.3036 32.0145 21.9797 31.7929 19.738 30.9881C18.4469 30.5333 17.1911 30.0084 15.9118 29.5303C11.8743 28.0141 7.90728 26.3579 4.08108 24.3752C3.15388 23.8971 2.23841 23.3839 1.45204 22.6725C0.560043 21.8677 0.513096 21.098 1.29946 20.1766C1.71025 19.6984 2.14451 19.2669 2.6844 18.9403C2.88393 18.8237 2.94261 18.6604 2.95435 18.4271C3.14214 15.3598 3.6703 12.3624 4.86745 9.51667C6.05287 6.69424 7.82512 4.33833 10.4307 2.62388C10.8063 2.37896 11.1936 2.25066 11.6513 2.239C13.1302 2.20401 14.562 2.39062 15.9822 2.81048C17.3789 3.21869 18.4 4.08174 19.2333 5.21305C20.5009 6.95082 21.2755 8.92186 21.9328 10.9512C22.8482 13.7853 23.4116 16.701 23.8106 19.6401C24.0336 21.3196 24.2214 22.999 24.3036 24.6901C24.3153 25.0167 24.3505 25.3433 24.3623 25.6698C24.3623 25.8681 24.4562 25.9381 24.6557 25.8914C25.1486 25.7631 25.6533 25.6348 26.1463 25.5182C26.3106 25.4832 26.3693 25.3899 26.3575 25.215C26.1228 21.5295 25.6651 17.8673 24.8787 14.2518C24.3036 11.6277 23.5642 9.06182 22.4022 6.63593C21.745 5.2597 20.9586 3.97678 19.8906 2.88046C18.9164 1.87745 17.7427 1.21266 16.393 0.839449C16.1817 0.781134 15.9822 0.722819 15.7709 0.664505C15.7709 0.629516 15.7709 0.60619 15.7709 0.571201H15.7827Z" fill="#0064FF"/>
</svg>
