<svg width="375" height="472" viewBox="0 0 375 472" fill="none" xmlns="http://www.w3.org/2000/svg">
<g clip-path="url(#clip0_2147_1644)">
<path d="M222.069 296.203C218.166 308.534 220.618 322.791 230.714 330.961C234.628 334.118 240.227 336.998 245.285 336.239C249.23 335.645 252.326 332.037 250.804 327.732C249.23 323.304 244.57 322.822 240.922 324.544C236.007 326.861 232.696 332.293 231.797 337.797C230.06 348.386 238.439 357.528 248.607 355.284C252.336 354.454 257.762 350.999 255.903 346.131C253.941 340.985 247.769 342.635 244.335 344.808C236.119 350.015 231.194 362.377 235.261 371.96C239.338 381.565 252.03 385.562 260.348 379.658C263.239 377.608 266.07 372.965 262.749 369.839C259.673 366.948 255.208 368.701 252.909 371.673C245.633 381.083 250.681 397.237 259.622 403.182C264.323 406.308 270.168 407.364 275.604 406.298C280.049 405.427 285.271 402.362 285.25 396.878C285.25 392.645 281.439 390.8 277.934 391.938C273.295 393.444 271.384 399.072 271.465 403.787C271.66 415.881 282.256 424.02 293.19 421.088C297.727 419.869 303.143 416.486 303.991 411.136C304.665 406.841 301.15 404.289 297.41 405.273C292.546 406.554 290.635 412.15 290.666 416.968C290.697 422.759 292.975 428.581 296.879 432.64C300.874 436.802 306.454 438.821 312.023 438.585C317.204 438.37 323.856 436.279 326.421 431C328.219 427.279 327.259 422.154 322.844 421.529C317.96 420.842 314.393 425.568 312.82 429.873C309.346 439.333 313.147 451.459 322.17 455.682C326.216 457.578 332.082 457.927 335.086 453.817C337.365 450.69 336.813 445.811 333.829 443.403C329.68 440.071 323.876 442.419 320.382 445.627C316.253 449.419 312.595 455.313 312.094 461.166C311.706 465.676 313.78 471.129 318.471 471.918C322.047 472.512 326.37 469.97 326.911 465.952C327.443 461.996 324.183 458.685 320.545 459.659C319.707 459.885 320.065 461.268 320.903 461.043C325.399 459.844 326.697 465.819 324.162 468.546C322.967 469.837 321.158 470.596 319.441 470.565C313.75 470.442 312.728 463.072 313.923 458.562C315.742 451.705 324.357 439.364 332.358 444.1C337.447 447.113 334.841 454.309 329.905 455.416C326.165 456.256 322.057 454.575 319.206 452.064C314.22 447.677 311.972 440.276 313.208 433.593C313.934 429.698 315.906 425.117 319.564 423.497C322.865 422.042 326.594 424.235 325.869 428.397C325.389 431.123 323.365 433.142 321.209 434.485C313.995 438.985 303.848 437.806 297.86 431.615C292.853 426.429 288.939 414.58 294.753 408.45C296.46 406.657 299.199 405.724 301.232 407.302C303.889 409.352 302.407 412.806 300.619 414.99C297.758 418.475 293.047 420.186 288.765 420.279C280.672 420.463 274.071 414.241 272.998 405.806C272.477 401.737 273.213 396.642 276.677 394.172C278.567 392.829 281.899 392.184 283.401 394.695C285.076 397.493 282.747 401.183 280.621 402.741C274.061 407.579 263.607 405.324 257.926 400.056C252.009 394.572 249.506 384.906 251.846 376.942C252.98 373.108 256.986 367.512 261.329 370.495C264.404 372.606 262.064 376.491 259.97 378.131C258.253 379.474 256.219 380.273 254.114 380.663C247.544 381.893 240.309 378.756 237.019 372.483C233.677 366.118 235.22 358.031 238.93 352.25C240.892 349.185 243.569 346.592 246.788 345.095C249.465 343.855 257.19 343.65 254.4 349.862C253.368 352.168 250.446 353.418 248.249 353.88C239.134 355.807 231.613 347.699 233.105 338.156C233.8 333.687 236.181 329.3 239.798 326.799C241.699 325.487 244.427 324.37 246.716 325.231C250.354 326.584 250.865 332.016 247.452 334.025C243.64 336.27 238.204 334.005 234.74 331.996C231.255 329.977 228.251 327.096 226.024 323.622C220.914 315.637 220.536 305.5 223.377 296.552C223.663 295.67 222.355 295.301 222.069 296.172V296.203Z" fill="#D1EDFF"/>
<path d="M374.253 229.189L375.009 85.7511C375.009 85.5154 374.999 85.2796 374.999 85.0336C374.856 49.948 347.951 22.0682 314.597 22.6422L310.714 22.7037L310.285 20.3052C309.028 13.161 302.682 8.48698 295.908 9.49147C295.621 9.53247 295.335 9.57347 295.049 9.62472C288.847 10.988 284.493 16.7382 284.381 23.1444L276.114 23.2777L275.665 20.7357C274.408 13.5915 268.062 8.91747 261.287 9.92197C261.001 9.96297 260.715 10.004 260.439 10.0552C254.185 11.4287 249.822 17.2609 249.781 23.7184L241.105 23.8619L240.625 21.1662C239.358 14.0219 233.023 9.34797 226.248 10.3525C225.962 10.3935 225.676 10.4345 225.4 10.4857C219.095 11.8695 214.721 17.7734 214.731 24.3026L206.076 24.4564L205.576 21.6069C204.309 14.4627 197.973 9.78872 191.198 10.7932C190.912 10.8342 190.626 10.8752 190.35 10.9265C184.004 12.3205 179.61 18.3064 179.692 24.8869L171.057 25.0304L170.526 22.0374C169.259 14.8932 162.923 10.2192 156.149 11.2237C155.862 11.2647 155.576 11.3057 155.3 11.357C148.904 12.7612 144.489 18.8292 144.642 25.4609L136.028 25.6044L135.466 22.4679C134.209 15.3237 127.864 10.6497 121.089 11.6542C120.803 11.6952 120.517 11.7362 120.241 11.7875C113.803 13.202 109.368 19.3519 109.593 26.0451L100.999 26.1886L100.406 22.9087C99.1495 15.7644 92.8038 11.0905 86.0289 12.095C85.7428 12.136 85.4567 12.177 85.1808 12.2282C78.692 13.653 74.2367 19.8849 74.5433 26.6294L70.2617 26.7011C36.9186 27.2649 9.70666 56.0775 9.19573 91.1631C9.19573 91.3988 9.17529 91.6448 9.17529 91.8806L8.41912 235.318C8.21475 275.314 35.2326 307.263 68.7903 306.689L313.146 302.517C346.704 301.943 374.059 269.061 374.263 229.066V229.138L374.253 229.189Z" fill="#D1EDFF"/>
<path d="M306.188 13.2737L61.8316 17.4454C28.4885 18.0194 1.27655 46.832 0.765625 81.9176L366.589 75.6651C366.446 40.5796 339.541 12.6997 306.188 13.2737Z" fill="#AEE0FF"/>
<path d="M49.2316 295.65C20.9365 289.776 0.540277 260.503 0.713992 226.052L1.45995 82.6556L365.884 76.4339L365.138 219.831C364.933 259.344 337.834 291.949 304.726 292.523L60.3698 296.695C56.6196 296.757 52.8694 296.408 49.2214 295.65H49.2316Z" fill="white"/>
<path d="M365.169 77.2027L364.423 219.851C364.219 258.945 337.446 291.211 304.737 291.765L60.3806 295.937C56.6815 295.998 52.9824 295.66 49.3752 294.912C21.4275 289.11 1.25612 260.154 1.44005 226.052L2.18601 83.4039L365.169 77.2027ZM366.589 75.6652L0.775847 81.9176C0.775847 82.1534 0.75541 82.3994 0.75541 82.6351L-0.000762175 226.073C-0.184696 261.456 20.9575 290.555 49.0789 296.388C52.7371 297.146 56.518 297.515 60.3806 297.443L304.737 293.272C338.284 292.698 365.649 259.816 365.854 219.82L366.61 76.3827C366.61 76.1469 366.6 75.9112 366.6 75.6652H366.589Z" fill="#D1EDFF"/>
<path d="M86.5188 92.393C90.4018 93.2028 93.2017 96.821 93.1711 101.024L93.0893 115.64C93.0587 120.57 89.2369 124.65 84.5671 124.721L70.7107 124.957C70.118 124.967 69.5151 124.906 68.9327 124.793C65.0496 123.983 62.2498 120.365 62.2804 116.163L62.3622 101.546C62.3622 99.158 63.2716 96.903 64.8759 95.181C66.4802 93.459 68.6261 92.4955 70.8844 92.4648L84.7408 92.2291C85.3334 92.2188 85.9363 92.2803 86.5188 92.393ZM86.8253 90.9171C86.1611 90.7838 85.4663 90.7121 84.751 90.7223L70.8946 90.9581C65.4277 91.0503 60.9622 95.8063 60.9316 101.577L60.8498 116.193C60.8192 121.216 64.1606 125.347 68.6261 126.279C69.2903 126.413 69.9852 126.484 70.7005 126.474L84.5568 126.238C90.0238 126.146 94.4893 121.39 94.5199 115.619L94.6017 101.003C94.6323 95.9805 91.2909 91.8498 86.8253 90.9171Z" fill="#D1EDFF"/>
<path d="M129.478 91.6551C133.361 92.4648 136.161 96.083 136.13 100.286L136.048 114.902C136.018 119.832 132.196 123.912 127.526 123.983L113.67 124.219C113.077 124.229 112.474 124.168 111.892 124.055C108.009 123.245 105.209 119.627 105.239 115.425L105.321 100.808C105.321 98.42 106.231 96.1651 107.835 94.4431C109.449 92.7211 111.585 91.7576 113.843 91.7268L127.7 91.4911C128.292 91.4808 128.895 91.5423 129.478 91.6551ZM129.784 90.1791C129.12 90.0458 128.425 89.9741 127.71 89.9843L113.854 90.2201C108.376 90.3123 103.921 95.0683 103.891 100.839L103.809 115.455C103.778 120.478 107.12 124.609 111.595 125.541C112.26 125.675 112.954 125.746 113.67 125.736L127.526 125.5C133.003 125.408 137.458 120.652 137.489 114.881L137.571 100.265C137.602 95.2426 134.26 91.1118 129.795 90.1791H129.784Z" fill="#D1EDFF"/>
<path d="M172.427 90.9273C176.31 91.7371 179.11 95.3553 179.079 99.5578L178.998 114.174C178.998 116.562 178.088 118.817 176.484 120.539C174.869 122.261 172.734 123.225 170.475 123.256L156.619 123.491C156.026 123.502 155.423 123.44 154.851 123.327C150.968 122.518 148.168 118.899 148.199 114.697L148.281 100.081C148.311 95.1503 152.133 91.0708 156.803 90.9991L170.659 90.7633C171.252 90.7531 171.855 90.8146 172.437 90.9376L172.427 90.9273ZM172.734 89.4513C172.069 89.3181 171.374 89.2463 170.659 89.2566L156.803 89.4923C151.336 89.5846 146.87 94.3406 146.84 100.111L146.758 114.728C146.727 119.75 150.069 123.881 154.534 124.814C155.199 124.947 155.893 125.019 156.609 125.008L170.465 124.773C175.932 124.68 180.397 119.924 180.428 114.154L180.51 99.5373C180.541 94.5148 177.199 90.3841 172.734 89.4513Z" fill="#D1EDFF"/>
<path d="M215.364 90.1791C219.248 90.9888 222.047 94.6071 222.017 98.8096L221.935 113.426C221.935 115.814 221.026 118.069 219.421 119.791C217.807 121.513 215.671 122.477 213.413 122.507L199.556 122.743C198.964 122.753 198.361 122.692 197.778 122.579C193.895 121.769 191.095 118.151 191.126 113.949L191.208 99.3323C191.208 96.9441 192.117 94.6891 193.722 92.9671C195.326 91.2451 197.472 90.2816 199.73 90.2508L213.586 90.0151C214.179 90.0048 214.782 90.0663 215.364 90.1791ZM215.671 88.7031C215.007 88.5699 214.312 88.4981 213.597 88.5084L199.74 88.7441C194.273 88.8364 189.808 93.5923 189.777 99.3631L189.696 113.979C189.665 119.002 193.006 123.133 197.472 124.065C198.136 124.199 198.831 124.27 199.546 124.26L213.403 124.024C218.869 123.932 223.335 119.176 223.366 113.405L223.447 98.7891C223.478 93.7666 220.137 89.6358 215.671 88.7031Z" fill="#D1EDFF"/>
<path d="M258.314 89.4513C262.197 90.2611 264.997 93.8793 264.966 98.0818L264.884 112.698C264.884 115.086 263.975 117.341 262.37 119.063C260.766 120.785 258.62 121.749 256.362 121.78L242.506 122.015C241.913 122.026 241.31 121.964 240.728 121.851C236.845 121.042 234.045 117.423 234.075 113.221L234.157 98.6045C234.157 96.2163 235.067 93.9613 236.671 92.2393C238.285 90.5173 240.421 89.5538 242.679 89.5231L256.536 89.2873C257.128 89.2771 257.731 89.3386 258.314 89.4513ZM258.62 87.9753C257.956 87.8421 257.261 87.7703 256.546 87.7806L242.69 88.0163C237.212 88.1086 232.757 92.8645 232.726 98.6353L232.645 113.252C232.614 118.274 235.956 122.405 240.431 123.338C241.095 123.471 241.79 123.543 242.506 123.532L256.362 123.297C261.839 123.204 266.294 118.448 266.325 112.678L266.407 98.0613C266.437 93.0388 263.096 88.9081 258.63 87.9753H258.62Z" fill="#D1EDFF"/>
<path d="M301.273 88.7133C305.156 89.5231 307.956 93.1413 307.925 97.3438L307.843 111.96C307.813 116.89 303.991 120.97 299.321 121.042L285.465 121.277C284.872 121.288 284.269 121.226 283.697 121.113C279.814 120.304 277.014 116.685 277.045 112.483L277.126 97.8665C277.126 95.4783 278.036 93.2233 279.64 91.5013C281.244 89.7793 283.39 88.8158 285.649 88.7851L299.505 88.5493C300.098 88.5391 300.7 88.6006 301.283 88.7133H301.273ZM301.579 87.2373C300.915 87.1041 300.22 87.0323 299.505 87.0426L285.649 87.2783C280.182 87.3706 275.716 92.1266 275.685 97.8973L275.604 112.514C275.573 117.536 278.915 121.667 283.38 122.6C284.044 122.733 284.739 122.805 285.454 122.794L299.311 122.559C304.778 122.466 309.243 117.71 309.274 111.94L309.356 97.3233C309.386 92.3008 306.045 88.1701 301.579 87.2373Z" fill="#D1EDFF"/>
<path d="M344.222 87.9856C348.105 88.7953 350.905 92.4136 350.874 96.616L350.792 111.232C350.792 113.621 349.883 115.876 348.279 117.598C346.664 119.32 344.528 120.283 342.27 120.314L328.414 120.55C327.821 120.56 327.218 120.498 326.636 120.386C322.753 119.576 319.953 115.958 319.984 111.755L320.065 97.1388C320.096 92.2086 323.918 88.1291 328.588 88.0573L342.444 87.8216C343.037 87.8113 343.639 87.8728 344.222 87.9856ZM344.528 86.5096C343.864 86.3763 343.169 86.3046 342.454 86.3148L328.598 86.5506C323.131 86.6428 318.665 91.3988 318.635 97.1695L318.553 111.786C318.522 116.808 321.864 120.939 326.329 121.872C326.993 122.005 327.688 122.077 328.404 122.067L342.26 121.831C347.727 121.739 352.192 116.983 352.223 111.212L352.305 96.5955C352.335 91.5731 348.994 87.4423 344.528 86.5096Z" fill="#D1EDFF"/>
<path d="M43.5715 93.1208C47.4546 93.9305 50.2544 97.5488 50.2238 101.751L50.142 116.368C50.142 118.756 49.2326 121.011 47.6283 122.733C46.024 124.455 43.8781 125.418 41.6198 125.449L27.7634 125.685C27.1708 125.695 26.5679 125.634 25.9854 125.521C22.1024 124.711 19.3025 121.093 19.3331 116.89L19.4149 102.274C19.4456 97.3438 23.2673 93.2643 27.9372 93.1926L41.7935 92.9568C42.3862 92.9466 42.9891 93.0081 43.5613 93.1208H43.5715ZM43.8781 91.6448C43.2139 91.5116 42.519 91.4398 41.8037 91.4501L27.9474 91.6858C22.4702 91.7781 18.015 96.534 17.9843 102.305L17.9026 116.921C17.8719 121.944 21.2134 126.074 25.6789 127.007C26.3431 127.14 27.0379 127.212 27.7532 127.202L41.6096 126.966C47.0867 126.874 51.542 122.118 51.5726 116.347L51.6544 101.731C51.685 96.7083 48.3436 92.5776 43.8679 91.6448H43.8781Z" fill="#D1EDFF"/>
<path d="M86.2942 136.909C90.1772 137.718 92.9771 141.337 92.9464 145.539L92.8647 160.155C92.8647 162.544 91.9552 164.799 90.3509 166.521C88.7364 168.243 86.6007 169.206 84.3424 169.237L70.4861 169.473C69.8934 169.483 69.2905 169.421 68.7183 169.309C64.8352 168.499 62.0354 164.881 62.066 160.678L62.1478 146.062C62.1478 143.674 63.0572 141.419 64.6615 139.697C66.2658 137.975 68.4117 137.011 70.67 136.98L84.5264 136.745C85.119 136.734 85.7219 136.796 86.3044 136.909H86.2942ZM86.6007 135.433C85.9365 135.299 85.2417 135.228 84.5264 135.238L70.67 135.474C65.2031 135.566 60.7376 140.322 60.707 146.093L60.6252 160.709C60.5946 165.731 63.936 169.862 68.4015 170.795C69.0657 170.928 69.7606 171 70.4759 170.99L84.3322 170.754C89.7991 170.662 94.2646 165.906 94.2953 160.135L94.377 145.519C94.4077 140.496 91.0662 136.365 86.6007 135.433Z" fill="#D1EDFF"/>
<path d="M129.243 136.181C133.126 136.991 135.926 140.609 135.896 144.811L135.814 159.428C135.814 161.816 134.904 164.071 133.3 165.793C131.696 167.515 129.55 168.478 127.292 168.509L113.435 168.745C112.843 168.755 112.24 168.694 111.657 168.581C107.774 167.771 104.974 164.153 105.005 159.951L105.087 145.334C105.087 142.946 105.996 140.691 107.601 138.969C109.215 137.247 111.351 136.283 113.609 136.253L127.465 136.017C128.058 136.007 128.661 136.068 129.243 136.181ZM129.55 134.705C128.886 134.572 128.191 134.5 127.476 134.51L113.619 134.746C108.142 134.838 103.687 139.594 103.656 145.365L103.574 159.981C103.544 165.004 106.885 169.134 111.361 170.067C112.025 170.2 112.72 170.272 113.435 170.262L127.292 170.026C132.769 169.934 137.224 165.178 137.255 159.407L137.336 144.791C137.367 139.768 134.026 135.638 129.56 134.705H129.55Z" fill="#D1EDFF"/>
<path d="M172.181 135.443C176.064 136.253 178.864 139.871 178.833 144.073L178.751 158.69C178.721 163.62 174.899 167.699 170.229 167.771L156.373 168.007C155.78 168.017 155.177 167.956 154.595 167.843C150.712 167.033 147.912 163.415 147.943 159.212L148.024 144.596C148.055 139.666 151.877 135.586 156.547 135.515L170.403 135.279C170.996 135.269 171.598 135.33 172.171 135.443H172.181ZM172.487 133.967C171.823 133.834 171.128 133.762 170.413 133.772L156.557 134.008C151.08 134.1 146.624 138.856 146.594 144.627L146.512 159.243C146.481 164.266 149.823 168.396 154.298 169.329C154.963 169.462 155.658 169.534 156.373 169.524L170.229 169.288C175.706 169.196 180.162 164.44 180.192 158.669L180.274 144.053C180.305 139.03 176.963 134.9 172.487 133.967Z" fill="#D1EDFF"/>
<path d="M215.14 134.715C219.023 135.525 221.823 139.143 221.792 143.346L221.71 157.962C221.71 160.35 220.801 162.605 219.197 164.327C217.582 166.049 215.446 167.013 213.188 167.043L199.332 167.279C198.739 167.289 198.136 167.228 197.564 167.115C193.681 166.305 190.881 162.687 190.912 158.485L190.993 143.868C190.993 141.48 191.903 139.225 193.507 137.503C195.112 135.781 197.257 134.818 199.516 134.787L213.372 134.551C213.965 134.541 214.568 134.602 215.15 134.715H215.14ZM215.446 133.239C214.782 133.106 214.087 133.034 213.372 133.044L199.516 133.28C194.049 133.372 189.583 138.128 189.553 143.899L189.471 158.516C189.44 163.538 192.782 167.669 197.247 168.601C197.911 168.735 198.606 168.806 199.322 168.796L213.178 168.56C218.645 168.468 223.11 163.712 223.141 157.942L223.223 143.325C223.253 138.303 219.912 134.172 215.446 133.239Z" fill="#D1EDFF"/>
<path d="M258.089 133.977C261.972 134.787 264.772 138.405 264.741 142.608L264.66 157.224C264.629 162.154 260.807 166.234 256.137 166.305L242.281 166.541C241.688 166.551 241.085 166.49 240.503 166.377C236.62 165.567 233.82 161.949 233.851 157.747L233.932 143.13C233.932 140.742 234.842 138.487 236.446 136.765C238.061 135.043 240.196 134.08 242.455 134.049L256.311 133.813C256.904 133.803 257.507 133.864 258.089 133.977ZM258.396 132.501C257.731 132.368 257.037 132.296 256.321 132.306L242.465 132.542C236.988 132.634 232.533 137.39 232.502 143.161L232.42 157.778C232.389 162.8 235.731 166.931 240.207 167.863C240.871 167.997 241.566 168.068 242.281 168.058L256.137 167.822C261.604 167.73 266.07 162.974 266.1 157.204L266.182 142.587C266.213 137.565 262.871 133.434 258.406 132.501H258.396Z" fill="#D1EDFF"/>
<path d="M299.27 131.568L285.414 131.804C279.937 131.896 275.482 136.652 275.451 142.423L275.369 157.04C275.369 158.905 275.819 160.647 276.626 162.144L301.028 131.702C300.456 131.599 299.863 131.548 299.26 131.558L299.27 131.568Z" fill="#4F647B"/>
<path d="M301.558 133.383C305.165 134.397 307.73 137.872 307.7 141.88L307.618 156.496C307.587 161.426 303.765 165.506 299.096 165.578L285.239 165.813C284.647 165.824 284.044 165.762 283.461 165.649C281.417 165.229 279.609 163.999 278.393 162.246L301.548 133.383M301.333 131.784L301.027 131.722L276.625 162.165C277.984 164.706 280.355 166.562 283.155 167.146C283.819 167.279 284.514 167.351 285.219 167.33L299.075 167.095C304.552 167.002 309.008 162.247 309.038 156.476L309.12 141.859C309.151 136.837 305.809 132.716 301.333 131.784Z" fill="#D1EDFF"/>
<path d="M343.986 132.511C347.869 133.321 350.669 136.939 350.638 141.142L350.556 155.758C350.556 158.147 349.647 160.401 348.042 162.123C346.428 163.845 344.292 164.809 342.034 164.84L328.177 165.075C327.585 165.086 326.982 165.024 326.41 164.911C322.527 164.102 319.727 160.483 319.757 156.281L319.839 141.665C319.839 139.276 320.749 137.021 322.353 135.299C323.957 133.577 326.103 132.614 328.361 132.583L342.218 132.347C342.81 132.337 343.413 132.399 343.996 132.522L343.986 132.511ZM344.292 131.035C343.628 130.902 342.933 130.83 342.218 130.841L328.361 131.076C322.895 131.169 318.429 135.925 318.398 141.695L318.317 156.312C318.286 161.334 321.627 165.465 326.093 166.398C326.757 166.531 327.452 166.603 328.167 166.592L342.024 166.357C347.491 166.264 351.956 161.508 351.987 155.738L352.068 141.121C352.099 136.099 348.758 131.968 344.292 131.035Z" fill="#D1EDFF"/>
<path d="M43.3469 137.647C47.23 138.456 50.0298 142.075 49.9992 146.277L49.9174 160.894C49.8868 165.824 46.065 169.903 41.3952 169.975L27.5388 170.211C26.9462 170.221 26.3433 170.159 25.7608 170.047C21.8778 169.237 19.0779 165.619 19.1085 161.416L19.1903 146.8C19.2209 141.87 23.0427 137.79 27.7126 137.718L41.5689 137.483C42.1616 137.472 42.7645 137.534 43.3367 137.647H43.3469ZM43.6535 136.171C42.9893 136.037 42.2944 135.966 41.5791 135.976L27.7228 136.212C22.2456 136.304 17.7903 141.06 17.7597 146.831L17.6779 161.447C17.6473 166.469 20.9888 170.6 25.4543 171.533C26.1185 171.666 26.8133 171.738 27.5286 171.728L41.385 171.492C46.8621 171.4 51.3174 166.644 51.348 160.873L51.4298 146.257C51.4604 141.234 48.119 137.103 43.6433 136.171H43.6535Z" fill="#D1EDFF"/>
<path d="M84.4973 181.465C88.3804 182.275 91.1802 185.893 91.1496 190.096L91.0678 204.712C91.0372 209.642 87.2154 213.722 82.5456 213.794L68.6892 214.029C68.0966 214.04 67.4937 213.978 66.9214 213.865C63.0384 213.056 60.2385 209.437 60.2691 205.235L60.3509 190.618C60.3816 185.688 64.2033 181.609 68.8732 181.537L82.7295 181.301C83.3222 181.291 83.9251 181.352 84.5075 181.465H84.4973ZM84.8039 179.989C84.1397 179.856 83.4448 179.784 82.7295 179.794L68.8732 180.03C63.4062 180.122 58.9407 184.878 58.9101 190.649L58.8283 205.266C58.7977 210.288 62.1391 214.419 66.6046 215.352C67.2688 215.485 67.9637 215.556 68.679 215.546L82.5353 215.31C88.0023 215.218 92.4678 210.462 92.4984 204.692L92.5802 190.075C92.6108 185.053 89.2694 180.922 84.8039 179.989Z" fill="#D1EDFF"/>
<path d="M127.435 180.727C131.318 181.537 134.118 185.155 134.087 189.358L134.005 203.974C134.005 206.362 133.096 208.617 131.492 210.339C129.877 212.061 127.741 213.025 125.483 213.055L111.627 213.291C111.034 213.301 110.431 213.24 109.849 213.117C105.966 212.307 103.166 208.689 103.196 204.487L103.278 189.87C103.278 187.482 104.188 185.227 105.792 183.505C107.396 181.783 109.542 180.819 111.8 180.789L125.657 180.553C126.249 180.543 126.852 180.604 127.435 180.727ZM127.741 179.251C127.077 179.118 126.382 179.046 125.667 179.056L111.811 179.292C106.344 179.384 101.878 184.14 101.848 189.911L101.766 204.528C101.735 209.55 105.077 213.681 109.542 214.613C110.206 214.747 110.901 214.818 111.617 214.808L125.473 214.572C130.94 214.48 135.405 209.724 135.436 203.954L135.518 189.337C135.548 184.315 132.207 180.184 127.741 179.251Z" fill="#D1EDFF"/>
<path d="M170.384 179.989C174.267 180.799 177.067 184.417 177.036 188.62L176.955 203.236C176.955 205.624 176.045 207.879 174.441 209.601C172.836 211.323 170.691 212.287 168.432 212.317L154.576 212.553C153.983 212.563 153.38 212.502 152.798 212.379C148.915 211.569 146.115 207.951 146.146 203.749L146.227 189.132C146.227 186.744 147.137 184.489 148.741 182.767C150.356 181.045 152.491 180.081 154.75 180.051L168.606 179.815C169.199 179.805 169.802 179.866 170.384 179.989ZM170.691 178.513C170.026 178.38 169.332 178.308 168.616 178.318L154.76 178.554C149.283 178.646 144.827 183.402 144.797 189.173L144.715 203.79C144.684 208.812 148.026 212.943 152.502 213.875C153.166 214.009 153.861 214.08 154.576 214.07L168.432 213.834C173.909 213.742 178.365 208.986 178.395 203.216L178.477 188.599C178.508 183.577 175.166 179.446 170.701 178.513H170.691Z" fill="#D1EDFF"/>
<path d="M213.331 179.261C217.214 180.071 220.014 183.689 219.984 187.892L219.902 202.508C219.902 204.897 218.992 207.152 217.388 208.874C215.784 210.596 213.638 211.559 211.38 211.59L197.523 211.826C196.931 211.836 196.328 211.774 195.755 211.661C191.872 210.852 189.072 207.234 189.103 203.031L189.185 188.415C189.216 183.484 193.037 179.405 197.707 179.333L211.563 179.097C212.156 179.087 212.759 179.149 213.342 179.261H213.331ZM213.638 177.785C212.974 177.652 212.279 177.58 211.563 177.591L197.707 177.826C192.24 177.919 187.775 182.675 187.744 188.445L187.662 203.062C187.632 208.084 190.973 212.215 195.439 213.148C196.103 213.281 196.798 213.353 197.513 213.342L211.369 213.107C216.836 213.014 221.302 208.259 221.332 202.488L221.414 187.871C221.445 182.849 218.103 178.718 213.638 177.785Z" fill="#D1EDFF"/>
<path d="M257.446 176.812L237.744 177.15C233.882 177.211 230.735 180.573 230.714 184.643L230.602 205.409C230.581 209.478 233.698 212.728 237.56 212.666L257.262 212.328C261.124 212.266 264.272 208.904 264.292 204.835L264.405 184.069C264.425 179.999 261.308 176.75 257.446 176.812Z" fill="url(#paint0_linear_2147_1644)"/>
<path d="M299.23 177.796C303.113 178.605 305.913 182.224 305.882 186.426L305.8 201.043C305.8 203.431 304.891 205.686 303.286 207.408C301.682 209.13 299.536 210.093 297.278 210.124L283.422 210.36C282.829 210.37 282.226 210.309 281.644 210.196C277.761 209.386 274.961 205.768 274.991 201.565L275.073 186.949C275.073 184.561 275.983 182.306 277.587 180.584C279.201 178.862 281.337 177.898 283.595 177.867L297.452 177.632C298.044 177.621 298.647 177.683 299.23 177.796ZM299.536 176.32C298.872 176.186 298.177 176.115 297.462 176.125L283.606 176.361C278.128 176.453 273.673 181.209 273.643 186.98L273.561 201.596C273.53 206.619 276.872 210.749 281.347 211.682C282.011 211.815 282.706 211.887 283.422 211.877L297.278 211.641C302.755 211.549 307.21 206.793 307.241 201.022L307.323 186.406C307.353 181.383 304.012 177.252 299.547 176.32H299.536Z" fill="#D1EDFF"/>
<path d="M342.187 177.058C346.07 177.867 348.87 181.486 348.839 185.688L348.757 200.305C348.757 202.693 347.848 204.948 346.244 206.67C344.639 208.392 342.493 209.355 340.235 209.386L326.379 209.622C325.786 209.632 325.183 209.571 324.611 209.458C320.728 208.648 317.928 205.03 317.959 200.827L318.04 186.211C318.071 181.281 321.893 177.201 326.563 177.129L340.419 176.894C341.012 176.883 341.615 176.945 342.197 177.058H342.187ZM342.493 175.582C341.829 175.448 341.134 175.377 340.419 175.387L326.563 175.623C321.096 175.715 316.63 180.471 316.6 186.242L316.518 200.858C316.487 205.881 319.829 210.011 324.294 210.944C324.958 211.077 325.653 211.149 326.368 211.139L340.225 210.903C345.702 210.811 350.157 206.055 350.188 200.284L350.27 185.668C350.3 180.645 346.959 176.514 342.493 175.582Z" fill="#D1EDFF"/>
<path d="M41.5383 182.203C45.4214 183.013 48.2213 186.631 48.1906 190.834L48.1089 205.45C48.1089 207.838 47.1994 210.093 45.5951 211.815C43.9908 213.537 41.8449 214.501 39.5866 214.531L25.7302 214.767C25.1376 214.777 24.5347 214.716 23.9522 214.603C20.0692 213.793 17.2693 210.175 17.2999 205.973L17.3817 191.356C17.3817 188.968 18.2911 186.713 19.8955 184.991C21.51 183.269 23.6457 182.306 25.904 182.275L39.7603 182.039C40.353 182.029 40.9559 182.09 41.5281 182.203H41.5383ZM41.8449 180.727C41.1807 180.594 40.4858 180.522 39.7705 180.532L25.9142 180.768C20.437 180.86 15.9818 185.616 15.9511 191.387L15.8693 206.004C15.8387 211.026 19.1802 215.157 23.6559 216.089C24.3201 216.223 25.0149 216.294 25.7302 216.284L39.5866 216.048C45.0637 215.956 49.519 211.2 49.5497 205.43L49.6314 190.813C49.6621 185.791 46.3206 181.66 41.8449 180.727Z" fill="#D1EDFF"/>
<path d="M84.2512 225.991C88.1343 226.801 90.9341 230.419 90.9035 234.621L90.8217 249.238C90.7911 254.168 86.9693 258.248 82.2995 258.319L68.4431 258.555C67.8505 258.565 67.2476 258.504 66.6651 258.391C62.7821 257.581 59.9822 253.963 60.0128 249.761L60.0946 235.144C60.0946 232.756 61.004 230.501 62.6083 228.779C64.2229 227.057 66.3585 226.093 68.6168 226.063L82.4732 225.827C83.0659 225.817 83.6688 225.878 84.241 225.991H84.2512ZM84.5578 224.515C83.8936 224.382 83.1987 224.31 82.4834 224.32L68.6271 224.556C63.1499 224.648 58.6946 229.404 58.664 235.175L58.5822 249.791C58.5516 254.814 61.893 258.944 66.3585 259.877C67.0228 260.01 67.7176 260.082 68.4329 260.072L82.2892 259.836C87.7664 259.744 92.2217 254.988 92.2523 249.217L92.3341 234.601C92.3647 229.578 89.0233 225.448 84.5475 224.515H84.5578Z" fill="#D1EDFF"/>
<path d="M127.21 225.253C131.093 226.063 133.893 229.681 133.862 233.883L133.781 248.5C133.781 250.888 132.871 253.143 131.267 254.865C129.652 256.587 127.517 257.551 125.258 257.581L111.402 257.817C110.809 257.827 110.207 257.766 109.634 257.653C105.751 256.843 102.951 253.225 102.982 249.023L103.064 234.406C103.064 232.018 103.973 229.763 105.578 228.041C107.182 226.319 109.328 225.355 111.586 225.325L125.442 225.089C126.035 225.079 126.638 225.14 127.22 225.253H127.21ZM127.517 223.777C126.853 223.644 126.158 223.572 125.442 223.582L111.586 223.818C106.119 223.91 101.654 228.666 101.623 234.437L101.541 249.053C101.511 254.076 104.852 258.207 109.318 259.139C109.982 259.273 110.677 259.344 111.392 259.334L125.248 259.098C130.715 259.006 135.181 254.25 135.211 248.479L135.293 233.863C135.324 228.84 131.982 224.71 127.517 223.777Z" fill="#D1EDFF"/>
<path d="M170.157 224.525C174.041 225.335 176.84 228.953 176.81 233.156L176.728 247.772C176.728 250.16 175.819 252.415 174.214 254.137C172.61 255.859 170.464 256.823 168.206 256.854L154.349 257.089C153.757 257.1 153.154 257.038 152.571 256.925C148.688 256.116 145.888 252.497 145.919 248.295L146.001 233.678C146.001 231.29 146.91 229.035 148.515 227.313C150.129 225.591 152.265 224.628 154.523 224.597L168.379 224.361C168.972 224.351 169.575 224.412 170.157 224.525ZM170.464 223.049C169.8 222.916 169.105 222.844 168.39 222.854L154.533 223.09C149.056 223.182 144.601 227.938 144.57 233.709L144.488 248.326C144.458 253.348 147.799 257.479 152.275 258.412C152.939 258.545 153.634 258.617 154.349 258.606L168.206 258.371C173.673 258.278 178.138 253.522 178.169 247.752L178.251 233.135C178.281 228.113 174.94 223.982 170.474 223.049H170.464Z" fill="#D1EDFF"/>
<path d="M214.262 222.065L194.561 222.403C190.698 222.465 187.551 225.827 187.53 229.896L187.418 250.663C187.398 254.732 190.514 257.981 194.367 257.92L214.068 257.581C217.931 257.52 221.078 254.158 221.098 250.089L221.201 229.322C221.221 225.253 218.115 222.004 214.252 222.065H214.262Z" fill="url(#paint1_linear_2147_1644)"/>
<path d="M257.221 221.327L237.52 221.665C233.657 221.727 230.51 225.089 230.489 229.158L230.377 249.925C230.357 253.994 233.473 257.243 237.336 257.182L257.037 256.843C260.9 256.782 264.047 253.42 264.068 249.351L264.18 228.584C264.2 224.515 261.084 221.266 257.221 221.327Z" fill="#76CFFF"/>
<path d="M300.149 220.599L280.448 220.938C276.585 220.999 273.438 224.361 273.417 228.43L273.305 249.197C273.284 253.266 276.401 256.515 280.264 256.454L299.965 256.116C303.828 256.054 306.975 252.692 306.995 248.623L307.108 227.856C307.128 223.787 304.012 220.538 300.149 220.599Z" fill="url(#paint2_linear_2147_1644)"/>
<path d="M341.952 221.594C345.835 222.403 348.635 226.022 348.605 230.224L348.523 244.841C348.523 247.229 347.613 249.484 346.009 251.206C344.405 252.928 342.259 253.891 340.001 253.922L326.144 254.158C325.552 254.168 324.949 254.107 324.366 253.994C320.483 253.184 317.683 249.566 317.714 245.363L317.796 230.747C317.796 228.359 318.705 226.104 320.31 224.382C321.924 222.66 324.06 221.696 326.318 221.665L340.174 221.43C340.767 221.419 341.37 221.481 341.942 221.594H341.952ZM342.259 220.118C341.595 219.984 340.9 219.913 340.185 219.923L326.328 220.159C320.851 220.251 316.396 225.007 316.365 230.778L316.283 245.394C316.253 250.417 319.594 254.547 324.06 255.48C324.724 255.613 325.419 255.685 326.134 255.675L339.99 255.439C345.468 255.347 349.923 250.591 349.954 244.82L350.035 230.204C350.066 225.181 346.724 221.05 342.249 220.118H342.259Z" fill="#D1EDFF"/>
<path d="M41.3137 226.719C45.1968 227.528 47.9966 231.147 47.966 235.349L47.8842 249.966C47.8842 252.354 46.9748 254.609 45.3705 256.331C43.7662 258.053 41.6203 259.016 39.362 259.047L25.5056 259.283C24.913 259.293 24.3101 259.232 23.7276 259.119C19.8446 258.309 17.0447 254.691 17.0753 250.488L17.1571 235.872C17.1877 230.942 21.0095 226.862 25.6793 226.79L39.5357 226.555C40.1284 226.544 40.7313 226.606 41.3137 226.719ZM41.6203 225.243C40.9561 225.109 40.2612 225.038 39.5459 225.048L25.6896 225.284C20.2124 225.376 15.7571 230.132 15.7265 235.903L15.6447 250.519C15.6141 255.542 18.9555 259.672 23.4313 260.605C24.0955 260.738 24.7903 260.81 25.5056 260.8L39.362 260.564C44.8391 260.472 49.2944 255.716 49.3251 249.945L49.4068 235.329C49.4375 230.306 46.096 226.175 41.6305 225.243H41.6203Z" fill="#D1EDFF"/>
<path d="M91.9974 13.6427C90.7303 6.49848 84.3949 1.8245 77.62 2.829C81.0125 4.65349 83.5978 8.03597 84.354 12.3205L88.5845 36.1926C89.9027 43.6341 85.2328 50.932 78.1411 52.49C77.855 52.5515 77.5689 52.5925 77.293 52.6233C79.8067 53.9762 82.7701 54.458 85.7846 53.802C92.8762 52.244 97.5461 44.946 96.2279 37.5046L91.9974 13.6324V13.6427Z" fill="#AEE0FF"/>
<path d="M127.037 13.1917C125.769 6.04749 119.434 1.37351 112.659 2.37801C116.062 4.2025 118.637 7.58498 119.393 11.8695L123.624 35.7416C124.942 43.1831 120.272 50.481 113.18 52.039C112.894 52.1005 112.608 52.1415 112.332 52.1723C114.846 53.5253 117.809 54.007 120.824 53.351C127.915 51.793 132.585 44.4951 131.267 37.0536L127.037 13.1815V13.1917Z" fill="#AEE0FF"/>
<path d="M162.095 12.7407C160.828 5.59647 154.493 0.922493 147.718 1.92699C151.12 3.75148 153.695 7.13396 154.452 11.4184L158.682 35.2906C160 42.732 155.33 50.03 148.239 51.588C147.953 51.6495 147.667 51.6905 147.391 51.7212C149.904 53.0742 152.868 53.556 155.882 52.9C162.974 51.342 167.644 44.044 166.326 36.6026L162.095 12.7304V12.7407Z" fill="#AEE0FF"/>
<path d="M197.146 12.3C195.879 5.15574 189.543 0.481758 182.768 1.48625C186.171 3.31074 188.746 6.69323 189.502 10.9777L193.733 34.8498C195.051 42.2913 190.381 49.5893 183.29 51.1473C183.003 51.2088 182.717 51.2498 182.441 51.2805C184.955 52.6335 187.919 53.1153 190.933 52.4593C198.025 50.9013 202.695 43.6033 201.376 36.1618L197.146 12.2897V12.3Z" fill="#AEE0FF"/>
<path d="M232.204 11.849C230.948 4.70475 224.602 0.0307689 217.827 1.03526C221.23 2.85976 223.805 6.24224 224.561 10.5267L228.791 34.3989C230.11 41.8403 225.44 49.1383 218.348 50.6963C218.062 50.7578 217.776 50.7988 217.5 50.8295C220.014 52.1825 222.977 52.6643 225.992 52.0083C233.083 50.4503 237.753 43.1523 236.435 35.7108L232.204 11.8387V11.849Z" fill="#AEE0FF"/>
<path d="M267.255 11.3979C265.998 4.25373 259.653 -0.42025 252.878 0.584245C256.281 2.40874 258.856 5.79122 259.612 10.0757L263.842 33.9478C265.16 41.3893 260.491 48.6873 253.399 50.2453C253.113 50.3068 252.827 50.3478 252.551 50.3785C255.065 51.7315 258.028 52.2132 261.042 51.5573C268.134 49.9993 272.804 42.7013 271.486 35.2598L267.255 11.3877V11.3979Z" fill="#AEE0FF"/>
<path d="M306.107 34.8191L301.876 10.947C300.619 3.80274 294.274 -0.871239 287.499 0.133256C290.902 1.95775 293.477 5.34023 294.233 9.62471L298.463 33.4968C299.782 40.9383 295.112 48.2363 288.02 49.7943C287.734 49.8558 287.448 49.8968 287.172 49.9275C289.686 51.2805 292.649 51.7623 295.663 51.1063C302.755 49.5483 307.425 42.2503 306.107 34.8088V34.8191Z" fill="#AEE0FF"/>
<path d="M88.5841 36.1926L84.3536 12.3205C83.5974 8.03599 81.0121 4.6535 77.6196 2.82901C77.3335 2.87001 77.0474 2.91101 76.7715 2.96226C69.6798 4.52025 65.0099 11.8182 66.3281 19.2597L70.5586 43.1318C71.3148 47.4163 73.9 50.7988 77.2926 52.6233C77.5787 52.5823 77.8648 52.5413 78.1407 52.49C85.2324 50.932 89.9023 43.6341 88.5841 36.1926Z" fill="#D1EDFF"/>
<path d="M113.19 52.0493C120.281 50.4913 124.951 43.1933 123.633 35.7518L119.402 11.8797C118.646 7.59522 116.061 4.21274 112.668 2.38824C112.382 2.42924 112.096 2.47024 111.82 2.52149C104.729 4.07949 100.059 11.3775 101.377 18.8189L105.607 42.6911C106.364 46.9755 108.949 50.358 112.341 52.1825C112.628 52.1415 112.914 52.1005 113.19 52.0493Z" fill="#D1EDFF"/>
<path d="M158.693 35.3008L154.463 11.4287C153.707 7.14423 151.122 3.76175 147.729 1.93726C147.443 1.97826 147.157 2.01926 146.881 2.07051C139.789 3.6285 135.119 10.9265 136.437 18.3679L140.668 42.2401C141.424 46.5245 144.009 49.907 147.402 51.7315C147.688 51.6905 147.974 51.6495 148.25 51.5983C155.342 50.0403 160.012 42.7423 158.693 35.3008Z" fill="#D1EDFF"/>
<path d="M183.299 51.1473C190.391 49.5893 195.06 42.2913 193.742 34.8499L189.512 10.9777C188.756 6.69324 186.17 3.31076 182.778 1.48627C182.492 1.52727 182.206 1.56827 181.93 1.61952C174.838 3.17751 170.168 10.4755 171.486 17.9169L175.717 41.7891C176.473 46.0736 179.058 49.456 182.451 51.2805C182.737 51.2395 183.023 51.1985 183.299 51.1473Z" fill="#D1EDFF"/>
<path d="M228.793 34.3988L224.563 10.5267C223.806 6.24222 221.221 2.85974 217.829 1.03525C217.542 1.07625 217.256 1.11725 216.98 1.1685C209.889 2.72649 205.219 10.0245 206.537 17.4659L210.768 41.3381C211.524 45.6225 214.109 49.005 217.502 50.8295C217.788 50.7885 218.074 50.7475 218.35 50.6963C225.441 49.1383 230.111 41.8403 228.793 34.3988Z" fill="#D1EDFF"/>
<path d="M263.842 33.9478L259.611 10.0757C258.855 5.79123 256.27 2.40875 252.877 0.584259C252.591 0.625259 252.305 0.666259 252.029 0.717508C244.938 2.2755 240.268 9.57347 241.586 17.0149L245.816 40.8871C246.573 45.1715 249.158 48.554 252.55 50.3785C252.837 50.3375 253.123 50.2965 253.399 50.2453C260.49 48.6873 265.16 41.3893 263.842 33.9478Z" fill="#D1EDFF"/>
<path d="M298.473 33.4969L294.243 9.62473C293.487 5.34025 290.901 1.95776 287.509 0.13327C287.223 0.17427 286.936 0.21527 286.65 0.26652C279.559 1.82451 274.889 9.12248 276.207 16.5639L280.438 40.4361C281.194 44.7206 283.779 48.103 287.172 49.9275C287.458 49.8865 287.744 49.8455 288.02 49.7943C295.111 48.2363 299.781 40.9383 298.463 33.4969H298.473Z" fill="#D1EDFF"/>
<path d="M12.589 75.4294C23.4717 75.2346 34.3647 75.0501 45.2474 74.8554C46.1262 74.8349 46.0547 73.3897 45.1657 73.4102C34.2829 73.6049 23.39 73.7894 12.5072 73.9842C11.6284 74.0047 11.7 75.4499 12.5788 75.4294H12.589Z" fill="#35B2FF"/>
<path d="M37.0621 70.7862C42.1918 70.8477 47.3113 70.8989 52.441 70.9604C53.33 70.9604 53.2483 69.5254 52.3695 69.5152C47.2398 69.4537 42.1203 69.4024 36.9906 69.3409C36.1016 69.3409 36.1833 70.7759 37.0723 70.7862H37.0621Z" fill="#35B2FF"/>
<path d="M321.188 40.4771C324.806 40.3233 328.413 40.1798 332.03 40.0363C332.919 40.0056 332.837 38.5501 331.959 38.5911C328.341 38.7448 324.734 38.8883 321.117 39.0318C320.228 39.0626 320.309 40.5181 321.188 40.4771Z" fill="#35B2FF"/>
<path d="M315.589 46.135C319.084 45.9505 322.579 45.7763 326.073 45.5918C326.962 45.5508 326.891 44.0953 326.002 44.1466C322.507 44.3311 319.012 44.5053 315.518 44.6898C314.629 44.7308 314.7 46.1863 315.599 46.135H315.589Z" fill="#35B2FF"/>
<path d="M318.388 69.7509C329.986 69.5459 341.594 69.3409 353.192 69.1359C354.071 69.1154 353.999 67.6702 353.11 67.6907C341.512 67.8957 329.904 68.1007 318.306 68.3057C317.427 68.3262 317.499 69.7714 318.378 69.7509H318.388Z" fill="#35B2FF"/>
<path d="M266.917 365.452C302.988 327.24 302.988 265.289 266.917 227.077C230.846 188.866 172.375 188.866 136.304 227.077C100.232 265.289 100.232 327.24 136.304 365.452C172.375 403.664 230.846 403.664 266.917 365.452Z" fill="#AEE0FF"/>
<path d="M254.635 352.455C283.921 321.428 283.921 271.111 254.635 240.085C225.348 209.058 177.853 209.058 148.566 240.085C119.28 271.111 119.28 321.428 148.566 352.455C177.853 383.481 225.348 383.481 254.635 352.455Z" fill="white"/>
<path d="M201.07 294.737C199.608 294.604 198.535 293.241 198.658 291.703L202.418 245.64C202.541 244.092 203.829 242.955 205.28 243.088C206.741 243.221 207.814 244.584 207.691 246.122L203.931 292.185C203.808 293.733 202.521 294.871 201.07 294.737Z" fill="#AEE0FF"/>
<path d="M233.349 321.91C232.94 321.869 232.531 321.736 232.163 321.479L205.105 303.183C203.879 302.353 203.511 300.621 204.297 299.309C205.084 298.007 206.719 297.618 207.956 298.458L235.014 316.754C236.241 317.584 236.609 319.317 235.822 320.629C235.27 321.541 234.309 322.002 233.349 321.91Z" fill="#AEE0FF"/>
<path d="M210.725 297.095C210.265 302.814 205.503 307.048 200.108 306.556C194.712 306.064 190.717 301.021 191.177 295.311C191.636 289.592 196.398 285.359 201.794 285.851C207.189 286.343 211.185 291.386 210.725 297.095Z" fill="#4F647B"/>
<path d="M206.719 235.144C205.728 235.052 204.992 234.129 205.084 233.084L205.544 227.416C205.636 226.37 206.504 225.591 207.485 225.683C208.466 225.776 209.202 226.698 209.12 227.744L208.66 233.412C208.568 234.457 207.7 235.236 206.719 235.144Z" fill="#76CFFF"/>
<path d="M196.307 362.592C195.316 362.5 194.591 361.577 194.672 360.532L195.112 355.192C195.204 354.146 196.072 353.367 197.053 353.459C198.044 353.552 198.77 354.474 198.688 355.52L198.249 360.86C198.157 361.905 197.288 362.684 196.307 362.592Z" fill="#76CFFF"/>
<path d="M264.567 301.8L259.672 301.349C258.681 301.256 257.956 300.334 258.038 299.288C258.129 298.243 258.998 297.464 259.979 297.556L264.874 298.007C265.865 298.099 266.601 299.022 266.509 300.067C266.427 301.113 265.548 301.892 264.567 301.8Z" fill="#76CFFF"/>
<path d="M145.633 290.894L138.909 290.279C137.918 290.186 137.192 289.264 137.274 288.218C137.356 287.173 138.234 286.394 139.215 286.486L145.939 287.101C146.93 287.193 147.666 288.116 147.574 289.161C147.482 290.207 146.614 290.986 145.633 290.894Z" fill="#76CFFF"/>
<path d="M228.76 356.401C228.137 356.34 227.565 355.95 227.289 355.315L224.99 350.169C224.56 349.216 224.949 348.078 225.838 347.627C226.737 347.176 227.81 347.576 228.239 348.529L230.538 353.675C230.968 354.628 230.589 355.766 229.69 356.217C229.394 356.37 229.067 356.422 228.76 356.391V356.401Z" fill="#76CFFF"/>
<path d="M176.83 240.382C176.206 240.32 175.634 239.931 175.358 239.295L173.253 234.591C172.824 233.637 173.212 232.5 174.101 232.049C175.001 231.598 176.074 231.997 176.503 232.951L178.608 237.655C179.037 238.609 178.649 239.746 177.76 240.197C177.463 240.351 177.136 240.402 176.83 240.372V240.382Z" fill="#76CFFF"/>
<path d="M165.335 350.579C165.028 350.548 164.721 350.436 164.456 350.231C163.648 349.626 163.454 348.437 164.016 347.576L167.388 342.533C167.961 341.672 169.095 341.467 169.892 342.072C170.71 342.676 170.893 343.865 170.331 344.726L166.97 349.769C166.581 350.343 165.968 350.63 165.345 350.569L165.335 350.579Z" fill="#76CFFF"/>
<path d="M235.311 245.743C235.004 245.712 234.697 245.599 234.432 245.404C233.614 244.8 233.42 243.611 233.992 242.75L236.823 238.496C237.395 237.635 238.519 237.43 239.326 238.045C240.144 238.65 240.338 239.839 239.756 240.7L236.925 244.953C236.537 245.527 235.924 245.814 235.3 245.753L235.311 245.743Z" fill="#76CFFF"/>
<path d="M146.175 327.629C145.592 327.578 145.04 327.219 144.744 326.635C144.274 325.713 144.601 324.554 145.48 324.052L150.793 321.029C151.662 320.537 152.755 320.875 153.236 321.807C153.706 322.74 153.379 323.888 152.5 324.39L147.186 327.414C146.869 327.599 146.522 327.66 146.185 327.629H146.175Z" fill="#76CFFF"/>
<path d="M253.378 266.673C252.795 266.622 252.243 266.263 251.947 265.679C251.477 264.756 251.804 263.598 252.683 263.096L256.607 260.861C257.475 260.369 258.569 260.708 259.049 261.64C259.519 262.563 259.192 263.721 258.313 264.223L254.389 266.458C254.073 266.642 253.725 266.704 253.388 266.673H253.378Z" fill="#76CFFF"/>
<path d="M251.355 337.275C251.017 337.244 250.69 337.111 250.394 336.875L246.521 333.656C245.734 333.011 245.602 331.811 246.215 330.981C246.828 330.151 247.952 330.007 248.739 330.653L252.611 333.872C253.398 334.517 253.531 335.717 252.918 336.547C252.53 337.07 251.937 337.326 251.355 337.275Z" fill="#76CFFF"/>
<path d="M156.72 258.606C156.383 258.576 156.056 258.442 155.76 258.207L151.172 254.394C150.385 253.748 150.252 252.549 150.865 251.718C151.478 250.888 152.602 250.745 153.389 251.39L157.977 255.203C158.764 255.849 158.897 257.048 158.284 257.879C157.895 258.401 157.293 258.658 156.72 258.606Z" fill="#76CFFF"/>
</g>
<defs>
<linearGradient id="paint0_linear_2147_1644" x1="344.079" y1="117.996" x2="65.1266" y2="338.351" gradientUnits="userSpaceOnUse">
<stop stop-color="white"/>
<stop offset="1" stop-color="#35B2FF"/>
</linearGradient>
<linearGradient id="paint1_linear_2147_1644" x1="352.307" y1="122.372" x2="73.3742" y2="342.732" gradientUnits="userSpaceOnUse">
<stop stop-color="white"/>
<stop offset="1" stop-color="#76CFFF"/>
</linearGradient>
<linearGradient id="paint2_linear_2147_1644" x1="381.49" y1="165.995" x2="102.548" y2="386.353" gradientUnits="userSpaceOnUse">
<stop stop-color="white"/>
<stop offset="1" stop-color="#76CFFF"/>
</linearGradient>
<clipPath id="clip0_2147_1644">
<rect width="375" height="472" fill="white"/>
</clipPath>
</defs>
</svg>
