<svg width="40" height="40" viewBox="0 0 40 40" fill="none" xmlns="http://www.w3.org/2000/svg">
<rect width="40" height="40" rx="20" fill="#0064FF"/>
<path d="M16.7517 11V12.48C16.7517 12.48 14.5017 13.69 15.1017 14.54C15.7017 15.39 17.6017 16.14 20.5717 15.84C24.1817 15.48 27.6217 12.39 23.9417 11.23" stroke="white" stroke-linecap="round" stroke-linejoin="round"/>
<path d="M25.1217 16.4199C26.4317 17.7899 24.2017 20.0799 20.5917 20.4399C17.6117 20.7299 15.7217 19.9799 15.1117 19.1299C14.5017 18.2899 16.7517 17.0699 16.7517 17.0699V15.5699" stroke="white" stroke-linecap="round" stroke-linejoin="round"/>
<path d="M25.1317 20.83C26.0017 22.57 24.1917 24.57 20.5817 24.92C17.6017 25.22 15.7117 24.47 15.1017 23.62C14.5017 22.77 16.7517 21.56 16.7517 21.56V20.15" stroke="white" stroke-linecap="round" stroke-linejoin="round"/>
<path d="M16.752 21.5601C16.752 21.5601 20.522 22.3601 23.192 21.0601" stroke="white" stroke-linecap="round" stroke-linejoin="round"/>
<path d="M16.752 17.07C16.752 17.07 20.022 17.83 23.192 16.53" stroke="white" stroke-linecap="round" stroke-linejoin="round"/>
<path d="M17.6719 26.24L20.2619 28.37L22.4319 26.24" stroke="white" stroke-linecap="round" stroke-linejoin="round"/>
</svg>
