<?xml version="1.0" encoding="UTF-8"?>
<svg id="a" data-name="Layer 1" xmlns="http://www.w3.org/2000/svg" viewBox="0 0 103 103">
  <defs>
    <style>
      .b {
        fill: #0064ff;
        stroke-width: 0px;
      }
    </style>
  </defs>
  <g>
    <path class="b" d="m50.88,49.31c-1.74.8-3.37,1.54-4.99,2.29-1.99.91-3.99,1.81-5.98,2.72-.23.11-.47.2-.54.5-.3,1.3-.52,2.61-.14,3.94.65,2.27,2.69,3.56,5.43,3.49,1.49-.04,2.89-.43,4.26-.99,2.01-.83,3.95-1.79,5.87-2.78.33-.17.52-.14.79.11,4.6,4.3,9.2,8.6,13.82,12.87.77.71.95,1.53.6,2.46-.39,1.03-1.12,1.7-2.27,1.81-.37.04-.65-.07-.93-.35-1.6-1.6-3.22-3.18-4.83-4.76-.13-.13-.26-.27-.4-.39-.25-.2-.52-.23-.76,0-.24.24-.21.5,0,.75.11.12.23.23.35.35,1.56,1.54,3.11,3.09,4.7,4.6.47.44.6.9.46,1.49-.24,1.02-.61,1.93-1.71,2.28-.8.25-1.5.18-2.16-.49-1.62-1.68-3.31-3.29-4.97-4.92-.12-.11-.23-.23-.35-.34-.26-.22-.56-.29-.81-.01-.24.27-.18.56.08.8,1.01,1,2.03,2,3.04,3,.61.61,1.2,1.25,1.85,1.81.59.5.67,1.05.47,1.74-.22.77-.72,1.28-1.48,1.41-1.04.18-2.03.04-2.84-.78-1.66-1.67-3.35-3.31-5.03-4.96-.02-.02-.03-.03-.05-.05-.31-.28-.62-.71-1.05-.25-.36.39-.03.71.26,1.01,1.3,1.27,2.59,2.55,3.89,3.83.17.16.35.31.5.49.38.44,1.1.7.7,1.54-.43.91-.95,1.68-2.06,1.75-1.08.07-1.91-.5-2.71-1.13-.23-.18-.13-.37-.04-.56,1.14-2.18-.06-5.35-2.93-5.93-.36-.07-.45-.27-.54-.6-.45-1.67-1.5-2.76-3.21-3.15-.33-.08-.5-.19-.59-.55-.42-1.66-1.48-2.71-3.15-3.13-.37-.09-.51-.26-.63-.62-.53-1.6-1.65-2.58-3.31-2.85-1.63-.27-2.99.29-4.02,1.58-.64.8-1.27,1.61-1.87,2.45-.19.27-.33.32-.62.16-.63-.35-1.27-.69-1.93-.99-.47-.21-.57-.45-.4-.97,1.37-4.01,2.7-8.04,4.04-12.06.35-1.04.7-2.07,1.03-3.12.11-.36.29-.47.66-.41,1.65.29,3.18-.09,4.66-.83,2.42-1.2,4.88-2.33,7.33-3.47,1.53-.71,2.92-.56,4.48.23Z"/>
    <path class="b" d="m44.6,60.65c-.39-.03-.8-.02-1.18-.1-2.01-.39-3-1.87-2.77-3.94.08-.69.35-1.05.98-1.33,4.57-2.05,9.11-4.17,13.69-6.21,2.5-1.11,4.92-.81,7.14.8.77.56,1.51,1.17,2.26,1.76,1.54,1.2,3.28,1.85,5.24,1.85.41,0,.56.15.65.53,1.12,4.69,2.25,9.38,3.38,14.07.1.42.03.62-.44.72-1.03.22-2.04.49-3.05.76-.4.11-.68.02-.99-.27-4.49-4.18-9.01-8.33-13.5-12.51-.39-.36-.67-.41-1.14-.16-2.37,1.25-4.76,2.47-7.27,3.43-.97.37-1.96.6-3,.6Z"/>
    <path class="b" d="m26.38,69.42c-.08-.02-.22-.06-.35-.1-1.94-.65-3.89-1.29-5.83-1.95-.82-.28-.97-.6-.7-1.44,1.71-5.17,3.44-10.33,5.16-15.5.23-.7.65-.91,1.36-.68,1.97.64,3.94,1.3,5.9,1.97.69.23.88.62.66,1.29-1.73,5.21-3.47,10.43-5.2,15.64-.15.46-.42.78-1,.77Z"/>
    <path class="b" d="m76.48,69.31c-.68,0-.91-.41-1.04-.97-.77-3.24-1.56-6.48-2.34-9.71-.4-1.68-.8-3.35-1.2-5.03-.22-.91.02-1.28.94-1.5,1.86-.44,3.71-.89,5.57-1.34.99-.24,1.36-.03,1.59.91,1.19,4.91,2.37,9.82,3.55,14.74.2.82-.01,1.23-.79,1.42-1.99.5-3.98.96-5.98,1.44-.11.03-.23.03-.31.04Z"/>
    <path class="b" d="m42.74,75.82c1.31-.65,2.45-.62,3.4.34,1,1.01.94,2.2.26,3.5.78-.39,1.46-.64,2.24-.45,1.88.46,2.66,2.6,1.5,4.14-.38.5-.76,1-1.16,1.49-.86,1.09-2.15,1.41-3.3.84-1.16-.58-1.67-1.78-1.32-3.13.02-.09.03-.18.07-.4-1.33.9-2.59.99-3.72-.12-.93-.92-.91-2.03-.35-3.29-1.16.48-2.23.64-3.2-.16-.95-.79-1.16-1.81-.85-2.94-.22-.18-.39-.03-.56.01-1.1.26-2.21-.15-2.82-1.07-.61-.91-.58-2.12.08-3.02.56-.75,1.13-1.49,1.71-2.22.82-1.02,2.07-1.33,3.2-.82,1.08.49,1.69,1.64,1.46,2.89-.08.43-.06.55.4.41,1.04-.31,1.95-.04,2.66.75.71.8.83,1.74.47,2.75-.04.11-.08.22-.18.5Z"/>
  </g>
  <g>
    <path class="b" d="m72.38,53.56c0-6.23,0-12.46-.01-18.69,0-.58-.03-1.16,0-1.73.03-.49-.13-.66-.64-.66-2.74.02-5.47,0-8.21,0-.15,0-.3,0-.44,0-.89-.04-1.4-.55-1.4-1.45,0-2.82,0-5.64,0-8.45q0-.79-.79-.79c-9.34,0-18.69,0-28.03,0q-.82,0-.82.81c0,10.07,0,20.14,0,30.21,0,.25,0,.49,0,.74h-2.67c0-1.55,0-3.1-.01-4.65,0-9.38,0-18.75,0-28.13,0-.36,0-.72.21-1.05.27-.43.67-.62,1.16-.65.23-.02.46-.03.69-.03,10.32,0,20.63,0,30.95-.01.83,0,1.46.25,2.05.85,3.33,3.38,6.7,6.73,10.06,10.08.37.37.61.76.6,1.3,0,7.37,0,14.73,0,22.1,0,.07,0,.13,0,.2h-2.67Zm-2.05-23.85c-1.99-1.96-3.95-3.9-5.92-5.83-.08.09-.04.23-.04.35,0,1.66,0,3.33,0,4.99,0,.45.14.61.59.6,1.63-.02,3.26,0,4.89-.01.14,0,.3.03.48-.1Z"/>
    <path class="b" d="m52.2,37.66c3.86,0,7.71,0,11.57,0,.88,0,1.38.51,1.3,1.29-.05.51-.44.92-.95.99-.13.02-.26.01-.39.01-7.68,0-15.36,0-23.04,0-.8,0-1.29-.36-1.35-1-.07-.74.39-1.28,1.15-1.29,1.05-.02,2.11,0,3.16,0,2.85,0,5.7,0,8.55,0Z"/>
    <path class="b" d="m52.18,45.44c-3.86,0-7.71,0-11.57,0-.76,0-1.23-.38-1.28-1.02-.06-.66.33-1.16.98-1.26.18-.03.36-.02.54-.02,7.56,0,15.12,0,22.69,0,.16,0,.33,0,.49.01.66.08,1.07.56,1.04,1.22-.03.62-.47,1.05-1.13,1.07-.49.01-.99,0-1.48,0-3.43,0-6.85,0-10.28,0Z"/>
    <path class="b" d="m45.53,34.59c-1.63,0-3.26,0-4.89,0-.83,0-1.31-.42-1.31-1.14,0-.72.47-1.15,1.31-1.15,3.26,0,6.53,0,9.79,0,.8,0,1.3.47,1.29,1.18,0,.68-.5,1.11-1.29,1.11-1.63,0-3.26,0-4.89,0Z"/>
  </g>
</svg>