<?xml version="1.0" encoding="UTF-8"?>
<svg id="a" data-name="Layer 1" xmlns="http://www.w3.org/2000/svg" viewBox="0 0 103 103">
  <defs>
    <style>
      .b {
        fill: #0064ff;
        stroke-width: 0px;
      }
    </style>
  </defs>
  <path class="b" d="m36.38,33.94c-.26-1.53-.36-3.43.72-4.95,3.18-4.48,6.93-8.3,12.83-8.79,5.93-.49,10.69,1.72,14.15,6.61.76,1.07,1.6,2.28,1.63,3.5.07,3.36.81,6.78-.65,10.09-1.34,3.05-3.29,5.51-6.16,7.2-5.79,3.41-13.11,2.42-17.84-2.4-1.03-1.05-1.99-2.19-2.48-3.56-.53-1.5-1.79-2.6-2.06-4.21-.18-1.07-.12-2.14-.14-3.49Zm24.9-7.6c-2.53.26-4.74.5-6.94.71-4.64.46-9.28.88-13.92,1.36-1.94.2-2.26.53-2.72,2.43-.1.41-.16.83-.22,1.24-.12.78.13,1.11,1.01,1.01,7.93-.91,15.87-1.79,23.81-2.68,2.34-.26,2.36-.27,1.14-2.36-.55-.94-.96-2.14-2.15-1.72Zm-13.74-.03c1.36.11,2.48-.15,3.59-.25,2.93-.26,5.86-.55,8.79-.85.24-.02.61.04.64-.31.01-.17-.22-.39-.39-.52-1.04-.85-2.22-1.48-3.44-2.04-.97-.45-1.82-.52-2.77.13-1,.69-2.15,1.17-3.18,1.82-1.01.64-2.18,1.04-3.24,2.02Zm-7.05.78c1.57-.16,3.03.05,4.37-.74,2.4-1.42,4.83-2.78,7.25-4.17.27-.15.66-.22.65-.67-4.08-.9-10.42,1.92-12.26,5.57Zm6.65,6.34c-2.69.28-5.04.5-7.39.79-2.44.3-2.11-.07-2.03,2.59.02.76.37.9,1.05.6,2.09-.94,4.21-1.84,6.3-2.77.61-.27,1.3-.43,2.08-1.2Z"/>
  <path class="b" d="m59.2,82.71c4.93-2.22,4.37-10.73.81-12.94-.74-.46-.76-1.05-.65-1.77.78-5.49,1.55-10.99,2.33-16.48.02-.15.07-.3.08-.45.14-2.39.17-2.48,2.43-1.25,4.6,2.51,7.97,6.27,10.7,10.65,2.45,3.93,4.15,8.17,5.12,12.71.75,3.5-.4,5.72-3.78,6.91-3.22,1.13-6.58,1.74-9.96,2.16-1.94.24-3.89.37-5.83.55-.37.03-.74.16-1.24-.1Z"/>
  <path class="b" d="m33.64,69.98c2.51,0,2.55,0,2.19,2.54-.39,2.8-.86,5.59-1.25,8.4-.09.67-.36.83-.98.73-2.12-.33-4.2-.8-6.25-1.44-2.96-.92-5.35-3.49-4.38-7.42,1.31-5.33,3.13-10.4,6.57-14.76,2.27-2.87,5.05-5.1,8.41-6.59.82-.36,1.11-.3.96.68-.59,3.86-1.15,7.72-1.72,11.57-.19,1.29-.38,2.57-.54,3.86-.1.81-.42,1.21-1.33,1.14-1.07-.09-2.14-.02-3.21-.02-.5,0-1.15-.05-1.17.61-.02.76.68.67,1.21.69.5.02,1,0,1.49,0Z"/>
  <path class="b" d="m46.31,51.9c2.48.53,4.7.8,6.97.55,1.34-.15,2.65-.38,3.92-.84.25-.09.53-.26.76-.06.27.23,0,.5-.08.73-1.74,5.18-3.49,10.36-5.24,15.54-.09.27-.05.67-.48.67-.24,0-.24-.26-.3-.43-1.82-5.31-3.64-10.62-5.54-16.17Z"/>
  <path class="b" d="m55.16,69.84c.79.04,1.7-.05,2.61.24,1.46.46,2.48,1.4,3.02,2.78.8,2.07.83,4.2.1,6.29-.53,1.52-1.7,2.29-3.28,2.49-.7.09-1.11-.1-1.36-.86-1.09-3.3-2.23-6.59-3.39-9.87-.31-.87-.12-1.19.81-1.08.45.05.92,0,1.5,0Z"/>
</svg>