<?xml version="1.0" encoding="UTF-8"?>
<svg id="a" data-name="Layer 1" xmlns="http://www.w3.org/2000/svg" viewBox="0 0 103 103">
  <defs>
    <style>
      .b {
        fill: #0064ff;
        stroke-width: 0px;
      }
    </style>
  </defs>
  <path class="b" d="m52.62,47.5c-.19,4.44-.71,8.82-2.11,13.06-2.32,7.04-6.98,12.02-13.52,15.36-.77.39-1.34.38-2.12,0-8.37-4.2-13.1-11.04-14.74-20.16-.67-3.71-.89-7.46-.88-11.22,0-.52.14-.72.7-.77,5.39-.52,10.62-1.71,15.54-4.05.32-.15.58-.14.9.01,4.92,2.34,10.15,3.51,15.54,4.04.58.06.7.27.69.78-.03.99,0,1.97,0,2.96Zm-25.62,8.02c-.38.03-.83.12-1.02.62-.2.52.1.88.51,1.13,1.05.65,2.04,1.35,2.91,2.24,1.81,1.86,2.92,4.12,3.79,6.52.17.46.4.84.95.81.51-.02.72-.4.85-.83,1.82-6.07,5.25-11.03,10.24-14.91.72-.56.92-1.16.54-1.62-.51-.62-1.13-.48-1.73-.14-3.84,2.14-7.27,4.77-9.85,8.38-.42.59-.65.6-1.21.2-1.76-1.25-3.7-2.11-5.96-2.38Z"/>
  <path class="b" d="m49.28,71.42c.61-1.13,1.15-2.11,1.67-3.11.21-.41.55-.29.86-.29,3.65,0,7.31,0,10.96,0,1.32,0,1.52-.22,1.52-1.7,0-.21,0-.42,0-.62,0-1.28-.26-1.58-1.4-1.58-3.12,0-6.24-.02-9.36.01-.66,0-.87-.15-.57-.88.23-.57.41-1.17.51-1.78.11-.69.44-.8,1-.78,3.39.1,6.77-.03,10.14-.51,1.3-.18,2.19-.77,2.46-2.32.16-.9.52-1.75.61-2.67.14-1.37-.22-1.97-1.43-2.2-2.53-.48-5.09-.61-7.65-.69-1.01-.03-2.03-.04-3.04-.02-.43,0-.55-.16-.51-.63.23-2.57.31-5.16.27-7.74,0-.55.15-.7.64-.7,5.79.01,11.57.21,17.35.64.74.05,1.48.09,2.39.14-1.15-2.91-1.91-5.84-3.81-8.13-1.42-1.71-3.31-2.04-5.24-2.26-7.22-.81-14.43-.82-21.64.12-2.01.26-4.12,2.16-5.36,3.97-.25.37-.48.38-.81.2-.26-.14-.54-.24-.81-.39-1.65-.9-1.79-.46-.43-2.3,1.73-2.33,4.44-4.49,7.1-4.83,7.72-.97,15.43-.94,23.15,0,4.2.5,6.94,3.08,8.61,7.22.39.95.84,1.32,1.78,1.25,1.08-.09,2.19-.12,3.27.08,1.38.25,2.29,1.42,2.19,2.8-.09,1.27-.85,1.93-1.82,2.35-.54.24-1.11.4-1.72.61.48.57.97,1.06,1.37,1.64,1.35,1.93,1.72,4.24,1.97,6.59.34,3.2.19,6.41.21,9.62.02,3.74,0,7.49,0,11.23,0,1.75-.62,2.44-2.17,2.44-1.68,0-3.36,0-5.04,0-1.28-.01-1.97-.78-1.98-2.2,0-.59-.04-1.19,0-1.78.04-.62-.14-.82-.71-.81-1.89.04-3.79.01-5.68.01-5.98,0-11.95,0-17.93,0-.26,0-.53,0-.95,0Zm22.21-12.54c1.52-.15,3.44-.28,5.34-.55,1.52-.22,2.99-.71,3.52-2.58.45-1.59.21-3.17-.45-4.66-.12-.26-.25-.43-.55-.34-2.12.57-4.25,1.09-6.37,1.69-.95.27-1.52,1.02-1.76,2.1-.25,1.12-.55,2.23-.83,3.34q-.28,1.11,1.1,1Z"/>
</svg>