<?xml version="1.0" encoding="UTF-8"?>
<svg id="a" data-name="Layer 1" xmlns="http://www.w3.org/2000/svg" viewBox="0 0 103 103">
  <defs>
    <style>
      .b {
        fill: #0064ff;
        stroke-width: 0px;
      }
    </style>
  </defs>
  <path class="b" d="m39.35,47.8c-.03-1.76-.06-3.52.62-5.19,1.19-2.9,3.27-4.82,6.27-5.76.38-.12.67-.09,1.03.11,2.83,1.6,5.67,1.59,8.5-.02.32-.18.59-.21.92-.12,3.99,1.08,6.91,4.85,6.95,9,.02,1.51-.02,3.02.02,4.54.01.51-.16.56-.6.48-3.96-.71-7.58-2.23-10.87-4.54-.52-.36-.85-.37-1.37,0-3.29,2.3-6.9,3.83-10.86,4.54-.51.09-.64-.02-.62-.52.04-.84,0-1.68,0-2.51Z"/>
  <path class="b" d="m77.4,60.66c-2.06,0-4.13-.01-6.19,0-.43,0-.59-.09-.63-.56-.29-2.76-.65-5.52-.57-8.3.01-.39-.19-.42-.49-.42-1.19.03-2.37-.05-3.55-.11-.48-.02-.66-.19-.64-.7.04-1.49.01-2.98.01-4.47,0-.29,0-.57-.03-.86-.09-1.12-.09-1.1.98-1.51.66-.25,1.2-.21,1.88.14,2.66,1.4,5.37,1.35,8.01-.13.43-.24.8-.28,1.25-.14,3.93,1.2,6.71,4.83,6.77,8.96.04,2.51,0,5.02.02,7.54,0,.44-.14.55-.56.54-2.08-.02-4.17,0-6.25,0Z"/>
  <path class="b" d="m25.57,60.66c-2.06,0-4.13-.01-6.19,0-.45,0-.58-.12-.58-.58.02-2.49,0-4.99.02-7.48.03-4.22,3.04-8.02,7.12-9.07.27-.07.46-.02.68.11,2.9,1.68,5.81,1.68,8.71,0,.25-.15.48-.2.74-.08.11.05.23.07.35.11,1.34.42,1.31.42,1.27,1.78-.04,1.7-.05,3.39-.01,5.09.01.59-.21.74-.72.75-1.12.02-2.25.09-3.37.09-.44,0-.61.08-.6.57.08,2.79-.32,5.54-.58,8.3-.04.44-.3.4-.59.4-2.08,0-4.17,0-6.25,0Z"/>
  <path class="b" d="m62.01,58c.1,2.5.61,4.96.57,7.47-.04,2.31-.87,4.31-2.22,6.14-1.65,2.24-3.76,3.96-6.02,5.55-.85.59-1.72,1.16-2.58,1.74-.16.12-.29.18-.49.04-2.53-1.69-5.08-3.36-7.18-5.58-1.52-1.62-2.81-3.39-3.37-5.59-.24-.94-.35-1.89-.33-2.69,0-1.7.25-3.2.39-4.71.08-.75.14-1.5.19-2.25.02-.27.11-.36.38-.37,3.59-.15,6.87-1.27,9.89-3.17.21-.13.34-.11.53,0,2.54,1.62,5.3,2.63,8.28,3.04.55.08,1.1.1,1.65.14.17,0,.3.02.31.24Z"/>
  <path class="b" d="m68.55,60.85c-.25-2.37-.58-4.75-.63-7.24,0-.06-.02-.22,0-.38.12-.63-.17-.75-.75-.75-1.5.02-2.99-.12-4.46-.37-3.91-.67-7.48-2.19-10.75-4.4-.36-.25-.6-.22-.94.02-1.88,1.29-3.89,2.33-6.03,3.13-3.01,1.11-6.11,1.63-9.31,1.64-.28,0-.61-.1-.6.4.04,3.25-.55,6.43-.77,9.65-.19,2.71.02,5.37,1.06,7.92,1.09,2.66,2.8,4.9,4.78,6.96,3.27,3.38,7.24,5.87,11.1,8.48.2.14.34.11.53-.02,2.92-1.97,5.9-3.87,8.6-6.15,2.69-2.29,5.04-4.86,6.7-8.03,1.78-3.44,1.88-7.11,1.47-10.85Zm-4.59,12.73c-2.33,3.14-5.29,5.57-8.46,7.79-1.19.83-2.41,1.63-3.61,2.45-.23.16-.41.24-.69.05-3.56-2.37-7.13-4.71-10.09-7.84-2.14-2.27-3.94-4.76-4.74-7.84-.34-1.32-.48-2.67-.45-3.79,0-2.38.35-4.49.54-6.61.1-1.05.2-2.11.25-3.16.02-.39.16-.5.53-.52,5.04-.21,9.65-1.79,13.89-4.46.29-.18.48-.16.75.02,3.56,2.27,7.44,3.69,11.63,4.26.76.11,1.54.14,2.33.2.23.02.42.03.44.35.14,3.51.86,6.97.81,10.49-.06,3.23-1.22,6.05-3.12,8.62Z"/>
  <path class="b" d="m62.59,65.46c-.04,2.31-.87,4.31-2.22,6.14-1.65,2.24-3.76,3.96-6.02,5.55-.85.59-1.72,1.16-2.58,1.74-.16.12-.29.18-.49.04-2.53-1.69-5.08-3.36-7.18-5.58-1.52-1.62-2.81-3.39-3.37-5.59-.24-.94-.35-1.89-.33-2.69,0-1.7.25-3.2.39-4.71.08-.75.14-1.5.19-2.25.02-.27.11-.36.38-.37,3.59-.15,6.87-1.27,9.89-3.17.21-.13.34-.11.53,0,2.54,1.62,5.3,2.63,8.28,3.04.55.08,1.1.1,1.65.14.17,0,.3.02.31.24.1,2.5.61,4.96.57,7.47Z"/>
  <path class="b" d="m63.09,65.41c-.04,2.41-.91,4.5-2.32,6.41-1.72,2.34-3.93,4.14-6.29,5.8-.89.62-1.79,1.21-2.69,1.82-.17.12-.31.18-.51.04-2.65-1.77-5.3-3.51-7.5-5.83-1.59-1.7-2.94-3.55-3.53-5.84-.26-.99-.36-1.98-.34-2.82,0-1.78.26-3.34.4-4.93.08-.78.15-1.57.19-2.35.02-.28.11-.38.4-.39,3.75-.16,7.18-1.33,10.34-3.32.22-.14.36-.11.55,0,2.66,1.69,5.54,2.74,8.66,3.18.57.08,1.15.11,1.72.15.18,0,.32.02.33.26.11,2.61.64,5.18.6,7.8Z"/>
  <path class="b" d="m51.54,22.3c4.17,0,7.55,3.41,7.53,7.58-.02,4.16-3.41,7.52-7.6,7.51-4.13,0-7.52-3.39-7.53-7.52-.01-4.18,3.39-7.57,7.6-7.57Z"/>
  <path class="b" d="m79.57,36.61c0,4.17-3.4,7.56-7.56,7.55-4.17-.02-7.56-3.42-7.55-7.57,0-4.15,3.44-7.57,7.58-7.56,4.17.02,7.53,3.41,7.53,7.59Z"/>
  <path class="b" d="m38.53,36.64c-.03,4.13-3.47,7.55-7.56,7.51-4.24-.04-7.59-3.41-7.55-7.62.04-4.18,3.42-7.53,7.6-7.51,4.14.02,7.54,3.47,7.51,7.62Z"/>
</svg>