<svg width="103" height="103" viewBox="0 0 103 103" fill="none" xmlns="http://www.w3.org/2000/svg">
<path d="M25.03 63.6901V70.5801C25.03 71.1501 25.5 71.6201 26.07 71.6201H33.62C34.09 71.6201 34.47 71.3401 34.66 70.8701L37.11 63.2301C37.3 62.4801 36.73 61.8101 36.07 61.8101L26.07 62.4701C25.5 62.6601 25.03 63.1301 25.03 63.7001V63.6901Z" fill="#0064FF"/>
<path d="M45.3201 61.52V71.81C45.2401 71.85 45.1401 71.88 45.0401 71.89L38.8101 72.74C38.6201 72.74 38.3401 72.74 38.1501 72.65L37.4001 72.18C36.9301 71.8 36.7401 71.33 36.9301 70.86L39.8601 62.27C40.0501 61.8 40.4301 61.52 40.9001 61.52H45.3301H45.3201Z" fill="#0064FF"/>
<path d="M26.07 73.22L34.75 73.41C34.94 73.41 35.13 73.5 35.32 73.6L36.17 74.17C36.55 74.45 36.74 74.92 36.55 75.3L34.85 80.87C34.76 81.34 34.28 81.62 33.81 81.62H25.79C25.22 81.62 24.75 81.15 24.75 80.58L24.84 74.26C25.03 73.69 25.5 73.22 26.07 73.22Z" fill="#0064FF"/>
<path d="M47.7201 78.51L47.6801 80.77C47.6801 81.34 47.2101 81.81 46.6401 81.81H38.5301C37.7801 81.72 37.3001 81.06 37.4901 80.39L38.8101 75.48C38.9001 75.1 39.2801 74.82 39.6601 74.73L45.3201 73.88V75.34C45.3201 76.77 46.2501 77.93 47.7201 78.51Z" fill="#0064FF"/>
<path d="M58.06 75.29L56.46 80.86C56.37 81.33 55.89 81.61 55.42 81.61H50.8C50.23 81.61 49.76 81.14 49.76 80.57V78.9C49.83 78.9 49.89 78.9 49.96 78.9H53.15C55.83 78.9 57.78 77.4 57.78 75.32V74.23L57.87 74.33C58.06 74.61 58.15 74.99 58.06 75.27V75.29Z" fill="#0064FF"/>
<path d="M59.6599 63.03V68.88L59.4699 69.54C59.2799 70.2 59.8499 70.86 60.5099 70.86L66.6399 70.67C67.2999 70.67 67.7699 70.01 67.6799 69.44L66.3599 62.46C66.2699 61.89 65.7899 61.52 65.2299 61.61L60.6099 61.99C60.0399 61.99 59.6699 62.46 59.6699 63.03H59.6599Z" fill="#0064FF"/>
<path d="M60.23 74.2601C60.42 74.5401 60.42 74.8301 60.32 75.1101L58.81 80.3001C58.62 80.9601 59.09 81.6201 59.85 81.6201H66.74C67.4 81.6201 67.87 81.0501 67.78 80.3901L66.74 73.5001C66.65 72.9301 66.17 72.5601 65.7 72.5601H61.17C60.32 72.6501 59.75 73.6001 60.23 74.2601Z" fill="#0064FF"/>
<path d="M69 74.35L69.47 77.3701V80.67C69.47 81.24 69.94 81.71 70.51 81.71H77.21C77.78 81.71 78.25 81.24 78.25 80.67V74.2501C78.25 73.5901 77.68 73.1201 77.02 73.2101L72.59 73.8701H72.12L70.33 73.3001C69.58 72.9201 68.91 73.58 69.01 74.34L69 74.35Z" fill="#0064FF"/>
<path d="M68.53 62.93L70.13 70.48C70.22 70.86 70.51 71.23 70.88 71.33L72.39 71.71H72.77L77.3 71.05C77.87 70.96 78.24 70.48 78.24 70.01V63.41C78.24 62.84 77.86 62.37 77.3 62.37L69.56 61.71C68.9 61.52 68.33 62.18 68.52 62.94L68.53 62.93Z" fill="#0064FF"/>
<path d="M42.4201 28.34V31.93H25.9701C25.4001 31.93 24.8401 31.46 24.8401 30.8V29.48C24.8401 28.82 25.3101 28.35 25.9701 28.35H42.4201V28.34Z" fill="#0064FF"/>
<path d="M78.25 29.47V30.79C78.25 31.45 77.7801 31.92 77.1201 31.92H60.8V28.33H77.1201C77.7801 28.42 78.25 28.9 78.25 29.46V29.47Z" fill="#0064FF"/>
<path d="M44.66 33.3999H43.34C42.87 33.3999 42.49 33.0199 42.49 32.5499V31.0399C42.49 30.5699 42.87 30.1899 43.34 30.1899H44.66C45.13 30.1899 45.51 30.5699 45.51 31.0399V32.5499C45.51 33.0199 45.13 33.3999 44.66 33.3999Z" fill="#0064FF"/>
<path d="M44.66 37.17H43.34C42.87 37.17 42.49 36.79 42.49 36.32V34.81C42.49 34.34 42.87 33.96 43.34 33.96H44.66C45.13 33.96 45.51 34.34 45.51 34.81V36.32C45.51 36.79 45.13 37.17 44.66 37.17Z" fill="#0064FF"/>
<path d="M59.94 33.3999H58.62C58.15 33.3999 57.77 33.0199 57.77 32.5499V31.0399C57.77 30.5699 58.15 30.1899 58.62 30.1899H59.94C60.41 30.1899 60.79 30.5699 60.79 31.0399V32.5499C60.79 33.0199 60.41 33.3999 59.94 33.3999Z" fill="#0064FF"/>
<path d="M59.94 37.17H58.62C58.15 37.17 57.77 36.79 57.77 36.32V34.81C57.77 34.34 58.15 33.96 58.62 33.96H59.94C60.41 33.96 60.79 34.34 60.79 34.81V36.32C60.79 36.79 60.41 37.17 59.94 37.17Z" fill="#0064FF"/>
<path d="M56.8499 24.6199H56.2999V21.6599L55.8299 21.1899H47.3899L46.9199 21.6599V24.6199H46.3599L42.4299 26.9299V37.8799L47.2099 42.5299V75.3299C47.2099 76.3199 48.3499 77.0199 49.9599 77.0199H53.1499C54.7499 77.0199 55.8999 76.3199 55.8999 75.3299V42.6499L60.8099 37.8899V26.9399L56.8699 24.6299L56.8499 24.6199ZM52.9199 24.6199V68.5799C52.9199 69.6599 52.5599 70.4199 52.0499 70.4199H51.0499C50.5399 70.4199 50.1799 69.6599 50.1799 68.5799V24.6199H47.8599V22.1299H55.3499V24.6199H52.9099H52.9199Z" fill="#0064FF"/>
<path d="M70.4501 41.86C69.1101 46.86 64.2601 51.15 62.4001 52.64L59.1001 49.27V59.59H69.1901L66.4501 56.79C71.0501 53.74 71.4601 46.69 71.1401 41.93C71.1101 41.53 70.5501 41.48 70.4501 41.87V41.86Z" fill="#0064FF"/>
<path d="M32.55 41.86C33.89 46.86 38.74 51.15 40.6 52.64L43.9 49.27V59.59H33.81L36.55 56.79C31.95 53.74 31.54 46.69 31.86 41.93C31.89 41.53 32.45 41.48 32.55 41.87V41.86Z" fill="#0064FF"/>
</svg>
