<svg width="103" height="103" viewBox="0 0 103 103" fill="none" xmlns="http://www.w3.org/2000/svg">
<path d="M70.2 40.61C70.2 40.61 65.8 35.41 52.6 35.41C39.4 35.41 35 40.61 35 40.61V69.91C35 69.91 38.2 64.71 52.5 64.71C67.9 64.71 70.2 69.91 70.2 69.91V40.61Z" fill="#0064FF"/>
<path d="M55.3 24.21V16.51H49.3V24.41C50.1 24.01 51.2 23.71 52.5 23.71C53.6 23.71 54.6 23.91 55.3 24.21Z" fill="#0064FF"/>
<path d="M71.0001 45.11V42.21C71.3001 41.71 71.5001 41.21 71.5001 40.71C71.5001 40.31 71.4001 39.91 71.2001 39.51C69.6001 36.61 62.5001 33.51 52.6001 33.51C42.7001 33.51 35.6001 36.61 33.9001 39.51C33.7001 39.91 33.6001 40.31 33.6001 40.71C33.6001 41.21 33.8001 41.71 34.1001 42.21V45.11C32.5001 43.81 31.6001 42.31 31.6001 40.71V36.41C31.6001 32.01 38.8001 28.21 48.3001 27.41V27.21C48.3001 26.11 50.2001 25.21 52.6001 25.21C55.0001 25.21 56.9001 26.11 56.9001 27.21V27.41C66.5001 28.31 73.6001 32.01 73.6001 36.41V40.71C73.6001 42.31 72.6001 43.81 71.0001 45.11Z" fill="#0064FF"/>
<path d="M35 78.8399C36.8004 78.8399 38.26 77.3804 38.26 75.5799C38.26 73.7795 36.8004 72.3199 35 72.3199C33.1995 72.3199 31.74 73.7795 31.74 75.5799C31.74 77.3804 33.1995 78.8399 35 78.8399Z" fill="#0064FF"/>
<path d="M43.6899 74.17C45.4904 74.17 46.9499 72.7105 46.9499 70.91C46.9499 69.1096 45.4904 67.65 43.6899 67.65C41.8895 67.65 40.4299 69.1096 40.4299 70.91C40.4299 72.7105 41.8895 74.17 43.6899 74.17Z" fill="#0064FF"/>
<path d="M61.51 74.17C63.3104 74.17 64.77 72.7105 64.77 70.91C64.77 69.1096 63.3104 67.65 61.51 67.65C59.7096 67.65 58.25 69.1096 58.25 70.91C58.25 72.7105 59.7096 74.17 61.51 74.17Z" fill="#0064FF"/>
<path d="M52.6001 73.14C54.4005 73.14 55.8601 71.6804 55.8601 69.88C55.8601 68.0795 54.4005 66.62 52.6001 66.62C50.7996 66.62 49.3401 68.0795 49.3401 69.88C49.3401 71.6804 50.7996 73.14 52.6001 73.14Z" fill="#0064FF"/>
<path d="M43.6899 83.4599C45.4904 83.4599 46.9499 82.0004 46.9499 80.1999C46.9499 78.3995 45.4904 76.9399 43.6899 76.9399C41.8895 76.9399 40.4299 78.3995 40.4299 80.1999C40.4299 82.0004 41.8895 83.4599 43.6899 83.4599Z" fill="#0064FF"/>
<path d="M61.51 83.4599C63.3104 83.4599 64.77 82.0004 64.77 80.1999C64.77 78.3995 63.3104 76.9399 61.51 76.9399C59.7096 76.9399 58.25 78.3995 58.25 80.1999C58.25 82.0004 59.7096 83.4599 61.51 83.4599Z" fill="#0064FF"/>
<path d="M52.6001 84.49C54.4005 84.49 55.8601 83.0304 55.8601 81.23C55.8601 79.4295 54.4005 77.97 52.6001 77.97C50.7996 77.97 49.3401 79.4295 49.3401 81.23C49.3401 83.0304 50.7996 84.49 52.6001 84.49Z" fill="#0064FF"/>
<path d="M70.1999 78.8399C72.0004 78.8399 73.4599 77.3804 73.4599 75.5799C73.4599 73.7795 72.0004 72.3199 70.1999 72.3199C68.3995 72.3199 66.9399 73.7795 66.9399 75.5799C66.9399 77.3804 68.3995 78.8399 70.1999 78.8399Z" fill="#0064FF"/>
<path d="M52.6 81.7301C43.7 81.7301 34.5 79.4301 34.5 75.5801C34.5 71.7301 43.7 69.4301 52.6 69.4301C61.5 69.4301 70.7 71.7301 70.7 75.5801C70.7 79.4301 61.5 81.7301 52.6 81.7301ZM52.6 70.4301C42.52 70.4301 35.5 73.1401 35.5 75.5801C35.5 78.0201 42.52 80.7301 52.6 80.7301C62.68 80.7301 69.7 78.0201 69.7 75.5801C69.7 73.1401 62.68 70.4301 52.6 70.4301Z" fill="#0064FF"/>
</svg>
