<svg width="103" height="103" viewBox="0 0 103 103" fill="none" xmlns="http://www.w3.org/2000/svg">
<path d="M40.93 19.01C45.43 19.01 49.94 19.06 54.44 18.98C55.91 18.95 56.4 19.46 56.36 20.9C56.29 23.81 56.32 26.73 56.35 29.64C56.38 32.04 56.4 32.04 58.73 32.04C61.86 32.04 64.98 32.09 68.11 32.01C69.47 31.98 70.02 32.41 70 33.81C69.94 38.26 69.96 42.71 69.98 47.16C69.98 48.45 69.58 48.91 68.27 48.43C66.4 47.75 64.44 47.69 62.47 47.7C52.83 47.73 43.18 47.76 33.54 47.78C33.06 47.78 32.58 47.76 32.11 47.82C31.01 47.96 30.63 48.78 30.53 49.72C30.44 50.69 31.1 51.17 31.94 51.35C32.55 51.48 33.2 51.47 33.84 51.48C38.72 51.48 43.59 51.48 48.47 51.48C48.98 51.48 49.68 51.25 49.94 51.78C50.26 52.42 49.46 52.6 49.12 52.93C48.12 53.89 47.15 54.88 46.41 56.04C45.86 56.9 45.2 57.25 44.19 57.24C40.48 57.19 36.77 57.25 33.06 57.18C31.71 57.15 30.72 57.45 30.5 58.91C30.33 60.08 31.34 60.92 32.99 60.94C36.12 60.97 39.24 60.97 42.37 60.9C43.46 60.87 43.91 61.08 43.46 62.23C43.27 62.72 43.14 63.25 43.08 63.77C42.68 66.98 42.66 66.5 39.88 66.53C37.55 66.56 35.22 66.52 32.88 66.54C31.35 66.56 30.37 67.33 30.5 68.47C30.66 69.85 31.64 70.24 32.9 70.23C35.6 70.21 38.31 70.29 41.01 70.2C42.36 70.16 43.04 70.58 43.29 71.96C43.66 74.06 44.5 76.01 45.6 77.85C46.41 79.2 46.33 79.39 44.67 79.44C42.18 79.51 39.7 79.49 37.21 79.49C34.08 79.49 30.96 79.53 27.83 79.47C25.13 79.42 24.47 78.69 24.47 76.01C24.47 58.15 24.47 40.29 24.47 22.43C24.47 19.52 25 19 27.89 18.99C32.24 18.99 36.58 18.99 40.93 18.99V19.01ZM47.23 42.22C49.24 42.22 51.25 42.22 53.27 42.22C56.08 42.22 58.88 42.22 61.69 42.22C62.54 42.22 63.29 41.97 63.7 41.19C64.04 40.54 63.99 39.85 63.56 39.23C63.02 38.46 62.19 38.52 61.4 38.52C55.68 38.52 49.96 38.52 44.25 38.52C40.44 38.52 36.63 38.52 32.81 38.52C31.94 38.52 31.14 38.57 30.81 39.65C30.32 41.26 31.02 42.2 32.95 42.21C37.71 42.24 42.48 42.21 47.24 42.22H47.23Z" fill="#0064FF"/>
<path d="M62.7501 48.91C73.4301 48.81 81.4201 57.52 81.4501 67.38C81.4801 78.04 73.2501 86.2 62.8601 86.31C52.9601 86.41 44.0101 78.76 43.9801 67.67C43.9501 56.72 52.6901 48.83 62.7501 48.91ZM74.8501 57.87C73.2601 57.62 72.3201 58.27 71.3901 58.81C66.8201 61.46 63.3101 65.25 60.2101 69.46C59.5301 70.38 59.1101 70.84 58.1801 69.59C55.9601 66.61 53.1201 64.49 49.2501 64.14C48.7401 64.09 48.0701 63.82 47.8101 64.39C47.5201 65.03 48.2501 65.27 48.6501 65.54C51.7001 67.58 54.0601 70.24 55.8801 73.42C56.5601 74.61 57.3501 75.75 58.2201 76.81C59.1301 77.93 60.4201 77.84 61.2901 76.68C61.6701 76.18 61.9601 75.6 62.2601 75.04C63.8301 72.1 65.5401 69.24 67.4601 66.51C69.5901 63.48 72.0101 60.7 74.8601 57.86L74.8501 57.87Z" fill="#0064FF"/>
<path d="M63.3601 30.29C62.0401 30.29 60.7101 30.26 59.3901 30.3C58.3901 30.33 57.9201 29.93 57.9301 28.91C57.9501 26.21 57.9401 23.52 57.9501 20.82C57.9501 20.56 57.9301 20.25 58.2301 20.15C58.5301 20.05 58.7101 20.3 58.8901 20.48C61.9401 23.41 64.9901 26.34 68.0401 29.28C68.2201 29.45 68.4401 29.73 68.4101 29.92C68.3601 30.32 67.9501 30.28 67.6401 30.28C66.2101 30.29 64.7801 30.28 63.3601 30.28V30.29Z" fill="#0064FF"/>
</svg>
