<svg width="103" height="103" viewBox="0 0 103 103" fill="none" xmlns="http://www.w3.org/2000/svg">
<path d="M40.9302 19.01C45.4302 19.01 49.9402 19.06 54.4402 18.98C55.9102 18.95 56.4002 19.46 56.3602 20.9C56.2902 23.81 56.3202 26.73 56.3502 29.64C56.3802 32.04 56.4002 32.04 58.7302 32.04C61.8602 32.04 64.9802 32.09 68.1102 32.01C69.4702 31.98 70.0202 32.41 70.0002 33.81C69.9402 38.26 69.9602 42.71 69.9802 47.16C69.9802 48.45 69.5802 48.91 68.2702 48.43C66.4002 47.75 64.4402 47.69 62.4702 47.7C52.8302 47.73 43.1802 47.76 33.5402 47.78C33.0602 47.78 32.5802 47.76 32.1102 47.82C31.0102 47.96 30.6302 48.78 30.5302 49.72C30.4402 50.69 31.1002 51.17 31.9402 51.35C32.5502 51.48 33.2002 51.47 33.8402 51.48C38.7202 51.48 43.5902 51.48 48.4702 51.48C48.9802 51.48 49.6802 51.25 49.9402 51.78C50.2602 52.42 49.4602 52.6 49.1202 52.93C48.1202 53.89 47.1502 54.88 46.4102 56.04C45.8602 56.9 45.2002 57.25 44.1902 57.24C40.4802 57.19 36.7702 57.25 33.0602 57.18C31.7102 57.15 30.7202 57.45 30.5002 58.91C30.3302 60.08 31.3402 60.92 32.9902 60.94C36.1202 60.97 39.2402 60.97 42.3702 60.9C43.4602 60.87 43.9102 61.08 43.4602 62.23C43.2702 62.72 43.1402 63.25 43.0802 63.77C42.6802 66.98 42.6602 66.5 39.8802 66.53C37.5502 66.56 35.2202 66.52 32.8802 66.54C31.3502 66.56 30.3702 67.33 30.5002 68.47C30.6602 69.85 31.6402 70.24 32.9002 70.23C35.6002 70.21 38.3102 70.29 41.0102 70.2C42.3602 70.16 43.0402 70.58 43.2902 71.96C43.6602 74.06 44.5002 76.01 45.6002 77.85C46.4102 79.2 46.3302 79.39 44.6702 79.44C42.1802 79.51 39.7002 79.49 37.2102 79.49C34.0802 79.49 30.9602 79.53 27.8302 79.47C25.1302 79.42 24.4702 78.69 24.4702 76.01C24.4702 58.15 24.4702 40.29 24.4702 22.43C24.4702 19.52 25.0002 19 27.8902 18.99C32.2402 18.99 36.5802 18.99 40.9302 18.99V19.01ZM47.2302 42.22C49.2402 42.22 51.2502 42.22 53.2702 42.22C56.0802 42.22 58.8802 42.22 61.6902 42.22C62.5402 42.22 63.2902 41.97 63.7002 41.19C64.0402 40.54 63.9902 39.85 63.5602 39.23C63.0202 38.46 62.1902 38.52 61.4002 38.52C55.6802 38.52 49.9602 38.52 44.2502 38.52C40.4402 38.52 36.6302 38.52 32.8102 38.52C31.9402 38.52 31.1402 38.57 30.8102 39.65C30.3202 41.26 31.0202 42.2 32.9502 42.21C37.7102 42.24 42.4802 42.21 47.2402 42.22H47.2302Z" fill="white"/>
<path d="M62.7501 48.91C73.4301 48.81 81.4201 57.52 81.4501 67.38C81.4801 78.04 73.2501 86.2 62.8601 86.31C52.9601 86.41 44.0101 78.76 43.9801 67.67C43.9501 56.72 52.6901 48.83 62.7501 48.91ZM74.8501 57.87C73.2601 57.62 72.3201 58.27 71.3901 58.81C66.8201 61.46 63.3101 65.25 60.2101 69.46C59.5301 70.38 59.1101 70.84 58.1801 69.59C55.9601 66.61 53.1201 64.49 49.2501 64.14C48.7401 64.09 48.0701 63.82 47.8101 64.39C47.5201 65.03 48.2501 65.27 48.6501 65.54C51.7001 67.58 54.0601 70.24 55.8801 73.42C56.5601 74.61 57.3501 75.75 58.2201 76.81C59.1301 77.93 60.4201 77.84 61.2901 76.68C61.6701 76.18 61.9601 75.6 62.2601 75.04C63.8301 72.1 65.5401 69.24 67.4601 66.51C69.5901 63.48 72.0101 60.7 74.8601 57.86L74.8501 57.87Z" fill="white"/>
<path d="M63.3598 30.29C62.0398 30.29 60.7098 30.26 59.3898 30.3C58.3898 30.33 57.9198 29.93 57.9298 28.91C57.9498 26.21 57.9398 23.52 57.9498 20.82C57.9498 20.56 57.9298 20.25 58.2298 20.15C58.5298 20.05 58.7098 20.3 58.8898 20.48C61.9398 23.41 64.9898 26.34 68.0398 29.28C68.2198 29.45 68.4398 29.73 68.4098 29.92C68.3598 30.32 67.9498 30.28 67.6398 30.28C66.2098 30.29 64.7798 30.28 63.3598 30.28V30.29Z" fill="white"/>
</svg>
