<svg width="103" height="103" viewBox="0 0 103 103" fill="none" xmlns="http://www.w3.org/2000/svg">
<path d="M56.2099 68.38H49.4899V66.68C49.4899 66.07 48.9999 65.58 48.3899 65.58H36.7599C36.1499 65.58 35.6599 66.07 35.6599 66.68V68.38H28.9399C26.0099 68.38 23.6299 70.76 23.6299 73.69C23.6299 76.62 26.0099 79 28.9399 79H56.2099C59.1399 79 61.5199 76.62 61.5199 73.69C61.5199 70.76 59.1399 68.38 56.2099 68.38Z" fill="#0064FF"/>
<path d="M65.5999 21.1901H61.2199C60.1699 21.1901 59.3199 22.0401 59.3199 23.0901V42.0601C59.3199 43.1101 58.4699 43.9601 57.4099 43.9601H24.3399C23.2799 43.9601 22.4299 44.8201 22.4299 45.8701V61.9501C22.4299 63.0101 23.2799 63.8601 24.3399 63.8601H65.5999C66.6499 63.8601 67.5099 63.0101 67.5099 61.9501V23.0801C67.5099 22.0301 66.6499 21.1801 65.5999 21.1801V21.1901ZM28.0399 53.6001H25.3999V50.9501H28.0399V53.6001ZM28.0399 50.0501H25.3999V47.4101H28.0399V50.0501Z" fill="#0064FF"/>
<path d="M56.81 24.4699V27.6099C56.81 27.6799 56.78 27.7399 56.74 27.7899L43.09 41.4499C43.09 41.4499 42.98 41.5199 42.91 41.5199H39.75C39.53 41.5199 39.42 41.2499 39.57 41.0899L56.38 24.2899C56.54 24.1299 56.81 24.2399 56.81 24.4699Z" fill="#0064FF"/>
<path d="M80.3601 32.35L75.9601 27.04C75.7801 26.83 75.5201 26.71 75.2501 26.71H70.2701C69.7601 26.71 69.3501 27.12 69.3501 27.63V37.58C69.3501 38.09 69.7601 38.5 70.2701 38.5H72.9601V81.15C72.9601 81.52 73.2601 81.81 73.6201 81.81H75.0201C75.3901 81.81 75.6801 81.51 75.6801 81.15V38.5H79.6501C80.1601 38.5 80.5701 38.09 80.5701 37.58V32.94C80.5701 32.72 80.4901 32.52 80.3601 32.35Z" fill="#0064FF"/>
</svg>
