<svg width="103" height="103" viewBox="0 0 103 103" fill="none" xmlns="http://www.w3.org/2000/svg">
<path d="M69.36 47.87L52.51 20.09C52.32 19.78 51.99 19.59 51.63 19.59H51.3C50.94 19.59 50.6 19.78 50.42 20.09L33.64 47.88C33.59 47.97 33.51 48.05 33.44 48.12C32.82 48.66 32.46 49.24 32.46 49.84C32.46 52.87 40.99 55.32 51.51 55.32C62.03 55.32 70.56 52.87 70.56 49.84C70.56 49.24 70.2 48.66 69.57 48.12C69.49 48.05 69.42 47.97 69.37 47.88L69.36 47.87Z" fill="#0064FF"/>
<path d="M69.97 53.1701C69.97 56.7101 61.7 59.5901 51.5 59.5901C41.3 59.5901 33.03 56.7101 33.03 53.1701C33.03 52.8301 33.1 52.5001 33.25 52.1801C34.63 55.2501 42.28 57.6001 51.5 57.6001C60.72 57.6001 68.37 55.2501 69.75 52.1801C69.9 52.5001 69.97 52.8301 69.97 53.1701Z" fill="#0064FF"/>
<path d="M62.9001 58.38V61.4C62.9001 63.16 57.8001 64.59 51.5001 64.59C45.2001 64.59 40.1001 63.16 40.1001 61.4V58.38C40.1001 58.93 40.5901 59.44 41.4601 59.89C43.3801 60.89 47.1501 61.57 51.5001 61.57C55.8501 61.57 59.6201 60.89 61.5401 59.89C62.4101 59.44 62.9001 58.93 62.9001 58.38Z" fill="#0064FF"/>
<path d="M62.9001 63.2V78.22C62.9001 79.98 57.8001 81.41 51.5001 81.41C45.2001 81.41 40.1001 79.98 40.1001 78.22V63.2C40.1001 63.75 40.5901 64.2599 41.4601 64.7099C43.3801 65.7099 47.1501 66.3899 51.5001 66.3899C55.8501 66.3899 59.6201 65.7099 61.5401 64.7099C62.4101 64.2599 62.9001 63.75 62.9001 63.2Z" fill="#0064FF"/>
</svg>
