<svg width="103" height="103" viewBox="0 0 103 103" fill="none" xmlns="http://www.w3.org/2000/svg">
<path d="M37.1 24.11H66.53C66.22 25.08 67.01 25.21 67.74 25.45C70.03 26.23 71.9 27.4 72.44 29.71C72.83 31.34 72.22 32.74 71.19 34.04C69.8 35.8 67.92 37.09 65.85 38.17C61.39 40.5 56.55 41.76 51.39 42.07C46.76 42.35 42.14 42.26 37.63 41.24C35.97 40.86 34.3 40.3 32.84 39.53C29.73 37.89 29.27 35.04 31.8 32.77C33.09 31.61 34.77 30.77 36.34 29.86C36.88 29.55 37.12 29.29 37.1 28.71C37.05 27.2 37.08 25.7 37.08 24.09L37.1 24.11Z" fill="#0064FF"/>
<path d="M36.9499 43.95C38.6299 44.17 40.5399 44.53 42.2299 44.66C50.0699 45.24 57.7399 44.72 64.9699 41.64C65.0999 41.58 66.8499 40.82 66.9499 40.74C66.9499 40.74 67.59 40.91 68.7599 41.43C72.7899 43.22 73.7799 46.84 71.0399 50.02C69.4299 51.88 67.2799 53.15 64.9799 54.22C58.83 57.09 52.2399 58.09 45.3499 57.77C42.1099 57.62 38.8799 57.38 35.8099 56.39C34.5599 55.99 33.2899 55.46 32.2299 54.76C29.8199 53.18 29.5699 50.74 31.4499 48.67C32.6099 47.39 34.1299 46.49 35.7399 45.72C36.9699 45.13 37.1099 45.2 36.9499 43.95Z" fill="#0064FF"/>
<path d="M37.0199 59.47C40.6299 60.24 44.0799 60.5 47.5599 60.48C54.1499 60.44 60.4999 59.44 66.3599 56.61C66.5699 56.51 66.9599 56.33 66.9599 56.33C69.3999 56.66 71.9099 58.81 72.4399 60.93C72.8199 62.47 72.2599 63.82 71.3099 65.06C69.4999 67.44 66.8999 69.01 64.0699 70.28C59.3599 72.4 54.3299 73.3 49.0799 73.38C44.6499 73.44 40.2399 73.3 35.9999 72.05C34.6599 71.65 33.3099 71.07 32.1799 70.33C29.8299 68.79 29.5899 66.4 31.3799 64.36C32.5799 62.99 34.1699 62.05 35.8799 61.28C36.6899 60.92 37.3999 60.58 37.0099 59.48L37.0199 59.47Z" fill="#0064FF"/>
<path d="M44.8701 76.04C49.4401 76.19 53.7801 75.9 58.3101 74.98C55.8401 77.7 53.5101 80.26 51.1201 82.89C49.0501 80.62 47.0301 78.4 44.8801 76.03L44.8701 76.04Z" fill="#0064FF"/>
</svg>
