<svg width="104" height="103" viewBox="0 0 104 103" fill="none" xmlns="http://www.w3.org/2000/svg">
<path d="M57.0898 15.8501C58.9398 16.5501 60.3398 17.6001 60.3598 19.8201C60.3798 21.9201 59.0398 23.6001 56.9898 23.9801C55.2298 24.3101 53.1598 23.0001 52.5298 21.1701C51.8898 19.2901 52.6898 17.3201 54.4998 16.3401C54.8198 16.1601 55.1598 16.0101 55.4898 15.8501C56.0198 15.8501 56.5498 15.8501 57.0798 15.8501H57.0898Z" fill="white"/>
<path d="M52.3602 87.5101C46.5802 87.5101 40.8002 87.5301 35.0102 87.5101C32.2602 87.5001 29.6602 86.8901 27.2402 85.5201C22.1802 82.6601 20.4302 77.3801 22.7702 72.0301C24.4902 68.0901 27.0502 64.7101 29.8002 61.4701C32.8802 57.8301 36.0402 54.2501 39.2402 50.7101C40.4002 49.4201 40.9702 48.0701 40.9202 46.2801C40.8102 42.1501 40.8602 38.0101 40.9102 33.8701C40.9202 32.8701 40.7002 32.3601 39.6102 32.4601C38.6402 32.5501 38.3002 31.9901 38.3002 31.1001C38.3102 25.7901 37.7802 26.7001 42.2902 26.6701C49.5002 26.6201 56.7202 26.6501 63.9302 26.6601C66.0102 26.6601 66.0702 26.7301 66.0802 28.8101C66.0802 29.3901 66.0502 29.9801 66.0802 30.5601C66.1402 31.7001 65.9602 32.5901 64.5002 32.5001C63.7502 32.4601 63.4902 32.9501 63.4902 33.6301C63.4902 38.3501 63.4902 43.0701 63.5002 47.7901C63.5002 48.8401 64.2502 49.5101 64.8702 50.2301C68.8102 54.7501 72.8602 59.1601 76.5802 63.8601C78.4302 66.2001 80.0802 68.6501 81.3602 71.3601C84.4202 77.8501 81.8802 84.0901 75.1302 86.5101C73.2802 87.1701 71.3602 87.5501 69.3702 87.5401C63.6902 87.5101 58.0202 87.5401 52.3402 87.5401L52.3602 87.5101ZM46.9602 40.6401C49.3102 37.5901 51.5302 37.0901 53.6402 38.9201C55.4602 40.5001 55.5902 43.2101 53.9102 44.8601C51.9302 46.8201 49.3902 46.3301 46.9402 43.3901C46.9402 44.2701 46.8602 45.0101 46.9502 45.7201C47.3702 49.0201 46.2202 51.6801 43.9902 54.0901C41.0702 57.2401 38.2902 60.5101 35.4802 63.7601C32.6602 67.0101 29.9402 70.3301 28.1902 74.3201C27.0102 77.0301 27.8002 79.2601 30.3602 80.6001C31.3602 81.1201 31.9102 81.0001 32.1702 79.8301C32.7202 77.3201 33.7902 75.0101 34.9602 72.7501C37.0202 68.7901 39.4902 65.0801 41.8802 61.3301C42.6202 60.1701 43.4502 59.6901 44.8502 59.7101C51.0002 59.7701 57.1602 59.7301 63.3102 59.7101C63.8502 59.7101 64.4702 59.9301 65.0302 59.3801C63.2402 57.2601 61.4802 55.1501 59.6802 53.0801C58.2702 51.4501 57.5402 49.6801 57.6002 47.4401C57.7102 42.9901 57.6902 38.5301 57.4402 34.0801C57.3902 33.1001 57.2202 32.4501 56.0302 32.4701C53.4302 32.5101 50.8302 32.5001 48.2302 32.4701C47.2502 32.4601 46.9302 32.9201 46.9402 33.8401C46.9602 36.0101 46.9402 38.1801 46.9402 40.6601L46.9602 40.6401ZM66.0002 73.7501C66.0002 70.5201 63.5502 68.0601 60.3802 68.1101C57.3602 68.1501 54.9102 70.7101 54.9302 73.8101C54.9402 76.9001 57.3902 79.2101 60.6102 79.2001C63.7502 79.1801 66.0102 76.9001 66.0002 73.7601V73.7501ZM44.0402 66.8601C44.0402 69.3101 45.6702 70.9201 48.1102 70.9001C50.3102 70.8801 51.9802 69.1801 51.9902 66.9601C51.9902 64.5801 50.4202 62.9801 48.0402 62.9601C45.6302 62.9401 44.0402 64.4901 44.0402 66.8601Z" fill="white"/>
</svg>
