<svg width="103" height="103" viewBox="0 0 103 103" fill="none" xmlns="http://www.w3.org/2000/svg">
<path d="M56.5901 15.85C58.4401 16.55 59.8401 17.6 59.8601 19.82C59.8801 21.92 58.5401 23.6 56.4901 23.98C54.7301 24.31 52.6601 23 52.0301 21.17C51.3901 19.29 52.1901 17.32 54.0001 16.34C54.3201 16.16 54.6601 16.01 54.9901 15.85C55.5201 15.85 56.0501 15.85 56.5801 15.85H56.5901Z" fill="#0064FF"/>
<path d="M51.86 87.51C46.08 87.51 40.3 87.53 34.51 87.51C31.76 87.5 29.16 86.89 26.74 85.52C21.68 82.66 19.93 77.38 22.27 72.03C23.99 68.09 26.55 64.71 29.3 61.47C32.38 57.83 35.54 54.25 38.74 50.71C39.9 49.42 40.47 48.07 40.42 46.28C40.31 42.15 40.36 38.01 40.41 33.87C40.42 32.87 40.2 32.36 39.11 32.46C38.14 32.55 37.8 31.99 37.8 31.1C37.81 25.79 37.28 26.7 41.79 26.67C49 26.62 56.22 26.65 63.43 26.66C65.51 26.66 65.57 26.73 65.58 28.81C65.58 29.39 65.55 29.98 65.58 30.56C65.64 31.7 65.46 32.59 64 32.5C63.25 32.46 62.99 32.95 62.99 33.63C62.99 38.35 62.99 43.07 63 47.79C63 48.84 63.75 49.51 64.37 50.23C68.31 54.75 72.36 59.16 76.08 63.86C77.93 66.2 79.58 68.65 80.86 71.36C83.92 77.85 81.38 84.09 74.63 86.51C72.78 87.17 70.86 87.55 68.87 87.54C63.19 87.51 57.52 87.54 51.84 87.54L51.86 87.51ZM46.46 40.64C48.81 37.59 51.03 37.09 53.14 38.92C54.96 40.5 55.09 43.21 53.41 44.86C51.43 46.82 48.89 46.33 46.44 43.39C46.44 44.27 46.36 45.01 46.45 45.72C46.87 49.02 45.72 51.68 43.49 54.09C40.57 57.24 37.79 60.51 34.98 63.76C32.16 67.01 29.44 70.33 27.69 74.32C26.51 77.03 27.3 79.26 29.86 80.6C30.86 81.12 31.41 81 31.67 79.83C32.22 77.32 33.29 75.01 34.46 72.75C36.52 68.79 38.99 65.08 41.38 61.33C42.12 60.17 42.95 59.69 44.35 59.71C50.5 59.77 56.66 59.73 62.81 59.71C63.35 59.71 63.97 59.93 64.53 59.38C62.74 57.26 60.98 55.15 59.18 53.08C57.77 51.45 57.04 49.68 57.1 47.44C57.21 42.99 57.19 38.53 56.94 34.08C56.89 33.1 56.72 32.45 55.53 32.47C52.93 32.51 50.33 32.5 47.73 32.47C46.75 32.46 46.43 32.92 46.44 33.84C46.46 36.01 46.44 38.18 46.44 40.66L46.46 40.64ZM65.5 73.75C65.5 70.52 63.05 68.06 59.88 68.11C56.86 68.15 54.41 70.71 54.43 73.81C54.44 76.9 56.89 79.21 60.11 79.2C63.25 79.18 65.51 76.9 65.5 73.76V73.75ZM43.54 66.86C43.54 69.31 45.17 70.92 47.61 70.9C49.81 70.88 51.48 69.18 51.49 66.96C51.49 64.58 49.92 62.98 47.54 62.96C45.13 62.94 43.54 64.49 43.54 66.86Z" fill="#0064FF"/>
</svg>
