<svg width="103" height="103" viewBox="0 0 103 103" fill="none" xmlns="http://www.w3.org/2000/svg">
<path d="M55.28 83.76H30.53V29.79H55.28V83.76ZM33.21 81.08H52.6V36.75H33.21V81.08Z" fill="#0064FF"/>
<path d="M46.7901 48.8801C43.9201 48.8801 41.5801 46.5401 41.5801 43.6701C41.5801 40.8001 43.9201 38.4601 46.7901 38.4601C49.6601 38.4601 52.0001 40.8001 52.0001 43.6701C52.0001 46.5401 49.6601 48.8801 46.7901 48.8801ZM46.7901 39.6501C44.5801 39.6501 42.7701 41.4501 42.7701 43.6701C42.7701 45.8901 44.5701 47.6901 46.7901 47.6901C49.0101 47.6901 50.8101 45.8901 50.8101 43.6701C50.8101 41.4501 49.0101 39.6501 46.7901 39.6501Z" fill="#0064FF"/>
<path d="M45.48 47.09C45.41 47.09 45.34 47.08 45.27 47.05C45.02 46.94 44.9 46.64 45.02 46.39L46.33 43.47C46.44 43.22 46.74 43.1 47 43.22C47.25 43.33 47.37 43.63 47.25 43.88L45.94 46.8C45.86 46.99 45.67 47.1 45.48 47.1V47.09Z" fill="#0064FF"/>
<path d="M46.7901 63.7201C43.9201 63.7201 41.5801 61.38 41.5801 58.51C41.5801 55.64 43.9201 53.3 46.7901 53.3C49.6601 53.3 52.0001 55.64 52.0001 58.51C52.0001 61.38 49.6601 63.7201 46.7901 63.7201ZM46.7901 54.4901C44.5801 54.4901 42.7701 56.29 42.7701 58.51C42.7701 60.73 44.5701 62.53 46.7901 62.53C49.0101 62.53 50.8101 60.73 50.8101 58.51C50.8101 56.29 49.0101 54.4901 46.7901 54.4901Z" fill="#0064FF"/>
<path d="M45.48 61.9301C45.41 61.9301 45.34 61.9201 45.27 61.8901C45.02 61.7801 44.9 61.4801 45.02 61.2301L46.33 58.3101C46.44 58.0601 46.74 57.9401 47 58.0601C47.25 58.1701 47.37 58.4701 47.25 58.7201L45.94 61.6401C45.86 61.8301 45.67 61.9401 45.48 61.9401V61.9301Z" fill="#0064FF"/>
<path d="M37.9401 41.8201H37.2801C36.9267 41.8201 36.6401 42.1066 36.6401 42.4601V73.0301C36.6401 73.3835 36.9267 73.6701 37.2801 73.6701H37.9401C38.2936 73.6701 38.5801 73.3835 38.5801 73.0301V42.4601C38.5801 42.1066 38.2936 41.8201 37.9401 41.8201Z" fill="#0064FF"/>
<path d="M38.6401 75.8301H36.4801C36.2702 75.8301 36.1001 76.0002 36.1001 76.2101V76.7401C36.1001 76.9499 36.2702 77.1201 36.4801 77.1201H38.6401C38.85 77.1201 39.0201 76.9499 39.0201 76.7401V76.2101C39.0201 76.0002 38.85 75.8301 38.6401 75.8301Z" fill="#0064FF"/>
<path d="M42.1001 75.8301H39.9401C39.7302 75.8301 39.5601 76.0002 39.5601 76.2101V76.7401C39.5601 76.9499 39.7302 77.1201 39.9401 77.1201H42.1001C42.3099 77.1201 42.4801 76.9499 42.4801 76.7401V76.2101C42.4801 76.0002 42.3099 75.8301 42.1001 75.8301Z" fill="#0064FF"/>
<path d="M46.3801 74.14H44.2201C44.0102 74.14 43.8401 74.3101 43.8401 74.52V75.05C43.8401 75.2599 44.0102 75.43 44.2201 75.43H46.3801C46.59 75.43 46.7601 75.2599 46.7601 75.05V74.52C46.7601 74.3101 46.59 74.14 46.3801 74.14Z" fill="#0064FF"/>
<path d="M49.84 74.14H47.68C47.4702 74.14 47.3 74.3101 47.3 74.52V75.05C47.3 75.2599 47.4702 75.43 47.68 75.43H49.84C50.0499 75.43 50.2201 75.2599 50.2201 75.05V74.52C50.2201 74.3101 50.0499 74.14 49.84 74.14Z" fill="#0064FF"/>
<path d="M58.8101 24.32C59.7301 24.32 60.4801 23.57 60.4801 22.65C60.4801 21.73 59.7301 20.98 58.8101 20.98C57.8901 20.98 57.1401 21.73 57.1401 22.65C57.1401 23.57 57.8901 24.32 58.8101 24.32ZM58.8101 21.37C59.5201 21.37 60.1001 21.95 60.1001 22.66C60.1001 23.37 59.5201 23.94 58.8101 23.94C58.1001 23.94 57.5301 23.36 57.5301 22.66C57.5301 21.96 58.1101 21.37 58.8101 21.37Z" fill="#0064FF"/>
<path d="M58.3901 23.75C58.4501 23.75 58.5101 23.71 58.5401 23.65L58.9601 22.72C59.0001 22.64 58.9601 22.54 58.8801 22.51C58.8001 22.47 58.7001 22.51 58.6701 22.59L58.2501 23.52C58.2101 23.6 58.2501 23.7 58.3301 23.73C58.3501 23.73 58.3701 23.74 58.4001 23.74L58.3901 23.75Z" fill="#0064FF"/>
<path d="M62.14 24.32C63.06 24.32 63.81 23.57 63.81 22.65C63.81 21.73 63.06 20.98 62.14 20.98C61.22 20.98 60.47 21.73 60.47 22.65C60.47 23.57 61.22 24.32 62.14 24.32ZM62.14 21.37C62.85 21.37 63.43 21.95 63.43 22.66C63.43 23.37 62.85 23.94 62.14 23.94C61.43 23.94 60.86 23.36 60.86 22.66C60.86 21.96 61.44 21.37 62.14 21.37Z" fill="#0064FF"/>
<path d="M61.7201 23.75C61.7801 23.75 61.8401 23.71 61.8701 23.65L62.2901 22.72C62.3301 22.64 62.2901 22.54 62.2101 22.51C62.1301 22.47 62.0301 22.51 62.0001 22.59L61.5801 23.52C61.5401 23.6 61.5801 23.7 61.6601 23.73C61.6801 23.73 61.7001 23.74 61.7301 23.74L61.7201 23.75Z" fill="#0064FF"/>
<path d="M68.8801 28.0799V26.9199C68.8801 26.7199 68.7201 26.5599 68.5201 26.5599H67.4701V26.0399H68.5201C68.7201 26.0399 68.8801 25.8799 68.8801 25.6799V25.2799C68.8801 25.0799 68.7201 24.9199 68.5201 24.9199H67.4701V23.1399H68.5201C68.7201 23.1399 68.8801 22.9799 68.8801 22.7799V21.7999C68.8801 21.5999 68.7201 21.4399 68.5201 21.4399H64.9301C64.7301 21.4399 64.5701 21.5999 64.5701 21.7999V22.7799C64.5701 22.9799 64.7301 23.1399 64.9301 23.1399H65.9801V24.9199H64.9301C64.8501 24.9199 64.7801 24.9499 64.7201 24.9899C63.5901 25.0799 57.7801 25.5499 57.6801 25.5499C55.8101 25.8599 53.9801 26.7499 52.5901 28.0299C53.4201 27.3499 54.4301 26.9399 55.4201 26.5699C56.4001 26.1999 57.4501 26.0099 58.4901 26.0599L64.7401 25.9799C64.7901 26.0099 64.8501 26.0399 64.9201 26.0399H65.9701V26.5599H64.9201C64.7201 26.5599 64.5601 26.7199 64.5601 26.9199V28.0799C62.4501 29.0099 60.9701 31.2699 60.9701 33.8999V84.0099H72.4701V33.8999C72.4701 31.2599 70.9801 29.0099 68.8801 28.0799Z" fill="#0064FF"/>
</svg>
