<svg width="103" height="103" viewBox="0 0 103 103" fill="none" xmlns="http://www.w3.org/2000/svg">
<path d="M72.8699 32.0399C71.7799 31.1799 69.8299 31.1799 69.8299 31.1799L62.1499 31.4099C61.4599 32.0399 60.6599 32.6699 59.3399 32.6699C58.0199 32.6699 56.6999 32.6199 56.1299 31.4099C55.5599 30.2099 57.1599 29.2899 58.3099 29.1199C59.4599 28.9499 61.3499 29.5199 61.3499 29.5199L70.3699 29.5699C70.5899 29.7099 70.8499 29.7899 71.1299 29.7899C71.9299 29.7899 72.5699 29.1499 72.5699 28.3599C72.5699 27.5699 71.9299 26.9199 71.1299 26.9199C70.6999 26.9199 70.3199 27.1099 70.0599 27.4099C69.2599 26.7399 68.1099 25.9599 66.4699 25.1499C66.4999 25.0399 66.5199 24.9199 66.5199 24.7999C66.5199 24.0099 65.8699 23.3699 65.0799 23.3699C64.5699 23.3699 64.1299 23.6299 63.8699 24.0299C61.7099 23.2399 59.6299 22.7799 57.8999 22.5199C57.9099 21.7199 57.2699 21.0699 56.4699 21.0699C55.7699 21.0699 55.1899 21.5699 55.0699 22.2299C54.0799 22.1599 53.4899 22.1799 53.4899 22.1799C53.9499 24.7599 52.8599 25.3899 52.8599 25.3899C52.8599 25.3899 53.3199 28.8899 51.5599 28.7799C49.8099 28.6599 49.9999 25.4499 49.9999 25.4499C49.1899 24.4799 49.9999 22.1799 49.9999 22.1799C49.9999 22.1799 49.0299 22.1699 47.5599 22.2799C47.3999 21.6699 46.8399 21.2199 46.1699 21.2199C45.4099 21.2199 44.7799 21.8199 44.7499 22.5699C42.8799 22.8299 40.7599 23.2599 38.8799 23.9799C38.6099 23.6099 38.1799 23.3699 37.6999 23.3699C36.9099 23.3699 36.2699 24.0099 36.2699 24.7999C36.2699 24.9399 36.2899 25.0799 36.3299 25.2099C35.0699 25.9199 33.9999 26.6699 33.1299 27.3699C32.8699 27.0899 32.4999 26.9199 32.0899 26.9199C31.2999 26.9199 30.6499 27.5699 30.6499 28.3599C30.6499 28.7199 30.7799 29.0399 31.0099 29.2899C30.5999 29.7199 30.3899 29.9799 30.3899 29.9799L41.1699 30.2099C41.5699 29.7499 41.6799 29.5199 44.1499 29.2899C46.6099 29.0599 46.6099 30.7799 46.5599 31.6999C46.4999 32.6199 45.4099 32.6199 43.5199 32.4699C41.6299 32.3299 41.1699 31.6999 41.1699 31.6999C41.1699 31.6999 36.1799 31.3599 33.2599 31.2999C30.3299 31.2399 29.1299 33.6499 29.1299 33.6499C30.4499 38.9199 33.3699 39.6699 36.5799 41.4399C39.2599 42.9299 45.8099 43.4899 47.9099 43.6399C48.3099 43.6699 48.6799 43.4499 48.8599 43.0999L49.8799 41.0999V35.9399C49.8799 34.6799 50.5099 34.1599 51.8299 34.1599C53.1499 34.1599 53.7799 35.2499 53.7799 35.9399C53.7799 36.6299 54.0099 40.5799 54.0099 40.5799L54.7599 42.9699C54.8899 43.3899 55.2899 43.6899 55.7299 43.6799C65.4199 43.4999 72.1499 37.6899 73.2099 36.2899C74.2999 34.8499 73.9599 32.8999 72.8699 32.0399ZM64.3199 26.2499C65.1099 26.2499 65.7499 26.6499 65.7499 27.1399C65.7499 27.6299 65.1099 28.0299 64.3199 28.0299C63.5299 28.0299 62.8899 27.6299 62.8899 27.1399C62.8899 26.6499 63.5299 26.2499 64.3199 26.2499ZM60.5799 24.2599C61.3699 24.2599 62.0199 24.6599 62.0199 25.1499C62.0199 25.6399 61.3699 26.0399 60.5799 26.0399C59.7899 26.0399 59.1499 25.6399 59.1499 25.1499C59.1499 24.6599 59.7899 24.2599 60.5799 24.2599ZM37.4199 28.3599C36.6299 28.3599 35.9899 27.9599 35.9899 27.4699C35.9899 26.9799 36.6299 26.5799 37.4199 26.5799C38.2099 26.5799 38.8499 26.9799 38.8499 27.4699C38.8499 27.9599 38.2099 28.3599 37.4199 28.3599ZM41.6299 26.5799C40.8399 26.5799 40.1999 26.1799 40.1999 25.6899C40.1999 25.1999 40.8399 24.7999 41.6299 24.7999C42.4199 24.7999 43.0599 25.1999 43.0599 25.6899C43.0599 26.1799 42.4199 26.5799 41.6299 26.5799ZM31.8599 35.5999C31.0699 35.5999 30.4299 34.9599 30.4299 34.1599C30.4299 33.3599 31.0699 32.7299 31.8599 32.7299C32.6499 32.7299 33.2999 33.3699 33.2999 34.1599C33.2999 34.9499 32.6499 35.5999 31.8599 35.5999ZM35.7999 39.6899C35.0099 39.6899 34.3699 39.0499 34.3699 38.2599C34.3699 37.4699 35.0099 36.8199 35.7999 36.8199C36.5899 36.8199 37.2399 37.4599 37.2399 38.2599C37.2399 39.0599 36.5999 39.6899 35.7999 39.6899ZM35.7999 34.5899C35.0099 34.5899 34.3699 34.1999 34.3699 33.7099C34.3699 33.2199 35.0099 32.8199 35.7999 32.8199C36.5899 32.8199 37.2399 33.2099 37.2399 33.7099C37.2399 34.2099 36.5999 34.5899 35.7999 34.5899ZM41.6299 35.4799C40.8399 35.4799 40.1999 35.0799 40.1999 34.5899C40.1999 34.0999 40.8399 33.7099 41.6299 33.7099C42.4199 33.7099 43.0599 34.0999 43.0599 34.5899C43.0599 35.0799 42.4199 35.4799 41.6299 35.4799ZM56.4699 26.0399C57.2599 26.0399 57.8999 26.4399 57.8999 26.9299C57.8999 27.4199 57.2599 27.8199 56.4699 27.8199C55.6799 27.8199 55.0399 27.4199 55.0399 26.9299C55.0399 26.4399 55.6799 26.0399 56.4699 26.0399ZM45.6099 26.0399C45.6099 25.5499 46.2499 25.1499 47.0399 25.1499C47.8299 25.1499 48.4699 25.5499 48.4699 26.0399C48.4699 26.5299 47.8299 26.9299 47.0399 26.9299C46.2499 26.9299 45.6099 26.5299 45.6099 26.0399ZM45.6099 42.5599C44.8199 42.5599 44.1799 41.9099 44.1799 41.1199C44.1799 40.3299 44.8199 39.6899 45.6099 39.6899C46.3999 39.6899 47.0399 40.3299 47.0399 41.1199C47.0399 41.9099 46.3999 42.5599 45.6099 42.5599ZM46.3499 37.7099C45.5599 37.7099 44.9099 37.3099 44.9099 36.8199C44.9099 36.3299 45.5599 35.9299 46.3499 35.9299C47.1399 35.9299 47.7799 36.3299 47.7799 36.8199C47.7799 37.3099 47.1399 37.7099 46.3499 37.7099ZM46.3499 35.0499C45.5599 35.0499 44.9099 34.6599 44.9099 34.1599C44.9099 33.6599 45.5599 33.2799 46.3499 33.2799C47.1399 33.2799 47.7799 33.6699 47.7799 34.1599C47.7799 34.6499 47.1399 35.0499 46.3499 35.0499ZM48.2399 29.5899C47.4499 29.5899 46.8099 29.1999 46.8099 28.6999C46.8099 28.1999 47.4499 27.8199 48.2399 27.8199C49.0299 27.8199 49.6699 28.2099 49.6699 28.6999C49.6699 29.1899 49.0299 29.5899 48.2399 29.5899ZM50.4699 33.6199C49.6799 33.6199 49.0399 33.2199 49.0399 32.7299C49.0399 32.2399 49.6799 31.8399 50.4699 31.8399C51.2599 31.8399 51.9099 32.2399 51.9099 32.7299C51.9099 33.2199 51.2699 33.6199 50.4699 33.6199ZM53.5999 31.1899C52.8099 31.1899 52.1699 30.7899 52.1699 30.2999C52.1699 29.8099 52.8099 29.4099 53.5999 29.4099C54.3899 29.4099 55.0399 29.8099 55.0399 30.2999C55.0399 30.7899 54.3899 31.1899 53.5999 31.1899ZM54.7399 34.5899C54.7399 34.0999 55.3799 33.7099 56.1699 33.7099C56.9599 33.7099 57.6099 34.0999 57.6099 34.5899C57.6099 35.0799 56.9699 35.4799 56.1699 35.4799C55.3699 35.4799 54.7399 35.0799 54.7399 34.5899ZM58.5899 42.5599C57.7899 42.5599 57.1499 41.9099 57.1499 41.1199C57.1499 40.3299 57.7899 39.6899 58.5899 39.6899C59.3899 39.6899 60.0199 40.3299 60.0199 41.1199C60.0199 41.9099 59.3799 42.5599 58.5899 42.5599ZM61.4499 38.0199C60.6599 38.0199 60.0199 37.6199 60.0199 37.1299C60.0199 36.6399 60.6599 36.2399 61.4499 36.2399C62.2399 36.2399 62.8899 36.6399 62.8899 37.1299C62.8899 37.6199 62.2399 38.0199 61.4499 38.0199ZM62.8899 35.0499C62.0899 35.0499 61.4499 34.6599 61.4499 34.1599C61.4499 33.6599 62.0899 33.2799 62.8899 33.2799C63.6899 33.2799 64.3199 33.6699 64.3199 34.1599C64.3199 34.6499 63.6799 35.0499 62.8899 35.0499ZM65.7699 33.4299C65.7699 32.9399 66.4099 32.5399 67.2099 32.5399C68.0099 32.5399 68.6399 32.9399 68.6399 33.4299C68.6399 33.9199 67.9999 34.3199 67.2099 34.3199C66.4199 34.3199 65.7699 33.9199 65.7699 33.4299ZM67.9499 39.4499C67.1599 39.4499 66.5199 38.8099 66.5199 38.0199C66.5199 37.2299 67.1599 36.5899 67.9499 36.5899C68.7399 36.5899 69.3799 37.2299 69.3799 38.0199C69.3799 38.8099 68.7399 39.4499 67.9499 39.4499ZM71.5299 36.0299C70.7299 36.0299 70.0899 35.3899 70.0899 34.5899C70.0899 33.7899 70.7299 33.1599 71.5299 33.1599C72.3299 33.1599 72.9599 33.7999 72.9599 34.5899C72.9599 35.3799 72.3199 36.0299 71.5299 36.0299Z" fill="#0064FF"/>
<path d="M32.79 40.34C34.57 41.52 36.88 42.51 39.53 43.27C39.77 43.34 39.94 43.55 39.94 43.8V48.15C39.94 48.53 39.57 48.8 39.21 48.68C34.88 47.25 32.1 45.07 32.03 42.62C32.03 42.56 32.02 42.5 31.99 42.45L30.21 38.15C30.88 38.93 31.74 39.67 32.78 40.34H32.79Z" fill="#0064FF"/>
<path d="M50.4701 45.36V49.88C50.4701 50.2 50.2001 50.45 49.8901 50.44C47.1601 50.35 44.5901 50.03 42.3001 49.52C42.0401 49.46 41.8701 49.23 41.8701 48.97V44.53C41.8701 44.18 42.1801 43.92 42.5301 43.99C44.8301 44.45 47.3301 44.72 49.9401 44.81C50.2401 44.81 50.4801 45.06 50.4801 45.36H50.4701Z" fill="#0064FF"/>
<path d="M54.1301 44.76C56.6401 44.63 59.0201 44.32 61.2101 43.84C61.5601 43.77 61.8801 44.02 61.8801 44.38V48.8C61.8801 49.06 61.7101 49.28 61.4601 49.35C59.2801 49.88 56.8201 50.24 54.2001 50.39C53.8801 50.41 53.6101 50.15 53.6101 49.83V45.32C53.6101 45.02 53.8401 44.78 54.1401 44.77L54.1301 44.76Z" fill="#0064FF"/>
<path d="M72.7901 38.15L71.0101 42.45C70.9901 42.51 70.9801 42.56 70.9701 42.62C70.9101 44.91 68.4701 46.96 64.6101 48.39C64.2501 48.52 63.8601 48.25 63.8601 47.86V43.56C63.8601 43.32 64.0201 43.1 64.2601 43.03C66.5801 42.32 68.6101 41.4 70.2101 40.34C71.2501 39.67 72.1101 38.93 72.7801 38.15H72.7901Z" fill="#0064FF"/>
<path d="M64.9299 49.35L63.8699 50.92C63.8699 52.63 58.5199 54.01 51.9099 54.01C45.2999 54.01 39.9499 52.63 39.9499 50.92L38.8899 49.35C39.2699 49.62 39.7699 49.87 40.3799 50.1C42.8599 51.06 47.0999 51.7 51.9099 51.7C56.7199 51.7 60.9599 51.06 63.4399 50.1C64.0499 49.87 64.5499 49.62 64.9299 49.35Z" fill="#0064FF"/>
<path d="M60.8599 82.67C60.8599 82.67 57.0999 83.93 51.4999 83.93C45.8999 83.93 42.1399 82.67 42.1399 82.67V55.15C42.1399 55.15 45.6099 56.79 51.4999 56.79C57.3899 56.79 60.8599 55.15 60.8599 55.15V82.67Z" fill="#0064FF"/>
</svg>
