<svg width="103" height="103" viewBox="0 0 103 103" fill="none" xmlns="http://www.w3.org/2000/svg">
<path d="M22.9102 62.11V69.45C22.9102 70.07 23.4102 70.57 24.0302 70.57H32.0102C32.5002 70.57 32.9302 70.26 33.0802 69.79L35.7002 61.72C35.9502 60.96 35.3502 60.2 34.5502 60.25L23.9602 60.98C23.3702 61.02 22.9102 61.51 22.9102 62.1V62.11Z" fill="#0064FF"/>
<path d="M38.8902 71.43L37.5002 71.62C37.2602 71.65 37.0102 71.61 36.8002 71.49L35.9902 71.04C35.5202 70.77 35.3002 70.21 35.4702 69.7L38.5302 60.57C38.5602 60.49 38.5902 60.41 38.6402 60.34V70.55C38.6402 70.87 38.7302 71.18 38.8902 71.43Z" fill="#0064FF"/>
<path d="M57.5201 61.47L57.3701 67.06C57.3701 67.21 57.3301 67.37 57.2601 67.51L56.4401 69.25C56.3001 69.56 56.0201 69.79 55.6901 69.87L48.8401 71.53C48.4801 71.62 48.1001 71.53 47.8301 71.27L47.6501 71.11C47.7201 70.93 47.7501 70.75 47.7501 70.55V60.07C47.9501 59.93 48.2001 59.85 48.4601 59.87L56.4601 60.32C57.0701 60.35 57.5401 60.86 57.5201 61.47Z" fill="#0064FF"/>
<path d="M24.0401 72.25L33.2901 72.45C33.5101 72.45 33.7301 72.53 33.9201 72.66L34.8101 73.29C35.2001 73.57 35.3801 74.07 35.2401 74.53L33.4601 80.45C33.3201 80.92 32.8801 81.25 32.3801 81.25H23.8901C23.2601 81.25 22.7501 80.73 22.7701 80.1L22.9001 73.35C22.9101 72.73 23.4301 72.23 24.0501 72.25H24.0401Z" fill="#0064FF"/>
<path d="M36.0801 79.82L37.5101 74.58C37.6301 74.15 37.9801 73.83 38.4201 73.77L45.7301 72.63C46.4201 72.52 47.0401 73.06 47.0301 73.76L46.9301 80.15C46.9301 80.76 46.4201 81.26 45.8101 81.26H37.1801C36.4401 81.26 35.9001 80.56 36.1001 79.84L36.0801 79.82Z" fill="#0064FF"/>
<path d="M49.9101 73.68L55.6901 72.14C56.1101 72.03 56.5601 72.17 56.8401 72.5L57.6301 73.45C57.8701 73.73 57.9501 74.12 57.8501 74.48L56.1801 80.43C56.0401 80.91 55.6001 81.25 55.1001 81.25H50.2001C49.5801 81.25 49.0801 80.75 49.0801 80.13V74.78C49.0801 74.27 49.4201 73.83 49.9101 73.69V73.68Z" fill="#0064FF"/>
<path d="M59.5801 61.4099V67.3399C59.5801 67.4299 59.5701 67.5299 59.5501 67.6199L59.3801 68.2999C59.2001 69.0199 59.7601 69.7199 60.5001 69.6999L67.0201 69.5099C67.7101 69.4899 68.2201 68.8599 68.0901 68.1799L66.7201 60.7999C66.6101 60.2299 66.1001 59.8399 65.5201 59.8899L60.6101 60.2899C60.0301 60.3399 59.5801 60.8299 59.5801 61.4099Z" fill="#0064FF"/>
<path d="M60.1702 73.37C60.3302 73.64 60.3702 73.96 60.2802 74.26L58.6302 79.8C58.4202 80.52 58.9602 81.24 59.7102 81.24H67.0302C67.7202 81.24 68.2402 80.63 68.1402 79.95L67.0602 72.62C66.9802 72.07 66.5102 71.66 65.9502 71.66H61.1402C60.2702 71.66 59.7302 72.61 60.1702 73.36V73.37Z" fill="#0064FF"/>
<path d="M69.4802 73.48L69.9602 76.65C69.9602 76.71 69.9702 76.76 69.9702 76.82V80.12C69.9702 80.74 70.4702 81.24 71.0902 81.24H78.2102C78.8302 81.24 79.3302 80.74 79.3302 80.12V73.27C79.3302 72.58 78.7102 72.05 78.0302 72.16L73.3302 72.9C73.1502 72.93 72.9702 72.91 72.8002 72.86L70.9402 72.24C70.1402 71.98 69.3502 72.65 69.4802 73.47V73.48Z" fill="#0064FF"/>
<path d="M68.9601 61.29L70.7001 69.28C70.7901 69.7 71.1201 70.03 71.5301 70.13L73.1601 70.53C73.3001 70.56 73.4401 70.57 73.5801 70.55L78.3601 69.88C78.9101 69.8 79.3301 69.33 79.3301 68.77V61.76C79.3301 61.18 78.8801 60.69 78.3001 60.64L70.1501 59.94C69.4001 59.88 68.7901 60.56 68.9601 61.3V61.29Z" fill="#0064FF"/>
<path d="M54.9001 23.04L55.8601 27.69C55.8601 27.69 51.8901 29.37 50.6601 31.21C49.4301 33.05 47.0701 36.25 45.2301 36.64C43.3901 37.03 39.4201 36.79 39.1901 37.94C38.9601 39.09 39.6501 41.46 42.7101 41.91C45.5901 42.34 49.4801 42.57 53.4401 39.28C53.7201 39.05 54.1501 39.26 54.1301 39.63C54.0301 42.15 53.8201 48.64 54.2501 49.49C54.7901 50.56 56.3901 52.17 57.9201 52.32C59.2101 52.45 60.3301 51.82 60.8401 50.84C60.9801 50.58 61.3101 50.51 61.5301 50.71C62.3401 51.44 64.0201 52.8 65.2201 52.63C66.2701 52.48 67.2901 51.54 67.8901 50.88C68.1601 50.59 68.6201 50.57 68.8801 50.87C69.4001 51.45 70.3701 52.15 71.9101 51.79C71.9101 51.79 73.8301 51.08 74.5301 49.77C74.6901 49.47 74.9901 49.25 75.3301 49.24C76.1001 49.24 77.3801 48.97 77.7201 47.32C78.2201 44.91 79.7501 38.33 78.9401 36.11C78.1301 33.89 74.6201 28.66 74.3501 26.79C74.2101 25.79 74.2501 24.53 74.3201 23.57C74.3801 22.78 73.7601 22.11 72.9701 22.09L55.9401 21.79C55.2701 21.78 54.7601 22.39 54.8901 23.05L54.9001 23.04Z" fill="#0064FF"/>
<path d="M79.8499 56.11H46.7499V49.21H50.2899C50.7099 49.21 51.0399 48.87 51.0399 48.46V45.78C51.0399 45.36 50.6999 45.03 50.2899 45.03H27.5899C27.1699 45.03 26.8399 45.37 26.8399 45.78V48.46C26.8399 48.88 27.1799 49.21 27.5899 49.21H39.6399V56.11H23.5199C23.3099 56.11 23.1299 56.25 23.1299 56.41V57.07C23.1299 57.24 23.3099 57.37 23.5199 57.37H39.6399V70.55C39.6399 70.96 39.9799 71.3 40.3899 71.3H45.9899C46.4099 71.3 46.7499 70.96 46.7499 70.55V57.37H79.8499C80.0599 57.37 80.2399 57.24 80.2399 57.07V56.41C80.2399 56.25 80.0599 56.11 79.8499 56.11ZM42.5799 67.08C42.5799 67.32 42.3899 67.52 42.1399 67.52H41.2599C41.0199 67.52 40.8199 67.32 40.8199 67.08V66.2C40.8199 65.96 41.0199 65.76 41.2599 65.76H42.1399C42.3899 65.76 42.5799 65.96 42.5799 66.2V67.08ZM42.5799 57.81V56.93C42.5799 56.69 42.7799 56.49 43.0199 56.49H43.8999C44.1399 56.49 44.3399 56.69 44.3399 56.93V57.81C44.3399 58.05 44.1399 58.25 43.8999 58.25H43.0199C42.7799 58.25 42.5799 58.05 42.5799 57.81ZM45.5599 62.82C45.5599 63.06 45.3699 63.26 45.1199 63.26H44.2499C43.9999 63.26 43.8099 63.06 43.8099 62.82V61.94C43.8099 61.7 43.9999 61.5 44.2499 61.5H45.1199C45.3699 61.5 45.5599 61.7 45.5599 61.94V62.82Z" fill="#0064FF"/>
</svg>
