<svg width="103" height="103" viewBox="0 0 103 103" fill="none" xmlns="http://www.w3.org/2000/svg">
<path d="M40.83 58.17C42.55 64.86 44.39 71.47 47.45 77.65C47.54 77.82 47.63 77.99 47.77 78.26C48.15 75.96 48.51 73.77 48.88 71.52C48.27 71.42 48.14 70.97 48.05 70.46C47.72 68.71 47.37 66.96 47.03 65.2C46.9 64.52 47.21 64.14 47.9 64.14C50.29 64.14 52.68 64.14 55.07 64.15C55.75 64.15 56.06 64.51 55.93 65.17C55.59 66.97 55.24 68.76 54.91 70.56C54.82 71.04 54.66 71.42 54.1 71.53C54.46 73.77 54.81 75.99 55.16 78.2C58.49 71.87 60.33 65.05 62.15 58.19C62.23 58.21 62.31 58.21 62.38 58.24C65.96 59.79 69.57 61.29 73.12 62.92C75.64 64.08 77.72 65.86 79.24 68.2C80.94 70.82 82.08 73.69 82.68 76.75C82.97 78.25 83.06 79.79 83.21 81.31C83.27 81.89 82.97 82.26 82.45 82.49C79.84 83.64 77.1 84.36 74.31 84.91C68.43 86.08 62.47 86.53 56.49 86.71C52.33 86.84 48.17 86.82 44 86.62C39.52 86.41 35.05 86.01 30.62 85.28C27.33 84.73 24.09 83.99 20.98 82.72C20.82 82.66 20.67 82.58 20.51 82.52C19.94 82.3 19.7 81.88 19.71 81.27C19.75 78.73 20.23 76.27 21.01 73.86C21.72 71.67 22.65 69.58 24.01 67.71C25.47 65.69 27.33 64.14 29.55 63.01C33.1 61.2 36.8 59.75 40.48 58.25C40.56 58.22 40.64 58.2 40.78 58.15L40.83 58.17Z" fill="#0064FF"/>
<path d="M44.9699 19.83C45.1699 20.72 45.3699 21.61 45.5799 22.49C45.9699 24.17 46.3599 25.86 46.7499 27.54C46.7899 27.69 46.7999 27.86 46.8899 27.98C46.9799 28.1 47.1599 28.24 47.2699 28.22C47.3799 28.2 47.5299 27.98 47.5199 27.86C47.4899 27.29 47.4199 26.71 47.3499 26.14C47.0799 23.91 46.8099 21.67 46.5299 19.44C46.4999 19.17 46.5999 19.07 46.8299 19C49.9299 17.97 53.0399 17.93 56.1499 18.98C56.4599 19.09 56.5199 19.24 56.4799 19.53C56.2099 21.66 55.9499 23.8 55.6799 25.93C55.6099 26.5 55.5399 27.07 55.4899 27.65C55.4699 27.88 55.4199 28.18 55.7499 28.23C56.0699 28.28 56.1299 27.99 56.1799 27.77C56.6999 25.57 57.2099 23.36 57.7199 21.16C57.8199 20.74 57.9299 20.32 58.0399 19.86C58.1099 19.88 58.1699 19.89 58.2299 19.92C61.6399 21.82 63.8399 24.62 64.5499 28.51C64.6499 29.03 64.6699 29.57 64.7599 30.1C64.8699 30.73 65.1499 31.23 65.8299 31.43C66.3299 31.58 66.5599 31.96 66.5499 32.49C66.5399 33.38 66.5499 34.26 66.5499 35.15C66.5499 35.96 65.9899 36.54 65.1799 36.54C64.8199 36.54 64.5499 36.65 64.2699 36.86C62.7799 37.97 61.0599 38.59 59.2899 39.06C55.0899 40.17 50.8499 40.26 46.5699 39.65C44.7699 39.39 42.9999 39 41.3299 38.26C40.3999 37.85 39.5399 37.27 38.6399 36.78C38.4399 36.67 38.2099 36.58 37.9899 36.58C36.9899 36.55 36.4499 36.02 36.4399 35.04C36.4399 34.22 36.4399 33.41 36.4399 32.59C36.4399 31.87 36.5999 31.63 37.2799 31.41C37.8799 31.21 38.1399 30.74 38.2399 30.19C38.3999 29.32 38.4599 28.43 38.6699 27.57C39.5399 24.08 41.7399 21.64 44.8099 19.9C44.8399 19.88 44.8899 19.88 44.9699 19.86V19.83Z" fill="#0064FF"/>
<path d="M38.33 38.87C42.5 41.21 46.95 41.93 51.57 41.88C56.16 41.84 60.61 41.21 64.76 38.88C64.44 39.64 65.01 39.96 65.33 40.44C65.64 40.91 65.83 41.52 65.9 42.08C66.29 45.64 65.01 48.63 62.68 51.25C62.44 51.52 62.23 51.86 62.12 52.2C61.11 55.33 59.35 57.92 56.53 59.68C52.73 62.04 48.76 61.59 45.25 58.81C43.06 57.07 41.7 54.75 40.86 52.1C40.78 51.83 40.62 51.56 40.43 51.36C38.69 49.44 37.45 47.27 37.09 44.68C36.94 43.59 36.94 42.49 37.21 41.41C37.36 40.81 37.63 40.28 38.18 39.93C38.26 39.88 38.32 39.73 38.33 39.62C38.35 39.4 38.33 39.18 38.33 38.87Z" fill="#0064FF"/>
</svg>
