<svg width="104" height="103" viewBox="0 0 104 103" fill="none" xmlns="http://www.w3.org/2000/svg">
<path d="M41.3298 58.1699C43.0498 64.8599 44.8898 71.4699 47.9498 77.6499C48.0398 77.8199 48.1298 77.9899 48.2698 78.2599C48.6498 75.9599 49.0098 73.7699 49.3798 71.5199C48.7698 71.4199 48.6398 70.9699 48.5498 70.4599C48.2198 68.7099 47.8698 66.9599 47.5298 65.1999C47.3998 64.5199 47.7098 64.1399 48.3998 64.1399C50.7898 64.1399 53.1798 64.1399 55.5698 64.1499C56.2498 64.1499 56.5598 64.5099 56.4298 65.1699C56.0898 66.9699 55.7398 68.7599 55.4098 70.5599C55.3198 71.0399 55.1598 71.4199 54.5998 71.5299C54.9598 73.7699 55.3098 75.9899 55.6598 78.1999C58.9898 71.8699 60.8298 65.0499 62.6498 58.1899C62.7298 58.2099 62.8098 58.2099 62.8798 58.2399C66.4598 59.7899 70.0698 61.2899 73.6198 62.9199C76.1398 64.0799 78.2198 65.8599 79.7398 68.1999C81.4398 70.8199 82.5798 73.6899 83.1798 76.7499C83.4698 78.2499 83.5598 79.7899 83.7098 81.3099C83.7698 81.8899 83.4698 82.2599 82.9498 82.4899C80.3398 83.6399 77.5998 84.3599 74.8098 84.9099C68.9298 86.0799 62.9698 86.5299 56.9898 86.7099C52.8298 86.8399 48.6698 86.8199 44.4998 86.6199C40.0198 86.4099 35.5498 86.0099 31.1198 85.2799C27.8298 84.7299 24.5898 83.9899 21.4798 82.7199C21.3198 82.6599 21.1698 82.5799 21.0098 82.5199C20.4398 82.2999 20.1998 81.8799 20.2098 81.2699C20.2498 78.7299 20.7298 76.2699 21.5098 73.8599C22.2198 71.6699 23.1498 69.5799 24.5098 67.7099C25.9698 65.6899 27.8298 64.1399 30.0498 63.0099C33.5998 61.1999 37.2998 59.7499 40.9798 58.2499C41.0598 58.2199 41.1398 58.1999 41.2798 58.1499L41.3298 58.1699Z" fill="white"/>
<path d="M45.4699 19.8299C45.6699 20.7199 45.8699 21.6099 46.0799 22.4899C46.4699 24.1699 46.8599 25.8599 47.2499 27.5399C47.2899 27.6899 47.2999 27.8599 47.3899 27.9799C47.4799 28.0999 47.6599 28.2399 47.7699 28.2199C47.8799 28.1999 48.0299 27.9799 48.0199 27.8599C47.9899 27.2899 47.9199 26.7099 47.8499 26.1399C47.5799 23.9099 47.3099 21.6699 47.0299 19.4399C46.9999 19.1699 47.0999 19.0699 47.3299 18.9999C50.4299 17.9699 53.5399 17.9299 56.6499 18.9799C56.9599 19.0899 57.0199 19.2399 56.9799 19.5299C56.7099 21.6599 56.4499 23.7999 56.1799 25.9299C56.1099 26.4999 56.0399 27.0699 55.9899 27.6499C55.9699 27.8799 55.9199 28.1799 56.2499 28.2299C56.5699 28.2799 56.6299 27.9899 56.6799 27.7699C57.1999 25.5699 57.7099 23.3599 58.2199 21.1599C58.3199 20.7399 58.4299 20.3199 58.5399 19.8599C58.6099 19.8799 58.6699 19.8899 58.7299 19.9199C62.1399 21.8199 64.3399 24.6199 65.0499 28.5099C65.1499 29.0299 65.1699 29.5699 65.2599 30.0999C65.3699 30.7299 65.6499 31.2299 66.3299 31.4299C66.8299 31.5799 67.0599 31.9599 67.0499 32.4899C67.0399 33.3799 67.0499 34.2599 67.0499 35.1499C67.0499 35.9599 66.4899 36.5399 65.6799 36.5399C65.3199 36.5399 65.0499 36.6499 64.7699 36.8599C63.2799 37.9699 61.5599 38.5899 59.7899 39.0599C55.5899 40.1699 51.3499 40.2599 47.0699 39.6499C45.2699 39.3899 43.4999 38.9999 41.8299 38.2599C40.8999 37.8499 40.0399 37.2699 39.1399 36.7799C38.9399 36.6699 38.7099 36.5799 38.4899 36.5799C37.4899 36.5499 36.9499 36.0199 36.9399 35.0399C36.9399 34.2199 36.9399 33.4099 36.9399 32.5899C36.9399 31.8699 37.0999 31.6299 37.7799 31.4099C38.3799 31.2099 38.6399 30.7399 38.7399 30.1899C38.8999 29.3199 38.9599 28.4299 39.1699 27.5699C40.0399 24.0799 42.2399 21.6399 45.3099 19.8999C45.3399 19.8799 45.3899 19.8799 45.4699 19.8599V19.8299Z" fill="white"/>
<path d="M38.83 38.8701C43 41.2101 47.45 41.9301 52.07 41.8801C56.66 41.8401 61.11 41.2101 65.26 38.8801C64.94 39.6401 65.51 39.9601 65.83 40.4401C66.14 40.9101 66.33 41.5201 66.4 42.0801C66.79 45.6401 65.51 48.6301 63.18 51.2501C62.94 51.5201 62.73 51.8601 62.62 52.2001C61.61 55.3301 59.85 57.9201 57.03 59.6801C53.23 62.0401 49.26 61.5901 45.75 58.8101C43.56 57.0701 42.2 54.7501 41.36 52.1001C41.28 51.8301 41.12 51.5601 40.93 51.3601C39.19 49.4401 37.95 47.2701 37.59 44.6801C37.44 43.5901 37.44 42.4901 37.71 41.4101C37.86 40.8101 38.13 40.2801 38.68 39.9301C38.76 39.8801 38.82 39.7301 38.83 39.6201C38.85 39.4001 38.83 39.1801 38.83 38.8701Z" fill="white"/>
</svg>
