<svg width="103" height="103" viewBox="0 0 103 103" fill="none" xmlns="http://www.w3.org/2000/svg">
<path d="M51.51 57.57H48.05V56.69C48.05 56.38 47.8 56.12 47.48 56.12H41.49C41.18 56.12 40.92 56.37 40.92 56.69V57.57H37.46C35.95 57.57 34.72 58.8 34.72 60.31C34.72 61.82 35.95 63.05 37.46 63.05H51.51C53.02 63.05 54.25 61.82 54.25 60.31C54.25 58.8 53.02 57.57 51.51 57.57Z" fill="#0064FF"/>
<path d="M56.3501 33.25H54.1001C53.5601 33.25 53.1201 33.69 53.1201 34.23V44.01C53.1201 44.55 52.6801 44.99 52.1401 44.99H35.1001C34.5501 44.99 34.1201 45.43 34.1201 45.97V54.25C34.1201 54.8 34.5601 55.23 35.1001 55.23H56.3601C56.9001 55.23 57.3401 54.79 57.3401 54.25V34.23C57.3401 33.69 56.9001 33.25 56.3601 33.25H56.3501ZM37.0001 49.95H35.6401V48.58H37.0001V49.95ZM37.0001 48.12H35.6401V46.76H37.0001V48.12Z" fill="#0064FF"/>
<path d="M51.8201 34.94V36.56C51.8201 36.56 51.8101 36.63 51.7801 36.65L44.7401 43.69C44.7401 43.69 44.6801 43.73 44.6501 43.73H43.0201C42.9101 43.73 42.8501 43.59 42.9301 43.51L51.5901 34.85C51.6701 34.77 51.8101 34.83 51.8101 34.94H51.8201Z" fill="#0064FF"/>
<path d="M63.96 26.01L61.69 23.28C61.6 23.17 61.47 23.11 61.32 23.11H58.75C58.49 23.11 58.27 23.32 58.27 23.59V28.71C58.27 28.97 58.48 29.19 58.75 29.19H60.13V77.17C60.13 77.36 60.28 77.51 60.47 77.51H61.19C61.38 77.51 61.53 77.36 61.53 77.17V29.18H63.58C63.84 29.18 64.06 28.97 64.06 28.7V26.31C64.06 26.2 64.02 26.09 63.95 26.01H63.96Z" fill="#0064FF"/>
<path d="M31.21 65.26H56.79C57.61 65.26 58.28 65.93 58.28 66.75V77.68C58.28 78.5 58.95 79.17 59.77 79.17H62.58C63.4 79.17 64.07 78.5 64.07 77.68V66.75C64.07 65.93 64.74 65.26 65.56 65.26H71.8C72.62 65.26 73.29 65.93 73.29 66.75V80.41C73.29 81.23 72.62 81.9 71.8 81.9H31.21C30.39 81.9 29.72 81.23 29.72 80.41V66.75C29.72 65.93 30.39 65.26 31.21 65.26Z" fill="#0064FF"/>
</svg>
