<svg width="103" height="103" viewBox="0 0 103 103" fill="none" xmlns="http://www.w3.org/2000/svg">
<path d="M69.22 61.6C69.22 61.6 64.79 66.77 51.6 66.77C38.41 66.77 33.98 61.6 33.98 61.6V32.34C33.98 32.34 37.19 37.51 51.49 37.51C66.92 37.51 69.21 32.34 69.21 32.34V61.6H69.22Z" fill="#0064FF"/>
<path d="M69.22 28.72C69.22 32.11 61.34 34.87 51.61 34.87C41.88 34.87 33.99 32.11 33.99 28.72C33.99 25.83 39.68 23.41 47.36 22.74V26.96C45.92 27.37 45.01 28.01 45.01 28.72C45.01 29.99 47.96 31.02 51.61 31.02C55.26 31.02 58.2 29.99 58.2 28.72C58.2 27.93 57.09 27.24 55.39 26.83V22.71C63.3 23.31 69.22 25.77 69.22 28.72Z" fill="#0064FF"/>
<path d="M54.3599 78.08V85.79H48.3999V77.87C49.1799 78.29 50.3299 78.55 51.6099 78.55C52.6599 78.55 53.6199 78.38 54.3599 78.08Z" fill="#0064FF"/>
<path d="M70.0601 57.12V60C70.3801 60.46 70.5901 60.97 70.5901 61.5C70.5901 61.89 70.4801 62.29 70.2501 62.7C68.6501 65.61 61.5801 68.7 51.6101 68.7C41.6401 68.7 34.5601 65.61 32.9501 62.68C32.7301 62.29 32.6201 61.89 32.6201 61.5C32.6201 60.97 32.8301 60.46 33.1501 60V57.12C31.5401 58.42 30.6201 59.92 30.6201 61.5V65.81C30.6201 70.25 37.8101 73.96 47.3701 74.82C47.3601 74.88 47.3301 74.95 47.3301 75.01C47.3301 76.12 49.2501 77.02 51.6101 77.02C53.9701 77.02 55.8901 76.12 55.8901 75.01C55.8901 74.94 55.8601 74.88 55.8501 74.82C65.4001 73.96 72.6001 70.25 72.6001 65.81V61.5C72.6001 59.92 71.6801 58.42 70.0701 57.12H70.0601Z" fill="#0064FF"/>
<path d="M54.3599 22.42L51.3799 15.22L48.3999 22.42V28.72C48.3999 28.72 48.8899 29.37 51.3799 29.37C53.4599 29.37 54.3599 28.72 54.3599 28.72V22.42Z" fill="#0064FF"/>
</svg>
