<svg width="64" height="72" viewBox="0 0 64 72" fill="none" xmlns="http://www.w3.org/2000/svg">
<path d="M49.1787 0.0380859C49.2546 0.189885 49.4064 0.17091 49.5392 0.189885C50.1844 0.28476 50.5259 0.550409 50.4311 1.29043C50.3552 1.80275 50.3552 2.40995 51.0762 2.4479C51.7973 2.48585 51.8352 1.9166 51.8542 1.32838C52.3665 1.48018 52.6701 1.87865 52.9927 2.2202C54.0363 3.32075 54.6435 4.63002 54.8143 6.14801C54.8333 6.39469 54.7384 6.69828 55.1748 6.79316C55.6871 6.90701 55.9907 7.28651 55.8769 7.83678C55.763 8.40603 55.3266 8.5768 54.7574 8.5768C52.2147 8.5768 49.6721 8.5768 47.1105 8.5768C45.1181 8.5768 43.1447 8.5768 41.1523 8.5768C40.5831 8.5768 40.0897 8.46295 39.9759 7.83678C39.862 7.26753 40.1846 6.90701 40.7349 6.77418C41.1334 6.67931 40.9816 6.37571 41.0195 6.14801C41.2852 4.11769 42.2339 2.5238 43.8847 1.29043C44.0555 1.48018 43.9606 1.6889 44.0175 1.85968C44.1314 2.23918 44.3591 2.46688 44.7765 2.4479C45.194 2.40995 45.4786 2.1443 45.4027 1.7648C45.175 0.607333 45.8012 0.189885 46.7689 0.0380859H47.1864C47.1864 0.607334 47.1864 1.15761 47.1864 1.72685C47.1864 2.20123 47.452 2.48585 47.9264 2.46688C48.3818 2.46688 48.5905 2.16328 48.5905 1.72685C48.5905 1.15761 48.5905 0.607334 48.5715 0.0380859C48.7613 0.0380859 48.951 0.0380859 49.1408 0.0380859H49.1787Z" fill="white"/>
<path d="M16.9218 0.0379489C17.0167 0.0758988 17.1306 0.170775 17.2254 0.170775C18.0034 0.227699 18.307 0.626172 18.1932 1.40414C18.1173 1.89749 18.1932 2.39084 18.8383 2.44776C19.5214 2.50469 19.6352 2.01134 19.6163 1.46107C19.6163 1.42312 19.6542 1.38517 19.7112 1.29029C21.2481 2.39084 22.1779 3.87088 22.5384 5.69248C22.6333 6.2048 22.5384 6.77405 23.2974 6.9638C23.6769 7.05867 23.7528 7.53304 23.62 7.93152C23.4872 8.34896 23.1456 8.55769 22.7092 8.55769C21.7035 8.55769 20.6978 8.55769 19.6922 8.55769C16.1249 8.55769 12.5386 8.55769 8.97134 8.55769C8.42107 8.55769 7.90875 8.48179 7.77592 7.85562C7.6431 7.24842 7.94669 6.86892 8.55389 6.7361C8.89544 6.6602 8.76262 6.37557 8.80057 6.16685C9.04724 4.15551 10.0909 2.37186 11.6658 1.30927C11.8745 1.46107 11.7607 1.68877 11.8176 1.87852C11.9314 2.23904 12.1591 2.42879 12.5386 2.42879C12.9181 2.42879 13.1269 2.20109 13.2217 1.84057C13.2217 1.80262 13.2597 1.74569 13.2407 1.70774C12.975 0.607197 13.5822 0.170774 14.55 0H14.9674C14.9674 0.569248 14.9674 1.15747 15.0054 1.72672C15.0243 2.14417 15.271 2.42879 15.7264 2.42879C16.1628 2.42879 16.4095 2.16314 16.4285 1.72672C16.4285 1.15747 16.5044 0.569248 16.3905 0C16.5803 0 16.77 0 16.9598 0L16.9218 0.0379489Z" fill="white"/>
<path d="M21.4373 23.548C21.4373 28.1589 21.4373 32.7129 21.4373 37.2669C21.4373 41.0429 21.9116 44.7809 22.1773 48.519C22.4999 53.0161 22.8794 57.5131 23.2399 62.0102C23.3917 63.9836 23.5814 65.9759 23.6953 67.9493C23.7902 69.6001 22.8794 70.9663 21.4373 71.5735C20.0331 72.1618 18.4202 71.8392 17.3577 70.7576C16.7694 70.1504 16.3899 69.4294 16.333 68.5945C16.1053 65.8621 15.8776 63.1487 15.6689 60.4163C15.1945 54.3822 14.7201 48.3482 14.2647 42.3142C14.2268 41.7829 14.037 41.6501 13.5437 41.669C12.4811 41.688 12.4621 41.669 12.3862 42.7316C12.2155 44.762 12.0637 46.7923 11.9119 48.8036C11.3995 55.3689 10.8872 61.9343 10.3559 68.5186C10.1851 70.5489 8.43944 71.991 6.40913 71.8771C4.45471 71.7633 2.86081 70.0745 2.97466 68.0632C3.10749 65.5016 3.35416 62.9399 3.54391 60.3783C3.90444 55.8623 4.17008 51.3273 4.64446 46.8302C5.4414 39.1264 5.15678 31.4226 5.2137 23.7188C5.2137 23.5859 5.2137 23.4341 5.2137 23.3013C5.2137 23.0547 5.09986 22.9788 4.85318 22.9788C4.62548 22.9788 4.56856 23.1116 4.56856 23.3013C4.56856 23.6429 4.56856 24.0034 4.56856 24.3449C4.56856 26.7737 4.56856 29.2025 4.56856 31.6313C4.56856 32.1247 4.45471 32.2385 3.98033 32.0867C3.24031 31.84 2.51927 31.6123 1.87412 31.1569C0.792548 30.3979 0.166376 29.3543 0.223301 28.0071C0.356125 24.9901 0.716648 21.9921 1.66539 19.1079C2.15874 17.6088 2.84184 16.2047 3.94239 15.0472C5.00498 13.9657 6.2763 13.3964 7.81327 13.3964C11.4375 13.4154 15.0617 13.4344 18.6859 13.3964C20.2988 13.3774 21.5321 14.0036 22.4999 15.218C23.5435 16.5083 24.1507 18.0263 24.644 19.6012C25.1753 21.3469 25.5358 23.1306 25.7635 24.9521C25.8205 25.4834 26.0482 25.6542 26.5415 25.7111C27.8887 25.8629 29.236 25.9768 30.5832 26.0717C30.9817 26.0906 31.1145 25.9388 31.1904 25.5973C31.3042 25.028 31.494 24.4778 31.6078 23.8895C31.6837 23.4341 31.9304 23.529 32.215 23.6239C32.4807 23.7188 32.9361 23.6618 32.7843 24.1931C32.7084 24.4778 32.6325 24.7814 32.5566 25.066C32.3478 25.844 32.1581 26.4891 32.8032 27.305C33.733 28.4625 33.012 30.2082 31.5509 30.7015C31.1524 30.8344 31.0006 31.0431 30.9058 31.4036C30.5263 32.9406 30.1088 34.4776 29.7293 36.0145C29.6155 36.4699 29.4826 36.5648 29.0272 36.413C26.921 35.7299 24.7958 35.0658 22.6896 34.4017C22.2532 34.2688 21.9686 33.5668 22.1963 33.1683C22.367 32.8837 22.5758 33.1114 22.7465 33.1683C24.5112 33.6996 26.2759 34.2309 28.0216 34.8381C28.6288 35.0468 28.8185 34.914 28.9513 34.3068C29.1601 33.3011 29.4447 32.3144 29.7103 31.3277C29.8242 30.8913 29.7103 30.7774 29.2739 30.7585C27.4523 30.6636 25.6307 30.4928 23.8661 30.0374C22.1393 29.601 22.1393 29.582 22.1393 27.8174C22.1393 26.6219 22.1204 25.4265 22.1393 24.2501C22.1393 23.7757 22.0065 23.548 21.4562 23.548H21.4373Z" fill="white"/>
<path d="M58.457 32.428C58.1345 38.3102 58.9883 45.2361 59.5007 52.1809C59.8991 57.399 60.3356 62.6171 60.7151 67.8352C60.8669 69.8276 59.5386 71.4974 57.6221 71.801C55.8006 72.1046 53.96 70.9471 53.4666 69.1445C53.201 68.1957 53.2389 67.1901 53.163 66.2223C52.5179 58.3098 51.9107 50.3783 51.3035 42.4657C51.2656 42.0103 51.1707 41.7637 50.6584 41.8396C50.4496 41.8775 50.2409 41.8585 50.0322 41.8396C49.6147 41.8016 49.4629 41.9534 49.444 42.3709C49.2922 44.4202 49.1024 46.4694 48.9506 48.5187C48.4193 55.16 47.907 61.8012 47.3757 68.4424C47.2049 70.5296 45.4213 72.0097 43.3151 71.8389C41.3227 71.6871 39.8237 69.9035 39.9755 67.7973C40.1462 65.3115 40.3739 62.8069 40.5637 60.3211C40.9622 55.1979 41.3037 50.0557 41.7971 44.9515C42.4802 38.0066 42.1196 31.0239 42.2335 24.079C42.2335 23.5857 42.1386 23.4908 41.6642 23.6616C39.8047 24.2688 37.9641 23.9272 36.1236 23.5667C34.8712 23.32 33.6378 22.9216 32.3855 22.6369C31.6644 22.4851 31.4368 22.0297 31.4557 21.3846C31.4557 20.7205 31.5886 20.0753 31.8542 19.4681C31.987 19.1456 31.9301 19.0317 31.5885 18.9368C30.9244 18.7661 30.2793 18.5573 29.6341 18.3676C29.1408 18.2158 28.8372 17.9122 28.989 17.3809C29.1598 16.8306 29.5962 16.7927 30.0706 16.9255C32.4993 17.6276 34.8902 18.4245 37.3759 18.8989C39.0647 19.2215 39.0647 19.2404 39.7478 17.6655C40.0514 16.9824 40.3929 16.3183 40.8104 15.6921C41.873 14.1362 43.2581 13.3202 45.2315 13.3582C48.7039 13.4531 52.1953 13.4341 55.6867 13.3582C57.755 13.3202 59.273 14.2121 60.4494 15.8249C61.7966 17.6845 62.3849 19.8476 62.8213 22.0677C63.1439 23.6995 63.2957 25.3504 63.4474 27.0012C63.6751 29.5248 62.7074 31.0428 60.3166 31.8588C59.4943 32.1371 59.0832 31.8524 59.0832 31.0049C59.0832 28.4812 59.0832 25.9575 59.0832 23.4339C59.0832 23.2062 59.2919 22.7887 58.8176 22.7698C58.2863 22.7698 58.514 23.2062 58.514 23.4529C58.514 26.0714 58.514 28.6899 58.514 32.409L58.457 32.428Z" fill="white"/>
<path d="M15.5737 9.25977C17.604 9.25977 19.6343 9.25977 21.6646 9.25977C22.1959 9.25977 22.3667 9.44952 22.3667 9.94286C22.3667 11.0055 22.1769 12.0301 21.7405 12.9978C21.6077 13.3014 21.4938 13.3773 21.1713 13.2065C20.4123 12.7701 19.5964 12.6753 18.7425 12.6942C15.8014 12.6942 12.8603 12.6942 9.91914 12.6942C9.46374 12.6942 9.25502 12.5614 9.14117 12.125C8.95142 11.366 8.83757 10.626 8.85655 9.84799C8.85655 9.41156 9.02732 9.25977 9.48272 9.25977C11.513 9.27874 13.5434 9.25977 15.5737 9.25977Z" fill="white"/>
<path d="M48.059 9.25977C50.0893 9.25977 52.1196 9.25977 54.15 9.25977C54.6623 9.25977 54.7761 9.44952 54.7951 9.90491C54.7951 10.6639 54.7002 11.385 54.5105 12.125C54.3966 12.5614 54.1879 12.6942 53.7325 12.6942C50.7914 12.6753 47.8503 12.6942 44.9092 12.6942C44.0553 12.6942 43.2204 12.7891 42.4804 13.2255C42.1768 13.3963 42.044 13.3204 41.9111 13.0168C41.4368 11.9732 41.266 10.8916 41.3039 9.73414C41.3039 9.27874 41.5696 9.27874 41.8922 9.27874C43.9415 9.27874 46.0097 9.27874 48.059 9.27874V9.25977Z" fill="white"/>
<path d="M22.2153 13.8139C25.7067 13.8139 29.1222 13.8139 32.5187 13.8139C33.3157 13.8139 34.1126 13.8329 34.9096 13.8139C35.2891 13.8139 35.4219 13.8898 35.308 14.2883C35.0803 15.1232 34.8526 15.9581 34.6629 16.793C34.587 17.1155 34.4352 17.2484 34.1316 17.0966C33.8659 16.9637 33.3346 17.0966 33.4864 16.4894C33.4864 16.4135 33.5244 16.3565 33.5434 16.2806C33.7458 15.4331 33.4042 15.0093 32.5187 15.0093C29.8812 15.0093 27.2437 14.9903 24.6062 14.9714C23.6954 14.9714 22.9048 14.5792 22.2343 13.7949L22.2153 13.8139Z" fill="white"/>
</svg>
