<svg width="103" height="103" viewBox="0 0 103 103" fill="none" xmlns="http://www.w3.org/2000/svg">
<path d="M25.03 63.6901V70.5801C25.03 71.1501 25.5 71.6201 26.07 71.6201H33.62C34.09 71.6201 34.47 71.3401 34.66 70.8701L37.11 63.2301C37.3 62.4801 36.73 61.8101 36.07 61.8101L26.07 62.4701C25.5 62.6601 25.03 63.1301 25.03 63.7001V63.6901Z" fill="#0064FF"/>
<path d="M45.3201 61.52V71.81C45.2401 71.85 45.1401 71.88 45.0401 71.89L38.8101 72.74C38.6201 72.74 38.3401 72.74 38.1501 72.65L37.4001 72.18C36.9301 71.8 36.7401 71.33 36.9301 70.86L39.8601 62.27C40.0501 61.8 40.4301 61.52 40.9001 61.52H45.3301H45.3201Z" fill="#0064FF"/>
<path d="M26.07 73.22L34.75 73.41C34.94 73.41 35.13 73.5 35.32 73.6L36.17 74.17C36.55 74.45 36.74 74.92 36.55 75.3L34.85 80.87C34.76 81.34 34.28 81.62 33.81 81.62H25.79C25.22 81.62 24.75 81.15 24.75 80.58L24.84 74.26C25.03 73.69 25.5 73.22 26.07 73.22Z" fill="#0064FF"/>
<path d="M47.7201 78.51L47.6801 80.77C47.6801 81.34 47.2101 81.81 46.6401 81.81H38.5301C37.7801 81.72 37.3001 81.06 37.4901 80.39L38.8101 75.48C38.9001 75.1 39.2801 74.82 39.6601 74.73L45.3201 73.88V75.34C45.3201 76.77 46.2501 77.93 47.7201 78.51Z" fill="#0064FF"/>
<path d="M58.06 75.29L56.46 80.86C56.37 81.33 55.89 81.61 55.42 81.61H50.8C50.23 81.61 49.76 81.14 49.76 80.57V78.9C49.83 78.9 49.89 78.9 49.96 78.9H53.15C55.83 78.9 57.78 77.4 57.78 75.32V74.23L57.87 74.33C58.06 74.61 58.15 74.99 58.06 75.27V75.29Z" fill="#0064FF"/>
<path d="M59.6599 63.03V68.88L59.4699 69.54C59.2799 70.2 59.8499 70.86 60.5099 70.86L66.6399 70.67C67.2999 70.67 67.7699 70.01 67.6799 69.44L66.3599 62.46C66.2699 61.89 65.7899 61.52 65.2299 61.61L60.6099 61.99C60.0399 61.99 59.6699 62.46 59.6699 63.03H59.6599Z" fill="#0064FF"/>
<path d="M60.23 74.2601C60.42 74.5401 60.42 74.8301 60.32 75.1101L58.81 80.3001C58.62 80.9601 59.09 81.6201 59.85 81.6201H66.74C67.4 81.6201 67.87 81.0501 67.78 80.3901L66.74 73.5001C66.65 72.9301 66.17 72.5601 65.7 72.5601H61.17C60.32 72.6501 59.75 73.6001 60.23 74.2601Z" fill="#0064FF"/>
<path d="M69 74.35L69.47 77.3701V80.67C69.47 81.24 69.94 81.71 70.51 81.71H77.21C77.78 81.71 78.25 81.24 78.25 80.67V74.2501C78.25 73.5901 77.68 73.1201 77.02 73.2101L72.59 73.8701H72.12L70.33 73.3001C69.58 72.9201 68.91 73.58 69.01 74.34L69 74.35Z" fill="#0064FF"/>
<path d="M68.53 62.93L70.13 70.48C70.22 70.86 70.51 71.23 70.88 71.33L72.39 71.71H72.77L77.3 71.05C77.87 70.96 78.24 70.48 78.24 70.01V63.41C78.24 62.84 77.86 62.37 77.3 62.37L69.56 61.71C68.9 61.52 68.33 62.18 68.52 62.94L68.53 62.93Z" fill="#0064FF"/>
<path d="M42.4201 28.34V31.93H25.9701C25.4001 31.93 24.8401 31.46 24.8401 30.8V29.48C24.8401 28.82 25.3101 28.35 25.9701 28.35H42.4201V28.34Z" fill="#0064FF"/>
<path d="M78.25 29.47V30.79C78.25 31.45 77.7801 31.92 77.1201 31.92H60.8V28.33H77.1201C77.7801 28.42 78.25 28.9 78.25 29.46V29.47Z" fill="#0064FF"/>
<path d="M27.2 56.05H25.88C25.41 56.05 25.03 55.67 25.03 55.2V53.69C25.03 53.22 25.41 52.84 25.88 52.84H27.2C27.67 52.84 28.05 53.22 28.05 53.69V55.2C28.05 55.67 27.67 56.05 27.2 56.05Z" fill="#0064FF"/>
<path d="M27.2 59.82H25.88C25.41 59.82 25.03 59.44 25.03 58.97V57.46C25.03 56.99 25.41 56.61 25.88 56.61H27.2C27.67 56.61 28.05 56.99 28.05 57.46V58.97C28.05 59.44 27.67 59.82 27.2 59.82Z" fill="#0064FF"/>
<path d="M30.69 56.05H29.37C28.9 56.05 28.52 55.67 28.52 55.2V53.69C28.52 53.22 28.9 52.84 29.37 52.84H30.69C31.16 52.84 31.54 53.22 31.54 53.69V55.2C31.54 55.67 31.16 56.05 30.69 56.05Z" fill="#0064FF"/>
<path d="M30.69 59.82H29.37C28.9 59.82 28.52 59.44 28.52 58.97V57.46C28.52 56.99 28.9 56.61 29.37 56.61H30.69C31.16 56.61 31.54 56.99 31.54 57.46V58.97C31.54 59.44 31.16 59.82 30.69 59.82Z" fill="#0064FF"/>
<path d="M34.19 56.05H32.87C32.4 56.05 32.02 55.67 32.02 55.2V53.69C32.02 53.22 32.4 52.84 32.87 52.84H34.19C34.66 52.84 35.04 53.22 35.04 53.69V55.2C35.04 55.67 34.66 56.05 34.19 56.05Z" fill="#0064FF"/>
<path d="M34.19 59.82H32.87C32.4 59.82 32.02 59.44 32.02 58.97V57.46C32.02 56.99 32.4 56.61 32.87 56.61H34.19C34.66 56.61 35.04 56.99 35.04 57.46V58.97C35.04 59.44 34.66 59.82 34.19 59.82Z" fill="#0064FF"/>
<path d="M37.68 56.05H36.36C35.89 56.05 35.51 55.67 35.51 55.2V53.69C35.51 53.22 35.89 52.84 36.36 52.84H37.68C38.15 52.84 38.53 53.22 38.53 53.69V55.2C38.53 55.67 38.15 56.05 37.68 56.05Z" fill="#0064FF"/>
<path d="M37.68 59.82H36.36C35.89 59.82 35.51 59.44 35.51 58.97V57.46C35.51 56.99 35.89 56.61 36.36 56.61H37.68C38.15 56.61 38.53 56.99 38.53 57.46V58.97C38.53 59.44 38.15 59.82 37.68 59.82Z" fill="#0064FF"/>
<path d="M41.17 56.05H39.85C39.38 56.05 39 55.67 39 55.2V53.69C39 53.22 39.38 52.84 39.85 52.84H41.17C41.64 52.84 42.02 53.22 42.02 53.69V55.2C42.02 55.67 41.64 56.05 41.17 56.05Z" fill="#0064FF"/>
<path d="M41.17 59.82H39.85C39.38 59.82 39 59.44 39 58.97V57.46C39 56.99 39.38 56.61 39.85 56.61H41.17C41.64 56.61 42.02 56.99 42.02 57.46V58.97C42.02 59.44 41.64 59.82 41.17 59.82Z" fill="#0064FF"/>
<path d="M44.66 56.05H43.34C42.87 56.05 42.49 55.67 42.49 55.2V53.69C42.49 53.22 42.87 52.84 43.34 52.84H44.66C45.13 52.84 45.51 53.22 45.51 53.69V55.2C45.51 55.67 45.13 56.05 44.66 56.05Z" fill="#0064FF"/>
<path d="M44.66 59.82H43.34C42.87 59.82 42.49 59.44 42.49 58.97V57.46C42.49 56.99 42.87 56.61 43.34 56.61H44.66C45.13 56.61 45.51 56.99 45.51 57.46V58.97C45.51 59.44 45.13 59.82 44.66 59.82Z" fill="#0064FF"/>
<path d="M59.94 56.05H58.62C58.15 56.05 57.77 55.67 57.77 55.2V53.69C57.77 53.22 58.15 52.84 58.62 52.84H59.94C60.41 52.84 60.79 53.22 60.79 53.69V55.2C60.79 55.67 60.41 56.05 59.94 56.05Z" fill="#0064FF"/>
<path d="M59.94 59.82H58.62C58.15 59.82 57.77 59.44 57.77 58.97V57.46C57.77 56.99 58.15 56.61 58.62 56.61H59.94C60.41 56.61 60.79 56.99 60.79 57.46V58.97C60.79 59.44 60.41 59.82 59.94 59.82Z" fill="#0064FF"/>
<path d="M63.44 56.05H62.12C61.65 56.05 61.27 55.67 61.27 55.2V53.69C61.27 53.22 61.65 52.84 62.12 52.84H63.44C63.91 52.84 64.29 53.22 64.29 53.69V55.2C64.29 55.67 63.91 56.05 63.44 56.05Z" fill="#0064FF"/>
<path d="M63.44 59.82H62.12C61.65 59.82 61.27 59.44 61.27 58.97V57.46C61.27 56.99 61.65 56.61 62.12 56.61H63.44C63.91 56.61 64.29 56.99 64.29 57.46V58.97C64.29 59.44 63.91 59.82 63.44 59.82Z" fill="#0064FF"/>
<path d="M66.93 56.05H65.61C65.14 56.05 64.76 55.67 64.76 55.2V53.69C64.76 53.22 65.14 52.84 65.61 52.84H66.93C67.4 52.84 67.78 53.22 67.78 53.69V55.2C67.78 55.67 67.4 56.05 66.93 56.05Z" fill="#0064FF"/>
<path d="M66.93 59.82H65.61C65.14 59.82 64.76 59.44 64.76 58.97V57.46C64.76 56.99 65.14 56.61 65.61 56.61H66.93C67.4 56.61 67.78 56.99 67.78 57.46V58.97C67.78 59.44 67.4 59.82 66.93 59.82Z" fill="#0064FF"/>
<path d="M70.42 56.05H69.1C68.63 56.05 68.25 55.67 68.25 55.2V53.69C68.25 53.22 68.63 52.84 69.1 52.84H70.42C70.89 52.84 71.27 53.22 71.27 53.69V55.2C71.27 55.67 70.89 56.05 70.42 56.05Z" fill="#0064FF"/>
<path d="M70.42 59.82H69.1C68.63 59.82 68.25 59.44 68.25 58.97V57.46C68.25 56.99 68.63 56.61 69.1 56.61H70.42C70.89 56.61 71.27 56.99 71.27 57.46V58.97C71.27 59.44 70.89 59.82 70.42 59.82Z" fill="#0064FF"/>
<path d="M73.91 56.05H72.59C72.12 56.05 71.74 55.67 71.74 55.2V53.69C71.74 53.22 72.12 52.84 72.59 52.84H73.91C74.38 52.84 74.76 53.22 74.76 53.69V55.2C74.76 55.67 74.38 56.05 73.91 56.05Z" fill="#0064FF"/>
<path d="M73.91 59.82H72.59C72.12 59.82 71.74 59.44 71.74 58.97V57.46C71.74 56.99 72.12 56.61 72.59 56.61H73.91C74.38 56.61 74.76 56.99 74.76 57.46V58.97C74.76 59.44 74.38 59.82 73.91 59.82Z" fill="#0064FF"/>
<path d="M77.4 56.05H76.08C75.61 56.05 75.23 55.67 75.23 55.2V53.69C75.23 53.22 75.61 52.84 76.08 52.84H77.4C77.87 52.84 78.25 53.22 78.25 53.69V55.2C78.25 55.67 77.87 56.05 77.4 56.05Z" fill="#0064FF"/>
<path d="M77.4 59.82H76.08C75.61 59.82 75.23 59.44 75.23 58.97V57.46C75.23 56.99 75.61 56.61 76.08 56.61H77.4C77.87 56.61 78.25 56.99 78.25 57.46V58.97C78.25 59.44 77.87 59.82 77.4 59.82Z" fill="#0064FF"/>
<path d="M27.2 48.5H25.88C25.41 48.5 25.03 48.12 25.03 47.65V46.14C25.03 45.67 25.41 45.29 25.88 45.29H27.2C27.67 45.29 28.05 45.67 28.05 46.14V47.65C28.05 48.12 27.67 48.5 27.2 48.5Z" fill="#0064FF"/>
<path d="M27.2 52.2701H25.88C25.41 52.2701 25.03 51.8901 25.03 51.4201V49.9101C25.03 49.4401 25.41 49.0601 25.88 49.0601H27.2C27.67 49.0601 28.05 49.4401 28.05 49.9101V51.4201C28.05 51.8901 27.67 52.2701 27.2 52.2701Z" fill="#0064FF"/>
<path d="M30.69 48.5H29.37C28.9 48.5 28.52 48.12 28.52 47.65V46.14C28.52 45.67 28.9 45.29 29.37 45.29H30.69C31.16 45.29 31.54 45.67 31.54 46.14V47.65C31.54 48.12 31.16 48.5 30.69 48.5Z" fill="#0064FF"/>
<path d="M30.69 52.2701H29.37C28.9 52.2701 28.52 51.8901 28.52 51.4201V49.9101C28.52 49.4401 28.9 49.0601 29.37 49.0601H30.69C31.16 49.0601 31.54 49.4401 31.54 49.9101V51.4201C31.54 51.8901 31.16 52.2701 30.69 52.2701Z" fill="#0064FF"/>
<path d="M34.19 48.5H32.87C32.4 48.5 32.02 48.12 32.02 47.65V46.14C32.02 45.67 32.4 45.29 32.87 45.29H34.19C34.66 45.29 35.04 45.67 35.04 46.14V47.65C35.04 48.12 34.66 48.5 34.19 48.5Z" fill="#0064FF"/>
<path d="M34.19 52.2701H32.87C32.4 52.2701 32.02 51.8901 32.02 51.4201V49.9101C32.02 49.4401 32.4 49.0601 32.87 49.0601H34.19C34.66 49.0601 35.04 49.4401 35.04 49.9101V51.4201C35.04 51.8901 34.66 52.2701 34.19 52.2701Z" fill="#0064FF"/>
<path d="M37.68 48.5H36.36C35.89 48.5 35.51 48.12 35.51 47.65V46.14C35.51 45.67 35.89 45.29 36.36 45.29H37.68C38.15 45.29 38.53 45.67 38.53 46.14V47.65C38.53 48.12 38.15 48.5 37.68 48.5Z" fill="#0064FF"/>
<path d="M37.68 52.2701H36.36C35.89 52.2701 35.51 51.8901 35.51 51.4201V49.9101C35.51 49.4401 35.89 49.0601 36.36 49.0601H37.68C38.15 49.0601 38.53 49.4401 38.53 49.9101V51.4201C38.53 51.8901 38.15 52.2701 37.68 52.2701Z" fill="#0064FF"/>
<path d="M41.17 48.5H39.85C39.38 48.5 39 48.12 39 47.65V46.14C39 45.67 39.38 45.29 39.85 45.29H41.17C41.64 45.29 42.02 45.67 42.02 46.14V47.65C42.02 48.12 41.64 48.5 41.17 48.5Z" fill="#0064FF"/>
<path d="M41.17 52.2701H39.85C39.38 52.2701 39 51.8901 39 51.4201V49.9101C39 49.4401 39.38 49.0601 39.85 49.0601H41.17C41.64 49.0601 42.02 49.4401 42.02 49.9101V51.4201C42.02 51.8901 41.64 52.2701 41.17 52.2701Z" fill="#0064FF"/>
<path d="M44.66 48.5H43.34C42.87 48.5 42.49 48.12 42.49 47.65V46.14C42.49 45.67 42.87 45.29 43.34 45.29H44.66C45.13 45.29 45.51 45.67 45.51 46.14V47.65C45.51 48.12 45.13 48.5 44.66 48.5Z" fill="#0064FF"/>
<path d="M44.66 52.2701H43.34C42.87 52.2701 42.49 51.8901 42.49 51.4201V49.9101C42.49 49.4401 42.87 49.0601 43.34 49.0601H44.66C45.13 49.0601 45.51 49.4401 45.51 49.9101V51.4201C45.51 51.8901 45.13 52.2701 44.66 52.2701Z" fill="#0064FF"/>
<path d="M59.94 48.5H58.62C58.15 48.5 57.77 48.12 57.77 47.65V46.14C57.77 45.67 58.15 45.29 58.62 45.29H59.94C60.41 45.29 60.79 45.67 60.79 46.14V47.65C60.79 48.12 60.41 48.5 59.94 48.5Z" fill="#0064FF"/>
<path d="M59.94 52.2701H58.62C58.15 52.2701 57.77 51.8901 57.77 51.4201V49.9101C57.77 49.4401 58.15 49.0601 58.62 49.0601H59.94C60.41 49.0601 60.79 49.4401 60.79 49.9101V51.4201C60.79 51.8901 60.41 52.2701 59.94 52.2701Z" fill="#0064FF"/>
<path d="M63.44 48.5H62.12C61.65 48.5 61.27 48.12 61.27 47.65V46.14C61.27 45.67 61.65 45.29 62.12 45.29H63.44C63.91 45.29 64.29 45.67 64.29 46.14V47.65C64.29 48.12 63.91 48.5 63.44 48.5Z" fill="#0064FF"/>
<path d="M63.44 52.2701H62.12C61.65 52.2701 61.27 51.8901 61.27 51.4201V49.9101C61.27 49.4401 61.65 49.0601 62.12 49.0601H63.44C63.91 49.0601 64.29 49.4401 64.29 49.9101V51.4201C64.29 51.8901 63.91 52.2701 63.44 52.2701Z" fill="#0064FF"/>
<path d="M66.93 48.5H65.61C65.14 48.5 64.76 48.12 64.76 47.65V46.14C64.76 45.67 65.14 45.29 65.61 45.29H66.93C67.4 45.29 67.78 45.67 67.78 46.14V47.65C67.78 48.12 67.4 48.5 66.93 48.5Z" fill="#0064FF"/>
<path d="M66.93 52.2701H65.61C65.14 52.2701 64.76 51.8901 64.76 51.4201V49.9101C64.76 49.4401 65.14 49.0601 65.61 49.0601H66.93C67.4 49.0601 67.78 49.4401 67.78 49.9101V51.4201C67.78 51.8901 67.4 52.2701 66.93 52.2701Z" fill="#0064FF"/>
<path d="M70.42 48.5H69.1C68.63 48.5 68.25 48.12 68.25 47.65V46.14C68.25 45.67 68.63 45.29 69.1 45.29H70.42C70.89 45.29 71.27 45.67 71.27 46.14V47.65C71.27 48.12 70.89 48.5 70.42 48.5Z" fill="#0064FF"/>
<path d="M70.42 52.2701H69.1C68.63 52.2701 68.25 51.8901 68.25 51.4201V49.9101C68.25 49.4401 68.63 49.0601 69.1 49.0601H70.42C70.89 49.0601 71.27 49.4401 71.27 49.9101V51.4201C71.27 51.8901 70.89 52.2701 70.42 52.2701Z" fill="#0064FF"/>
<path d="M73.91 48.5H72.59C72.12 48.5 71.74 48.12 71.74 47.65V46.14C71.74 45.67 72.12 45.29 72.59 45.29H73.91C74.38 45.29 74.76 45.67 74.76 46.14V47.65C74.76 48.12 74.38 48.5 73.91 48.5Z" fill="#0064FF"/>
<path d="M73.91 52.2701H72.59C72.12 52.2701 71.74 51.8901 71.74 51.4201V49.9101C71.74 49.4401 72.12 49.0601 72.59 49.0601H73.91C74.38 49.0601 74.76 49.4401 74.76 49.9101V51.4201C74.76 51.8901 74.38 52.2701 73.91 52.2701Z" fill="#0064FF"/>
<path d="M77.4 48.5H76.08C75.61 48.5 75.23 48.12 75.23 47.65V46.14C75.23 45.67 75.61 45.29 76.08 45.29H77.4C77.87 45.29 78.25 45.67 78.25 46.14V47.65C78.25 48.12 77.87 48.5 77.4 48.5Z" fill="#0064FF"/>
<path d="M77.4 52.2701H76.08C75.61 52.2701 75.23 51.8901 75.23 51.4201V49.9101C75.23 49.4401 75.61 49.0601 76.08 49.0601H77.4C77.87 49.0601 78.25 49.4401 78.25 49.9101V51.4201C78.25 51.8901 77.87 52.2701 77.4 52.2701Z" fill="#0064FF"/>
<path d="M27.2 40.95H25.88C25.41 40.95 25.03 40.57 25.03 40.1V38.59C25.03 38.12 25.41 37.74 25.88 37.74H27.2C27.67 37.74 28.05 38.12 28.05 38.59V40.1C28.05 40.57 27.67 40.95 27.2 40.95Z" fill="#0064FF"/>
<path d="M27.2 44.72H25.88C25.41 44.72 25.03 44.34 25.03 43.87V42.36C25.03 41.89 25.41 41.51 25.88 41.51H27.2C27.67 41.51 28.05 41.89 28.05 42.36V43.87C28.05 44.34 27.67 44.72 27.2 44.72Z" fill="#0064FF"/>
<path d="M30.69 40.95H29.37C28.9 40.95 28.52 40.57 28.52 40.1V38.59C28.52 38.12 28.9 37.74 29.37 37.74H30.69C31.16 37.74 31.54 38.12 31.54 38.59V40.1C31.54 40.57 31.16 40.95 30.69 40.95Z" fill="#0064FF"/>
<path d="M30.69 44.72H29.37C28.9 44.72 28.52 44.34 28.52 43.87V42.36C28.52 41.89 28.9 41.51 29.37 41.51H30.69C31.16 41.51 31.54 41.89 31.54 42.36V43.87C31.54 44.34 31.16 44.72 30.69 44.72Z" fill="#0064FF"/>
<path d="M34.19 40.95H32.87C32.4 40.95 32.02 40.57 32.02 40.1V38.59C32.02 38.12 32.4 37.74 32.87 37.74H34.19C34.66 37.74 35.04 38.12 35.04 38.59V40.1C35.04 40.57 34.66 40.95 34.19 40.95Z" fill="#0064FF"/>
<path d="M34.19 44.72H32.87C32.4 44.72 32.02 44.34 32.02 43.87V42.36C32.02 41.89 32.4 41.51 32.87 41.51H34.19C34.66 41.51 35.04 41.89 35.04 42.36V43.87C35.04 44.34 34.66 44.72 34.19 44.72Z" fill="#0064FF"/>
<path d="M37.68 40.95H36.36C35.89 40.95 35.51 40.57 35.51 40.1V38.59C35.51 38.12 35.89 37.74 36.36 37.74H37.68C38.15 37.74 38.53 38.12 38.53 38.59V40.1C38.53 40.57 38.15 40.95 37.68 40.95Z" fill="#0064FF"/>
<path d="M37.68 44.72H36.36C35.89 44.72 35.51 44.34 35.51 43.87V42.36C35.51 41.89 35.89 41.51 36.36 41.51H37.68C38.15 41.51 38.53 41.89 38.53 42.36V43.87C38.53 44.34 38.15 44.72 37.68 44.72Z" fill="#0064FF"/>
<path d="M41.17 40.95H39.85C39.38 40.95 39 40.57 39 40.1V38.59C39 38.12 39.38 37.74 39.85 37.74H41.17C41.64 37.74 42.02 38.12 42.02 38.59V40.1C42.02 40.57 41.64 40.95 41.17 40.95Z" fill="#0064FF"/>
<path d="M41.17 44.72H39.85C39.38 44.72 39 44.34 39 43.87V42.36C39 41.89 39.38 41.51 39.85 41.51H41.17C41.64 41.51 42.02 41.89 42.02 42.36V43.87C42.02 44.34 41.64 44.72 41.17 44.72Z" fill="#0064FF"/>
<path d="M44.66 44.72H43.34C42.87 44.72 42.49 44.34 42.49 43.87V42.36C42.49 41.89 42.87 41.51 43.34 41.51H44.66C45.13 41.51 45.51 41.89 45.51 42.36V43.87C45.51 44.34 45.13 44.72 44.66 44.72Z" fill="#0064FF"/>
<path d="M59.94 44.72H58.62C58.15 44.72 57.77 44.34 57.77 43.87V42.36C57.77 41.89 58.15 41.51 58.62 41.51H59.94C60.41 41.51 60.79 41.89 60.79 42.36V43.87C60.79 44.34 60.41 44.72 59.94 44.72Z" fill="#0064FF"/>
<path d="M63.44 40.95H62.12C61.65 40.95 61.27 40.57 61.27 40.1V38.59C61.27 38.12 61.65 37.74 62.12 37.74H63.44C63.91 37.74 64.29 38.12 64.29 38.59V40.1C64.29 40.57 63.91 40.95 63.44 40.95Z" fill="#0064FF"/>
<path d="M63.44 44.72H62.12C61.65 44.72 61.27 44.34 61.27 43.87V42.36C61.27 41.89 61.65 41.51 62.12 41.51H63.44C63.91 41.51 64.29 41.89 64.29 42.36V43.87C64.29 44.34 63.91 44.72 63.44 44.72Z" fill="#0064FF"/>
<path d="M66.93 40.95H65.61C65.14 40.95 64.76 40.57 64.76 40.1V38.59C64.76 38.12 65.14 37.74 65.61 37.74H66.93C67.4 37.74 67.78 38.12 67.78 38.59V40.1C67.78 40.57 67.4 40.95 66.93 40.95Z" fill="#0064FF"/>
<path d="M66.93 44.72H65.61C65.14 44.72 64.76 44.34 64.76 43.87V42.36C64.76 41.89 65.14 41.51 65.61 41.51H66.93C67.4 41.51 67.78 41.89 67.78 42.36V43.87C67.78 44.34 67.4 44.72 66.93 44.72Z" fill="#0064FF"/>
<path d="M70.42 40.95H69.1C68.63 40.95 68.25 40.57 68.25 40.1V38.59C68.25 38.12 68.63 37.74 69.1 37.74H70.42C70.89 37.74 71.27 38.12 71.27 38.59V40.1C71.27 40.57 70.89 40.95 70.42 40.95Z" fill="#0064FF"/>
<path d="M70.42 44.72H69.1C68.63 44.72 68.25 44.34 68.25 43.87V42.36C68.25 41.89 68.63 41.51 69.1 41.51H70.42C70.89 41.51 71.27 41.89 71.27 42.36V43.87C71.27 44.34 70.89 44.72 70.42 44.72Z" fill="#0064FF"/>
<path d="M73.91 40.95H72.59C72.12 40.95 71.74 40.57 71.74 40.1V38.59C71.74 38.12 72.12 37.74 72.59 37.74H73.91C74.38 37.74 74.76 38.12 74.76 38.59V40.1C74.76 40.57 74.38 40.95 73.91 40.95Z" fill="#0064FF"/>
<path d="M73.91 44.72H72.59C72.12 44.72 71.74 44.34 71.74 43.87V42.36C71.74 41.89 72.12 41.51 72.59 41.51H73.91C74.38 41.51 74.76 41.89 74.76 42.36V43.87C74.76 44.34 74.38 44.72 73.91 44.72Z" fill="#0064FF"/>
<path d="M77.4 40.95H76.08C75.61 40.95 75.23 40.57 75.23 40.1V38.59C75.23 38.12 75.61 37.74 76.08 37.74H77.4C77.87 37.74 78.25 38.12 78.25 38.59V40.1C78.25 40.57 77.87 40.95 77.4 40.95Z" fill="#0064FF"/>
<path d="M77.4 44.72H76.08C75.61 44.72 75.23 44.34 75.23 43.87V42.36C75.23 41.89 75.61 41.51 76.08 41.51H77.4C77.87 41.51 78.25 41.89 78.25 42.36V43.87C78.25 44.34 77.87 44.72 77.4 44.72Z" fill="#0064FF"/>
<path d="M27.2 37.17H25.88C25.41 37.17 25.03 36.79 25.03 36.32V34.81C25.03 34.34 25.41 33.96 25.88 33.96H27.2C27.67 33.96 28.05 34.34 28.05 34.81V36.32C28.05 36.79 27.67 37.17 27.2 37.17Z" fill="#0064FF"/>
<path d="M30.69 37.17H29.37C28.9 37.17 28.52 36.79 28.52 36.32V34.81C28.52 34.34 28.9 33.96 29.37 33.96H30.69C31.16 33.96 31.54 34.34 31.54 34.81V36.32C31.54 36.79 31.16 37.17 30.69 37.17Z" fill="#0064FF"/>
<path d="M34.19 37.17H32.87C32.4 37.17 32.02 36.79 32.02 36.32V34.81C32.02 34.34 32.4 33.96 32.87 33.96H34.19C34.66 33.96 35.04 34.34 35.04 34.81V36.32C35.04 36.79 34.66 37.17 34.19 37.17Z" fill="#0064FF"/>
<path d="M37.68 37.17H36.36C35.89 37.17 35.51 36.79 35.51 36.32V34.81C35.51 34.34 35.89 33.96 36.36 33.96H37.68C38.15 33.96 38.53 34.34 38.53 34.81V36.32C38.53 36.79 38.15 37.17 37.68 37.17Z" fill="#0064FF"/>
<path d="M41.17 37.17H39.85C39.38 37.17 39 36.79 39 36.32V34.81C39 34.34 39.38 33.96 39.85 33.96H41.17C41.64 33.96 42.02 34.34 42.02 34.81V36.32C42.02 36.79 41.64 37.17 41.17 37.17Z" fill="#0064FF"/>
<path d="M44.66 33.3999H43.34C42.87 33.3999 42.49 33.0199 42.49 32.5499V31.0399C42.49 30.5699 42.87 30.1899 43.34 30.1899H44.66C45.13 30.1899 45.51 30.5699 45.51 31.0399V32.5499C45.51 33.0199 45.13 33.3999 44.66 33.3999Z" fill="#0064FF"/>
<path d="M44.66 37.17H43.34C42.87 37.17 42.49 36.79 42.49 36.32V34.81C42.49 34.34 42.87 33.96 43.34 33.96H44.66C45.13 33.96 45.51 34.34 45.51 34.81V36.32C45.51 36.79 45.13 37.17 44.66 37.17Z" fill="#0064FF"/>
<path d="M59.94 33.3999H58.62C58.15 33.3999 57.77 33.0199 57.77 32.5499V31.0399C57.77 30.5699 58.15 30.1899 58.62 30.1899H59.94C60.41 30.1899 60.79 30.5699 60.79 31.0399V32.5499C60.79 33.0199 60.41 33.3999 59.94 33.3999Z" fill="#0064FF"/>
<path d="M59.94 37.17H58.62C58.15 37.17 57.77 36.79 57.77 36.32V34.81C57.77 34.34 58.15 33.96 58.62 33.96H59.94C60.41 33.96 60.79 34.34 60.79 34.81V36.32C60.79 36.79 60.41 37.17 59.94 37.17Z" fill="#0064FF"/>
<path d="M63.44 37.17H62.12C61.65 37.17 61.27 36.79 61.27 36.32V34.81C61.27 34.34 61.65 33.96 62.12 33.96H63.44C63.91 33.96 64.29 34.34 64.29 34.81V36.32C64.29 36.79 63.91 37.17 63.44 37.17Z" fill="#0064FF"/>
<path d="M66.93 37.17H65.61C65.14 37.17 64.76 36.79 64.76 36.32V34.81C64.76 34.34 65.14 33.96 65.61 33.96H66.93C67.4 33.96 67.78 34.34 67.78 34.81V36.32C67.78 36.79 67.4 37.17 66.93 37.17Z" fill="#0064FF"/>
<path d="M70.42 37.17H69.1C68.63 37.17 68.25 36.79 68.25 36.32V34.81C68.25 34.34 68.63 33.96 69.1 33.96H70.42C70.89 33.96 71.27 34.34 71.27 34.81V36.32C71.27 36.79 70.89 37.17 70.42 37.17Z" fill="#0064FF"/>
<path d="M73.91 37.17H72.59C72.12 37.17 71.74 36.79 71.74 36.32V34.81C71.74 34.34 72.12 33.96 72.59 33.96H73.91C74.38 33.96 74.76 34.34 74.76 34.81V36.32C74.76 36.79 74.38 37.17 73.91 37.17Z" fill="#0064FF"/>
<path d="M77.4 37.17H76.08C75.61 37.17 75.23 36.79 75.23 36.32V34.81C75.23 34.34 75.61 33.96 76.08 33.96H77.4C77.87 33.96 78.25 34.34 78.25 34.81V36.32C78.25 36.79 77.87 37.17 77.4 37.17Z" fill="#0064FF"/>
<path d="M56.8499 24.6199H56.2999V21.6599L55.8299 21.1899H47.3899L46.9199 21.6599V24.6199H46.3599L42.4299 26.9299V37.8799L47.2099 42.5299V75.3299C47.2099 76.3199 48.3499 77.0199 49.9599 77.0199H53.1499C54.7499 77.0199 55.8999 76.3199 55.8999 75.3299V42.6499L60.8099 37.8899V26.9399L56.8699 24.6299L56.8499 24.6199ZM52.9199 24.6199V68.5799C52.9199 69.6599 52.5599 70.4199 52.0499 70.4199H51.0499C50.5399 70.4199 50.1799 69.6599 50.1799 68.5799V24.6199H47.8599V22.1299H55.3499V24.6199H52.9099H52.9199Z" fill="#0064FF"/>
</svg>
