<svg width="103" height="103" viewBox="0 0 103 103" fill="none" xmlns="http://www.w3.org/2000/svg">
<path d="M85.5 71.92V76.56C85.5 79.7 70.28 82.26 51.49 82.26C32.7 82.26 17.49 79.7 17.49 76.56V71.92C17.49 69.65 25.43 67.68 36.92 66.77C37.13 66.75 37.32 66.93 37.32 67.15V71.93C37.32 73.24 43.67 74.31 51.49 74.31C59.31 74.31 65.67 73.25 65.67 71.93V71.39L65.79 66.76C77.43 67.65 85.49 69.63 85.49 71.93L85.5 71.92Z" fill="#0064FF"/>
<path d="M51.5 59.78C53.91 59.78 55.78 59.95 57.05 60.16C56.79 60.2 56.5 60.24 56.18 60.28C54.8201 60.44 53.2 60.53 51.5 60.53C49.8 60.53 48.1901 60.44 46.8301 60.28C46.5001 60.24 46.21 60.2 45.96 60.16C47.22 59.95 49.09 59.78 51.5 59.78ZM51.5 58.78C46.98 58.78 43.3 59.4 43.3 60.16C43.3 60.62 44.65 61.02 46.71 61.27C48.06 61.43 49.71 61.53 51.5 61.53C53.29 61.53 54.95 61.43 56.3 61.27C58.37 61.02 59.71 60.62 59.71 60.16C59.71 59.4 56.0301 58.78 51.5 58.78Z" fill="#0064FF"/>
<path d="M51.5001 65.4401C45.9401 65.4401 41.2901 64.7901 40.1201 63.9101C40.0001 63.8201 39.8401 63.9101 39.8401 64.0601V70.8501C39.8401 71.9201 45.0601 72.8001 51.5001 72.8001C57.9401 72.8001 63.1701 71.9201 63.1701 70.8501V64.0601C63.1701 63.9101 63.0101 63.8201 62.8901 63.9101C61.7301 64.7901 57.0701 65.4401 51.5101 65.4401H51.5001Z" fill="#0064FF"/>
<path d="M59.71 60.16V62.38C59.71 63.14 56.0301 63.76 51.5 63.76C46.97 63.76 43.3 63.14 43.3 62.38V60.16C43.3 60.62 44.65 61.02 46.71 61.27C48.06 61.43 49.71 61.53 51.5 61.53C53.29 61.53 54.95 61.43 56.3 61.27C58.37 61.02 59.71 60.62 59.71 60.16Z" fill="#0064FF"/>
<path d="M54.1699 31.95H48.8299C48.1948 31.95 47.6799 32.4648 47.6799 33.0999V58.6899C47.6799 59.3251 48.1948 59.84 48.8299 59.84H54.1699C54.8051 59.84 55.3199 59.3251 55.3199 58.6899V33.0999C55.3199 32.4648 54.8051 31.95 54.1699 31.95Z" fill="#0064FF"/>
<path d="M32.3199 57.14C28.2399 57.14 24.9299 53.76 24.9299 49.61C24.9299 45.46 28.2399 42.08 32.3199 42.08C36.3999 42.08 39.7099 45.46 39.7099 49.61C39.7099 53.76 36.3899 57.14 32.3199 57.14ZM32.3199 43.81C29.1799 43.81 26.6199 46.41 26.6199 49.61C26.6199 52.81 29.1799 55.41 32.3199 55.41C35.4599 55.41 38.0199 52.81 38.0199 49.61C38.0199 46.41 35.4599 43.81 32.3199 43.81Z" fill="#0064FF"/>
<path d="M30.4698 54.5599C30.3698 54.5599 30.2698 54.5399 30.1798 54.4999C29.8198 54.3399 29.6598 53.9099 29.8198 53.5399L31.6698 49.3199C31.8298 48.9499 32.2598 48.7899 32.6098 48.9499C32.9698 49.1099 33.1298 49.5399 32.9698 49.9099L31.1198 54.1299C30.9998 54.3999 30.7398 54.5599 30.4698 54.5599Z" fill="#0064FF"/>
<path d="M42.3899 59.41C40.8799 59.41 39.6599 58.16 39.6599 56.63C39.6599 55.1 40.8899 53.85 42.3899 53.85C43.8899 53.85 45.1199 55.1 45.1199 56.63C45.1199 58.16 43.8899 59.41 42.3899 59.41ZM42.3899 54.48C41.2299 54.48 40.2799 55.44 40.2799 56.63C40.2799 57.82 41.2199 58.77 42.3899 58.77C43.5599 58.77 44.4999 57.81 44.4999 56.63C44.4999 55.45 43.5599 54.48 42.3899 54.48Z" fill="#0064FF"/>
<path d="M41.7099 58.45C41.7099 58.45 41.6399 58.45 41.5999 58.43C41.4699 58.37 41.4099 58.21 41.4699 58.07L42.1599 56.51C42.2199 56.37 42.3799 56.31 42.5099 56.37C42.6399 56.43 42.6999 56.59 42.6399 56.73L41.9499 58.29C41.9099 58.39 41.8099 58.45 41.7099 58.45Z" fill="#0064FF"/>
<path d="M68.7501 60.97C65.4801 60.97 62.8201 58.26 62.8201 54.93C62.8201 51.6 65.4801 48.89 68.7501 48.89C72.0201 48.89 74.6801 51.6 74.6801 54.93C74.6801 58.26 72.0201 60.97 68.7501 60.97ZM68.7501 50.27C66.2301 50.27 64.1801 52.36 64.1801 54.93C64.1801 57.5 66.2301 59.59 68.7501 59.59C71.2701 59.59 73.3201 57.5 73.3201 54.93C73.3201 52.36 71.2701 50.27 68.7501 50.27Z" fill="#0064FF"/>
<path d="M67.2601 58.8901C67.1801 58.8901 67.1001 58.8701 67.0301 58.8401C66.7401 58.7101 66.6101 58.3601 66.7401 58.0701L68.2301 54.6801C68.3601 54.3901 68.7001 54.2501 68.9901 54.3901C69.2801 54.5201 69.4101 54.8701 69.2801 55.1601L67.7901 58.5501C67.6901 58.7701 67.4901 58.8901 67.2701 58.8901H67.2601Z" fill="#0064FF"/>
<path d="M42.66 58.74H42.25V66.05H42.66V58.74Z" fill="#0064FF"/>
<path d="M33.0401 56.62H31.6101V69.26H33.0401V56.62Z" fill="#0064FF"/>
<path d="M69.23 60.55H68.28V68.84H69.23V60.55Z" fill="#0064FF"/>
<path d="M78.5901 26.74H24.4101C23.8247 26.74 23.3501 27.2146 23.3501 27.8V29.64C23.3501 30.2254 23.8247 30.7 24.4101 30.7H78.5901C79.1755 30.7 79.6501 30.2254 79.6501 29.64V27.8C79.6501 27.2146 79.1755 26.74 78.5901 26.74Z" fill="#0064FF"/>
</svg>
