<svg width="103" height="103" viewBox="0 0 103 103" fill="none" xmlns="http://www.w3.org/2000/svg">
<path d="M54.8799 22.22H46.0399C45.5373 22.22 45.1299 22.6274 45.1299 23.13V24.27C45.1299 24.7726 45.5373 25.18 46.0399 25.18H54.8799C55.3825 25.18 55.7899 24.7726 55.7899 24.27V23.13C55.7899 22.6274 55.3825 22.22 54.8799 22.22Z" fill="#0064FF"/>
<path d="M71.8 38.48L71.05 37.89C70.88 37.75 70.63 37.81 70.52 38L69.57 39.7001C69.53 39.76 69.45 39.7701 69.4 39.7201C69.21 39.5301 69.01 39.4 68.82 39.32V32.0201H70.54C71.04 32.0201 71.45 31.6101 71.45 31.1101V29.18C71.45 28.7 71.07 28.3001 70.59 28.2801C70.57 28.2701 70.56 28.2701 70.54 28.2701H70.14L71.85 26.39C72 26.24 71.98 26.0001 71.82 25.8601L71.06 25.2701C70.89 25.14 70.64 25.19 70.53 25.38L69.58 27.08C69.55 27.15 69.46 27.1501 69.41 27.1C69.21 26.91 69.01 26.7801 68.82 26.7001V22.1C68.82 21.79 68.57 21.55 68.27 21.55H67.54C67.23 21.55 66.99 21.8 66.99 22.1V26.7001C66.8 26.7801 66.6 26.91 66.4 27.1C66.35 27.1501 66.27 27.15 66.23 27.08L65.28 25.38C65.18 25.19 64.92 25.14 64.75 25.2701L64 25.8601C63.83 26.0001 63.82 26.24 63.97 26.39L65.57 28.2701H35.37L36.97 26.39C37.12 26.24 37.11 26.0001 36.94 25.8601L36.19 25.2701C36.02 25.14 35.76 25.19 35.66 25.38L34.71 27.08C34.67 27.15 34.59 27.1501 34.54 27.1C34.34 26.91 34.14 26.7801 33.95 26.7001V22.1C33.95 21.79 33.7 21.55 33.4 21.55H32.67C32.36 21.55 32.12 21.8 32.12 22.1V26.7001C31.93 26.7801 31.73 26.91 31.53 27.1C31.48 27.1501 31.39 27.15 31.36 27.08L30.41 25.38C30.3 25.19 30.05 25.14 29.88 25.2701L29.12 25.8601C28.96 26.0001 28.94 26.24 29.09 26.39L30.8 28.2701H30.4C29.9 28.2701 29.49 28.68 29.49 29.18V31.1101C29.49 31.6101 29.9 32.0201 30.4 32.0201H32.12V39.32C31.93 39.4 31.73 39.5301 31.54 39.7201C31.49 39.7701 31.4 39.7701 31.37 39.7001L30.42 38C30.31 37.81 30.06 37.76 29.89 37.89L29.14 38.48C28.97 38.61 28.96 38.86 29.11 39.01L30.76 40.67H29.6C29.6 40.67 29.49 40.67 29.46 40.7001C29.43 40.7201 29.44 40.75 29.44 40.87C29.44 41.23 29.44 42.0001 29.5 42.3801C29.53 42.5701 29.69 42.7001 29.89 42.7001H31.1C31.36 42.7001 31.62 42.64 31.85 42.53L32.14 42.39V55.8301C31.95 55.9101 31.75 56.0401 31.56 56.23C31.51 56.28 31.42 56.28 31.39 56.21L30.44 54.51C30.33 54.32 30.08 54.2701 29.91 54.4001L29.16 54.9901C28.99 55.1201 28.98 55.37 29.13 55.5201L30.78 57.18H29.62C29.62 57.18 29.51 57.18 29.48 57.21C29.45 57.23 29.46 57.2601 29.46 57.3801C29.46 57.7401 29.46 58.51 29.52 58.89C29.55 59.08 29.71 59.21 29.91 59.21H31.12C31.38 59.21 31.64 59.1501 31.87 59.0401L32.16 58.9001V62.73C30.78 63.62 29.99 64.62 29.99 65.68V71.4101C29.99 73.0701 31.9 74.58 35.04 75.74C35.04 75.76 35.04 75.7701 35.04 75.7901V82.28C35.04 82.6101 35.31 82.88 35.64 82.88H37.59C37.92 82.88 38.19 82.6101 38.19 82.28V76.6901C41.63 77.5301 45.89 78.03 50.53 78.03C55.17 78.03 59.43 77.5301 62.87 76.6901V82.28C62.87 82.6101 63.14 82.88 63.47 82.88H65.42C65.75 82.88 66.02 82.6101 66.02 82.28V75.7901C66.02 75.7901 66.02 75.76 66.02 75.75C69.16 74.59 71.07 73.08 71.07 71.42V65.6901C71.07 64.6201 70.28 63.62 68.89 62.73V58.91L69.18 59.05C69.42 59.16 69.67 59.2201 69.93 59.2201H71.14C71.33 59.2201 71.49 59.0801 71.53 58.9001C71.59 58.5201 71.59 57.75 71.59 57.39C71.59 57.2701 71.59 57.25 71.57 57.2201C71.54 57.1901 71.43 57.19 71.43 57.19H70.27L71.92 55.53C72.07 55.38 72.06 55.1301 71.89 55L71.14 54.41C70.97 54.2701 70.72 54.3301 70.61 54.5201L69.66 56.2201C69.62 56.2801 69.54 56.2901 69.49 56.2401C69.3 56.0501 69.1 55.9201 68.91 55.84V42.4001L69.2 42.5401C69.44 42.6501 69.69 42.71 69.95 42.71H71.16C71.35 42.71 71.51 42.57 71.55 42.39C71.61 42.01 71.61 41.2401 71.61 40.8801C71.61 40.76 71.61 40.74 71.59 40.71C71.56 40.68 71.45 40.68 71.45 40.68H70.29L71.94 39.0201C72.09 38.8701 72.08 38.6201 71.91 38.4901L71.8 38.48ZM66.97 32.01V39.3101C66.78 39.3901 66.58 39.52 66.39 39.71C66.34 39.76 66.25 39.76 66.22 39.69L65.27 37.9901C65.16 37.8001 64.91 37.7501 64.74 37.8801L63.99 38.4701C63.82 38.6 63.81 38.85 63.96 39L65.61 40.66H62.81V33.76C62.81 33.45 62.5 33.2501 62.22 33.3801C60.62 34.0901 55.97 34.6 50.47 34.6C44.97 34.6 40.32 34.0901 38.72 33.3801C38.44 33.2601 38.13 33.46 38.13 33.76V40.66H35.33L36.98 39C37.13 38.85 37.12 38.6 36.95 38.4701L36.2 37.8801C36.03 37.7401 35.78 37.8001 35.67 37.9901L34.72 39.69C34.68 39.75 34.6 39.76 34.55 39.71C34.36 39.52 34.16 39.3901 33.97 39.3101V32.01H67.01H66.97ZM63.95 55.5201L65.6 57.18H62.8V42.7001H65.93C66.19 42.7001 66.45 42.64 66.68 42.53L66.97 42.39V55.8301C66.78 55.9101 66.58 56.0401 66.39 56.23C66.34 56.28 66.25 56.28 66.22 56.21L65.27 54.51C65.16 54.32 64.91 54.2701 64.74 54.4001L63.99 54.9901C63.82 55.1201 63.81 55.37 63.96 55.5201H63.95ZM36.93 54.9901L36.18 54.4001C36.01 54.2601 35.76 54.32 35.65 54.51L34.7 56.21C34.66 56.2701 34.58 56.28 34.53 56.23C34.34 56.0401 34.14 55.9101 33.95 55.8301V42.39L34.24 42.53C34.48 42.64 34.73 42.7001 34.99 42.7001H38.12V57.18H35.32L36.97 55.5201C37.12 55.37 37.11 55.1201 36.94 54.9901H36.93ZM65.17 61.07C65 61.01 64.82 61.14 64.82 61.32V62.8801C64.82 62.9901 64.9 63.09 65 63.1301C67.63 64.05 68.99 65.0701 68.99 65.6901C68.99 65.8001 68.78 66.2701 67.86 66.89C64.76 68.96 57.93 70.3001 50.46 70.3001C42.99 70.3001 36.17 68.96 33.07 66.89C32.15 66.2701 31.94 65.8001 31.94 65.6901C31.94 65.0701 33.32 64.05 35.99 63.1101C36.1 63.07 36.17 62.9701 36.17 62.8601V61.3C36.17 61.12 35.99 60.99 35.82 61.05C35.14 61.2701 34.52 61.5201 33.94 61.7701V58.9001L34.23 59.0401C34.47 59.1501 34.72 59.21 34.98 59.21H38.11V64.81C38.11 66.87 43.64 68.5501 50.45 68.5501C57.26 68.5501 62.79 66.87 62.79 64.81V59.21H65.92C66.18 59.21 66.44 59.1501 66.67 59.0401L66.96 58.9001V61.76C66.4 61.52 65.81 61.2801 65.15 61.0601L65.17 61.07Z" fill="#0064FF"/>
<path d="M51.5 82.87C52.577 82.87 53.4501 81.9969 53.4501 80.92C53.4501 79.843 52.577 78.97 51.5 78.97C50.4231 78.97 49.55 79.843 49.55 80.92C49.55 81.9969 50.4231 82.87 51.5 82.87Z" fill="#0064FF"/>
</svg>
