<svg width="103" height="103" viewBox="0 0 103 103" fill="none" xmlns="http://www.w3.org/2000/svg">
<path d="M38.3601 42.91H20.1201C19.3901 42.91 18.8 43.5 18.8 44.23V76.29C18.8 77.02 19.3901 77.61 20.1201 77.61H38.89C39.71 77.61 40.33 76.88 40.19 76.07C40.11 75.61 40.05 75.14 40.05 74.78C40.05 73.79 41.04 72.79 40.51 71.49C39.98 70.19 38.68 69.43 39.44 68.43C40.2 67.43 40.89 65.3 39.98 63.77C39.07 62.24 39.0601 62.39 39.5201 60.25C39.98 58.11 41.75 53.52 40.67 52.3C39.59 51.08 39.44 50.08 39.67 47.41C39.79 46.04 39.74 44.89 39.67 44.09C39.61 43.41 39.0401 42.9 38.3601 42.9V42.91Z" fill="#0064FF"/>
<path d="M64.6401 42.91H82.8801C83.6101 42.91 84.2001 43.5 84.2001 44.23V76.29C84.2001 77.02 83.6101 77.61 82.8801 77.61H64.1101C63.2901 77.61 62.6701 76.88 62.8101 76.07C62.8901 75.61 62.9501 75.14 62.9501 74.78C62.9501 73.79 61.9601 72.79 62.4901 71.49C63.0201 70.19 64.3201 69.43 63.5601 68.43C62.8001 67.43 62.1101 65.3 63.0201 63.77C63.9301 62.24 63.9401 62.39 63.4801 60.25C63.0201 58.11 61.2501 53.52 62.3301 52.3C63.4101 51.08 63.5601 50.08 63.3301 47.41C63.2101 46.04 63.2601 44.89 63.3301 44.09C63.3901 43.41 63.9601 42.9 64.6401 42.9V42.91Z" fill="#0064FF"/>
<path d="M46.55 35.61H43.73C43.476 35.61 43.27 35.8159 43.27 36.07V83.19C43.27 83.444 43.476 83.65 43.73 83.65H46.55C46.8041 83.65 47.01 83.444 47.01 83.19V36.07C47.01 35.8159 46.8041 35.61 46.55 35.61Z" fill="#0064FF"/>
<path d="M59.2699 35.61H56.8699C56.6159 35.61 56.4099 35.8159 56.4099 36.07V83.19C56.4099 83.444 56.6159 83.65 56.8699 83.65H59.2699C59.524 83.65 59.7299 83.444 59.7299 83.19V36.07C59.7299 35.8159 59.524 35.61 59.2699 35.61Z" fill="#0064FF"/>
<path d="M44.7601 21.94C44.7601 21.64 44.5201 21.4 44.2201 21.4H37.8601C37.5601 21.4 37.3201 21.64 37.3201 21.94V40.23C37.3201 40.53 37.5601 40.77 37.8601 40.77H39.8701C40.1701 40.77 40.4101 40.53 40.4101 40.23V25.04C40.4101 24.74 40.6501 24.5 40.9501 24.5H44.2201C44.5201 24.5 44.7601 24.26 44.7601 23.96V21.95V21.94Z" fill="#0064FF"/>
<path d="M65.7 21.94V26.31C65.7 26.51 65.54 26.67 65.34 26.67H62.96C62.76 26.67 62.6 26.51 62.6 26.31V25.04C62.6 24.74 62.35 24.49 62.05 24.49H58.79C58.49 24.49 58.25 24.25 58.25 23.95V21.94C58.25 21.64 58.49 21.4 58.79 21.4H65.15C65.46 21.4 65.7 21.64 65.7 21.94Z" fill="#0064FF"/>
<path d="M62.9801 33.09H65.3201C65.5301 33.09 65.7001 33.26 65.7001 33.47V40.23C65.7001 40.53 65.4601 40.77 65.1601 40.77H63.1501C62.8501 40.77 62.6001 40.52 62.6001 40.22V33.47C62.6001 33.26 62.7701 33.09 62.9801 33.09Z" fill="#0064FF"/>
<path d="M80.2199 29.29H52.3999H51.7899H51.1699V85.6H52.3999V30.57H80.2199V29.29Z" fill="#0064FF"/>
</svg>
