<svg width="103" height="103" viewBox="0 0 103 103" fill="none" xmlns="http://www.w3.org/2000/svg">
<path d="M23.3601 60.43V67.77C23.3601 68.39 23.8601 68.89 24.4801 68.89H32.4601C32.9501 68.89 33.3801 68.58 33.5301 68.11L36.1501 60.04C36.4001 59.28 35.8001 58.52 35.0001 58.57L24.4101 59.3C23.8201 59.34 23.3601 59.83 23.3601 60.42V60.43Z" fill="#0064FF"/>
<path d="M35.9299 68.01L38.9899 58.88C39.1399 58.42 39.5699 58.11 40.0599 58.11H44.7299C45.3699 58.11 45.8799 58.64 45.8499 59.28L45.4799 67.95C45.4599 68.49 45.0499 68.94 44.5099 69.02L37.9599 69.93C37.7199 69.96 37.4699 69.92 37.2599 69.8L36.4499 69.35C35.9799 69.09 35.7599 68.52 35.9299 68.01Z" fill="#0064FF"/>
<path d="M47.72 59.31V68.59C47.72 68.91 47.85 69.21 48.09 69.42L48.27 69.58C48.55 69.83 48.93 69.93 49.29 69.84L56.14 68.18C56.47 68.1 56.75 67.87 56.89 67.56L57.71 65.81C57.78 65.67 57.81 65.52 57.82 65.36L57.97 59.77C57.99 59.16 57.52 58.65 56.91 58.62L48.91 58.17C48.27 58.13 47.72 58.65 47.72 59.29V59.31Z" fill="#0064FF"/>
<path d="M24.4901 70.56L33.7401 70.76C33.9601 70.76 34.1801 70.84 34.3701 70.97L35.26 71.6C35.6501 71.88 35.8301 72.38 35.6901 72.84L33.9101 78.76C33.7701 79.23 33.3301 79.56 32.8301 79.56H24.3401C23.7101 79.56 23.2001 79.04 23.2201 78.41L23.3501 71.66C23.3601 71.04 23.8801 70.54 24.5001 70.56H24.4901Z" fill="#0064FF"/>
<path d="M36.53 78.1399L37.96 72.8999C38.08 72.4699 38.43 72.1499 38.87 72.0899L46.18 70.9499C46.87 70.8399 47.49 71.3799 47.48 72.0799L47.38 78.4699C47.38 79.0799 46.87 79.5799 46.26 79.5799H37.63C36.89 79.5799 36.35 78.8799 36.55 78.1599L36.53 78.1399Z" fill="#0064FF"/>
<path d="M50.36 72.0001L56.14 70.4601C56.56 70.3501 57.01 70.4901 57.29 70.8201L58.08 71.7701C58.32 72.0501 58.4 72.4401 58.3 72.8001L56.63 78.7501C56.49 79.2301 56.05 79.5701 55.55 79.5701H50.65C50.03 79.5701 49.53 79.0701 49.53 78.4501V73.1001C49.53 72.5901 49.87 72.1501 50.36 72.0101V72.0001Z" fill="#0064FF"/>
<path d="M60.0301 59.73V65.66C60.0301 65.75 60.0201 65.85 60.0001 65.94L59.8301 66.62C59.6501 67.34 60.2101 68.04 60.9501 68.02L67.4701 67.83C68.1601 67.81 68.6701 67.18 68.5401 66.5L67.1701 59.12C67.0601 58.55 66.5501 58.16 65.9701 58.21L61.0601 58.61C60.4801 58.66 60.0301 59.15 60.0301 59.73Z" fill="#0064FF"/>
<path d="M60.6199 71.68C60.7799 71.95 60.8199 72.27 60.7299 72.57L59.0799 78.11C58.8699 78.83 59.4099 79.55 60.1599 79.55H67.4799C68.1699 79.55 68.6899 78.94 68.5899 78.26L67.5099 70.93C67.4299 70.38 66.9599 69.97 66.3999 69.97H61.5899C60.7199 69.97 60.1799 70.92 60.6199 71.67V71.68Z" fill="#0064FF"/>
<path d="M69.9299 71.8L70.4099 74.97C70.4099 75.03 70.4199 75.08 70.4199 75.14V78.44C70.4199 79.06 70.9199 79.5599 71.5399 79.5599H78.6599C79.2799 79.5599 79.7799 79.06 79.7799 78.44V71.5899C79.7799 70.8999 79.1599 70.37 78.4799 70.48L73.7799 71.22C73.5999 71.25 73.4199 71.23 73.2499 71.18L71.3899 70.5599C70.5899 70.2999 69.7999 70.97 69.9299 71.79V71.8Z" fill="#0064FF"/>
<path d="M69.41 59.61L71.15 67.6C71.24 68.02 71.57 68.35 71.98 68.45L73.61 68.85C73.75 68.88 73.89 68.89 74.03 68.87L78.81 68.2C79.36 68.12 79.78 67.65 79.78 67.09V60.08C79.78 59.5 79.33 59.01 78.75 58.96L70.6 58.26C69.85 58.2 69.24 58.88 69.41 59.62V59.61Z" fill="#0064FF"/>
<path d="M79.79 45.09V46.5C79.79 47.15 79.26 47.68 78.61 47.68H24.4C23.75 47.68 23.22 47.15 23.22 46.5V45.09C23.22 44.43 23.75 43.9 24.4 43.9H78.61C79.26 43.9 79.79 44.43 79.79 45.09Z" fill="#0064FF"/>
<path d="M49.6001 27.09V55.91C49.6001 56.5617 50.1284 57.09 50.7801 57.09H52.2001C52.8518 57.09 53.3801 56.5617 53.3801 55.91V27.09C53.3801 26.4383 52.8518 25.91 52.2001 25.91H50.7801C50.1284 25.91 49.6001 26.4383 49.6001 27.09Z" fill="#0064FF"/>
<path d="M47.3799 32.55L36.0299 43.9L32.2499 47.68H26.9099L30.6899 43.9L44.7099 29.88C45.1699 29.41 45.9199 29.41 46.3799 29.88L47.3799 30.88C47.8399 31.34 47.8399 32.09 47.3799 32.55Z" fill="#0064FF"/>
<path d="M75.9 47.68H70.55L66.7699 43.9L55.42 32.55C54.96 32.09 54.96 31.34 55.42 30.88L56.42 29.88C56.88 29.41 57.63 29.41 58.1 29.88L75.9 47.68Z" fill="#0064FF"/>
<path d="M51.5201 30.3599C53.9832 30.3599 55.9801 28.3631 55.9801 25.8999C55.9801 23.4368 53.9832 21.4399 51.5201 21.4399C49.0569 21.4399 47.0601 23.4368 47.0601 25.8999C47.0601 28.3631 49.0569 30.3599 51.5201 30.3599Z" fill="#0064FF"/>
<path d="M25.6401 48.9399H24.2701C23.7675 48.9399 23.3601 49.3474 23.3601 49.8499V51.4299C23.3601 51.9325 23.7675 52.3399 24.2701 52.3399H25.6401C26.1427 52.3399 26.5501 51.9325 26.5501 51.4299V49.8499C26.5501 49.3474 26.1427 48.9399 25.6401 48.9399Z" fill="#0064FF"/>
<path d="M25.6401 52.92H24.2701C23.7675 52.92 23.3601 53.3275 23.3601 53.83V55.41C23.3601 55.9126 23.7675 56.32 24.2701 56.32H25.6401C26.1427 56.32 26.5501 55.9126 26.5501 55.41V53.83C26.5501 53.3275 26.1427 52.92 25.6401 52.92Z" fill="#0064FF"/>
<path d="M29.3501 48.9399H27.9801C27.4775 48.9399 27.0701 49.3474 27.0701 49.8499V51.4299C27.0701 51.9325 27.4775 52.3399 27.9801 52.3399H29.3501C29.8526 52.3399 30.2601 51.9325 30.2601 51.4299V49.8499C30.2601 49.3474 29.8526 48.9399 29.3501 48.9399Z" fill="#0064FF"/>
<path d="M29.3501 52.92H27.9801C27.4775 52.92 27.0701 53.3275 27.0701 53.83V55.41C27.0701 55.9126 27.4775 56.32 27.9801 56.32H29.3501C29.8526 56.32 30.2601 55.9126 30.2601 55.41V53.83C30.2601 53.3275 29.8526 52.92 29.3501 52.92Z" fill="#0064FF"/>
<path d="M33.06 48.9399H31.69C31.1875 48.9399 30.78 49.3474 30.78 49.8499V51.4299C30.78 51.9325 31.1875 52.3399 31.69 52.3399H33.06C33.5626 52.3399 33.97 51.9325 33.97 51.4299V49.8499C33.97 49.3474 33.5626 48.9399 33.06 48.9399Z" fill="#0064FF"/>
<path d="M33.06 52.92H31.69C31.1875 52.92 30.78 53.3275 30.78 53.83V55.41C30.78 55.9126 31.1875 56.32 31.69 56.32H33.06C33.5626 56.32 33.97 55.9126 33.97 55.41V53.83C33.97 53.3275 33.5626 52.92 33.06 52.92Z" fill="#0064FF"/>
<path d="M36.76 48.9399H35.39C34.8874 48.9399 34.48 49.3474 34.48 49.8499V51.4299C34.48 51.9325 34.8874 52.3399 35.39 52.3399H36.76C37.2626 52.3399 37.67 51.9325 37.67 51.4299V49.8499C37.67 49.3474 37.2626 48.9399 36.76 48.9399Z" fill="#0064FF"/>
<path d="M36.76 52.92H35.39C34.8874 52.92 34.48 53.3275 34.48 53.83V55.41C34.48 55.9126 34.8874 56.32 35.39 56.32H36.76C37.2626 56.32 37.67 55.9126 37.67 55.41V53.83C37.67 53.3275 37.2626 52.92 36.76 52.92Z" fill="#0064FF"/>
<path d="M40.4699 48.9399H39.0999C38.5974 48.9399 38.1899 49.3474 38.1899 49.8499V51.4299C38.1899 51.9325 38.5974 52.3399 39.0999 52.3399H40.4699C40.9725 52.3399 41.3799 51.9325 41.3799 51.4299V49.8499C41.3799 49.3474 40.9725 48.9399 40.4699 48.9399Z" fill="#0064FF"/>
<path d="M40.4699 52.92H39.0999C38.5974 52.92 38.1899 53.3275 38.1899 53.83V55.41C38.1899 55.9126 38.5974 56.32 39.0999 56.32H40.4699C40.9725 56.32 41.3799 55.9126 41.3799 55.41V53.83C41.3799 53.3275 40.9725 52.92 40.4699 52.92Z" fill="#0064FF"/>
<path d="M44.1799 48.9399H42.8099C42.3073 48.9399 41.8999 49.3474 41.8999 49.8499V51.4299C41.8999 51.9325 42.3073 52.3399 42.8099 52.3399H44.1799C44.6825 52.3399 45.0899 51.9325 45.0899 51.4299V49.8499C45.0899 49.3474 44.6825 48.9399 44.1799 48.9399Z" fill="#0064FF"/>
<path d="M44.1799 52.92H42.8099C42.3073 52.92 41.8999 53.3275 41.8999 53.83V55.41C41.8999 55.9126 42.3073 56.32 42.8099 56.32H44.1799C44.6825 56.32 45.0899 55.9126 45.0899 55.41V53.83C45.0899 53.3275 44.6825 52.92 44.1799 52.92Z" fill="#0064FF"/>
<path d="M47.8901 48.9399H46.5201C46.0175 48.9399 45.6101 49.3474 45.6101 49.8499V51.4299C45.6101 51.9325 46.0175 52.3399 46.5201 52.3399H47.8901C48.3927 52.3399 48.8001 51.9325 48.8001 51.4299V49.8499C48.8001 49.3474 48.3927 48.9399 47.8901 48.9399Z" fill="#0064FF"/>
<path d="M47.8901 52.92H46.5201C46.0175 52.92 45.6101 53.3275 45.6101 53.83V55.41C45.6101 55.9126 46.0175 56.32 46.5201 56.32H47.8901C48.3927 56.32 48.8001 55.9126 48.8001 55.41V53.83C48.8001 53.3275 48.3927 52.92 47.8901 52.92Z" fill="#0064FF"/>
<path d="M56.6401 48.9399H55.2701C54.7675 48.9399 54.3601 49.3474 54.3601 49.8499V51.4299C54.3601 51.9325 54.7675 52.3399 55.2701 52.3399H56.6401C57.1427 52.3399 57.5501 51.9325 57.5501 51.4299V49.8499C57.5501 49.3474 57.1427 48.9399 56.6401 48.9399Z" fill="#0064FF"/>
<path d="M56.6401 52.92H55.2701C54.7675 52.92 54.3601 53.3275 54.3601 53.83V55.41C54.3601 55.9126 54.7675 56.32 55.2701 56.32H56.6401C57.1427 56.32 57.5501 55.9126 57.5501 55.41V53.83C57.5501 53.3275 57.1427 52.92 56.6401 52.92Z" fill="#0064FF"/>
<path d="M60.3401 48.9399H58.9701C58.4675 48.9399 58.0601 49.3474 58.0601 49.8499V51.4299C58.0601 51.9325 58.4675 52.3399 58.9701 52.3399H60.3401C60.8426 52.3399 61.2501 51.9325 61.2501 51.4299V49.8499C61.2501 49.3474 60.8426 48.9399 60.3401 48.9399Z" fill="#0064FF"/>
<path d="M60.3401 52.92H58.9701C58.4675 52.92 58.0601 53.3275 58.0601 53.83V55.41C58.0601 55.9126 58.4675 56.32 58.9701 56.32H60.3401C60.8426 56.32 61.2501 55.9126 61.2501 55.41V53.83C61.2501 53.3275 60.8426 52.92 60.3401 52.92Z" fill="#0064FF"/>
<path d="M64.05 48.9399H62.68C62.1774 48.9399 61.77 49.3474 61.77 49.8499V51.4299C61.77 51.9325 62.1774 52.3399 62.68 52.3399H64.05C64.5526 52.3399 64.96 51.9325 64.96 51.4299V49.8499C64.96 49.3474 64.5526 48.9399 64.05 48.9399Z" fill="#0064FF"/>
<path d="M64.05 52.92H62.68C62.1774 52.92 61.77 53.3275 61.77 53.83V55.41C61.77 55.9126 62.1774 56.32 62.68 56.32H64.05C64.5526 56.32 64.96 55.9126 64.96 55.41V53.83C64.96 53.3275 64.5526 52.92 64.05 52.92Z" fill="#0064FF"/>
<path d="M67.76 48.9399H66.39C65.8874 48.9399 65.48 49.3474 65.48 49.8499V51.4299C65.48 51.9325 65.8874 52.3399 66.39 52.3399H67.76C68.2626 52.3399 68.67 51.9325 68.67 51.4299V49.8499C68.67 49.3474 68.2626 48.9399 67.76 48.9399Z" fill="#0064FF"/>
<path d="M67.76 52.92H66.39C65.8874 52.92 65.48 53.3275 65.48 53.83V55.41C65.48 55.9126 65.8874 56.32 66.39 56.32H67.76C68.2626 56.32 68.67 55.9126 68.67 55.41V53.83C68.67 53.3275 68.2626 52.92 67.76 52.92Z" fill="#0064FF"/>
<path d="M71.4699 48.9399H70.0999C69.5974 48.9399 69.1899 49.3474 69.1899 49.8499V51.4299C69.1899 51.9325 69.5974 52.3399 70.0999 52.3399H71.4699C71.9725 52.3399 72.3799 51.9325 72.3799 51.4299V49.8499C72.3799 49.3474 71.9725 48.9399 71.4699 48.9399Z" fill="#0064FF"/>
<path d="M71.4699 52.92H70.0999C69.5974 52.92 69.1899 53.3275 69.1899 53.83V55.41C69.1899 55.9126 69.5974 56.32 70.0999 56.32H71.4699C71.9725 56.32 72.3799 55.9126 72.3799 55.41V53.83C72.3799 53.3275 71.9725 52.92 71.4699 52.92Z" fill="#0064FF"/>
<path d="M75.1699 48.9399H73.7999C73.2973 48.9399 72.8899 49.3474 72.8899 49.8499V51.4299C72.8899 51.9325 73.2973 52.3399 73.7999 52.3399H75.1699C75.6725 52.3399 76.0799 51.9325 76.0799 51.4299V49.8499C76.0799 49.3474 75.6725 48.9399 75.1699 48.9399Z" fill="#0064FF"/>
<path d="M75.1699 52.92H73.7999C73.2973 52.92 72.8899 53.3275 72.8899 53.83V55.41C72.8899 55.9126 73.2973 56.32 73.7999 56.32H75.1699C75.6725 56.32 76.0799 55.9126 76.0799 55.41V53.83C76.0799 53.3275 75.6725 52.92 75.1699 52.92Z" fill="#0064FF"/>
<path d="M78.8801 48.9399H77.5101C77.0075 48.9399 76.6001 49.3474 76.6001 49.8499V51.4299C76.6001 51.9325 77.0075 52.3399 77.5101 52.3399H78.8801C79.3827 52.3399 79.7901 51.9325 79.7901 51.4299V49.8499C79.7901 49.3474 79.3827 48.9399 78.8801 48.9399Z" fill="#0064FF"/>
<path d="M78.8801 52.92H77.5101C77.0075 52.92 76.6001 53.3275 76.6001 53.83V55.41C76.6001 55.9126 77.0075 56.32 77.5101 56.32H78.8801C79.3827 56.32 79.7901 55.9126 79.7901 55.41V53.83C79.7901 53.3275 79.3827 52.92 78.8801 52.92Z" fill="#0064FF"/>
</svg>
