<svg width="46" height="34" viewBox="0 0 46 34" fill="none" xmlns="http://www.w3.org/2000/svg">
<path d="M41.9703 29.99C40.9603 29.31 40.0803 28.71 39.1803 28.15C38.9703 28.02 38.6003 27.99 38.3703 28.08C37.0603 28.59 35.7703 29.15 34.3703 29.74C34.3403 28.38 33.6603 27.51 32.6903 26.71C31.1403 25.44 30.2303 23.72 30.0203 21.74C29.6903 18.76 30.2103 15.85 31.1503 13.01C31.7003 11.35 31.5203 9.76 30.5203 8.29C29.4703 6.75 27.9303 6.17 26.1703 5.86C22.1203 5.14 18.3803 6.02 14.9603 8.13C10.5903 10.83 7.89027 14.73 7.13027 19.89C6.67027 23 8.63027 25.64 11.7903 26.1C12.3303 26.18 12.8503 26.37 13.3703 26.51C13.1203 26.65 12.8903 26.65 12.6703 26.65C9.78027 26.6 6.89027 26.53 3.99027 26.5C2.31027 26.49 1.03027 27.8 0.940273 29.47C0.830273 31.41 2.33027 32.76 3.82027 32.76C8.20027 32.76 12.5903 32.72 16.9703 32.55C18.8703 32.48 20.7403 32.04 22.4703 31.14C24.1403 30.27 25.0003 28.73 24.6903 27.12C24.4403 25.83 23.7203 24.83 22.7603 23.99C21.4403 22.83 19.8803 22.08 18.2403 21.5C17.6603 21.29 17.4703 21.06 17.7403 20.5C17.8603 20.25 17.8903 19.96 18.0103 19.72C18.7503 18.19 19.9903 17.17 21.5403 16.56C22.4903 16.18 23.4903 16.01 24.6003 16.31C24.1703 19.19 24.1103 22.02 24.9503 24.8C25.8003 27.6 27.4703 29.83 29.8103 31.68C29.4403 31.88 29.1403 32.05 28.7303 32.27C29.1503 32.53 29.4803 32.74 29.9403 33.04C30.1003 32.43 30.2203 31.97 30.3503 31.51C30.4103 31.52 30.4603 31.54 30.5203 31.55C30.4903 31.99 30.4403 32.42 30.4203 32.86C30.4203 33.03 30.4503 33.29 30.5503 33.35C31.3503 33.78 32.1803 34.23 33.1203 33.84C35.3003 32.94 37.4703 32.01 39.6303 31.08C40.3703 30.76 41.1003 30.42 41.9603 30.03L41.9703 29.99Z" fill="#0064FF"/>
<path d="M31.0404 5.57C31.0204 5.83 31.0104 6.06 30.9904 6.29C30.8104 9.02 32.5004 11.35 35.1604 12.01C37.6904 12.64 40.2703 11.34 41.3503 8.86C41.5303 8.44 41.7903 8.38 42.1703 8.49C42.7903 8.67 43.4204 8.85 44.0404 9.02C44.5304 9.15 44.9003 8.95 45.0303 8.5C45.1603 8.02 44.8604 7.73 44.3904 7.6C43.8104 7.44 43.2404 7.27 42.7004 7.11C42.6604 6.44 42.6904 5.8 42.5804 5.19C42.4704 4.58 42.3203 3.95 42.0303 3.41C40.8804 1.29 39.0604 0.11 36.6504 0.0600001C34.1804 0.0100001 32.3104 1.13 31.0704 3.3C30.9304 3.54 30.6104 3.68 30.4004 3.89C30.1904 4.11 29.8604 4.36 29.8604 4.61C29.8604 4.85 30.1604 5.13 30.3804 5.33C30.5204 5.46 30.7603 5.48 31.0303 5.58L31.0404 5.57Z" fill="#0064FF"/>
<path d="M41.9701 29.99C41.1001 30.38 40.3701 30.72 39.6401 31.04C37.4701 31.97 35.3101 32.9 33.1301 33.8C32.1901 34.19 31.3601 33.74 30.5601 33.31C30.4601 33.26 30.4301 32.99 30.4301 32.82C30.4401 32.38 30.4901 31.95 30.5301 31.51C30.4701 31.5 30.4201 31.48 30.3601 31.47C30.2401 31.93 30.1201 32.39 29.9501 33C29.4901 32.71 29.1601 32.5 28.7401 32.23C29.1401 32.01 29.4501 31.84 29.8201 31.64C27.4701 29.79 25.8001 27.56 24.9601 24.76C24.1201 21.99 24.1801 19.16 24.6101 16.27C23.5001 15.97 22.5001 16.14 21.5501 16.52C20.0001 17.13 18.7701 18.15 18.0201 19.68C17.9001 19.93 17.8701 20.21 17.7501 20.46C17.4801 21.03 17.6701 21.26 18.2501 21.46C19.8801 22.05 21.4501 22.8 22.7701 23.95C23.7301 24.79 24.4501 25.79 24.7001 27.08C25.0101 28.69 24.1501 30.23 22.4801 31.1C20.7501 32 18.8801 32.44 16.9801 32.51C12.6001 32.67 8.22007 32.72 3.83007 32.72C2.33007 32.72 0.840074 31.37 0.950074 29.43C1.04007 27.77 2.31007 26.45 4.00007 26.46C6.89007 26.49 9.78008 26.56 12.6801 26.61C12.9101 26.61 13.1301 26.61 13.3801 26.47C12.8501 26.33 12.3301 26.14 11.8001 26.06C8.65007 25.61 6.68007 22.96 7.14007 19.85C7.91007 14.69 10.6001 10.79 14.9701 8.09C18.3901 5.98 22.1301 5.1 26.1801 5.82C27.9301 6.13 29.4801 6.71 30.5301 8.25C31.5301 9.72 31.7001 11.31 31.1601 12.97C30.2201 15.81 29.7001 18.71 30.0301 21.7C30.2501 23.68 31.1601 25.4 32.7001 26.67C33.6701 27.46 34.3501 28.34 34.3801 29.7C35.7801 29.11 37.0701 28.55 38.3801 28.04C38.6101 27.95 38.9801 27.98 39.1901 28.11C40.1001 28.66 40.9701 29.27 41.9801 29.95L41.9701 29.99Z" fill="#0064FF"/>
<path d="M31.0404 5.57C30.7704 5.47 30.5304 5.45 30.3904 5.32C30.1704 5.12 29.8604 4.84 29.8704 4.6C29.8704 4.36 30.2004 4.1 30.4104 3.88C30.6204 3.67 30.9404 3.53 31.0804 3.29C32.3204 1.13 34.1904 -1.2666e-07 36.6604 0.0499999C39.0704 0.0999999 40.8904 1.28 42.0404 3.4C42.3304 3.94 42.4804 4.57 42.5904 5.18C42.7004 5.79 42.6804 6.42 42.7104 7.1C43.2504 7.26 43.8204 7.43 44.4004 7.59C44.8604 7.72 45.1704 8 45.0404 8.49C44.9204 8.95 44.5404 9.14 44.0504 9.01C43.4204 8.84 42.8004 8.66 42.1804 8.48C41.8004 8.37 41.5404 8.43 41.3604 8.85C40.2804 11.33 37.7004 12.63 35.1704 12C32.5104 11.34 30.8204 9.01 31.0004 6.28C31.0204 6.05 31.0304 5.82 31.0504 5.56L31.0404 5.57Z" fill="#0064FF"/>
</svg>
