<svg width="128" height="128" viewBox="0 0 128 128" fill="none" xmlns="http://www.w3.org/2000/svg">
<rect x="0.5" y="0.5" width="127" height="127" rx="31.5" fill="#F7FCFF" stroke="#0064FF"/>
<path d="M41 84.25C41 78.75 43 73.75 46 70C44.75 69.5 43.25 69.25 42 69.25C34.75 69.25 28.75 75.25 28.75 82.5C28.5 84 29.75 85.25 31.25 85.25H40.75C41 85 41 84.5 41 84.25Z" fill="#0064FF"/>
<path d="M42.2499 67.75C45.9999 67.75 49.2499 65.5 50.4999 62.25C48.4999 59.5 47.4999 56.25 47.4999 52.5C47.4999 52.25 47.4999 52 47.4999 51.5C45.9999 50.5 44.2499 49.75 42.2499 49.75C37.2499 49.75 33.4999 53.75 33.4999 58.75C33.2499 63.75 37.2499 67.75 42.2499 67.75Z" fill="#0064FF"/>
<path d="M85.75 69.25C84.25 69.25 83 69.5 81.75 70C85 74 86.75 78.75 86.75 84.25V85.25H96.5C98 85.25 99.25 84 99 82.5C99 75.25 93 69.25 85.75 69.25Z" fill="#0064FF"/>
<path d="M85.75 67.75C90.75 67.75 94.5 63.75 94.5 58.75C94.5 53.75 90.5 49.75 85.75 49.75C83.75 49.75 82 50.25 80.5 51.5V52.5C80.5 56 79.25 59.5 77.5 62.25C79 65.5 82 67.75 85.75 67.75Z" fill="#0064FF"/>
<path d="M64 66.5C54.25 66.5 46 74.5 46 84.5C45.75 86 47 87.5 48.5 87.5H79.25C80.75 87.5 82 86 81.75 84.5C82 74.5 73.75 66.5 64 66.5Z" fill="#0064FF"/>
<path d="M64 64.25C70.5 64.25 75.75 59 75.75 52.5C75.75 46 70.5 40.75 64 40.75C57.5 40.75 52.25 46 52.25 52.5C52.25 59 57.5 64.25 64 64.25Z" fill="#0064FF"/>
</svg>
