<svg width="128" height="128" viewBox="0 0 128 128" fill="none" xmlns="http://www.w3.org/2000/svg">
<rect x="0.5" y="0.5" width="127" height="127" rx="31.5" fill="#F7FCFF" stroke="#0064FF"/>
<path d="M53.7847 33.421C55.6455 33.0281 57.5296 32.4733 59.437 32.4271C60.8792 32.404 62.2981 32.8663 63.6937 33.2592C67.1363 34.2531 70.2997 35.848 73.2073 37.9514C76.0916 40.0317 78.2781 42.7592 80.0925 45.7871C83.977 52.3054 86.0007 59.4245 87.1637 66.8673C87.5824 69.5948 87.8383 72.3454 88.0476 75.0729C88.0941 75.6276 88.257 75.6045 88.6524 75.3503C89.42 74.888 90.1178 74.3563 90.8156 73.8016C91.2111 73.5011 91.3274 73.1544 91.2808 72.6921C90.8854 68.8089 90.3271 64.9488 89.4665 61.1581C88.3267 56.1654 86.7217 51.3114 84.3259 46.7579C82.6977 43.6606 80.767 40.7945 78.2549 38.3443C76.7429 36.865 75.0682 35.6169 73.2306 34.5998C73.0677 34.5074 72.8584 34.4843 72.7421 34.1838C73.8121 34.438 74.8123 34.831 75.766 35.2702C81.5114 37.9283 85.7448 42.1582 88.8385 47.59C91.8856 52.9757 93.4673 58.8005 94.2117 64.8795C94.3745 66.2895 94.5373 67.6994 94.5838 69.1094C94.5838 69.5486 94.863 69.8028 95.1188 70.1033C97.4682 72.5534 99.8873 74.9342 101.934 77.6386C103.074 79.141 104.097 80.7128 104.679 82.5157C105.47 85.012 104.795 87.1848 102.702 88.7796C100.632 90.3514 98.2125 91.2298 95.7236 91.8307C92.0019 92.7322 88.3035 93.7492 84.512 94.3964C81.4881 94.928 78.441 95.3441 75.3706 95.5059C70.6719 95.737 66.0663 95.2979 61.6235 93.703C59.0648 92.8015 56.576 91.7614 54.0405 90.8137C46.0389 87.8088 38.1768 84.5266 30.5938 80.5972C28.7562 79.6495 26.9419 78.6325 25.3834 77.2225C23.6156 75.6276 23.5226 74.1021 25.081 72.2761C25.8952 71.3284 26.7558 70.4732 27.8258 69.826C28.2212 69.5948 28.3375 69.2712 28.3608 68.8089C28.733 62.7299 29.7797 56.7895 32.1523 51.1496C34.5016 45.556 38.014 40.8869 43.1778 37.4891C43.9222 37.0037 44.6898 36.7495 45.5969 36.7264C48.5278 36.657 51.3656 37.0268 54.1801 37.859C56.9481 38.6679 58.9718 40.3784 60.6233 42.6205C63.1355 46.0645 64.6707 49.9708 65.9732 53.9927C67.7876 59.6095 68.9041 65.388 69.695 71.2128C70.1369 74.5413 70.5091 77.8697 70.6719 81.2213C70.6952 81.8685 70.7649 82.5157 70.7882 83.1629C70.7882 83.5558 70.9743 83.6945 71.3697 83.602C72.3467 83.3478 73.3469 83.0935 74.3238 82.8624C74.6495 82.793 74.7658 82.6081 74.7425 82.2614C74.2773 74.9573 73.3701 67.6994 71.8117 60.534C70.6719 55.3333 69.2065 50.2482 66.9037 45.4404C65.6011 42.7129 64.0426 40.1704 61.9259 37.9976C59.9953 36.0098 57.6692 34.6923 54.9942 33.9526C54.5755 33.8371 54.1801 33.7215 53.7614 33.6059C53.7614 33.5366 53.7614 33.4904 53.7614 33.421H53.7847Z" fill="#0064FF"/>
</svg>
