<svg width="128" height="128" viewBox="0 0 128 128" fill="none" xmlns="http://www.w3.org/2000/svg">
<rect x="0.5" y="0.5" width="127" height="127" rx="31.5" fill="#F7FCFF" stroke="#0064FF"/>
<path d="M87.9115 70.6007C87.5055 70.6007 87.0995 70.6007 86.6935 70.6007C86.1099 70.5753 85.8054 70.829 85.6278 71.3619C85.3994 72.0724 85.1203 72.7575 84.8158 73.4426C83.8516 75.5741 83.7247 75.0159 85.4502 76.7921C85.7547 77.122 86.0845 77.4265 86.3637 77.7563C87.1757 78.7967 87.1757 79.9386 86.2622 80.8774C84.4859 82.7044 82.6843 84.5314 80.8573 86.3076C79.8424 87.2972 78.4214 87.3988 77.6347 86.2823C76.0869 84.0747 74.4629 84.1254 72.2553 85.2673C71.0881 85.8763 70.4791 86.3838 70.6567 87.7032C70.7328 88.2107 70.6821 88.7436 70.6567 89.2511C70.5044 90.6467 69.6671 91.4841 68.2461 91.5094C65.7594 91.5348 63.2726 91.5602 60.8113 91.5094C59.2381 91.5094 58.2484 90.6213 58.4261 89.0735C58.7306 86.7136 57.9186 85.4703 55.5587 84.8105C53.5287 84.2523 53.6049 84.0239 52.057 85.5464C51.8033 85.8001 51.5495 86.0793 51.2704 86.333C50.23 87.2465 49.0882 87.2719 48.0985 86.333C46.2716 84.5568 44.47 82.7298 42.6684 80.9028C41.7295 79.9386 41.6787 78.8475 42.5415 77.8071C43.0743 77.1474 43.7087 76.5637 44.3177 75.9801C44.8252 75.498 44.876 75.0412 44.5715 74.4069C44.0893 73.4426 43.6833 72.453 43.3281 71.438C43.1251 70.8544 42.7952 70.6007 42.1862 70.626C41.4757 70.6514 40.7906 70.626 40.0801 70.626C38.3546 70.6007 37.3397 69.6364 37.3904 67.9363C37.4665 65.7033 37.4665 63.4957 37.3904 61.2628C37.3143 59.2835 38.2785 58.3447 40.2831 58.3193C42.9729 58.2685 42.7952 58.1924 44.0132 55.8833C44.9775 54.0817 44.5968 53.016 43.1505 51.7726C41.4757 50.3516 41.5265 49.3113 43.0236 47.738C44.5968 46.0633 46.2208 44.4393 47.8702 42.8661C49.1135 41.6735 50.4838 41.5973 51.5495 42.9168C52.9451 44.6677 54.2392 44.9976 56.2946 43.8557C58.2738 42.7392 58.4007 42.9422 58.4007 40.6838C58.4007 38.0449 59.0604 37.3851 61.674 37.3851C63.704 37.3851 65.7594 37.3851 67.7893 37.3851C69.7686 37.3851 70.8343 38.2986 70.6567 40.2017C70.4537 42.3078 71.1134 43.3989 73.1942 44.0079C75.351 44.6677 75.3003 44.8453 76.975 43.2467C78.8781 41.4451 79.7916 41.4451 81.644 43.2974C83.1157 44.7692 84.5874 46.2155 86.0338 47.7127C87.3533 49.0575 87.4548 50.3516 86.0084 51.5442C84.3591 52.8891 83.9784 54.1325 85.0695 56.1117C86.2114 58.1417 86.0084 58.2685 88.419 58.2685C90.8042 58.2685 91.5909 59.0805 91.6162 61.5165C91.6162 63.3435 91.6162 65.1451 91.6162 66.9721C91.6162 70.0171 91.0326 70.6007 87.9623 70.6007H87.9115ZM51.245 64.5361C50.9913 71.1589 56.8275 77.3757 63.5264 77.6295C71.4179 77.934 77.5586 72.4277 77.6855 64.6122C77.8124 57.5073 72.4329 51.5696 64.9474 51.2397C57.5887 50.9352 51.2704 56.6699 51.245 64.5107V64.5361Z" fill="#0064FF"/>
<path d="M103.897 64.5107C103.948 66.7944 103.72 69.0274 103.339 71.2604C103.187 72.1485 102.831 72.9097 101.867 73.1635C100.573 73.5187 99.4566 72.453 99.6596 71.032C100.015 68.6468 100.243 66.2615 100.218 63.8509C100.066 46.6215 86.7692 31.2952 69.6666 29.0876C56.8524 27.4128 46.0174 31.422 37.3392 41.0898C37.2123 41.2167 37.1108 41.3943 36.9839 41.5212C36.2735 42.1809 36.1973 42.7899 37.1108 43.3482C37.3899 43.5258 37.6183 43.7795 37.8467 44.0333C38.4557 44.7184 38.3796 45.3781 37.5168 45.708C34.9793 46.6469 32.4165 47.535 29.8536 48.3724C29.0163 48.6515 28.4073 48.1186 28.5595 47.2559C29.0163 44.5915 29.5238 41.9272 30.082 39.2882C30.285 38.3493 31.0716 38.1971 31.8836 38.8061C32.9155 39.5842 33.8459 39.5081 34.6748 38.5777C40.9678 31.5489 48.6817 27.0322 57.9942 25.5605C70.1487 23.632 81.0599 26.677 90.347 34.7461C99.3551 42.5615 103.745 52.6099 103.897 64.5107Z" fill="#0064FF"/>
<path d="M25.0071 64.4347C24.9563 62.2778 25.1847 60.1464 25.5146 58.0149C25.6161 57.3551 25.6922 56.67 26.2758 56.2133C26.9102 55.7058 27.646 55.6043 28.3565 56.0103C29.1685 56.467 29.4223 57.2029 29.27 58.091C28.8894 60.324 28.6864 62.557 28.6864 64.8407C28.7879 82.4 42.0335 97.5995 59.4406 99.8578C72.4324 101.558 83.2675 97.3204 91.9202 87.475C92.58 86.7137 92.6561 86.1808 91.768 85.648C91.4889 85.4704 91.2351 85.242 91.0321 84.9882C90.4993 84.3285 90.55 83.6687 91.362 83.3643C93.9249 82.4254 96.5385 81.5373 99.1267 80.6745C99.9133 80.4208 100.497 80.9283 100.345 81.7403C99.8879 84.43 99.3804 87.1451 98.7968 89.8094C98.6192 90.6468 97.9594 90.7737 97.2489 90.3423C97.1982 90.2916 97.1221 90.2408 97.0713 90.2154C95.3712 88.9974 95.422 89.0228 94.0264 90.5961C87.2006 98.2592 78.6746 102.751 68.4486 103.715C55.6597 104.933 44.6725 100.822 35.7913 91.5603C28.5849 83.9986 25.1086 74.8637 25.0071 64.4347Z" fill="#0064FF"/>
<path d="M72.0018 59.9941C72.0271 60.5777 71.7734 60.933 71.4435 61.2628C68.7792 64.0033 66.1402 66.7438 63.4758 69.4589C62.5877 70.347 61.9787 70.347 61.1414 69.4335C59.898 68.0633 58.7054 66.6677 57.462 65.272C56.853 64.5869 56.5739 63.8257 57.3605 63.1406C58.0964 62.4808 58.8069 62.8614 59.3905 63.5212C60.1771 64.4093 61.0145 65.2467 61.7504 66.1855C62.2832 66.8453 62.6131 66.7184 63.1206 66.1855C65.2521 63.9272 67.4089 61.6942 69.5912 59.4866C70.4539 58.5985 71.4435 58.6746 71.8749 59.5881C71.951 59.7403 71.9764 59.9433 72.0018 60.0195V59.9941Z" fill="#0064FF"/>
</svg>
