<svg width="128" height="128" viewBox="0 0 128 128" fill="none" xmlns="http://www.w3.org/2000/svg">
<rect x="0.5" y="0.5" width="127" height="127" rx="31.5" fill="#F7FCFF" stroke="#0064FF"/>
<path d="M96.7316 80.0156C97.2286 79.9161 97.7446 79.7568 98.2225 79.5379C99.0635 79.1597 99.4266 78.2839 99.1781 77.428C98.9106 76.592 98.1269 76.0745 97.2477 76.2337C96.9992 76.2735 96.7699 76.3332 96.5214 76.4128C96.1965 76.4925 96.0818 76.373 96.0436 76.0347C96.0053 75.4773 96.12 75.0991 96.7125 74.9797C97.2477 74.8603 97.7829 74.7209 98.2798 74.502C98.9679 74.1835 99.331 73.5665 99.2355 72.7902C99.159 71.994 98.6812 71.4566 97.9167 71.2376C97.5153 71.1182 97.1521 71.2376 96.789 71.357C96.1582 71.576 96.0244 71.2774 96.0436 70.7002C96.0436 70.322 96.2347 70.0632 96.4832 69.8244C97.2477 69.0282 97.9931 68.1922 98.815 67.4159C99.656 66.6197 100 65.6842 100 64.47C99.9618 56.1697 100 47.8694 100 39.589C100 36.0062 98.0313 33.5181 94.6292 32.9806C90.0038 32.2441 73.9104 29.2783 67.8133 28.2035C62.6527 27.3078 59.1932 29.4177 57.3965 33.5778C57.1672 34.0953 56.804 34.1351 56.3453 34.1351C51.3567 34.1351 46.3682 34.1351 41.3605 34.1351C39.8314 34.1351 38.914 34.991 38.7038 36.5635C38.6464 36.9815 38.6464 37.4194 38.6464 37.8374C38.6464 43.2316 38.6464 48.6258 38.6464 54.0399C38.6464 54.5375 38.6464 54.9754 38.0921 55.2143C33.9637 57.0256 32.2053 60.3696 32.2626 64.9079C32.3008 67.9533 32.2626 70.9788 32.2626 74.0243C32.2626 75.6963 32.2435 77.3683 32.2626 79.0602C32.3199 81.1104 33.3329 82.1056 35.3016 82.1255C36.716 82.1255 38.1304 82.1255 39.5639 82.1255C41.4178 82.1255 41.1694 81.9066 41.2267 83.8771C41.2267 84.5738 41.0165 84.8326 40.3475 84.8127C38.6655 84.7729 36.9645 84.7529 35.2825 84.8127C31.2114 84.9122 27.9621 88.0571 28.0003 92.5158C28.0386 96.8152 31.326 100 35.4736 100C41.1694 100 46.8842 100 52.58 100C58.3904 100 64.2009 100 70.0113 100C73.8531 100 76.9494 96.9148 77.2552 92.8741C77.5419 89.0922 74.8469 85.5292 71.1581 84.8923C69.3423 84.5738 67.5075 84.7928 65.6917 84.7529C63.8186 84.7131 64.0862 84.9719 64.0288 83.0212C64.0097 82.2449 64.2964 82.0459 64.9845 82.0658C66.59 82.1056 68.1955 82.0658 69.8202 82.0658C72.0564 82.0658 73.0121 81.0706 73.0121 78.7417C73.0121 69.3865 73.0121 60.0511 73.0121 50.6959C73.0121 49.2627 72.8209 47.8694 72.4578 46.496C72.1711 45.4211 72.1711 45.4211 73.2414 45.4211C79.3195 45.4211 79.9502 45.4211 86.0282 45.4211C87.1177 45.4211 87.1368 45.4211 87.1368 46.5358C87.1368 52.5868 87.1368 58.6379 87.1368 64.6889C87.1368 65.6643 87.4235 66.4605 88.0924 67.1173C88.9143 67.9533 89.698 68.8092 90.5389 69.6452C90.9212 70.0234 91.0932 70.4414 91.0932 70.9987C91.0932 72.8499 91.0932 72.8499 89.4113 73.3674C88.2645 73.7257 87.6911 74.5617 87.9395 75.537C88.2071 76.6119 89.0481 77.0498 90.2522 76.8109C90.5198 76.7512 90.9403 76.4128 91.055 76.9702C91.1697 77.4479 91.1888 77.9455 90.5389 78.1048C90.042 78.2242 89.5259 78.3635 89.0481 78.5427C88.0351 78.9408 87.6337 79.9957 88.0924 80.971C88.4747 81.7871 89.201 82.0459 90.3478 81.807C90.5963 81.7473 90.9785 81.4687 91.0741 81.9663C91.1697 82.4639 91.1888 83.0013 90.5007 83.1407C90.0993 83.2203 89.698 83.3397 89.3157 83.4591C88.2453 83.7975 87.7102 84.6733 87.9586 85.6288C88.2453 86.6638 89.1054 87.1216 90.214 86.8828C90.5007 86.823 90.9403 86.405 91.0741 87.042C91.1888 87.5794 91.1314 88.0571 90.4434 88.1766C89.9082 88.2761 89.373 88.4353 88.8761 88.6742C88.1498 88.9927 87.7866 89.7889 87.9395 90.5651C88.1116 91.441 88.685 91.9585 89.5451 91.9585C89.8891 91.9585 90.2522 91.8789 90.5963 91.7992C90.9403 91.7196 91.0932 91.7992 91.1123 92.2172C91.1506 92.7945 90.9977 93.1528 90.4051 93.2324C90.0611 93.2921 89.7171 93.4115 89.373 93.511C88.2453 93.8693 87.6911 94.7252 87.9586 95.7205C88.2262 96.7356 89.0863 97.2133 90.214 96.9148C90.8065 96.7555 91.0741 96.7754 91.1123 97.5517C91.1888 99.0446 92.2974 100 93.6735 99.9602C95.0306 99.9204 96.0244 98.8455 96.0818 97.3527C96.0818 96.875 96.1009 96.3773 96.0818 95.8996C96.0818 95.4617 96.2347 95.2229 96.6552 95.1233C97.1904 94.984 97.7255 94.8447 98.2225 94.6456C98.987 94.3271 99.4075 93.511 99.2546 92.7348C99.0826 91.859 98.4327 91.3016 97.5535 91.3215C97.2286 91.3215 96.9037 91.4409 96.5978 91.4808C96.3876 91.5206 96.12 91.64 96.1009 91.2618C96.0627 90.7443 95.9862 90.2069 96.6934 90.0675C97.0948 89.9879 97.4771 89.8486 97.8784 89.7291C98.9679 89.3709 99.4839 88.5149 99.2355 87.5595C98.9679 86.5444 98.1078 86.1065 96.9801 86.3254C96.7125 86.3851 96.2538 86.8031 96.12 86.1463C96.0244 85.6686 96.0244 85.1709 96.6934 85.0316C97.0757 84.952 97.4388 84.8326 97.802 84.7131C98.9488 84.3748 99.5031 83.5188 99.2546 82.5435C98.987 81.5085 98.146 81.0507 97.0183 81.2696C96.7125 81.3293 96.292 81.6677 96.1391 81.0905C96.0053 80.5331 96.1391 80.0952 96.789 79.9559L96.7316 80.0156ZM47.859 82.0658C51.2612 82.0658 54.6633 82.0658 58.0655 82.0459C58.83 82.0459 59.0594 82.3047 59.0403 83.0809C58.9829 84.9321 59.2123 84.733 57.473 84.733C55.8484 84.733 54.2046 84.733 52.58 84.733C50.726 84.733 48.872 84.7131 47.018 84.733C46.3682 84.733 46.1579 84.4942 46.177 83.8373C46.2344 81.7871 45.9668 82.0658 47.859 82.0459V82.0658ZM69.3806 89.9282C69.9922 89.9282 70.5847 89.9879 71.1199 90.3263C71.9991 90.8836 72.4196 91.9585 72.152 92.9736C71.8653 94.0883 71.0816 94.765 69.954 94.785C67.9279 94.8049 65.9211 94.785 63.8951 94.785C60.1297 94.785 56.3644 94.785 52.5991 94.785C46.9034 94.785 41.2076 94.785 35.5118 94.785C33.9446 94.785 32.9507 93.7101 33.0653 92.1774C33.1227 91.1623 33.677 90.5054 34.5562 90.1272C34.9576 89.9481 35.3972 89.9282 35.8368 89.9282C47.018 89.9282 58.1993 89.9282 69.3806 89.9282ZM66.8576 70.939C63.6466 70.8992 60.4164 70.8395 57.2054 70.939C54.6825 71.0187 53.1916 69.4661 53.2107 66.7391C53.2681 61.4644 53.2107 56.1697 53.2107 50.8949C53.2107 47.3519 53.2298 43.7889 53.2107 40.2459C53.2107 39.4497 53.4592 39.2506 54.2046 39.2307C56.9378 39.1511 59.6137 39.39 62.0602 40.8032C65.8064 42.9529 68.0044 46.0979 67.9279 50.7357C67.8706 53.6816 67.9279 56.6474 67.9279 59.5933C67.9279 62.997 67.9088 66.4007 67.9279 69.8045C67.9279 70.6604 67.6795 70.939 66.8576 70.9191V70.939Z" fill="#0064FF"/>
</svg>
