<?xml version="1.0" encoding="utf-8"?>
<!-- Generator: Adobe Illustrator 27.9.0, SVG Export Plug-In . SVG Version: 6.00 Build 0)  -->
<svg version="1.1" id="Layer_1" xmlns="http://www.w3.org/2000/svg" xmlns:xlink="http://www.w3.org/1999/xlink" x="0px" y="0px"
	 viewBox="0 0 103 103" style="enable-background:new 0 0 103 103;" xml:space="preserve">
<style type="text/css">
	.st0{fill:#0064FF;}
	.st1{fill:none;stroke:#0064FF;stroke-miterlimit:10;}
	.st2{fill:#FFFFFF;}
	.st3{fill:#FFFFFF;stroke:#0064FF;stroke-width:0.25;stroke-miterlimit:10;}
	.st4{fill:none;stroke:#0064FF;stroke-width:2;stroke-linecap:round;stroke-miterlimit:10;}
	.st5{fill:#0064FF;stroke:#0064FF;stroke-width:2;stroke-linecap:round;stroke-linejoin:round;stroke-miterlimit:10;}
	.st6{fill:none;stroke:#0064FF;stroke-width:2;stroke-linecap:round;stroke-linejoin:round;stroke-miterlimit:10;}
</style>
<g>
	<g>
		<path class="st0" d="M78,65.7c-1.5-1-2.7-1.8-4-2.6c-0.3-0.2-0.8-0.2-1.2-0.1c-1.9,0.7-3.7,1.5-5.7,2.4c0-2-1-3.2-2.4-4.3
			c-2.2-1.8-3.5-4.3-3.8-7.1c-0.5-4.3,0.3-8.5,1.6-12.5c0.8-2.4,0.5-4.7-0.9-6.8c-1.5-2.2-3.7-3-6.2-3.5c-5.8-1-11.2,0.2-16.1,3.3
			C33,38.2,29.1,43.8,28,51.2c-0.7,4.5,2.2,8.3,6.7,8.9c0.8,0.1,1.5,0.4,2.3,0.6c-0.4,0.2-0.7,0.2-1,0.2c-4.2-0.1-8.3-0.2-12.5-0.2
			c-2.4,0-4.2,1.9-4.4,4.3c-0.2,2.8,2,4.7,4.1,4.7c6.3,0,12.6-0.1,18.9-0.3c2.7-0.1,5.4-0.7,7.9-2c2.4-1.2,3.6-3.5,3.2-5.8
			c-0.4-1.9-1.4-3.3-2.8-4.5c-1.9-1.7-4.1-2.7-6.5-3.6c-0.8-0.3-1.1-0.6-0.7-1.4c0.2-0.4,0.2-0.8,0.4-1.1c1.1-2.2,2.8-3.7,5.1-4.5
			c1.4-0.5,2.8-0.8,4.4-0.4c-0.6,4.1-0.7,8.2,0.5,12.2c1.2,4,3.6,7.2,7,9.9c-0.5,0.3-1,0.5-1.5,0.9c0.6,0.4,1.1,0.7,1.7,1.1
			c0.2-0.9,0.4-1.5,0.6-2.2c0.1,0,0.2,0,0.2,0.1c0,0.6-0.1,1.3-0.1,1.9c0,0.2,0,0.6,0.2,0.7c1.2,0.6,2.3,1.3,3.7,0.7
			c3.1-1.3,6.2-2.6,9.4-4C75.7,66.7,76.8,66.2,78,65.7z"/>
		<path class="st0" d="M62.3,30.6c0,0.4,0,0.7-0.1,1c-0.3,3.9,2.2,7.3,6,8.2c3.6,0.9,7.3-1,8.9-4.5c0.3-0.6,0.6-0.7,1.2-0.5
			c0.9,0.3,1.8,0.5,2.7,0.8c0.7,0.2,1.2-0.1,1.4-0.8c0.2-0.7-0.3-1.1-0.9-1.3c-0.8-0.2-1.7-0.5-2.4-0.7c-0.1-1,0-1.9-0.2-2.8
			c-0.2-0.9-0.4-1.8-0.8-2.6c-1.7-3-4.3-4.7-7.7-4.8c-3.6-0.1-6.2,1.5-8,4.6c-0.2,0.3-0.7,0.5-1,0.8c-0.3,0.3-0.8,0.7-0.8,1
			c0,0.3,0.4,0.7,0.7,1C61.6,30.4,61.9,30.5,62.3,30.6z"/>
		<path class="st0" d="M78,65.7c-1.2,0.6-2.3,1.1-3.4,1.5c-3.1,1.3-6.2,2.7-9.4,4c-1.3,0.6-2.5-0.1-3.7-0.7
			c-0.1-0.1-0.2-0.5-0.2-0.7c0-0.6,0.1-1.3,0.1-1.9c-0.1,0-0.2,0-0.2-0.1c-0.2,0.7-0.3,1.3-0.6,2.2c-0.7-0.4-1.1-0.7-1.7-1.1
			c0.6-0.3,1-0.6,1.5-0.9c-3.4-2.7-5.8-5.9-7-9.9c-1.2-4-1.1-8-0.5-12.2c-1.6-0.4-3-0.2-4.4,0.4c-2.2,0.9-4,2.3-5.1,4.5
			c-0.2,0.4-0.2,0.8-0.4,1.1c-0.4,0.8-0.1,1.1,0.7,1.4c2.3,0.8,4.6,1.9,6.5,3.6c1.4,1.2,2.4,2.6,2.8,4.5c0.4,2.3-0.8,4.5-3.2,5.8
			c-2.5,1.3-5.2,1.9-7.9,2c-6.3,0.2-12.6,0.3-18.9,0.3c-2.2,0-4.3-1.9-4.1-4.7c0.1-2.4,2-4.3,4.4-4.3c4.2,0,8.3,0.1,12.5,0.2
			c0.3,0,0.6,0,1-0.2c-0.8-0.2-1.5-0.5-2.3-0.6c-4.5-0.6-7.4-4.4-6.7-8.9c1.1-7.4,5-13,11.2-16.9c4.9-3,10.3-4.3,16.1-3.3
			c2.5,0.4,4.7,1.3,6.2,3.5c1.4,2.1,1.7,4.4,0.9,6.8c-1.3,4.1-2.1,8.2-1.6,12.5c0.3,2.8,1.6,5.3,3.8,7.1c1.4,1.1,2.4,2.4,2.4,4.3
			c2-0.8,3.9-1.6,5.7-2.4c0.3-0.1,0.9-0.1,1.2,0.1C75.3,63.8,76.6,64.7,78,65.7z"/>
		<path class="st0" d="M62.3,30.6c-0.4-0.1-0.7-0.2-0.9-0.4c-0.3-0.3-0.8-0.7-0.7-1c0-0.4,0.5-0.7,0.8-1c0.3-0.3,0.8-0.5,1-0.8
			c1.8-3.1,4.5-4.7,8-4.6c3.5,0.1,6.1,1.8,7.7,4.8c0.4,0.8,0.6,1.7,0.8,2.6c0.2,0.9,0.1,1.8,0.2,2.8c0.8,0.2,1.6,0.5,2.4,0.7
			c0.7,0.2,1.1,0.6,0.9,1.3c-0.2,0.7-0.7,0.9-1.4,0.8c-0.9-0.2-1.8-0.5-2.7-0.8c-0.6-0.2-0.9-0.1-1.2,0.5c-1.6,3.6-5.3,5.4-8.9,4.5
			c-3.8-1-6.2-4.3-6-8.2C62.3,31.3,62.3,31,62.3,30.6z"/>
	</g>
	<path class="st0" d="M82.1,80.3H20.9c-1,0-1.8-0.8-1.8-1.8v-3.7c0-1,0.8-1.8,1.8-1.8h61.3c1,0,1.8,0.8,1.8,1.8v3.7
		C83.9,79.5,83.1,80.3,82.1,80.3z"/>
</g>
</svg>
