<?xml version="1.0" encoding="UTF-8"?>
<svg id="a" data-name="Layer 1" xmlns="http://www.w3.org/2000/svg" viewBox="0 0 103 103">
  <path d="m81.91,37.17v-9.44h-7.37s0,0,0,.01c-.19.73-.85,1.22-1.58,1.22-.14,0-.28-.02-.42-.05-.59-.16-1.01-.62-1.16-1.17h-5.35l-15.58,4.04-15.94,28.8c.73,0,1.39.49,1.57,1.22.22.87-.31,1.76-1.18,1.99-.82.21-1.66.4-2.48.56l-.85,1.53h-10.49v9.4h60.82v-8.32h-34.91v-2.7h34.91v-6.28h-21.57v-2.75h21.57v-6.27h-11.09v-3.23h11.09v-5.57h-7.49v-3h7.49Zm-40.08,24.31c-.82.34-1.66.66-2.48.95-.18.06-.36.09-.55.09-.67,0-1.3-.42-1.54-1.09-.3-.85.14-1.78.99-2.09.77-.27,1.56-.57,2.33-.89.83-.34,1.79.06,2.13.89.34.83-.06,1.79-.89,2.13Zm6.55-3.18c-.77.43-1.56.85-2.33,1.25-.24.12-.49.18-.74.18-.6,0-1.17-.33-1.46-.9-.41-.8-.09-1.79.72-2.19.74-.37,1.48-.77,2.21-1.18.79-.44,1.78-.16,2.22.62.44.79.16,1.78-.62,2.22Zm6.18-3.96l-.07.05c-.72.52-1.44,1.02-2.16,1.5-.28.18-.59.27-.9.27-.53,0-1.05-.26-1.36-.73-.5-.75-.29-1.77.46-2.26.66-.44,1.33-.9,2-1.38l.12-.08c.75-.5,1.76-.3,2.26.45.47.71.32,1.66-.34,2.19Zm5.58-4.53c-.65.59-1.32,1.17-1.99,1.74-.31.26-.68.38-1.05.38-.47,0-.93-.2-1.25-.58-.58-.69-.49-1.72.2-2.3.64-.54,1.28-1.09,1.89-1.65.67-.61,1.7-.56,2.31.11.61.67.56,1.7-.11,2.31Zm5.07-5.22c-.57.67-1.17,1.33-1.77,1.97-.32.34-.76.51-1.19.51-.4,0-.8-.15-1.12-.44-.66-.62-.69-1.65-.07-2.31.57-.61,1.13-1.23,1.67-1.86.59-.68,1.62-.76,2.3-.18.69.59.76,1.62.18,2.3Zm4.36-5.86c-.47.73-.97,1.48-1.49,2.2-.32.45-.82.68-1.33.68-.33,0-.66-.1-.95-.3-.73-.53-.9-1.55-.38-2.28.49-.68.96-1.37,1.4-2.06.49-.76,1.5-.98,2.26-.5.76.49.98,1.5.5,2.26Zm3.43-6.5c-.34.81-.72,1.63-1.12,2.44-.29.57-.86.9-1.46.9-.25,0-.5-.06-.73-.17-.81-.4-1.13-1.39-.73-2.19.37-.74.72-1.5,1.03-2.24.35-.83,1.31-1.23,2.14-.88.83.35,1.22,1.3.88,2.14Z" style="fill: #0064ff; stroke-width: 0px;"/>
</svg>