<?xml version="1.0" encoding="utf-8"?>
<!-- Generator: Adobe Illustrator 27.9.0, SVG Export Plug-In . SVG Version: 6.00 Build 0)  -->
<svg version="1.1" id="Layer_1" xmlns="http://www.w3.org/2000/svg" xmlns:xlink="http://www.w3.org/1999/xlink" x="0px" y="0px"
	 viewBox="0 0 103 103" style="enable-background:new 0 0 103 103;" xml:space="preserve">
<style type="text/css">
	.st0{fill:#0064FF;}
	.st1{fill:none;stroke:#0064FF;stroke-miterlimit:10;}
	.st2{fill:#FFFFFF;}
	.st3{fill:#FFFFFF;stroke:#0064FF;stroke-width:0.25;stroke-miterlimit:10;}
	.st4{fill:none;stroke:#0064FF;stroke-width:2;stroke-linecap:round;stroke-miterlimit:10;}
	.st5{fill:#0064FF;stroke:#0064FF;stroke-width:2;stroke-linecap:round;stroke-linejoin:round;stroke-miterlimit:10;}
	.st6{fill:none;stroke:#0064FF;stroke-width:2;stroke-linecap:round;stroke-linejoin:round;stroke-miterlimit:10;}
</style>
<g>
	<path class="st0" d="M40.7,27.3c7.2,0,14.3,0,21.5,0c4,16.1,7.9,32.2,11.9,48.4c-5.9,0-11.8,0-17.7,0c-0.2-2.3-0.3-4.6-0.5-7
		c-3,0-6,0-9.1,0c-0.2,2.3-0.3,4.7-0.5,7c-5.9,0-11.7,0-17.7,0C32.8,59.5,36.8,43.4,40.7,27.3z M47.9,55c-0.2,2.3-0.3,4.5-0.5,6.7
		c2.8,0,5.4,0,8.1,0c-0.2-2.3-0.3-4.5-0.5-6.7C52.7,55,50.3,55,47.9,55z M48.9,41.4c-0.2,2.2-0.3,4.5-0.5,6.7c2.1,0,4.1,0,6.1,0
		c-0.2-2.3-0.3-4.5-0.5-6.7C52.3,41.4,50.7,41.4,48.9,41.4z M53.1,27.9c-1.1,0-2.1,0-3.1,0c-0.2,2.3-0.3,4.5-0.5,6.7
		c1.4,0,2.8,0,4.1,0C53.4,32.3,53.2,30.1,53.1,27.9z"/>
	<path class="st0" d="M85.8,75.7c-2.7,0-5.3,0-7.9,0c-0.2,0-0.4-0.3-0.5-0.5c-1.5-6.1-3-12.2-4.6-18.3c-1.9-7.6-3.7-15.2-5.6-22.8
		c-0.5-2.1-1.1-4.2-1.6-6.3c0-0.2,0-0.3-0.1-0.6c1.2,0,2.3,0,3.4,0c0.2,0,0.4,0.3,0.5,0.5c1.3,3.8,2.6,7.7,3.9,11.5
		c4.1,11.9,8.1,23.8,12.2,35.7C85.7,75.2,85.7,75.5,85.8,75.7z"/>
	<path class="st0" d="M17.2,75.7c0.8-2.5,1.7-5,2.5-7.4c2.2-6.3,4.3-12.6,6.5-18.9c2.4-7.2,4.9-14.4,7.3-21.5
		c0.1-0.4,0.3-0.6,0.8-0.6c1,0,2.1,0,3.2,0c-0.3,1.2-0.6,2.3-0.8,3.5c-3.4,13.8-6.8,27.5-10.2,41.3c-0.3,1.1-0.5,2.1-0.8,3.2
		c-0.1,0.2-0.3,0.4-0.5,0.4C22.5,75.7,19.9,75.7,17.2,75.7z"/>
</g>
</svg>
