<svg width="48" height="34" viewBox="0 0 48 34" fill="none" xmlns="http://www.w3.org/2000/svg">
<path d="M16.66 0.520004H31.34C34.04 11.48 36.75 22.46 39.46 33.47H27.43C27.32 31.88 27.21 30.3 27.1 28.69H20.9C20.79 30.28 20.68 31.86 20.57 33.47H8.54004C11.25 22.48 13.95 11.5 16.66 0.520004ZM21.57 19.41C21.46 20.96 21.35 22.46 21.24 23.96H26.75C26.64 22.42 26.53 20.93 26.41 19.41H21.56H21.57ZM22.25 10.15C22.14 11.68 22.02 13.2 21.91 14.72H26.07C25.95 13.17 25.84 11.67 25.73 10.15H22.25ZM25.06 0.920004H22.93C22.82 2.46 22.71 3.96 22.6 5.48H25.4C25.29 3.94 25.17 2.43 25.06 0.920004Z" fill="#0064FF"/>
<path d="M47.3698 33.49C45.5398 33.49 43.7498 33.49 41.9698 33.48C41.8498 33.48 41.6698 33.3 41.6398 33.17C40.5998 29.02 39.5598 24.87 38.5398 20.72C37.2598 15.55 35.9998 10.38 34.7198 5.22C34.3698 3.78 33.9998 2.35 33.6398 0.909999C33.6098 0.789999 33.6098 0.67 33.5898 0.52C34.3898 0.52 35.1598 0.499999 35.9198 0.539999C36.0398 0.539999 36.2098 0.739999 36.2598 0.879999C37.1598 3.49 38.0498 6.1 38.9398 8.72C41.6998 16.83 44.4598 24.93 47.2198 33.04C47.2698 33.18 47.3198 33.33 47.3698 33.51V33.49Z" fill="#0064FF"/>
<path d="M0.630117 33.49C1.21012 31.77 1.77012 30.1 2.33012 28.44C3.80012 24.14 5.27012 19.85 6.73012 15.55C8.40012 10.66 10.0601 5.78 11.7101 0.880003C11.8101 0.590003 11.9301 0.490003 12.2301 0.500003C12.9301 0.520003 13.6401 0.500003 14.4301 0.500003C14.2301 1.31 14.0501 2.08 13.8601 2.86C11.5501 12.24 9.24012 21.62 6.92012 31C6.74012 31.73 6.56012 32.45 6.36012 33.17C6.32012 33.3 6.13012 33.47 6.01012 33.47C4.24012 33.49 2.46012 33.48 0.620117 33.48L0.630117 33.49Z" fill="#0064FF"/>
</svg>
