<svg width="289" height="44" viewBox="0 0 289 44" fill="none" xmlns="http://www.w3.org/2000/svg">
<path d="M138.138 3.20304V25.3278H132.895V13.7818H120.16V25.3278H114.917V11.5461H132.897V6.07173C132.897 5.18682 132.175 4.47132 131.288 4.47132H121.772C120.882 4.47132 120.162 5.18905 120.162 6.07173V10.4294H114.919V3.20304C114.919 1.43546 116.36 0 118.14 0H134.924C136.697 0.00222898 138.138 1.43546 138.138 3.20304Z" fill="#0039A5"/>
<path d="M262.504 3.2031V22.1271C262.504 23.8947 261.062 25.3301 259.283 25.3301H239.278V5.59033H244.521V20.861H255.647C256.536 20.861 257.256 20.1433 257.256 19.2606V6.07402C257.256 5.18912 256.534 4.47361 255.647 4.47361H239.276V0.0045192H259.28C261.062 0.00229022 262.504 1.43552 262.504 3.2031Z" fill="#0039A5"/>
<path d="M236.283 0H231.04V25.3278H236.283V0Z" fill="#0039A5"/>
<path d="M189.085 0.00222775V4.47132H172.714C171.824 4.47132 171.104 5.18905 171.104 6.07173V10.4294H165.861V3.20304C165.861 1.43546 167.302 0 169.082 0H189.085V0.00222775Z" fill="#0039A5"/>
<path d="M189.085 20.8587V25.3278H169.08C167.302 25.3278 165.859 23.8945 165.859 22.1247V11.546H187.585V13.7817H171.102V19.256C171.102 20.1409 171.824 20.8564 172.711 20.8564H189.085V20.8587Z" fill="#0039A5"/>
<path d="M288.727 0.00222775V4.47132H272.356C271.466 4.47132 270.746 5.18905 270.746 6.07173V10.4294H265.503V3.20304C265.503 1.43546 266.944 0 268.724 0H288.727V0.00222775Z" fill="#0039A5"/>
<path d="M288.727 20.8587V25.3278H268.722C266.944 25.3278 265.501 23.8945 265.501 22.1247V11.546H287.227V13.7817H270.744V19.256C270.744 20.1409 271.466 20.8564 272.354 20.8564H288.727V20.8587Z" fill="#0039A5"/>
<path d="M112.668 0H103.677H98.4337H89.4424V4.47132H98.4337V25.3278H103.677V4.47132H112.668V0Z" fill="#0039A5"/>
<path d="M163.613 0H154.621H149.378H140.387V4.47132H149.378V25.3278H154.621V4.47132H163.613V0Z" fill="#0039A5"/>
<path d="M81.9509 7.077V6.0695C81.9509 5.1846 81.2291 4.4691 80.3414 4.4691H70.8255C69.9356 4.4691 69.216 5.18682 69.216 6.0695V11.5461H87.1964V22.1248C87.1964 23.8924 85.755 25.3278 83.9752 25.3278H67.1918C65.4119 25.3278 63.9705 23.8924 63.9705 22.1248V18.2486H69.2138V19.2561C69.2138 20.141 69.9356 20.8565 70.8233 20.8565H80.3392C81.2291 20.8565 81.9487 20.1388 81.9487 19.2561V13.7818H63.9683V3.20304C63.9683 1.43546 65.4097 0 67.1895 0H83.9729C85.7506 0 87.1942 1.43323 87.1942 3.20304V7.077H81.9509Z" fill="#0039A5"/>
<path d="M228.791 0.00222775L221.979 23.032C221.575 24.3939 220.318 25.3301 218.89 25.3301H216.803L210.06 6.33475L203.317 25.3301H201.232C199.804 25.3301 198.547 24.3939 198.143 23.032L191.331 0.00222775H195.825L201.275 18.4225L207.435 1.06991C207.661 0.430191 208.271 0.00222775 208.953 0.00222775H211.17C211.853 0.00222775 212.461 0.430191 212.687 1.06991L218.847 18.4202L224.297 0H228.791V0.00222775Z" fill="#0039A5"/>
<path d="M46.1358 5.73069V4.10577C46.1358 1.83667 44.2886 0 42.0066 0H4.12915C1.84938 0 0 1.83667 0 4.10577V5.73069H15.6894L6.21839 10.4227L3.6315 11.7066L4.0619 12.4176L5.11997 14.1718L5.78799 15.2819H16.6444L10.8743 18.1416L8.28745 19.4255L9.24464 21.0148L9.77367 21.8885L10.973 23.8768H17.6016L15.0842 25.125L12.4973 26.4067L13.8535 28.6535L13.9835 28.8719L15.5818 31.5199H27.2116L24.9072 35.3404H17.8863L19.5944 38.1757L21.3945 41.1603L23.0511 43.9063H23.0645L24.7413 41.1335L26.5279 38.1757L28.2383 35.3404H28.2405L29.1282 33.8693L30.545 31.5222L32.2755 28.6557L35.1583 23.879L36.8867 21.0148H12.6094L12.3628 20.6091L23.1049 15.2841H40.3478L42.0761 12.4176H8.66405L22.1522 5.73292H46.1358V5.73069ZM31.825 23.8768L28.9422 28.6535H17.2183L16.5749 27.588L24.0643 23.8768H31.825Z" fill="#0039A5"/>
<path d="M16.2095 38.1713L19.6662 43.902H4.12915C1.84938 43.902 0 42.0631 0 39.7962V38.1713H16.2095Z" fill="#0039A5"/>
<path d="M46.1358 38.1713V39.7962C46.1358 42.0631 44.2886 43.902 42.0066 43.902H26.4382L29.8949 38.1713H46.1358Z" fill="#0039A5"/>
<path d="M69.1019 43.9998C68.2501 43.9998 67.526 43.9463 66.9342 43.8371C66.3401 43.7279 65.8492 43.5429 65.4569 43.2798C65.0646 43.0168 64.762 42.6557 64.5491 42.1988C64.3361 41.7419 64.1859 41.1668 64.1007 40.4736C64.0133 39.7804 63.9707 38.9423 63.9707 37.9571C63.9707 36.9718 64.0133 36.1338 64.1007 35.4405C64.1881 34.7473 64.3406 34.1723 64.558 33.7153C64.7755 33.2584 65.0826 32.8973 65.4726 32.6343C65.8649 32.3712 66.3558 32.1862 66.9499 32.077C67.5417 31.9678 68.259 31.9143 69.0996 31.9143C69.4807 31.9143 69.8977 31.9321 70.3527 31.9656C70.8078 31.999 71.2606 32.0436 71.7089 32.0949C72.1573 32.1461 72.5675 32.2063 72.9351 32.2754V33.8134C72.5428 33.7554 72.1573 33.7109 71.7784 33.6752C71.3974 33.6418 71.0499 33.6128 70.7338 33.5905C70.4177 33.5682 70.1555 33.5571 69.947 33.5571C69.2566 33.5571 68.6737 33.5727 68.203 33.5994C67.73 33.6284 67.3444 33.7109 67.0463 33.8491C66.7459 33.9873 66.5172 34.2124 66.3558 34.5267C66.1944 34.841 66.0824 35.2734 66.0196 35.8239C65.9568 36.3745 65.9254 37.0833 65.9254 37.9548C65.9254 38.7216 65.9456 39.3658 65.986 39.8873C66.0263 40.4089 66.1115 40.8369 66.246 41.1757C66.3783 41.5145 66.5621 41.7686 66.7997 41.9402C67.0351 42.1119 67.3467 42.2322 67.7322 42.3013C68.1178 42.3704 68.593 42.4039 69.1579 42.4039C69.3776 42.4039 69.6107 42.3972 69.8573 42.386C70.1039 42.3749 70.337 42.3593 70.5567 42.3437C70.7764 42.3258 70.9602 42.3058 71.1104 42.2835V38.9333H68.7791V37.3196H72.9934V43.6409C72.6011 43.71 72.173 43.7702 71.7067 43.8215C71.2404 43.8728 70.7831 43.9151 70.3326 43.9508C69.8775 43.982 69.4695 43.9998 69.1019 43.9998Z" fill="#0039A5"/>
<path d="M85.0959 43.8617V32.0437H93.0068V33.6931H87.0484V37.0767H92.1953V38.7262H87.0484V42.2123H93.0068V43.8617H85.0959Z" fill="#0039A5"/>
<path d="M109.228 43.9998C108.284 43.9998 107.506 43.9463 106.896 43.8371C106.286 43.7279 105.802 43.5429 105.446 43.2798C105.089 43.0168 104.829 42.6557 104.668 42.1988C104.507 41.7419 104.403 41.1668 104.356 40.4736C104.309 39.7804 104.287 38.9423 104.287 37.9571C104.287 36.9718 104.309 36.1338 104.356 35.4405C104.401 34.7473 104.507 34.1723 104.668 33.7153C104.829 33.2584 105.089 32.8973 105.446 32.6343C105.802 32.3712 106.286 32.1862 106.896 32.077C107.506 31.9678 108.284 31.9143 109.228 31.9143C110.171 31.9143 110.951 31.9678 111.568 32.077C112.184 32.1862 112.671 32.3712 113.027 32.6343C113.384 32.8973 113.646 33.2584 113.814 33.7153C113.98 34.1745 114.087 34.7496 114.135 35.4405C114.179 36.1338 114.204 36.9718 114.204 37.9571C114.204 38.9423 114.182 39.7804 114.135 40.4736C114.087 41.1668 113.982 41.7419 113.814 42.1988C113.648 42.658 113.386 43.0168 113.027 43.2798C112.671 43.5429 112.184 43.7301 111.568 43.8371C110.951 43.9441 110.171 43.9998 109.228 43.9998ZM109.228 42.3504C109.804 42.3504 110.279 42.3325 110.653 42.2991C111.028 42.2657 111.321 42.1787 111.534 42.0428C111.747 41.9046 111.906 41.6794 112.009 41.3652C112.113 41.0509 112.18 40.6207 112.209 40.0768C112.238 39.5329 112.252 38.8264 112.252 37.9548C112.252 37.0855 112.236 36.3767 112.209 35.8328C112.18 35.289 112.115 34.8588 112.009 34.5445C111.906 34.2302 111.747 34.0029 111.534 33.8669C111.321 33.7287 111.028 33.644 110.653 33.6083C110.279 33.5749 109.804 33.5571 109.228 33.5571C108.663 33.5571 108.196 33.5749 107.829 33.6083C107.461 33.6418 107.167 33.7287 106.948 33.8669C106.728 34.0051 106.571 34.2302 106.472 34.5445C106.374 34.8588 106.311 35.289 106.282 35.8328C106.253 36.3767 106.239 37.0833 106.239 37.9548C106.239 38.8241 106.253 39.5329 106.282 40.0768C106.311 40.6207 106.374 41.0509 106.472 41.3652C106.571 41.6794 106.728 41.9068 106.948 42.0428C107.167 42.181 107.461 42.2657 107.829 42.2991C108.196 42.3325 108.663 42.3504 109.228 42.3504Z" fill="#0039A5"/>
<path d="M128.555 43.8617V33.7444H124.946V32.0437H134.101V33.7444H130.508V43.8617H128.555Z" fill="#0039A5"/>
<path d="M145.242 43.8617V32.0437H153.153V33.6931H147.195V37.0767H152.342V38.7262H147.195V42.2123H153.153V43.8617H145.242Z" fill="#0039A5"/>
<path d="M169.304 43.9999C168.452 43.9999 167.737 43.9464 167.163 43.8372C166.587 43.7279 166.119 43.5429 165.756 43.2799C165.392 43.0169 165.117 42.658 164.926 42.2055C164.736 41.7531 164.606 41.178 164.538 40.4803C164.469 39.7827 164.435 38.9401 164.435 37.9549C164.435 36.9697 164.469 36.1294 164.538 35.4295C164.608 34.7318 164.738 34.1567 164.926 33.7042C165.117 33.2518 165.392 32.8951 165.756 32.6299C166.119 32.3669 166.587 32.1818 167.163 32.0726C167.74 31.9634 168.452 31.9099 169.304 31.9099C169.638 31.9099 169.981 31.9211 170.333 31.9433C170.685 31.9656 171.021 31.9968 171.344 32.037C171.667 32.0771 171.943 32.1261 172.174 32.1841V33.731C171.887 33.6976 171.6 33.6641 171.319 33.6374C171.037 33.6084 170.764 33.5883 170.499 33.5772C170.235 33.566 170.004 33.5594 169.809 33.5594C169.174 33.5594 168.652 33.5816 168.237 33.6285C167.822 33.6753 167.491 33.7778 167.244 33.9383C166.998 34.0988 166.811 34.3373 166.69 34.6516C166.569 34.9658 166.489 35.3938 166.448 35.931C166.408 36.4704 166.388 37.1458 166.388 37.9571C166.388 38.7596 166.408 39.4305 166.448 39.9743C166.489 40.5182 166.569 40.9484 166.69 41.2627C166.811 41.577 166.995 41.8155 167.244 41.976C167.491 42.1364 167.822 42.239 168.237 42.2858C168.652 42.3326 169.176 42.3549 169.809 42.3549C170.19 42.3549 170.607 42.3371 171.062 42.3036C171.517 42.2702 171.911 42.2301 172.245 42.1833V43.7636C171.992 43.8104 171.696 43.8483 171.355 43.884C171.015 43.9174 170.669 43.9464 170.32 43.9687C169.963 43.9887 169.627 43.9999 169.304 43.9999Z" fill="#0039A5"/>
<path d="M183.848 43.8617V32.0437H185.801V37.0589H191.293V32.0437H193.245V43.8617H191.293V38.7596H185.801V43.8617H183.848Z" fill="#0039A5"/>
<path d="M205.545 43.8617V32.0437H207.567L213.008 40.2196H213.077V32.0437H214.942V43.8617H213.077L207.48 35.4273H207.41V43.8617H205.545Z" fill="#0039A5"/>
<path d="M227.24 43.8617V32.0437H229.193V43.8617H227.24Z" fill="#0039A5"/>
<path d="M245.947 43.9999C245.095 43.9999 244.38 43.9464 243.806 43.8372C243.23 43.7279 242.761 43.5429 242.398 43.2799C242.035 43.0169 241.759 42.658 241.569 42.2055C241.378 41.7531 241.248 41.178 241.181 40.4803C241.112 39.7827 241.078 38.9401 241.078 37.9549C241.078 36.9697 241.112 36.1294 241.181 35.4295C241.251 34.7318 241.381 34.1567 241.569 33.7042C241.759 33.2518 242.035 32.8951 242.398 32.6299C242.761 32.3669 243.23 32.1818 243.806 32.0726C244.382 31.9634 245.095 31.9099 245.947 31.9099C246.281 31.9099 246.624 31.9211 246.976 31.9433C247.328 31.9656 247.664 31.9968 247.987 32.037C248.31 32.0771 248.585 32.1261 248.816 32.1841V33.731C248.529 33.6976 248.242 33.6641 247.962 33.6374C247.68 33.6084 247.406 33.5883 247.142 33.5772C246.877 33.566 246.646 33.5594 246.451 33.5594C245.817 33.5594 245.294 33.5816 244.88 33.6285C244.465 33.6753 244.133 33.7778 243.887 33.9383C243.64 34.0988 243.454 34.3373 243.333 34.6516C243.212 34.9658 243.131 35.3938 243.091 35.931C243.051 36.4704 243.03 37.1458 243.03 37.9571C243.03 38.7596 243.051 39.4305 243.091 39.9743C243.131 40.5182 243.212 40.9484 243.333 41.2627C243.454 41.577 243.638 41.8155 243.887 41.976C244.133 42.1364 244.465 42.239 244.88 42.2858C245.294 42.3326 245.819 42.3549 246.451 42.3549C246.832 42.3549 247.249 42.3371 247.704 42.3036C248.159 42.2702 248.554 42.2301 248.888 42.1833V43.7636C248.635 43.8104 248.339 43.8483 247.998 43.884C247.657 43.9174 247.312 43.9464 246.962 43.9687C246.606 43.9887 246.27 43.9999 245.947 43.9999Z" fill="#0039A5"/>
<path d="M259.491 43.8617L263.741 32.0437H266.297L270.547 43.8617H268.527L267.492 40.9418H262.482L261.462 43.8617H259.491ZM263.033 39.2923H266.92L265.019 33.916H264.932L263.033 39.2923Z" fill="#0039A5"/>
<path d="M281.506 43.8617V32.0437H283.459V42.161H288.727V43.8617H281.506Z" fill="#0039A5"/>
</svg>
