<svg width="367" height="74" viewBox="0 0 367 74" fill="none" xmlns="http://www.w3.org/2000/svg">
<g clip-path="url(#clip0_3218_2037)">
<mask id="mask0_3218_2037" style="mask-type:luminance" maskUnits="userSpaceOnUse" x="0" y="0" width="367" height="74">
<path d="M367 0H0V74H367V0Z" fill="white"/>
</mask>
<g mask="url(#mask0_3218_2037)">
<path d="M91.7451 24.3982H97.0746L98.3718 21.1093H105.431L106.762 24.3982H112.194L104.41 5.85057H99.5133L91.7451 24.3982ZM99.8668 17.1386L101.932 11.9111L103.968 17.1484L99.8668 17.1386ZM121.48 24.7358C126.669 24.7358 130.039 22.1341 130.039 16.1868V5.97799H124.921V16.3436C124.921 18.9225 123.59 20.1313 121.553 20.1313C119.517 20.1313 118.18 18.8713 118.18 16.2107V5.97799H113.062V16.2913C113.062 22.0557 116.326 24.7086 121.525 24.7086M140.294 24.7086C144.736 24.7086 147.688 22.4739 147.688 18.709V18.6578C147.688 15.2197 145.072 13.8453 140.862 12.9283C138.332 12.3555 137.7 11.983 137.7 11.1401V11.0965C137.7 10.4377 138.304 9.91055 139.532 9.91055C141.381 9.98071 143.166 10.6141 144.65 11.7271L147.181 8.12342C145.04 6.43935 142.377 5.57252 139.662 5.67632C135.278 5.67632 132.587 8.15173 132.587 11.567V11.6182C132.587 15.4114 135.59 16.5113 139.481 17.4109C141.961 17.9837 142.564 18.4073 142.564 19.1697V19.2209C142.564 20.0115 141.83 20.4874 140.471 20.4874C138.283 20.4714 136.169 19.6873 134.493 18.2701L131.649 21.668C134.037 23.7064 137.085 24.7914 140.214 24.7173M154 24.4026H159.068V10.4627H164.551V5.97799H148.541V10.4529H154.024L154 24.4026ZM166.769 24.4026H171.837V18.8168H174.061L177.736 24.3971H183.589L179.227 17.9717C180.365 17.5473 181.341 16.7725 182.017 15.7572C182.693 14.742 183.034 13.538 182.992 12.3163V12.2651C183.035 11.4801 182.918 10.6946 182.647 9.95733C182.376 9.22008 181.957 8.54689 181.417 7.97967C180.189 6.71963 178.255 5.98016 175.462 5.98016H166.813L166.769 24.4026ZM171.837 14.8276V10.4006H175.157C176.863 10.4006 177.898 11.1401 177.898 12.5787V12.6365C177.898 13.9771 176.909 14.8146 175.185 14.8146L171.837 14.8276ZM183.781 24.4026H189.11L190.408 21.1136H197.46L198.791 24.4026H204.223L196.454 5.85492H191.569L183.781 24.4026ZM191.903 17.1429L193.978 11.9155L196.015 17.1527L191.903 17.1429ZM206.008 24.4026H219.925V19.9375H211.081V5.97799H206.019L206.008 24.4026ZM222.195 24.4026H227.314V5.97799H222.195V24.4026ZM229.168 24.4026H234.492L235.8 21.1136H242.84L244.171 24.4026H249.603L241.845 5.85057H236.96L229.168 24.4026ZM237.289 17.1429L239.365 11.9155L241.402 17.1527L237.289 17.1429ZM251.4 24.4026H256.411V14.2962L264.22 24.3982H268.665V5.97799H263.649V15.7185L256.125 5.97799H251.399L251.4 24.4026Z" fill="#073378"/>
<path d="M91.7451 73.5133H97.0746L98.3718 70.2243H105.431L106.762 73.5133H112.194L104.41 54.9656H99.5133L91.7451 73.5133ZM99.8668 66.2536L101.932 61.0164L103.968 66.2536H99.8668ZM120.911 73.828C125.353 73.828 128.305 71.5932 128.305 67.8284V67.7772C128.305 64.3391 125.695 62.9647 121.48 62.0477C118.949 61.4749 118.323 61.1024 118.323 60.2595V60.2083C118.323 59.5494 118.92 59.0223 120.149 59.0223C121.998 59.0961 123.781 59.7291 125.268 60.8389L127.798 57.2352C125.657 55.5511 122.994 54.6843 120.28 54.7881C115.889 54.7881 113.204 57.2635 113.204 60.6842V60.7354C113.204 64.5231 116.208 65.6285 120.098 66.5226C122.578 67.0955 123.175 67.5191 123.175 68.2814V68.3392C123.175 69.1244 122.447 69.5992 121.087 69.5992C118.917 69.5729 116.823 68.7914 115.16 67.3873L112.316 70.7852C114.704 72.8236 117.752 73.9086 120.881 73.8345M137.647 73.8345C142.08 73.8345 145.042 71.5998 145.042 67.8349V67.7837C145.042 64.3456 142.431 62.9712 138.216 62.0542C135.679 61.4814 135.054 61.1089 135.054 60.266V60.2148C135.054 59.556 135.657 59.0289 136.88 59.0289C138.729 59.1019 140.513 59.735 141.999 60.8454L144.536 57.2417C142.393 55.5565 139.727 54.6896 137.011 54.7946C132.626 54.7946 129.935 57.27 129.935 60.6907V60.7419C129.935 64.5297 132.938 65.635 136.829 66.5292C139.309 67.102 139.912 67.5256 139.912 68.288V68.3457C139.912 69.1309 139.185 69.6057 137.825 69.6057C135.665 69.5696 133.584 68.7846 131.932 67.383L129.088 70.7808C131.476 72.8201 134.523 73.9052 137.653 73.8302M156.689 73.8813C157.964 73.9209 159.235 73.7029 160.426 73.2403C161.618 72.7777 162.705 72.0799 163.624 71.1877C164.544 70.2956 165.277 69.2272 165.78 68.0454C166.284 66.8637 166.547 65.5924 166.556 64.3064V64.2552C166.45 61.6922 165.363 59.2701 163.523 57.4968C161.683 55.7235 159.233 54.7367 156.687 54.7433C154.14 54.7499 151.696 55.7495 149.865 57.5323C148.034 59.3152 146.959 61.7429 146.866 64.3064V64.3641C146.871 65.6447 147.131 66.9112 147.632 68.0885C148.132 69.2658 148.861 70.3299 149.777 71.2176C150.694 72.1052 151.777 72.7985 152.965 73.2561C154.152 73.7137 155.418 73.9263 156.689 73.8813ZM156.739 69.2975C156.105 69.2905 155.479 69.1551 154.897 68.8994C154.316 68.6436 153.792 68.2727 153.356 67.8087C152.919 67.3447 152.58 66.7971 152.358 66.1984C152.136 65.5998 152.036 64.9623 152.064 64.3238V64.2737C152.034 63.6418 152.13 63.0101 152.349 62.4169C152.567 61.8236 152.902 61.281 153.334 60.8218C153.766 60.3625 154.286 59.996 154.862 59.7444C155.439 59.4928 156.059 59.3613 156.687 59.3578C157.322 59.3641 157.95 59.4987 158.532 59.7536C159.115 60.0085 159.641 60.3785 160.079 60.8418C160.517 61.305 160.858 61.852 161.082 62.4505C161.307 63.049 161.41 63.6867 161.386 64.326V64.3837C161.415 65.0175 161.316 65.6508 161.096 66.2452C160.876 66.8396 160.538 67.383 160.104 67.8424C159.67 68.3018 159.147 68.6678 158.569 68.9182C157.99 69.1687 157.367 69.2985 156.737 69.2997M177.991 73.8835C179.581 73.9551 181.163 73.61 182.582 72.882C184 72.1541 185.207 71.068 186.085 69.7299L182.274 66.9909C181.822 67.6762 181.209 68.239 180.49 68.6296C179.771 69.0202 178.968 69.2268 178.151 69.2311C175.591 69.2311 173.789 67.0715 173.789 64.3097V64.2585C173.747 63.6481 173.828 63.0354 174.027 62.4572C174.225 61.8789 174.537 61.3468 174.945 60.8928C175.352 60.4387 175.845 60.072 176.396 59.8144C176.947 59.5568 177.544 59.4137 178.151 59.3937C178.938 59.4014 179.712 59.6015 180.405 59.9767C181.099 60.3519 181.691 60.8911 182.132 61.5478L185.943 58.5736C185.083 57.3215 183.919 56.3117 182.562 55.6398C181.205 54.968 179.701 54.6564 178.191 54.7347C176.928 54.7013 175.671 54.9252 174.495 55.3929C173.32 55.8606 172.251 56.5625 171.351 57.4565C170.451 58.3506 169.74 59.4184 169.26 60.596C168.779 61.7735 168.54 63.0367 168.556 64.3097V64.3674C168.533 65.6232 168.761 66.8708 169.227 68.0356C169.694 69.2005 170.388 70.2587 171.269 71.1471C172.151 72.0355 173.201 72.7358 174.357 73.2061C175.513 73.6765 176.751 73.9072 177.998 73.8846M188.366 73.5176H193.456V55.1017H188.366V73.5176ZM195.338 73.5176H200.669L201.977 70.2287H209.024L210.36 73.5176H215.792L208.009 54.97H203.129L195.338 73.5176ZM203.46 66.258L205.514 61.0207L207.551 66.258H203.46ZM219.675 73.5176H224.743V59.5777H230.226V55.1028H214.192V59.5777H219.681L219.675 73.5176ZM232.546 73.5176H237.665V55.1017H232.546V73.5176ZM250.177 73.8846C251.454 73.9247 252.725 73.7072 253.917 73.2449C255.109 72.7826 256.197 72.0849 257.117 71.1927C258.037 70.3005 258.77 69.232 259.274 68.0499C259.778 66.8678 260.042 65.5961 260.051 64.3097V64.2585C259.949 61.6929 258.863 59.2671 257.023 57.4908C255.182 55.7145 252.73 54.7258 250.182 54.7324C247.633 54.739 245.186 55.7405 243.354 57.5263C241.523 59.3122 240.45 61.7436 240.361 64.3097V64.3674C240.365 65.6476 240.625 66.9137 241.125 68.0908C241.624 69.2679 242.354 70.3318 243.269 71.2195C244.185 72.1072 245.268 72.8005 246.455 73.2583C247.641 73.7161 248.907 73.9291 250.177 73.8846ZM250.228 69.3008C249.594 69.2931 248.969 69.1571 248.388 68.901C247.807 68.6449 247.284 68.2739 246.848 67.81C246.413 67.346 246.074 66.7987 245.853 66.2004C245.631 65.6021 245.532 64.965 245.559 64.3271V64.2737C245.528 63.642 245.624 63.0104 245.842 62.4171C246.059 61.8238 246.394 61.2811 246.826 60.8217C247.257 60.3623 247.777 59.9957 248.353 59.7441C248.929 59.4925 249.55 59.3611 250.177 59.3578C250.813 59.3644 251.44 59.4992 252.023 59.7542C252.605 60.0091 253.131 60.379 253.57 60.8421C254.008 61.3052 254.35 61.8521 254.575 62.4504C254.8 63.0488 254.904 63.6865 254.881 64.326V64.3837C254.909 65.0173 254.811 65.6502 254.59 66.2443C254.369 66.8384 254.032 67.3814 253.598 67.8407C253.163 68.3 252.641 68.666 252.063 68.9167C251.485 69.1674 250.862 69.2977 250.232 69.2997M262.69 73.5307H267.706V63.4123L275.515 73.5143H279.948V55.0985H274.937V64.8389L267.412 55.0985H262.686L262.69 73.5307Z" fill="#E5342D"/>
<path d="M229.123 48.9443H234.241V30.5284H229.123V48.9443ZM237.555 48.9443H242.57V38.8368L250.38 48.9389H254.812V30.5339H249.801V40.2744L242.266 30.5339H237.534L237.555 48.9443ZM258.058 48.9443H265.02C271.6 48.9443 275.44 44.9965 275.44 39.6874V39.6286C275.44 34.3173 271.656 30.5295 265.123 30.5295H258.059L258.058 48.9443ZM263.123 44.4204V35.0545H265.188C268.214 35.0545 270.226 36.7731 270.226 39.707V39.7582C270.226 42.7324 268.219 44.416 265.188 44.416L263.123 44.4204ZM286.257 49.2852C291.455 49.2852 294.822 46.6834 294.822 40.7361V30.5317H289.703V40.8973C289.703 43.4762 288.367 44.685 286.336 44.685C284.304 44.685 282.963 43.425 282.963 40.7644V30.5274H277.844V40.8407C277.844 46.605 281.109 49.258 286.302 49.258M305.071 49.258C309.503 49.258 312.465 47.0232 312.465 43.2584V43.2072C312.465 39.7691 309.854 38.3947 305.639 37.4777C303.102 36.9048 302.477 36.5324 302.477 35.6895V35.6383C302.477 34.9794 303.081 34.4523 304.309 34.4523C306.158 34.5225 307.943 35.1558 309.427 36.2688L311.964 32.6652C309.823 30.9811 307.16 30.1143 304.446 30.2181C300.055 30.2181 297.365 32.688 297.365 36.1087V36.1599C297.365 39.9531 300.368 41.053 304.259 41.9526C306.745 42.5254 307.342 42.9491 307.342 43.7114V43.767C307.342 44.5576 306.614 45.0335 305.255 45.0335C303.085 45.0058 300.992 44.2245 299.328 42.8217L296.484 46.2141C298.871 48.2544 301.92 49.3396 305.049 49.2634M318.835 48.9487H323.903V35.0034H329.386V30.5284H313.315V35.0034H318.798L318.835 48.9487ZM331.604 48.9487H336.672V43.3618H338.89L342.566 48.9421H348.419L344.017 42.5167C345.154 42.0922 346.13 41.3171 346.805 40.3018C347.48 39.2864 347.82 38.0825 347.776 36.8613V36.8101C347.814 36.0232 347.69 35.2369 347.412 34.5005C347.134 33.7641 346.708 33.0933 346.161 32.5301C344.933 31.2636 342.999 30.5306 340.206 30.5306H331.558L331.604 48.9487ZM336.672 39.3737V34.9456H339.988C341.694 34.9456 342.729 35.6851 342.729 37.1237V37.1749C342.729 38.521 341.734 39.3639 340.016 39.3639L336.672 39.3737ZM355.003 48.9487H360.122V41.9711L367.066 30.511H361.379L357.595 37.2207L353.79 30.5284H348.018L354.967 42.0506L355.003 48.9487Z" fill="#073378"/>
<path d="M93.208 48.9442H100.152C106.733 48.9442 110.578 44.9964 110.578 39.6796V39.6284C110.578 34.3171 106.794 30.5294 100.261 30.5294H93.208V48.9442ZM98.2758 44.4181V35.0522H100.341C103.367 35.0522 105.379 36.7707 105.379 39.7047V39.7558C105.379 42.73 103.366 44.4137 100.341 44.4137L98.2758 44.4181ZM113.166 48.9442H118.228V43.3628H120.446L124.132 48.9431H130.002L125.645 42.5177C126.78 42.0919 127.754 41.3174 128.428 40.3037C129.103 39.29 129.444 38.0884 129.404 36.8688V36.8176C129.44 36.0302 129.315 35.2437 129.036 34.5072C128.757 33.7708 128.33 33.1003 127.782 32.5376C126.554 31.271 124.626 30.5381 121.827 30.5381H113.165L113.166 48.9442ZM118.228 39.3692V34.9455H121.544C123.25 34.9455 124.291 35.685 124.291 37.1236V37.1813C124.291 38.5219 123.295 39.3594 121.572 39.3594L118.228 39.3692ZM132.044 48.9442H137.162V30.5283H132.044V48.9442ZM140.476 48.9442H154.393V44.4693H145.582V30.5294H140.515L140.476 48.9442ZM156.56 48.9442H170.484V44.4693H161.651V30.5294H156.583L156.56 48.9442ZM172.753 48.9442H177.841V30.5283H172.751L172.753 48.9442ZM181.185 48.9442H186.195V38.8367L194.005 48.9387H198.475V30.5337H193.464V40.2742L185.962 30.5337H181.236L181.185 48.9442ZM211.005 49.3112C213.911 49.328 216.73 48.3136 218.967 46.4459V38.1833H210.556V41.9187H214.163V44.1534C213.287 44.6934 212.271 44.9588 211.245 44.9158C210.578 44.9365 209.914 44.8178 209.295 44.5672C208.676 44.3166 208.115 43.9395 207.648 43.4598C207.181 42.98 206.817 42.4079 206.581 41.7797C206.344 41.1514 206.239 40.4804 206.272 39.8092V39.758C206.244 39.1158 206.343 38.4743 206.564 37.8712C206.784 37.268 207.122 36.7153 207.558 36.2453C207.993 35.7753 208.517 35.3974 209.099 35.1339C209.681 34.8703 210.309 34.7263 210.947 34.7103C212.582 34.699 214.159 35.3132 215.361 36.4288L218.336 32.8251C216.301 31.0142 213.656 30.055 210.942 30.1439C209.665 30.094 208.391 30.3051 207.197 30.7644C206.003 31.2236 204.914 31.9215 203.995 32.8161C203.076 33.7107 202.346 34.7835 201.849 35.9698C201.352 37.156 201.099 38.4313 201.105 39.7188V39.77C201.105 45.3449 205.359 49.2927 211.05 49.2927" fill="#073378"/>
<path d="M28.085 0.0229492L42.122 24.5266L56.1645 0.0229492H28.085Z" fill="#60C4E5"/>
<path d="M0 49.0237L14.0425 73.5274L28.0849 49.0237H0Z" fill="#E5342D"/>
<path d="M28.085 49.0237L42.122 73.5274L56.1645 49.0237H28.085Z" fill="#FCD38E"/>
<path d="M42.122 24.5234H14.0425L28.0849 49.0271L42.122 24.5234Z" fill="#A3D9EC"/>
<path d="M70.207 24.5234H42.1221L56.1645 49.0271L70.207 24.5234Z" fill="#073378"/>
<path d="M56.1646 49.0237L70.207 73.5274L84.2495 49.0237H56.1646Z" fill="#DE4F16"/>
<path d="M70.207 24.5234L56.1646 49.0271H84.2495L70.207 24.5234Z" fill="#E5342D"/>
<path d="M56.1645 0.0229492L42.1221 24.5266H70.207L56.1645 0.0229492Z" fill="#2DA7DB"/>
<path d="M0 49.0238H28.0849L14.0425 24.5234L0 49.0238Z" fill="#ED7E00"/>
<path d="M14.0425 73.5241H42.122L28.0849 49.0237L14.0425 73.5241Z" fill="#DE4F16"/>
</g>
</g>
<defs>
<clipPath id="clip0_3218_2037">
<rect width="367" height="74" fill="white"/>
</clipPath>
</defs>
</svg>
