<svg width="46" height="44" viewBox="0 0 46 44" fill="none" xmlns="http://www.w3.org/2000/svg">
<path d="M37.8305 14.07L36.8805 13.99C36.9005 14.37 36.9105 14.77 36.9105 15.16C36.9105 17.04 36.7305 18.78 36.4205 20.34C36.0705 22.13 35.5405 23.68 34.9005 24.92C34.0505 26.59 33.0105 27.73 31.9405 28.21C31.5705 28.37 31.2005 28.46 30.8305 28.46C27.8905 28.46 24.7505 23.12 24.7505 15.16C24.7505 7.2 27.9005 1.86 30.8305 1.86C32.8005 1.86 34.8605 4.26 36.0005 8.24C36.4405 9.77 36.7505 11.54 36.8605 13.49L37.8105 13.56C37.7005 11.5 37.3705 9.57 36.8705 7.87C35.6405 3.7 33.4005 0.91 30.8405 0.91C26.9605 0.91 23.8105 7.29 23.8105 15.15C23.8105 23.01 26.9605 29.39 30.8405 29.39C31.2105 29.39 31.5705 29.33 31.9205 29.22C33.0105 28.88 34.0105 28.03 34.8705 26.8C35.9805 25.22 36.8505 23.01 37.3605 20.43C37.6805 18.8 37.8605 17.01 37.8605 15.15C37.8605 14.78 37.8605 14.41 37.8405 14.06L37.8305 14.07Z" fill="#0064FF"/>
<path d="M31.2901 18.12C32.0964 18.12 32.7501 16.7948 32.7501 15.16C32.7501 13.5252 32.0964 12.2 31.2901 12.2C30.4837 12.2 29.8301 13.5252 29.8301 15.16C29.8301 16.7948 30.4837 18.12 31.2901 18.12Z" fill="#0064FF"/>
<path d="M43.8001 8.19V12.87L41.1401 13.8L37.8101 13.57L36.8601 13.5L34.6201 13.34V8.84L36.0101 8.24L36.8701 7.88L43.8001 8.19Z" fill="#0064FF"/>
<path d="M44.4904 20.5V28.27C44.4904 29.09 43.8204 29.76 42.9904 29.76H39.6804C38.8604 29.76 38.1904 29.09 38.1904 28.27V21.27L42.0104 21.7L43.8804 20.5H44.5004H44.4904Z" fill="#0064FF"/>
<path d="M20.3404 29.06L0.69043 37.92L26.9504 43.81L43.6604 33.11L20.3404 29.06ZM25.8204 42.08L5.72043 37.58L20.7604 30.8L38.6004 33.9L25.8104 42.09L25.8204 42.08Z" fill="#0064FF"/>
<path d="M38.6205 33.89L25.8305 42.08L5.73047 37.57L20.7705 30.79L38.6205 33.89Z" stroke="#0064FF" stroke-miterlimit="10"/>
<path d="M38.6205 33.89L25.8305 42.08L5.73047 37.57L20.7705 30.79L38.6205 33.89Z" stroke="#0064FF" stroke-miterlimit="10"/>
<path d="M23.8106 15.16C23.8106 7.3 26.9606 0.920001 30.8406 0.920001L14.1306 0.200001C10.1306 0.200001 6.89059 6.18 6.89059 13.57C6.89059 17.15 7.65059 20.4 8.89059 22.8L8.87059 22.76L4.10059 34.85V36.69L4.80059 36.45L4.75059 34.96L9.21058 23.39V23.36C9.67058 24.18 10.2006 24.88 10.7906 25.44L10.5506 34.78L13.5006 34.04L13.6506 26.91C13.8106 26.93 13.9706 26.94 14.1306 26.94L29.8406 29.26C26.4406 28.28 23.8206 22.34 23.8206 15.17L23.8106 15.16ZM14.4306 5.63C14.1106 6.35 13.6206 6.52 13.3506 6.36C13.0806 6.2 13.3106 5.39 13.3106 5.39C13.3106 5.39 13.0406 5.15 12.7206 4.91C12.4006 4.67 12.2606 4.91 12.1606 5.26C12.0606 5.61 11.0606 11.07 10.8806 11.93C10.6906 12.79 11.4706 12.97 11.4706 12.97C11.6606 12.65 11.7306 12.42 12.1106 12.33C12.4106 12.26 12.7806 12.77 12.5706 13.64C12.3706 14.46 12.1506 14.7 11.7106 14.68C11.4006 14.68 11.2806 14.12 11.2806 14.12C11.2806 14.12 10.3806 13.62 10.0206 13.32C9.66059 13.02 9.79059 12.34 9.85059 11.95C9.91059 11.56 11.1106 5.32 11.3006 4.44C11.4806 3.56 12.5206 3.78 12.7506 3.94C12.9706 4.1 13.6606 4.58 13.6606 4.58C13.7606 4.42 14.0306 4.05 14.4906 4.22C14.7106 4.3 14.7606 4.9 14.4406 5.63H14.4306ZM23.0706 6.71C22.7506 7.43 22.2606 7.6 21.9906 7.44C21.7206 7.28 21.9506 6.47 21.9506 6.47C21.9506 6.47 21.6806 6.23 21.3606 5.99C21.0406 5.75 20.9006 5.99 20.8006 6.34C20.7006 6.69 19.7006 12.15 19.5206 13.01C19.3306 13.87 20.1106 14.05 20.1106 14.05C20.3006 13.73 20.3706 13.5 20.7506 13.41C21.0506 13.34 21.4206 13.85 21.2106 14.72C21.0106 15.54 20.7906 15.78 20.3506 15.76C20.0406 15.76 19.9206 15.2 19.9206 15.2C19.9206 15.2 19.0206 14.7 18.6606 14.4C18.3106 14.1 18.4306 13.42 18.4906 13.03C18.5506 12.65 19.7506 6.4 19.9406 5.52C20.1206 4.64 21.1606 4.86 21.3906 5.02C21.6106 5.18 22.3006 5.66 22.3006 5.66C22.4006 5.5 22.6706 5.13 23.1306 5.3C23.3506 5.38 23.4006 5.98 23.0806 6.71H23.0706Z" fill="#0064FF"/>
<path d="M42.0002 14.42L37.8302 14.07L36.8902 13.99L31.6702 13.55L32.1702 19.85L32.0102 26.05L27.4902 39.59L27.8102 41.21L28.3502 40.89L28.1902 39.59L31.9402 28.39L31.9202 29.23L31.6702 38.83L34.6202 38.73L34.8702 26.81L34.9102 24.92L35.0102 20.18L36.4302 20.34L37.3602 20.44L42.0002 20.97L45.3102 18.85V12.87L42.0002 14.42Z" fill="#0064FF"/>
</svg>
