<svg width="36" height="42" viewBox="0 0 36 42" fill="none" xmlns="http://www.w3.org/2000/svg">
<path d="M17.4502 37.0501C17.4502 37.0501 17.8102 35.5901 18.4202 35.4101C19.0302 35.2301 20.0002 34.1301 20.0002 34.1301C20.0002 34.1301 20.0602 30.4901 20.7302 31.3401C21.4002 32.1901 21.6402 32.7401 22.0102 33.5301C22.3802 34.3201 23.1602 34.5001 23.1602 35.4101C23.1602 36.3201 21.4002 36.4401 20.3102 36.8101C19.2202 37.1801 17.4602 37.0501 17.4602 37.0501H17.4502Z" fill="#0064FF"/>
<path d="M22.8701 32.6501C22.8701 32.6501 24.3001 34.9601 24.5001 35.3801C24.7001 35.8001 23.7201 36.7201 25.2401 36.5901C26.7601 36.4601 29.0701 36.1001 30.0401 36.2301C31.0101 36.3601 32.2301 36.2901 32.3501 35.9301C32.4701 35.5701 33.0801 34.9101 31.5601 34.6301C30.0401 34.3501 22.8701 32.6501 22.8701 32.6501Z" fill="#0064FF"/>
<path d="M22.9101 11.4102H9.78009V13.4402C9.64009 13.9102 8.90009 14.9302 8.95009 16.4902C9.01009 18.3702 8.97009 18.1902 9.38009 19.4102C9.78009 20.6202 9.32009 20.2602 9.38009 22.2002C9.44009 24.1402 9.01009 22.8102 8.95009 25.7802C8.89009 28.7602 8.58009 27.9702 8.95009 29.9102C9.32009 31.8502 9.26009 32.9502 9.29009 33.6202C9.29009 33.8402 9.49009 34.0302 9.78009 34.1602V37.6502H16.9101C16.9101 37.6502 16.9101 37.6402 16.9201 37.6302C16.9901 37.3802 17.5901 35.3502 17.7001 34.9002C17.7401 34.7202 17.7401 34.4002 17.7401 33.9802L18.7701 29.5002C19.2701 29.1802 19.8101 29.1902 19.8801 28.7702C20.0001 28.0402 19.7501 26.7702 20.1401 25.7902C20.5201 24.8202 20.2401 22.5702 21.3401 21.4602L22.3101 30.9602C22.3101 30.9602 22.3701 26.3202 22.6101 24.5402C22.7701 23.3802 22.4501 21.3602 22.2101 20.0902C22.5001 19.3502 22.6101 18.5402 22.9001 17.6602C23.3701 16.2002 23.7701 16.3202 24.3701 15.5902C24.9701 14.8602 22.9001 11.4202 22.9001 11.4202L22.9101 11.4102Z" fill="#0064FF"/>
<path d="M22.3203 36.8802C22.3203 36.8802 23.3803 36.3202 23.9403 36.5402C24.5003 36.7602 25.4803 37.1202 25.1703 37.5502C24.8603 37.9802 24.9903 37.9102 24.1403 38.0402C23.2903 38.1702 22.6303 38.2202 22.6303 38.2202C22.6303 38.2202 21.5403 37.1902 22.3203 36.8802Z" fill="#0064FF"/>
<path d="M33.8702 7.83009H19.3702V1.63009C19.3702 1.19009 19.0202 0.840088 18.5802 0.840088H17.4402C17.0002 0.840088 16.6502 1.19009 16.6502 1.63009V7.83009H2.1502C1.3502 7.83009 0.700195 8.48009 0.700195 9.28009C0.700195 10.0801 1.3502 10.7301 2.1502 10.7301H33.8802C34.6802 10.7301 35.3302 10.0801 35.3302 9.28009C35.3302 8.48009 34.6802 7.83009 33.8802 7.83009H33.8702Z" fill="#0064FF"/>
<path d="M33.9504 38.26H2.05043C1.29932 38.26 0.69043 38.8689 0.69043 39.62V39.79C0.69043 40.5411 1.29932 41.15 2.05043 41.15H33.9504C34.7015 41.15 35.3104 40.5411 35.3104 39.79V39.62C35.3104 38.8689 34.7015 38.26 33.9504 38.26Z" fill="#0064FF"/>
</svg>
