<svg width="60" height="60" viewBox="0 0 60 60" fill="none" xmlns="http://www.w3.org/2000/svg">
<path d="M42 0H18C8.05887 0 0 8.05887 0 18V42C0 51.9411 8.05887 60 18 60H42C51.9411 60 60 51.9411 60 42V18C60 8.05887 51.9411 0 42 0Z" fill="white"/>
<path d="M43.0601 21.45V28.87C43.0601 29.09 43.2301 29.32 43.5101 29.32H46.6601C46.8801 29.32 47.1101 29.15 47.1101 28.87V21.45M47.1101 20.72V16.84H49.0801C49.3001 16.84 49.5301 16.67 49.5301 16.39V14.87C49.5301 14.65 49.3601 14.42 49.0801 14.42H36.3201C36.1001 14.42 35.8701 14.59 35.8701 14.87V16.39C35.8701 16.61 36.0401 16.84 36.3201 16.84H43.0701V20.72M44.7601 26.9C44.7601 27.01 44.6501 27.12 44.5401 27.12H44.0301C43.9201 27.12 43.8101 27.01 43.8101 26.9V26.39C43.8101 26.28 43.9201 26.17 44.0301 26.17H44.5401C44.6501 26.17 44.7601 26.28 44.7601 26.39V26.9ZM44.7601 21.67V21.16C44.7601 21.05 44.8701 20.94 44.9801 20.94H45.4901C45.6001 20.94 45.7101 21.05 45.7101 21.16V21.67C45.7101 21.78 45.6001 21.89 45.4901 21.89H44.9801C44.8701 21.95 44.7601 21.83 44.7601 21.67ZM46.4501 24.48C46.4501 24.59 46.3401 24.7 46.2301 24.7H45.7201C45.6101 24.7 45.5001 24.59 45.5001 24.48V23.97C45.5001 23.86 45.6101 23.75 45.7201 23.75H46.2301C46.3401 23.75 46.4501 23.86 46.4501 23.97V24.48Z" fill="#0064FF"/>
<path d="M51.9701 41.75C50.0701 41.96 49.5501 39.83 48.2801 38.69C47.0101 37.55 46.3201 37.55 45.5201 36.16C44.7101 34.77 43.5601 34.77 42.0101 33.88C40.4601 32.99 38.2701 29.31 37.4601 27.93C36.6501 26.55 33.7701 24.26 31.3001 20.1C28.8201 15.94 27.9001 21.73 27.1001 23.12C26.2901 24.51 25.9501 24.67 24.5701 25.29C23.1901 25.91 22.0901 28.09 21.3501 28.58C20.6001 29.07 17.4301 33.23 16.4001 34.63C15.3601 36.04 13.1801 37.46 11.8501 38.03C10.5301 38.6 8.34008 41.21 7.19008 41.74C6.04008 42.27 4.08008 43.98 4.08008 43.98C4.08008 43.98 5.58008 45.28 6.90008 45.28C8.22008 45.28 8.97008 45.77 9.66008 46.84C10.3501 47.91 12.4801 47.81 14.0401 48.38C15.5901 48.95 15.1301 50.01 16.2301 49.6C17.3201 49.19 17.9001 50.09 19.5101 50.74C21.1201 51.39 23.4301 50.33 25.1001 50.33C26.7701 50.33 27.0001 52.45 28.0901 52.78C29.1801 53.11 30.8501 50.82 32.3501 50.01C33.8501 49.19 34.1901 50.83 35.6301 50.83C37.0701 50.83 38.1101 49.28 39.4901 48.47C40.8701 47.65 41.6201 49.2 42.7101 49.2C43.8001 49.2 44.5001 47.08 45.9301 46.84C47.3601 46.6 49.3301 45.45 50.4201 44.63C51.5101 43.81 54.9101 44.14 55.7801 43.98C56.6401 43.82 53.8801 41.53 51.9801 41.74L51.9701 41.75ZM11.1401 44.6C10.8701 44.6 10.6501 44.29 10.6501 43.91C10.6501 43.53 10.8701 43.22 11.1401 43.22C11.4101 43.22 11.6301 43.53 11.6301 43.91C11.6301 44.29 11.4101 44.6 11.1401 44.6ZM14.5701 40.36C14.3001 40.36 14.0801 40.05 14.0801 39.67C14.0801 39.29 14.3001 38.98 14.5701 38.98C14.8401 38.98 15.0601 39.29 15.0601 39.67C15.0601 40.05 14.8401 40.36 14.5701 40.36ZM17.1001 45.29C16.8301 45.29 16.6101 44.98 16.6101 44.6C16.6101 44.22 16.8301 43.91 17.1001 43.91C17.3701 43.91 17.5901 44.22 17.5901 44.6C17.5901 44.98 17.3701 45.29 17.1001 45.29ZM19.7501 33.35C19.7501 32.97 19.9701 32.66 20.2401 32.66C20.5101 32.66 20.7301 32.97 20.7301 33.35C20.7301 33.73 20.5101 34.04 20.2401 34.04C19.9701 34.04 19.7501 33.73 19.7501 33.35ZM20.5801 39.67C20.3101 39.67 20.0901 39.36 20.0901 38.98C20.0901 38.6 20.3101 38.29 20.5801 38.29C20.8501 38.29 21.0701 38.6 21.0701 38.98C21.0701 39.36 20.8501 39.67 20.5801 39.67ZM22.1601 46.31C21.8901 46.31 21.6701 46 21.6701 45.62C21.6701 45.24 21.8901 44.93 22.1601 44.93C22.4301 44.93 22.6501 45.24 22.6501 45.62C22.6501 46 22.4301 46.31 22.1601 46.31ZM24.5501 41.95C24.2801 41.95 24.0601 41.64 24.0601 41.26C24.0601 40.88 24.2801 40.57 24.5501 40.57C24.8201 40.57 25.0401 40.88 25.0401 41.26C25.0401 41.64 24.8201 41.95 24.5501 41.95ZM24.5501 33.35C24.2801 33.35 24.0601 33.04 24.0601 32.66C24.0601 32.28 24.2801 31.97 24.5501 31.97C24.8201 31.97 25.0401 32.28 25.0401 32.66C25.0401 33.04 24.8201 33.35 24.5501 33.35ZM25.0401 28.74C24.7701 28.74 24.5501 28.43 24.5501 28.05C24.5501 27.67 24.7701 27.36 25.0401 27.36C25.3101 27.36 25.5301 27.67 25.5301 28.05C25.5301 28.43 25.3101 28.74 25.0401 28.74ZM27.4601 47.08C27.1901 47.08 26.9701 46.77 26.9701 46.39C26.9701 46.01 27.1901 45.7 27.4601 45.7C27.7301 45.7 27.9501 46.01 27.9501 46.39C27.9501 46.77 27.7301 47.08 27.4601 47.08ZM27.4601 37.1C27.1901 37.1 26.9701 36.79 26.9701 36.41C26.9701 36.03 27.1901 35.72 27.4601 35.72C27.7301 35.72 27.9501 36.03 27.9501 36.41C27.9501 36.79 27.7301 37.1 27.4601 37.1ZM27.6901 31.38C27.4201 31.38 27.2001 31.07 27.2001 30.69C27.2001 30.31 27.4201 30 27.6901 30C27.9601 30 28.1801 30.31 28.1801 30.69C28.1801 31.07 27.9601 31.38 27.6901 31.38ZM31.1701 30.33C31.4401 30.33 31.6601 30.64 31.6601 31.02C31.6601 31.4 31.4401 31.71 31.1701 31.71C30.9001 31.71 30.6801 31.4 30.6801 31.02C30.6801 30.64 30.9001 30.33 31.1701 30.33ZM29.8501 26.4C29.5801 26.4 29.3601 26.09 29.3601 25.71C29.3601 25.33 29.5801 25.02 29.8501 25.02C30.1201 25.02 30.3401 25.33 30.3401 25.71C30.3401 26.09 30.1201 26.4 29.8501 26.4ZM31.1701 42.96C30.9001 42.96 30.6801 42.65 30.6801 42.27C30.6801 41.89 30.9001 41.58 31.1701 41.58C31.4401 41.58 31.6601 41.89 31.6601 42.27C31.6601 42.65 31.4401 42.96 31.1701 42.96ZM31.4001 37.78C31.1301 37.78 30.9101 37.47 30.9101 37.09C30.9101 36.71 31.1301 36.4 31.4001 36.4C31.6701 36.4 31.8901 36.71 31.8901 37.09C31.8901 37.47 31.6701 37.78 31.4001 37.78ZM35.7501 30.32C36.0201 30.32 36.2401 30.63 36.2401 31.01C36.2401 31.39 36.0201 31.7 35.7501 31.7C35.4801 31.7 35.2601 31.39 35.2601 31.01C35.2601 30.63 35.4801 30.32 35.7501 30.32ZM35.2601 44.9C34.9901 44.9 34.7701 44.59 34.7701 44.21C34.7701 43.83 34.9901 43.52 35.2601 43.52C35.5301 43.52 35.7501 43.83 35.7501 44.21C35.7501 44.59 35.5301 44.9 35.2601 44.9ZM36.2401 35.99C35.9701 35.99 35.7501 35.68 35.7501 35.3C35.7501 34.92 35.9701 34.61 36.2401 34.61C36.5101 34.61 36.7301 34.92 36.7301 35.3C36.7301 35.68 36.5101 35.99 36.2401 35.99ZM39.2401 41.93C38.9701 41.93 38.7501 41.62 38.7501 41.24C38.7501 40.86 38.9701 40.55 39.2401 40.55C39.5101 40.55 39.7301 40.86 39.7301 41.24C39.7301 41.62 39.5101 41.93 39.2401 41.93ZM39.7301 35.99C39.4601 35.99 39.2401 35.68 39.2401 35.3C39.2401 34.92 39.4601 34.61 39.7301 34.61C40.0001 34.61 40.2201 34.92 40.2201 35.3C40.2201 35.68 40.0001 35.99 39.7301 35.99ZM44.3001 41.93C44.0301 41.93 43.8101 41.62 43.8101 41.24C43.8101 40.86 44.0301 40.55 44.3001 40.55C44.5701 40.55 44.7901 40.86 44.7901 41.24C44.7901 41.62 44.5701 41.93 44.3001 41.93Z" fill="#0064FF"/>
<path d="M18.6698 11.61H10.7898C10.3598 11.61 10.0098 11.96 10.0098 12.39C10.0098 12.82 10.3598 13.17 10.7898 13.17H11.4698V21.17V27.53C11.4698 29.33 12.9298 30.79 14.7298 30.79C16.5298 30.79 17.9898 29.33 17.9898 27.53V21.48V13.18H18.6698C19.0998 13.18 19.4498 12.83 19.4498 12.4C19.4498 11.97 19.0998 11.62 18.6698 11.62V11.61ZM12.1498 13.17H17.3098V20.68C17.3098 20.68 17.2898 20.68 17.2798 20.68C17.1698 20.66 17.0498 20.63 16.8998 20.59H16.8798C16.7498 20.55 16.5998 20.5 16.4398 20.45C16.3898 20.43 16.3398 20.41 16.2898 20.4C16.1598 20.35 16.0298 20.3 15.8898 20.24C15.8398 20.22 15.7798 20.19 15.7298 20.17C15.5398 20.08 15.3498 19.99 15.1598 19.88C15.0298 19.81 14.8998 19.76 14.7698 19.72C14.7398 19.72 14.6998 19.7 14.6698 19.7C14.5498 19.67 14.4298 19.66 14.3098 19.66C14.3098 19.66 14.2898 19.66 14.2798 19.66C14.2798 19.66 14.2798 19.66 14.2698 19.66C14.1998 19.66 14.1298 19.66 14.0698 19.68C14.0398 19.68 13.9998 19.68 13.9698 19.68C13.8998 19.69 13.8298 19.71 13.7698 19.72C13.7398 19.72 13.6998 19.73 13.6698 19.74C13.5998 19.76 13.5398 19.78 13.4698 19.8C13.4398 19.81 13.3998 19.82 13.3698 19.83C13.3098 19.85 13.2498 19.88 13.1898 19.91C13.1598 19.92 13.1198 19.94 13.0898 19.95C13.0298 19.98 12.9798 20.01 12.9198 20.04C12.8898 20.06 12.8498 20.07 12.8198 20.09C12.7698 20.12 12.7198 20.15 12.6698 20.18C12.6398 20.2 12.5998 20.22 12.5698 20.24C12.5198 20.27 12.4798 20.3 12.4298 20.33C12.3998 20.35 12.3598 20.37 12.3298 20.4C12.2898 20.43 12.2498 20.46 12.2098 20.49C12.1898 20.51 12.1598 20.53 12.1398 20.55V13.18L12.1498 13.17Z" fill="#0064FF"/>
</svg>
