<svg width="102" height="95" viewBox="0 0 102 95" fill="none" xmlns="http://www.w3.org/2000/svg">
<path d="M50.6402 94.7729C37.7802 94.7729 24.9102 94.7829 12.0502 94.7729C4.82015 94.7729 0.760156 90.9229 0.720156 83.7129C0.640156 65.6629 0.640156 47.6129 0.720156 29.5629C0.750156 22.3829 4.85015 18.4929 12.0102 18.4429C15.9502 18.4129 19.8902 18.3929 23.8402 18.4329C26.1102 18.4529 27.2102 17.7929 27.0002 15.1529C26.3102 6.33287 31.9602 -0.147132 41.1702 0.342868C48.0002 0.702868 54.8802 0.72287 61.7002 0.33287C69.2702 -0.10713 74.6902 5.89287 74.9702 13.3229C75.1702 18.4029 75.1902 18.4129 80.4002 18.4329C84.0302 18.4429 87.6702 18.3129 91.2902 18.4629C96.9002 18.6929 100.62 22.1629 101.08 27.7829C101.36 31.1829 101.16 34.6229 101.17 38.0429C101.22 52.9829 101.26 67.9229 101.34 82.8529C101.38 90.7429 97.4501 94.7629 89.5402 94.7729C76.5702 94.7929 63.6002 94.7729 50.6402 94.7729ZM44.4302 43.1029C44.4302 44.4529 44.3502 45.8029 44.4502 47.1429C44.6302 49.6029 43.6102 50.5229 41.1502 50.2429C39.1002 50.0129 37.0102 49.9729 34.9502 50.0929C30.1902 50.3829 30.1902 50.4529 30.1902 55.1329C30.1902 56.6829 30.2902 58.2529 30.1702 59.7929C29.9802 62.1629 31.1002 62.9129 33.3002 62.8329C35.9902 62.7429 38.6902 62.8729 41.3802 62.8129C43.6402 62.7529 44.5502 63.7329 44.4702 65.9929C44.3602 68.8929 44.4902 71.7929 44.4502 74.6929C44.4302 76.6229 45.2902 77.5829 47.2402 77.5829C49.7302 77.5829 52.2202 77.5429 54.7002 77.6229C56.5802 77.6829 57.3102 76.8329 57.2802 75.0129C57.2402 72.0129 57.3402 69.0029 57.2702 65.9929C57.2202 63.7429 58.2402 62.7429 60.4502 62.8229C61.2802 62.8529 62.1102 62.8229 62.9402 62.8229C73.1202 62.6429 71.4502 64.4129 71.7202 53.8329C71.7902 51.1129 70.6102 50.0429 68.0802 50.0329C65.5902 50.0329 63.0802 49.8129 60.6202 50.0629C57.8602 50.3529 57.1702 49.1429 57.2602 46.6929C57.3702 43.9029 57.2102 41.0929 57.2802 38.3029C57.3302 36.2929 56.4502 35.4429 54.4802 35.5829C53.6602 35.6429 52.8202 35.5829 51.9902 35.5829C43.9202 35.6529 44.4402 34.6029 44.4302 43.0829V43.1029ZM51.2202 8.80287C51.2202 8.80287 51.2202 8.79287 51.2202 8.78287C47.8102 8.78287 44.4002 8.75287 40.9902 8.78287C37.4302 8.83287 35.6802 10.2329 35.6402 12.9829C35.6002 15.7429 37.3702 17.3129 40.8602 17.3529C47.6802 17.4229 54.5002 17.4229 61.3202 17.3629C64.3602 17.3329 66.4102 15.5529 66.4802 13.1429C66.5502 10.7429 64.5102 8.90287 61.4502 8.81287C58.0402 8.72287 54.6302 8.79287 51.2202 8.79287V8.80287Z" fill="white"/>
</svg>
