<svg width="122" height="105" viewBox="0 0 122 105" fill="none" xmlns="http://www.w3.org/2000/svg">
<path d="M61.0898 17.1128C75.6998 17.1128 90.2998 17.1128 104.91 17.1128C111.4 17.1128 114.4 20.0728 114.41 26.4928C114.43 43.9328 114.44 61.3828 114.41 78.8228C114.4 84.8428 111.3 87.8828 105.22 87.8828C75.6898 87.9028 46.1698 87.9028 16.6398 87.8828C10.7598 87.8828 7.63979 84.8528 7.62979 78.9828C7.57979 61.3328 7.57979 43.6728 7.62979 26.0228C7.64979 20.1928 10.8098 17.1228 16.6498 17.1128C31.4698 17.0928 46.2798 17.1128 61.0998 17.1128H61.0898ZM39.0198 76.3428C44.0698 76.3428 49.1098 76.3628 54.1598 76.3428C58.7298 76.3228 59.5498 75.5128 59.5598 71.0828C59.5598 69.2928 59.5798 67.5028 59.5398 65.7228C59.3998 58.7928 52.8898 53.5228 46.1798 55.2328C41.4598 56.4328 36.9298 56.4928 32.1998 55.2728C25.3198 53.4928 18.7498 58.7728 18.6898 65.8628C18.6698 67.8628 18.6698 69.8628 18.6898 71.8528C18.7198 75.2728 19.7098 76.3028 23.2298 76.3328C28.4898 76.3928 33.7398 76.3428 38.9998 76.3428H39.0198ZM49.8798 43.0428C49.9098 36.3628 45.1798 31.0228 39.1898 30.9628C33.2398 30.9028 28.2898 36.3028 28.2698 42.8728C28.2398 49.4328 33.1298 54.9328 39.0298 54.9828C44.9898 55.0328 49.8598 49.6828 49.8798 43.0428ZM85.2598 56.7128C89.5698 56.7128 93.8798 56.7628 98.1898 56.6928C101.45 56.6428 103.37 54.9528 103.29 52.3928C103.22 49.9228 101.4 48.3228 98.2898 48.3028C89.5698 48.2528 80.8398 48.2528 72.1198 48.3028C68.8098 48.3228 66.9798 49.9728 67.0498 52.6028C67.1098 55.1128 68.8598 56.6328 72.0198 56.6828C76.4298 56.7528 80.8498 56.7028 85.2598 56.7028V56.7128ZM85.2898 73.1828C89.5998 73.1928 93.9098 73.2328 98.2198 73.1828C101.29 73.1428 103.19 71.5628 103.29 69.1328C103.4 66.5528 101.48 64.7828 98.2398 64.7628C89.5098 64.7128 80.7898 64.7128 72.0598 64.7828C68.7498 64.8028 66.9198 66.4828 67.0098 69.1128C67.0898 71.5928 68.9198 73.1328 72.0398 73.1728C76.4598 73.2328 80.8698 73.1828 85.2898 73.1828ZM85.2398 40.2428C89.5498 40.2428 93.8598 40.2928 98.1698 40.2228C101.49 40.1728 103.36 38.5328 103.29 35.9528C103.23 33.4928 101.36 31.8528 98.2998 31.8328C89.5798 31.7828 80.8498 31.7828 72.1198 31.8328C68.7998 31.8528 66.9598 33.5028 67.0298 36.1228C67.0998 38.7128 68.9298 40.1828 72.3098 40.2228C76.6198 40.2728 80.9298 40.2328 85.2398 40.2228V40.2428Z" fill="white"/>
<path d="M63.3801 15.1629H19.3901C21.3901 11.0929 23.0001 7.13285 25.2201 3.54286C27.0701 0.572855 31.1301 -0.237144 34.5701 1.31286C44.2301 5.67286 53.8301 10.1629 63.4601 14.5929C63.4301 14.7829 63.4001 14.9629 63.3701 15.1529L63.3801 15.1629Z" fill="white"/>
<path d="M58.73 89.8729H102.57C100.72 93.7529 99.2 97.4229 97.27 100.873C95.6 103.863 91.68 105.423 88.47 104.033C78.4 99.6629 68.48 94.9729 58.5 90.4029C58.58 90.2229 58.66 90.0529 58.74 89.8729H58.73Z" fill="white"/>
<path d="M116.3 39.3729C120.69 41.0129 122.63 44.9929 121.24 49.2129C121.01 49.9029 120.68 50.5729 120.38 51.2329C119.16 53.8829 117.93 56.5229 116.3 60.0329V39.3729Z" fill="white"/>
<path d="M5.69992 65.5728C1.24992 64.0228 -0.780079 59.8928 0.909921 55.5428C2.18992 52.2428 3.80992 49.0728 5.69992 45.9128V65.5628V65.5728Z" fill="white"/>
</svg>
