<svg width="91" height="112" viewBox="0 0 91 112" fill="none" xmlns="http://www.w3.org/2000/svg">
<path d="M72.2401 26.6028C70.5601 25.6028 68.9201 24.9628 67.1001 24.9228C65.2401 24.8828 63.5201 25.3128 61.9101 26.2428C60.7901 26.8828 60.2601 26.5828 60.2701 25.3228C60.2701 21.2428 60.2501 17.1728 60.3101 13.0928C60.3201 12.2228 60.0401 12.0728 59.2501 12.0728C43.8801 12.0928 28.5001 12.1028 13.1301 12.0728C12.3101 12.0728 12.0801 12.2728 12.0801 13.1128C12.1101 29.2628 12.1001 45.4128 12.1001 61.5628C12.1001 69.3828 12.1001 77.2028 12.0701 85.0128C12.0701 85.8128 12.2301 86.0628 13.0901 86.0628C25.1101 86.0228 37.1201 86.0328 49.1401 86.0228C50.6501 86.0228 50.6501 86.0228 50.3201 87.5128C49.6001 90.7528 48.8601 93.9828 48.1501 97.2228C48.0301 97.7828 47.8301 98.0128 47.2101 98.0128C33.5601 97.9928 19.9101 98.0128 6.25012 97.9928C2.66012 97.9928 0.120117 95.3628 0.120117 91.7728C0.120117 71.0528 0.120117 50.3328 0.120117 29.6128C0.120117 21.8828 0.120117 14.1528 0.120117 6.41283C0.120117 2.63283 2.65012 0.112835 6.42012 0.112835C26.1401 0.112835 45.8701 0.112834 65.5901 0.0928345C67.8701 0.0928345 69.7301 0.772835 71.0901 2.63284C71.7901 3.58284 72.2001 4.66284 72.2101 5.83284C72.2301 12.6828 72.2201 19.5428 72.2201 26.5828L72.2401 26.6028Z" fill="white"/>
<path d="M70.38 111.333C69.17 106.163 68.01 101.223 66.85 96.2929C66.79 96.2929 66.74 96.2929 66.68 96.2929C65.81 100.153 64.95 104.013 64.07 107.923C63.66 107.803 63.6 107.443 63.45 107.183C62.29 105.143 61.13 103.093 60 101.033C59.72 100.513 59.5 100.473 58.98 100.783C56.51 102.283 54 103.723 51.49 105.193C51.27 104.873 51.48 104.603 51.54 104.333C53.6 95.1229 55.64 85.9129 57.74 76.7129C57.94 75.8529 57.86 75.4129 57.03 74.9729C55.85 74.3529 55.17 73.2629 55 71.9329C54.93 71.4129 54.79 71.3229 54.25 71.4429C50.9 72.1829 48.09 69.3329 48.86 65.9929C48.98 65.4629 48.86 65.3829 48.36 65.2929C44.93 64.6129 43.47 61.0529 45.43 58.1829C45.71 57.7829 45.76 57.6429 45.27 57.3429C42.32 55.5429 42.33 51.4529 45.3 49.6129C45.74 49.3329 45.7 49.2029 45.45 48.8229C43.48 45.8129 44.9 42.4029 48.41 41.6829C48.84 41.5929 48.96 41.4929 48.85 41.0529C47.98 37.6729 50.99 34.7129 54.36 35.5629C54.86 35.6929 54.9 35.4629 54.98 35.0829C55.68 31.6429 59.06 30.1929 62.04 32.0829C62.45 32.3429 62.62 32.4029 62.92 31.9329C64.77 29.1029 68.59 29.0129 70.49 31.7829C70.89 32.3729 71.08 32.3529 71.63 31.9829C74.32 30.1729 77.99 31.7829 78.53 35.0029C78.63 35.5829 78.73 35.6229 79.29 35.5129C82.68 34.8329 85.38 37.6129 84.65 41.0229C84.54 41.5429 84.67 41.5929 85.12 41.6729C88.54 42.3129 90.05 45.8929 88.1 48.7529C87.81 49.1829 87.78 49.3129 88.25 49.6229C91.21 51.6029 91.18 55.3729 88.19 57.3529C87.81 57.6029 87.8 57.7329 88.03 58.1029C90.01 61.2229 88.64 64.5729 85.06 65.3029C84.58 65.4029 84.59 65.5229 84.68 65.9429C85.37 69.4329 82.74 72.0629 79.2 71.4129C78.69 71.3229 78.62 71.4629 78.55 71.9229C78.32 73.3429 77.56 74.4729 76.29 75.1229C75.64 75.4629 75.56 75.8029 75.7 76.4329C76.75 81.0829 77.79 85.7329 78.82 90.3829C80.09 96.1229 81.36 101.863 82.63 107.603C82.65 107.713 82.66 107.823 82.7 108.103C80.91 106.953 79.24 105.883 77.57 104.813C76.83 104.343 76.09 103.883 75.37 103.393C74.95 103.103 74.76 103.153 74.51 103.633C73.2 106.143 71.83 108.623 70.37 111.323L70.38 111.333ZM66.65 68.2029C74.82 68.2029 81.1 61.8529 81.46 54.1929C81.86 45.7729 75.21 38.8829 66.89 38.7629C58.99 38.6529 52.22 45.1629 52.09 52.9529C51.95 61.4029 58.31 68.0629 66.65 68.1929V68.2029Z" fill="white"/>
<path d="M25.4402 59.6328C28.1602 59.6328 30.8702 59.6328 33.5902 59.6328C34.7702 59.6328 35.0602 59.9128 35.0602 61.0428C35.0602 66.3228 35.0602 71.5928 35.0602 76.8728C35.0602 77.9228 34.7402 78.2428 33.7202 78.2428C28.3202 78.2428 22.9302 78.2428 17.5302 78.2428C16.0202 78.2428 15.8502 78.1028 15.8502 76.6028C15.8302 71.3528 15.8502 66.1028 15.8502 60.8528C15.8502 59.8828 16.1202 59.6328 17.1002 59.6328C19.8802 59.6328 22.6502 59.6328 25.4302 59.6328H25.4402Z" fill="white"/>
<path d="M36.2799 24.0928C31.6099 24.0928 26.9399 24.0928 22.2799 24.0928C20.5299 24.0928 18.78 24.0928 17.04 24.1028C16.2 24.1028 15.8199 23.7228 15.8499 22.8928C15.8699 22.2328 15.82 21.5628 15.83 20.9028C15.85 19.8828 16.1199 19.6128 17.1099 19.5828C17.2599 19.5828 17.41 19.5828 17.56 19.5828C29.97 19.5828 42.38 19.5828 54.79 19.5828C56.35 19.5828 56.5 19.7328 56.51 21.2728C56.51 21.8128 56.56 22.3628 56.54 22.9028C56.51 23.8528 56.18 24.1328 55.26 24.1328C48.96 24.1228 42.66 24.1128 36.3599 24.1028C36.3299 24.1028 36.2999 24.1028 36.2699 24.1028L36.2799 24.0928Z" fill="white"/>
<path d="M52.4599 29.3829C51.9599 30.2129 51.4499 30.7229 50.5699 30.9429C48.9899 31.3329 47.6399 32.2029 46.5399 33.4029C46.1799 33.8029 45.7999 33.9329 45.2799 33.9329C35.9599 33.9229 26.6299 33.9329 17.3099 33.9229C16.0899 33.9229 15.8799 33.7229 15.8399 32.5229C15.8199 31.8929 15.8399 31.2529 15.8399 30.6229C15.8299 29.8529 16.1699 29.4329 16.9699 29.4229C19.0699 29.4029 21.1599 29.3729 23.2599 29.3729C30.9799 29.3729 38.7099 29.3729 46.4299 29.3729C48.3999 29.3729 50.3799 29.3729 52.4799 29.3729L52.4599 29.3829Z" fill="white"/>
<path d="M42.58 39.3728C41.44 40.5328 40.57 41.7828 40.14 43.3028C40.01 43.7628 39.69 43.7828 39.31 43.7728C33.14 43.7528 26.96 43.7528 20.79 43.7428C19.53 43.7428 18.26 43.7428 17 43.7428C16.18 43.7428 15.79 43.3228 15.82 42.5028C15.85 41.7528 15.85 40.9928 15.87 40.2428C15.87 39.6228 16.23 39.3128 16.81 39.2328C17.02 39.2028 17.23 39.2228 17.44 39.2228C25.49 39.2228 33.55 39.2228 41.6 39.2228C41.89 39.2228 42.2 39.1428 42.58 39.3828V39.3728Z" fill="white"/>
<path d="M39.3603 49.0228C38.6503 50.4228 38.2703 51.7128 38.2203 53.0828C38.2003 53.6828 37.7803 53.5528 37.4503 53.5528C34.1903 53.5528 30.9303 53.5528 27.6703 53.5528C24.2303 53.5528 20.7903 53.5528 17.3503 53.5528C16.0703 53.5528 15.7903 53.2528 15.8303 52.0128C15.8503 51.4128 15.8503 50.8028 15.8703 50.2028C15.9003 49.3128 16.2003 49.0128 17.0803 49.0128C20.5403 49.0128 24.0103 49.0128 27.4703 49.0128C31.0203 49.0128 34.5803 49.0128 38.1303 49.0128C38.4903 49.0128 38.8503 49.0128 39.3603 49.0128V49.0228Z" fill="white"/>
</svg>
