<svg width="96" height="97" viewBox="0 0 96 97" fill="none" xmlns="http://www.w3.org/2000/svg">
<g clip-path="url(#clip0_2061_291)">
<path d="M87.2196 79.5552V17.3023C87.2196 10.4271 81.6467 4.85168 74.769 4.85168H12.516C5.63831 4.85168 0.0654297 10.4271 0.0654297 17.3023V79.5552C0.0654297 86.428 5.63831 92.0058 12.516 92.0058H74.769C81.6467 92.0058 87.2196 86.4329 87.2196 79.5552ZM18.1188 20.4149H43.1146C45.1764 20.4149 46.8498 22.0858 46.8498 24.1501C46.8498 26.2144 45.1764 27.8853 43.1146 27.8853H18.1188C16.057 27.8853 14.3836 26.2144 14.3836 24.1501C14.3836 22.0858 16.057 20.4149 18.1188 20.4149ZM18.1188 36.6007H43.02C45.0818 36.6007 46.7551 38.2716 46.7551 40.3359C46.7551 42.4002 45.0818 44.0711 43.02 44.0711H18.1188C16.057 44.0711 14.3836 42.4002 14.3836 40.3359C14.3836 38.2716 16.057 36.6007 18.1188 36.6007ZM69.1662 76.4426H18.1188C16.057 76.4426 14.3836 74.7692 14.3836 72.7074C14.3836 70.6406 16.057 68.9722 18.1188 68.9722H69.1662C71.228 68.9722 72.9014 70.6406 72.9014 72.7074C72.9014 74.7692 71.228 76.4426 69.1662 76.4426ZM69.1662 60.2568H18.1188C16.057 60.2568 14.3836 58.5835 14.3836 56.5216C14.3836 54.4548 16.057 52.7865 18.1188 52.7865H69.1662C71.228 52.7865 72.9014 54.4548 72.9014 56.5216C72.9014 58.5835 71.228 60.2568 69.1662 60.2568ZM74.4179 35.6719H69.7389V40.3508C69.7389 42.2309 68.215 43.7573 66.335 43.7573C64.4524 43.7573 62.931 42.2333 62.931 40.3508V35.6719H58.2495C56.3645 35.6719 54.8431 34.1479 54.8431 32.2654C54.8431 30.3829 56.3645 28.8589 58.2495 28.8589H62.931V24.1775C62.931 22.2975 64.4524 20.7735 66.335 20.7735C68.215 20.7735 69.7389 22.295 69.7389 24.1775V28.8589H74.4179C76.3029 28.8589 77.8269 30.3829 77.8269 32.2654C77.8293 34.1504 76.3029 35.6719 74.4179 35.6719ZM95.935 25.928V80.9945C95.935 87.0729 91.007 92.0058 84.9212 92.0058H78.7133C85.591 92.0058 91.1639 86.4329 91.1639 79.5552V17.3023C91.1639 17.1404 91.1191 16.9885 91.1141 16.8267C94.0226 18.8063 95.935 22.1431 95.935 25.928Z" fill="white"/>
</g>
<defs>
<clipPath id="clip0_2061_291">
<rect width="95.8696" height="95.8696" fill="white" transform="translate(0.0654297 0.493958)"/>
</clipPath>
</defs>
</svg>
