<svg width="741" height="561" viewBox="0 0 741 561" fill="none" xmlns="http://www.w3.org/2000/svg">
<g clip-path="url(#clip0_2060_263)">
<path d="M590.505 306.63C590.43 305.261 590.293 304.079 589.981 303.494C589.707 303.008 589.371 302.287 589.084 301.453C588.997 301.191 588.898 300.918 588.835 300.656C588.76 300.395 588.698 300.146 588.661 299.897C588.586 299.561 588.524 299.238 588.499 298.927C588.462 298.615 588.437 298.342 588.437 298.043C588.437 297.744 588.462 297.446 588.499 297.135C588.848 294.758 589.857 292.829 589.296 290.215C588.736 287.615 588.275 280.583 589.421 278.978C590.542 277.41 590.318 275.021 589.421 273.092C589.321 272.88 589.271 272.631 589.246 272.37C589.072 270.192 591.065 266.297 587.814 263.559C584.201 260.498 582.831 253.007 579.991 250.966C577.138 248.925 575.22 245.403 573.961 243.126C572.716 240.861 572.255 241.894 570.436 240.077C568.63 238.247 568.63 231.453 566.699 230.308C564.756 229.175 563.846 229.623 562.713 228.839C561.567 228.043 562.04 229.972 562.713 224.409C563.398 218.847 562.949 213.744 562.04 212.151C561.131 210.571 562.277 209.551 560.558 210.335C558.851 211.131 558.627 211.927 557.393 211.131C556.123 210.335 555.562 205.817 552.822 207.049C550.106 208.306 547.615 211.131 547.378 208.194C547.154 205.232 545.559 197.977 544.774 193.435C543.977 188.893 543.068 183.803 539.655 180.953C536.254 178.116 538.87 171.645 535.456 169.716C532.043 167.775 530.474 168.82 529.203 165.983C527.97 163.133 528.194 163.021 525.341 161.888C524.594 161.59 523.909 161.241 523.298 160.843C521.617 159.76 520.483 158.367 519.898 156.786C519.088 154.633 518.315 155.206 515.475 154.173C512.635 153.152 516.148 153.501 512.05 151.447C507.976 149.407 507.627 148.847 505.709 146.457C503.766 144.08 503.08 140.322 503.529 138.393C503.753 137.485 503.878 136.688 503.703 135.954C503.541 135.145 503.018 134.399 501.947 133.627C499.904 132.171 499.343 131.474 500.24 127.28C501.162 123.087 501.162 121.27 500.352 117.972C499.568 114.687 500.24 112.31 499.68 110.493C499.094 108.663 499.568 111.725 496.827 108.788C494.111 105.839 492.753 104.694 492.753 102.429C492.753 100.164 493.214 100.052 493.314 96.8661C493.426 93.6928 492.529 92.3364 491.607 89.835C490.711 87.3337 490.125 85.9773 491.271 83.4759C492.417 80.987 494.336 77.3533 491.944 75.6484C489.564 73.9559 487.409 73.371 486.724 71.3301C486.052 69.2893 480.707 63.515 480.707 63.515C480.707 63.515 477.518 66.2279 475.936 66.5764C474.354 66.9124 470.941 69.4137 469.347 66.1159C467.777 62.843 467.416 56.1355 467.191 52.5017C466.967 48.8679 464.588 47.0635 465.946 44.8981C467.304 42.7452 466.855 41.6128 465.834 40.9408C464.8 40.2564 463.666 40.5924 464.924 37.867C466.17 35.1417 464.75 30.5995 462.919 30.5995C461.087 30.5995 457.936 32.0804 460.203 29.3053C462.483 26.5177 463.28 24.0786 460.664 22.9461C458.048 21.8013 457.026 22.4981 457.487 20.619C457.936 18.7399 460.377 12.8412 457.874 9.33192C455.382 5.81014 455.88 0.197693 453.339 0.0856934C453.339 0.0856934 448.12 0.0856934 447.322 5.18792C446.513 10.2901 448.331 12.219 444.245 16.9852C440.16 21.739 437.768 22.5479 437.768 27.8741C437.768 33.2004 441.629 34.3452 438.802 37.0706C435.974 39.7959 434.143 41.6128 434.604 45.4706C435.04 49.3408 432.324 49.5648 432.785 52.9497C433.221 56.3595 430.281 58.8608 432.436 62.4946C434.604 66.1159 433.806 72.475 433.221 74.4164C432.66 76.3328 430.393 80.4146 430.393 83.8119C430.393 87.2093 428.114 88.0181 427.217 92.5604C426.295 97.0901 418.135 117.188 408.917 117.412C399.711 117.623 396.771 112.982 395.401 112.31C394.043 111.625 395.625 110.269 393.819 107.991C392 105.727 390.406 101.408 384.85 101.408C379.294 101.408 376.553 99.5915 375.071 97.7746C375.059 97.7497 375.021 97.7248 374.996 97.6875C374.959 97.6253 374.909 97.5755 374.847 97.5133C374.224 96.8039 373.352 96.0075 372.555 95.2235C372.331 94.9995 372.106 94.7755 371.907 94.5515L371.87 94.5017C371.546 94.1533 371.247 93.8172 371.023 93.4937C370.861 93.2697 370.736 93.0581 370.649 92.8466C370.562 92.6226 370.512 92.4359 370.512 92.2493C370.512 92.1995 370.524 92.1497 370.524 92.1124C370.748 90.6315 368.145 91.0795 364.856 88.9266C361.555 86.7737 358.491 83.5879 356.672 83.5879C354.853 83.5879 356.896 81.547 353.383 80.4146C349.858 79.2821 348.949 80.1906 347.366 78.9461C345.759 77.6892 343.505 72.363 340.889 70.9941C338.273 69.6377 336.902 68.7292 336.79 66.9248C336.678 65.0955 340.092 61.0137 340.092 58.7364C340.092 56.459 339.979 52.6137 341.561 50.6848C343.156 48.7559 345.884 47.2875 344.19 45.6946C342.483 44.1017 341.674 43.6537 342.583 42.1853C343.505 40.7044 346.233 39.7959 349.746 38.4395C353.271 37.0706 351.228 33.8973 352.823 32.4164C354.392 30.9355 355.302 28.5586 357.37 26.0573C359.4 23.5684 360.995 18.6901 357.37 18.9141C353.72 19.1381 351.34 20.619 350.431 19.6981C349.509 18.8021 349.634 14.8199 348.375 18.6901C347.13 22.5479 346.694 24.6012 345.423 23.6804C344.19 22.7844 346.233 20.955 344.29 20.059C342.371 19.1381 350.194 14.9444 351.39 12.555C352.586 10.1781 352.636 10.4644 354.965 8.36125C357.295 6.25814 360.147 2.58703 357.706 2.6368C355.264 2.68658 354.853 4.56569 353.084 6.25814C351.34 7.96303 346.395 10.2901 344.29 12.0448C342.197 13.8119 338.098 17.8439 336.678 19.1381C335.271 20.4448 330.375 21.2413 330.088 20.7435C329.814 20.2208 329.017 16.9852 327.036 16.8235C325.043 16.6493 323.449 17.3212 322.427 17.9061C321.406 18.4661 318.055 18.4661 315.277 16.9852C312.499 15.5292 313.221 11.0866 309.422 12.5052C305.61 13.9239 304.028 14.8199 303.231 13.6501C302.434 12.443 301.985 11.3728 300.166 11.547C298.348 11.7088 296.803 10.9124 296.753 10.2901C296.703 9.66792 296.467 7.16658 294.025 7.73903C291.583 8.29903 289.603 10.0661 289.316 8.47325C289.042 6.8928 286.314 1.33014 285.23 2.35058C284.159 3.37103 280.571 3.9808 279.774 3.9808C278.977 3.9808 275.227 3.0848 277.283 5.58614C279.326 8.07503 283.175 8.2368 284.371 9.10792C285.579 9.94169 292.393 14.0981 289.254 16.8235C286.14 19.5364 285.455 22.7221 282.216 21.739C278.989 20.7808 278.69 19.1381 276.996 20.395C275.29 21.6395 273.085 22.4981 272.101 21.739C271.141 21.0173 269.597 18.7399 268.476 19.1381C267.342 19.5364 266.657 20.059 264.215 20.4448C261.774 20.843 260.353 18.8021 259.955 21.3533C259.556 23.9044 258.709 24.9373 257.8 25.099C256.89 25.2608 255.807 24.1408 255.308 26.6795C254.798 29.243 253.427 30.0395 251.658 31.4084C249.902 32.7524 247.062 33.5612 247.51 34.9177C247.984 36.2866 250.475 41.7124 249.167 42.5212C247.871 43.3177 243.723 42.5835 243.549 44.8981C243.387 47.2377 244.334 52.1657 241.718 52.8999C239.114 53.6466 235.651 58.3506 236.797 61.1755C237.918 64.0128 240.41 67.4848 239.675 68.9533C239.55 69.2146 239.077 69.2768 238.367 69.2021C238.055 69.1773 237.706 69.1399 237.308 69.0404C236.212 68.8661 234.841 68.5177 233.371 68.1817C231.042 67.6341 228.488 67.0866 226.47 67.0866C225.436 67.0866 224.552 67.2359 223.904 67.5968C220.254 69.6377 216.405 73.035 216.629 70.7701C216.853 68.4928 218.448 66.1159 217.875 64.9959C217.302 63.851 201.519 53.1737 201.519 53.1737C201.519 53.1737 198.467 47.5115 195.377 49.5648C192.313 51.6057 192.774 54.2066 191.403 55.115C190.058 56.0235 189.373 51.6057 185.611 54.3186C181.861 57.0439 181.301 58.1764 180.728 59.9933C180.155 61.8101 177.999 61.0137 175.383 62.0341C172.78 63.0546 166.863 66.2279 167.897 68.0573C168.906 69.8741 171.073 72.0146 170.276 72.811C169.491 73.6199 166.078 71.915 164.247 74.6279C162.441 77.3533 160.746 77.2288 159.152 77.9133C157.557 78.6101 155.278 79.1701 156.984 81.547C158.691 83.9364 157.782 84.8573 157.782 85.6413C157.782 86.4253 160.634 88.9266 160.049 90.6315C159.488 92.3364 157.894 91.0795 157.782 93.0084C157.669 94.9497 157.109 95.9701 156.2 95.9701C155.29 95.9701 150.743 95.0492 148.14 95.6217C145.511 96.1941 143.468 95.1737 142.21 94.9497C140.977 94.7133 137.227 94.2653 140.416 96.5301C143.593 98.8075 144.739 97.2146 144.153 99.9275C143.593 102.665 148.352 103.785 148.7 106.063C149.049 108.327 149.161 110.269 147.791 110.704C146.421 111.165 146.757 112.758 144.839 112.198C142.908 111.625 140.068 111.165 139.27 107.767C138.473 104.345 137.452 97.3266 135.284 100.164C133.141 103.014 122.578 115.707 123.475 119.229C124.384 122.738 127.685 126.148 126.091 128.189C124.496 130.23 120.074 134.087 117.794 139.426C115.539 144.752 112.687 152.816 106.097 156.786C99.5072 160.756 90.4259 164.502 87.486 165.062C84.5213 165.647 81.1205 163.942 79.0775 165.174C77.0096 166.418 75.3279 170.288 71.7901 171.085C68.2647 171.869 64.0667 168.695 62.2604 172.217C60.4416 175.739 58.1744 177.22 58.1744 177.892C58.1744 178.564 50.4386 176.075 44.8827 181.75C39.3268 187.412 36.4741 188.445 30.4573 194.231C24.4281 200.018 22.1734 197.853 19.3331 203.067C16.4805 208.306 10.4637 218.287 9.89064 215.897C9.31762 213.52 11.4852 206.153 8.98127 208.306C6.48985 210.459 2.05512 216.47 3.7742 221.572C5.46837 226.687 6.26562 227.807 4.67111 231.901C3.0766 235.983 1.38243 243.026 2.2918 247.332C3.18871 251.65 6.82619 255.047 9.44219 259.129C12.0582 263.223 21.6003 277.858 19.5574 278.879C17.5019 279.911 15.2472 277.062 13.5281 275.929C11.8215 274.784 10.7004 272.868 10.3391 271.723C10.0028 270.578 8.4207 269.01 8.4207 270.827C8.4207 272.644 12.1578 278.543 13.5281 280.807C14.8984 283.085 14.5371 286.706 13.1918 284.105C11.8215 281.479 10.3391 278.978 8.19648 277.746C6.04139 276.502 4.89534 275.593 4.559 274C4.2102 272.407 -0.21208 265.824 0.0121486 269.122C0.248834 272.407 5.13202 279.687 7.17499 283.296C9.21796 286.943 9.89064 287.839 15.9199 292.941C21.9367 298.055 21.7125 303.842 24.3284 308.621C26.932 313.375 31.7031 315.067 32.6124 319.273C33.5218 323.467 37.5081 324.5 37.6202 328.793C37.7198 333.112 38.9656 339.471 41.021 344.125C43.064 348.767 48.1838 359.556 51.3604 361.709C54.537 363.862 55.683 362.854 55.7827 364.546C55.8948 366.251 53.9764 373.967 54.537 378.733C55.11 383.499 58.6229 389.746 57.2526 393.031C55.8948 396.329 52.0331 397.225 50.8995 398.022C49.7659 398.818 47.4862 408.687 50.8995 411.063C54.3127 413.453 58.0623 409.831 60.2174 414.025C62.3849 418.219 81.1205 422.637 88.1587 419.7C95.197 416.751 102.584 410.727 103.493 408.923C104.403 407.094 105.985 406.521 107.916 406.521C109.847 406.521 112.35 401.083 113.833 398.358C115.303 395.645 121.556 395.744 124.048 395.856C126.539 395.981 126.651 394.512 129.616 394.512C132.581 394.512 138.71 391.563 141.425 391.675C144.153 391.787 143.929 391.202 146.196 393.143C148.476 395.072 152.001 392.011 155.066 391.787C158.13 391.563 159.6 392.919 161.531 392.919C163.462 392.919 162.104 391.899 165.966 391.787C169.84 391.675 172.219 384.283 172.319 382.018C172.444 379.753 174.15 375.783 174.935 375.323C175.72 374.875 182.771 371.577 185.387 369.437C188.003 367.271 193.11 361.485 200.26 362.169C207.423 362.854 216.056 360.813 218.784 359.78C221.5 358.772 221.961 357.503 225.137 357.975C228.326 358.436 231.391 353.993 234.331 352.077C236.324 350.77 239.039 349.986 241.381 349.663C241.63 349.65 241.88 349.625 242.116 349.6C242.154 349.588 242.179 349.588 242.216 349.588C242.478 349.576 242.739 349.551 243.001 349.551C243.225 349.538 243.424 349.538 243.636 349.538C243.761 349.538 243.873 349.551 243.997 349.551C244.147 349.563 244.296 349.563 244.446 349.575C247.062 349.799 254.897 348.941 257.737 348.095C258.236 347.945 258.647 347.883 259.033 347.846C259.606 347.784 260.079 347.808 260.515 347.846C261.039 347.896 261.537 347.933 262.11 347.808C262.309 347.784 262.509 347.721 262.733 347.647C262.945 347.572 263.181 347.472 263.43 347.348C263.555 347.286 263.68 347.223 263.817 347.136C264.776 346.589 265.635 346.128 266.395 345.767C267.653 345.17 268.625 344.859 269.31 344.871H269.497C269.497 344.871 269.597 344.896 269.634 344.909C270.506 345.108 273.807 346.651 276.672 348.294C276.984 348.468 277.27 348.655 277.569 348.829C277.843 348.991 278.13 349.14 278.391 349.302C278.391 349.314 278.404 349.314 278.404 349.314C278.665 349.476 278.927 349.638 279.151 349.799C279.251 349.862 279.338 349.924 279.438 349.986C280.036 350.397 280.522 350.783 280.845 351.106C281.082 351.33 281.331 351.542 281.58 351.728C281.58 351.728 281.589 351.733 281.605 351.741C281.967 352.015 282.34 352.226 282.714 352.413C282.739 352.425 282.776 352.45 282.801 352.463C284.458 353.284 286.202 353.471 286.875 353.421C287.336 353.396 288.257 352.923 289.291 352.736C289.752 352.662 290.238 352.637 290.711 352.749C290.911 352.799 291.123 352.886 291.322 352.985C291.334 352.985 291.359 352.985 291.372 353.01H291.384C291.384 353.01 291.459 353.06 291.496 353.085C291.907 353.346 292.281 353.719 292.617 354.292C292.742 354.503 292.879 354.703 293.004 354.902C293.066 355.001 293.128 355.101 293.19 355.2C293.327 355.399 293.452 355.574 293.589 355.736C293.602 355.748 293.614 355.773 293.626 355.798H293.639C293.776 355.972 293.925 356.134 294.075 356.271C294.748 356.943 295.532 357.328 296.579 357.527C297.526 357.702 298.684 357.739 300.229 357.689C302.745 357.59 303.443 357.415 303.841 357.814C303.866 357.826 303.891 357.851 303.916 357.876L303.953 357.913C304.227 358.262 304.414 358.921 305.099 360.116C305.535 360.875 305.934 361.423 306.32 361.821C307.454 363.04 308.301 363.015 308.575 363.687C308.911 364.608 306.52 366.985 309.073 370.047C309.771 370.88 310.232 371.552 310.593 372.1C311.49 373.519 311.664 374.103 313.271 374.551C313.321 374.564 313.359 374.576 313.396 374.589C313.433 374.601 313.471 374.601 313.508 374.614C315.813 375.174 316.622 374.116 316.797 376.12C316.959 378.16 315.327 379.641 319.425 382.703C320.795 383.723 321.829 384.408 322.627 384.905C324.221 385.901 324.819 386.187 324.931 387.033C324.969 387.369 325.006 387.743 325.043 388.141C325.13 389.174 325.305 390.344 326.164 391.513C326.389 391.812 326.501 392.322 326.563 392.969C326.762 395.234 326.314 399.104 327.834 400.498C328.182 400.809 328.618 401.021 329.192 401.033C333.041 401.145 335.445 400.237 335.445 398.768C335.445 397.424 338.534 394.201 339.693 392.111C339.805 391.899 339.917 391.688 339.979 391.513C340.278 390.742 340.54 389.821 340.914 388.937C341.4 387.83 342.072 386.809 343.206 386.287C343.567 386.125 343.953 385.988 344.414 385.938C347.466 385.602 345.647 383.885 350.643 381.744C350.767 381.695 350.867 381.632 350.979 381.583C353.819 380.276 355.601 378.521 356.498 377.028C356.983 376.219 357.233 375.497 357.22 374.975C357.22 374.85 357.208 374.751 357.183 374.651C356.971 373.842 357.382 373.469 357.83 373.071C357.868 373.021 357.918 372.983 357.943 372.959C357.992 372.909 358.03 372.871 358.067 372.834C358.08 372.822 358.092 372.809 358.104 372.784C358.291 372.61 358.466 372.411 358.553 372.15C358.578 372.087 358.603 372.013 358.628 371.913C358.653 371.839 358.678 371.727 358.69 371.615C358.702 371.565 358.715 371.527 358.715 371.49C358.727 371.465 358.727 371.453 358.727 371.44C358.727 371.428 358.727 371.415 358.727 371.403C358.727 371.353 358.74 371.316 358.752 371.254C358.765 371.204 358.777 371.154 358.777 371.104C358.79 371.005 358.815 370.893 358.827 370.768C358.839 370.719 358.852 370.669 358.864 370.619C358.927 370.221 358.989 369.785 359.064 369.337C359.101 369.014 359.151 368.703 359.201 368.391C359.226 368.18 359.263 367.993 359.288 367.807C359.3 367.782 359.3 367.769 359.3 367.757C359.338 367.545 359.388 367.359 359.425 367.184C359.45 367.047 359.475 366.935 359.512 366.836C359.525 366.774 359.537 366.699 359.562 366.649C359.574 366.587 359.587 366.525 359.599 366.475C359.612 366.45 359.612 366.425 359.624 366.4C359.637 366.375 359.637 366.351 359.649 366.326C359.674 366.263 359.699 366.201 359.724 366.151C359.761 366.052 359.811 365.965 359.848 365.915C360.409 365.231 361.991 361.597 361.48 366.027C361.318 367.383 361.318 368.205 361.368 368.777C361.368 368.827 361.368 368.877 361.368 368.914C361.381 369.126 361.406 369.3 361.431 369.462C361.431 369.536 361.455 369.611 361.468 369.686C361.48 369.76 361.493 369.823 361.493 369.885C361.543 370.308 361.568 370.694 361.356 371.515C361.318 371.639 361.281 371.776 361.244 371.926C361.219 371.975 361.219 372.025 361.194 372.087V372.125C361.144 372.287 361.107 372.461 361.094 372.623C360.92 374.676 362.975 376.829 362.776 378.82C362.714 379.455 362.427 380.077 361.754 380.674C361.555 380.836 361.368 381.01 361.206 381.172C361.156 381.222 361.119 381.271 361.069 381.309C360.957 381.433 360.833 381.545 360.72 381.67L360.471 381.943L360.26 382.18C360.11 382.354 359.973 382.516 359.836 382.703C359.811 382.74 359.786 382.777 359.749 382.815C359.649 382.951 359.55 383.088 359.437 383.225C359.4 383.263 359.388 383.312 359.35 383.35C359.3 383.437 359.226 383.511 359.188 383.599C359.188 383.623 359.163 383.636 359.151 383.661C359.138 383.661 359.126 383.673 359.126 383.686C359.126 383.698 359.114 383.698 359.114 383.711C359.114 383.735 359.076 383.748 359.064 383.773C358.914 383.997 358.777 384.233 358.653 384.47C358.603 384.569 358.553 384.656 358.516 384.756C358.428 384.905 358.354 385.055 358.279 385.204C358.192 385.378 358.105 385.54 358.042 385.727C358.042 385.727 358.03 385.751 358.03 385.764C357.905 386.05 357.806 386.349 357.693 386.647C357.619 386.859 357.544 387.095 357.494 387.332C357.407 387.606 357.345 387.867 357.282 388.153C357.22 388.352 357.183 388.589 357.145 388.813C357.108 388.975 357.095 389.149 357.071 389.323C357.033 389.497 357.008 389.672 356.983 389.846C356.834 391.103 356.547 392.347 356.248 393.529C355.688 395.757 355.052 397.785 355.052 399.266C355.052 400.971 354.928 402.365 354.529 402.999C354.392 403.199 354.23 403.335 354.031 403.36C353.906 403.373 353.67 403.373 353.358 403.36C352.436 403.335 350.879 403.236 349.559 403.385C348.699 403.485 347.952 403.684 347.553 404.07C347.553 404.07 347.549 404.078 347.541 404.095C347.454 404.169 347.379 404.269 347.329 404.381C347.229 404.617 347.08 404.866 346.918 405.14C346.893 405.177 346.881 405.202 346.856 405.24C346.769 405.389 346.656 405.538 346.557 405.687C346.083 406.384 345.523 407.143 345.124 407.803C345.124 407.803 345.099 407.865 345.087 407.903C344.726 408.525 344.526 409.072 344.676 409.458C344.701 409.495 344.701 409.558 344.726 409.595C344.763 409.657 344.838 409.67 344.887 409.72C345.797 410.429 348.811 409.122 350.979 408.799C352.162 408.624 352.636 408.475 353.196 408.4C353.695 408.326 354.268 408.301 355.513 408.351C355.75 408.363 355.987 408.388 356.223 408.425C356.273 408.425 356.311 408.425 356.361 408.438C356.385 408.438 356.41 408.438 356.435 408.438C356.448 408.438 356.473 408.45 356.485 408.45C356.871 408.512 357.257 408.587 357.606 408.662C357.855 408.711 358.092 408.761 358.329 408.786C358.565 408.811 358.79 408.823 358.989 408.799C359.051 408.799 359.126 408.786 359.188 408.774C359.213 408.774 359.226 408.761 359.251 408.761C359.325 408.736 359.4 408.724 359.475 408.699C359.649 408.624 359.799 408.512 359.936 408.363H359.948C360.01 408.276 360.085 408.189 360.135 408.077C360.16 408.027 360.185 407.965 360.235 407.878C360.247 407.815 360.272 407.778 360.284 407.716C360.309 407.654 360.322 407.591 360.347 407.529C360.359 407.467 360.372 407.392 360.384 407.318C360.384 407.293 360.397 407.28 360.397 407.255C360.409 407.218 360.409 407.156 360.422 407.106C360.434 407.056 360.446 407.007 360.446 406.957C360.459 406.857 360.471 406.758 360.471 406.646C360.484 406.447 360.509 406.223 360.509 405.961C360.509 402.999 360.608 401.232 360.82 399.888C360.858 399.689 360.895 399.49 360.932 399.303C361.007 398.93 361.082 398.582 361.181 398.246C361.206 398.184 361.206 398.109 361.219 398.034C361.244 397.91 361.269 397.798 361.281 397.661C361.293 397.561 361.294 397.462 361.306 397.35C361.356 396.367 361.156 395.259 361.231 394.587V394.562C361.244 394.463 361.269 394.363 361.294 394.288C361.306 394.263 361.318 394.251 361.331 394.239C361.356 394.164 361.381 394.114 361.431 394.064C361.468 394.002 361.543 393.965 361.63 393.952C361.979 393.865 362.477 393.903 362.988 394.102C363.847 394.45 364.744 395.271 364.993 396.728C365.093 397.35 365.068 397.947 365.043 398.507C365.018 399.229 364.981 399.876 365.217 400.423C365.467 401.008 366.04 401.481 367.26 401.817C368.02 402.029 368.681 402.203 369.254 402.377C371.135 402.925 371.994 403.373 371.571 404.717C371.346 405.439 370.636 406.447 369.789 407.554C369.602 407.815 369.403 408.064 369.191 408.338C368.917 408.687 368.643 409.035 368.369 409.383C367.958 409.906 367.572 410.404 367.223 410.889C367.211 410.902 367.198 410.927 367.186 410.939C366.824 411.424 366.513 411.897 366.289 412.32C366.015 412.831 365.703 413.353 365.429 413.851C365.317 414.063 365.205 414.262 365.118 414.448C364.52 415.68 364.333 416.713 365.678 417.012C365.977 417.074 366.351 417.099 366.812 417.087C367.609 417.062 368.344 416.9 369.054 416.688C369.44 416.576 369.827 416.439 370.188 416.278C372.293 415.394 374.099 414.038 375.843 413.503C376.317 413.366 376.715 413.191 377.039 413.017H377.052C377.052 413.017 377.064 413.005 377.077 413.005C377.401 412.818 377.675 412.644 377.886 412.457C378.285 412.109 378.509 411.773 378.621 411.549C378.609 411.574 378.596 411.611 378.596 411.636C378.572 411.711 378.547 411.785 378.522 411.86C378.497 411.922 378.484 411.959 378.472 412.022C378.397 412.221 378.322 412.457 378.26 412.719C378.21 412.93 378.148 413.142 378.098 413.391C378.098 413.415 378.073 413.44 378.073 413.478C378.061 413.515 378.048 413.54 378.048 413.59C378.023 413.664 378.011 413.739 377.986 413.826C377.986 413.839 377.974 413.851 377.974 413.863C377.949 413.963 377.936 414.063 377.924 414.162C377.911 414.212 377.911 414.249 377.899 414.287C377.886 414.374 377.861 414.461 377.849 414.56C377.824 414.672 377.812 414.784 377.787 414.896C377.787 414.921 377.787 414.946 377.787 414.971C377.774 415.12 377.749 415.27 377.737 415.419C377.7 415.743 377.662 416.079 377.637 416.415V416.502C377.538 417.771 377.612 419.128 378.011 420.372C378.011 420.384 378.011 420.397 378.011 420.397C378.26 421.206 378.472 421.828 378.684 422.351C378.758 422.537 378.821 422.699 378.883 422.848C378.895 422.861 378.895 422.873 378.908 422.886C378.97 423.035 379.032 423.172 379.082 423.296C379.12 423.359 379.145 423.408 379.169 423.471C379.257 423.645 379.331 423.807 379.406 423.956C379.506 424.155 379.605 424.342 379.693 424.503C379.78 424.665 379.855 424.827 379.929 425.014C379.979 425.138 380.004 425.25 380.041 425.375C380.054 425.437 380.079 425.512 380.104 425.574C380.104 425.661 380.129 425.748 380.154 425.823C380.266 426.47 380.727 427.179 381.25 428.025C381.574 428.56 381.935 429.145 382.259 429.792C382.508 430.29 382.745 430.85 382.932 431.435C383.131 432.082 383.28 432.779 383.33 433.538C383.529 436.886 384.09 438.516 383.642 440.37C383.592 440.582 383.529 440.806 383.442 441.042C383.392 441.179 383.355 441.341 383.33 441.503C383.081 443.257 384.339 446.443 386.233 449.392C386.93 450.487 387.715 451.545 388.55 452.491C390.381 454.557 390.331 455.963 390.618 456.983C390.618 457.008 390.618 457.021 390.642 457.033C390.642 457.058 390.655 457.083 390.667 457.108C390.917 457.867 391.427 458.402 393.209 458.838C393.906 459 394.604 459.174 395.301 459.36C395.463 459.398 395.638 459.447 395.812 459.485C396.497 459.659 397.17 459.846 397.805 460.032C397.843 460.045 397.868 460.045 397.905 460.057C397.967 460.07 398.017 460.095 398.079 460.107C398.229 460.157 398.378 460.207 398.528 460.256C399.076 460.418 399.549 460.592 399.985 460.767C400.122 460.816 400.259 460.866 400.384 460.916C400.558 460.991 400.733 461.065 400.882 461.14C400.945 461.177 400.994 461.215 401.057 461.24C401.144 461.289 401.231 461.339 401.306 461.389C401.343 461.401 401.368 461.414 401.405 461.439C401.891 461.725 402.215 462.036 402.302 462.359C402.639 463.728 401.841 466.217 405.13 466.217C408.419 466.217 410.811 462.583 413.09 465.309C415.357 468.034 417.064 468.607 421.611 470.075C422.944 470.511 423.99 470.672 424.875 470.772C425.174 470.797 425.448 470.822 425.709 470.847C427.279 470.971 428.188 471.033 429.21 472.688C430.779 475.19 431.016 476.148 433.657 474.456C433.894 474.306 434.155 474.132 434.442 473.933C434.778 473.696 435.089 473.472 435.376 473.261C437.955 471.344 438.553 470.361 441.829 468.831C445.466 467.126 448.294 463.778 448.294 462.77C448.294 461.862 452.031 460.804 452.853 461.986C452.978 462.16 453.028 462.372 453.015 462.646C452.853 464.662 448.792 468.893 449.465 470.199C449.515 470.287 449.577 470.361 449.664 470.423C450.91 471.257 454.311 469.465 455.307 470.137C455.457 470.237 455.544 470.374 455.569 470.585C455.768 472.079 457.139 474.356 458.247 474.891C458.397 474.966 458.559 475.016 458.696 475.016C459.119 475.016 459.493 475.202 459.892 475.526C460.564 476.061 461.287 476.994 462.383 478.139C462.906 478.674 463.342 478.973 463.716 479.159C464.364 479.483 464.812 479.471 465.136 479.545C465.261 479.583 465.36 479.62 465.448 479.72C465.908 480.23 468.35 484.087 469.708 483.179C470.343 482.756 471.078 482.607 471.564 482.37C472.112 482.109 472.324 481.723 471.589 480.69C470.567 479.247 469.608 477.803 469.795 477.467C469.845 477.367 470.044 477.38 470.393 477.567C471.813 478.301 476.41 477.168 477.892 476.148C479.362 475.127 486.176 469.739 487.708 468.943C487.92 468.831 488.107 468.694 488.269 468.544C488.867 467.997 489.34 467.263 490.711 466.889C491.769 466.591 493.351 466.516 495.943 466.902C498.957 467.35 502.707 467.039 506.282 466.342C509.745 465.67 513.021 464.637 515.338 463.567C516.135 463.206 516.821 462.832 517.356 462.471C518.34 461.812 519.113 461.227 519.736 460.692C521.181 459.435 521.679 458.44 521.492 457.357C521.467 457.158 521.417 456.946 521.33 456.747C521.305 456.672 521.293 456.573 521.268 456.498C521.218 456.274 521.181 456 521.156 455.664V455.639C521.156 455.639 521.143 455.627 521.143 455.615C520.944 452.541 521.903 445.385 523.261 443.245C524.855 440.731 525.416 429.058 530.299 427.117C534.186 425.599 535.631 422.288 536.515 419.737C536.752 419.065 536.951 418.455 537.138 417.933C538.035 415.444 540.875 417.36 540.639 413.167C540.414 408.96 538.259 409.296 542.021 406.247C545.759 403.186 544.737 397.623 548.711 395.023C552.685 392.409 554.728 388.999 558.253 388.091C561.778 387.195 564.843 383.449 565.64 380.487C565.815 379.84 565.939 379.218 566.051 378.646C566.462 376.58 566.749 374.975 568.705 374.141C571.208 373.058 573.364 369.611 573.364 368.964C573.364 368.317 577.051 360.228 576.926 357.005C576.827 353.769 576.204 352.811 577.736 351.28C579.268 349.75 583.23 337.654 585.397 332.887C587.552 328.121 589.595 324.251 589.383 320.978C589.184 318.215 590.268 315.079 590.567 312.665C590.617 312.192 590.642 311.744 590.617 311.334C590.554 309.99 590.554 308.185 590.467 306.63H590.505Z" fill="#D1D5DB"/>
<path d="M356.261 48.6688C353.445 48.5195 351.839 47.9346 351.353 49.9381C350.867 51.9541 350.194 56.1852 352.262 56.347C354.342 56.5212 355.389 55.6128 356.099 56.0857C356.809 56.571 356.697 56.9941 357.743 56.8572C358.79 56.7203 359.475 55.4386 359.138 54.4181C359.138 54.4181 357.893 54.4181 358.204 53.0866C358.516 51.755 359.089 48.8057 356.273 48.6563L356.261 48.6688Z" fill="#D1D5DB"/>
<path d="M257.701 12.0821C259.457 12.7665 259.743 15.0314 262.696 15.1434C265.648 15.2554 270.195 9.53098 269.622 7.82609C269.049 6.1212 261.836 6.35764 258.436 6.91764C255.022 7.49009 254.636 5.54876 254.636 5.54876C251.684 3.73187 252.992 7.76387 254.013 8.78431C255.035 9.80476 255.944 11.3976 257.701 12.0696V12.0821Z" fill="#D1D5DB"/>
<path d="M251.397 15.0315C253.104 15.2555 253.552 14.4093 254.349 13.2768C255.147 12.1444 253.552 12.0821 252.419 11.4599C251.285 10.8377 251.796 10.1533 250.687 9.33192C249.578 8.51059 248.731 11.2857 248.731 11.2857C246.85 12.8786 249.69 14.8075 251.397 15.0315Z" fill="#D1D5DB"/>
<path d="M358.129 418.119C357.955 418.095 357.781 418.07 357.606 418.045C357.257 417.995 356.896 417.958 356.547 417.933C356.024 417.883 355.526 417.858 355.102 417.858C354.255 417.858 353.819 417.622 353.421 417.286C352.76 416.726 352.2 415.879 350.007 415.431C349.584 415.344 349.148 415.332 348.737 415.394C348.674 415.394 348.612 415.419 348.55 415.431C348.164 415.494 347.79 415.606 347.416 415.767C344.937 416.825 342.969 419.575 342.969 419.575C342.645 420.247 343.368 420.87 344.439 421.38C345.685 421.977 347.429 422.413 348.562 422.599C349.048 422.674 349.422 422.711 349.609 422.687C350.095 422.624 350.593 422.512 351.153 422.413C351.714 422.313 352.337 422.214 353.084 422.176C354.193 422.139 355.239 423.01 356.074 423.359C356.211 423.421 356.348 423.458 356.473 423.483C356.597 423.508 356.722 423.508 356.834 423.483C357.731 423.259 358.08 421.741 358.304 420.932C358.391 420.633 358.603 420.496 358.889 420.397C358.989 420.359 359.089 420.335 359.201 420.297C359.537 420.198 359.923 420.086 360.309 419.837C360.434 419.75 360.571 419.65 360.696 419.538C360.82 419.414 360.87 419.302 360.845 419.19C360.845 419.14 360.808 419.078 360.758 419.028C360.446 418.655 359.375 418.356 358.167 418.157L358.129 418.119Z" fill="#D1D5DB"/>
<path d="M491.234 504.882C491.234 504.882 492.941 503.526 492.031 501.871C491.122 500.228 491.234 498.013 488.456 498.013C485.678 498.013 484.931 497.328 485.28 498.697C485.616 500.066 485.678 504.198 491.246 504.882H491.234Z" fill="#D1D5DB"/>
<path d="M490.462 507.296C488.755 507.383 488.78 509.487 488.78 509.648C490.001 510.756 492.156 509.25 492.392 508.603C492.617 507.944 492.168 507.209 490.462 507.296Z" fill="#D1D5DB"/>
<path d="M436.423 491.38C435.688 491.542 435.401 492.575 435.625 493.085C435.85 493.595 435.625 493.595 435.625 494.279C435.625 494.964 436.584 495.872 436.584 495.872C438.179 495.25 438.179 493.944 437.942 493.371C437.718 492.799 437.145 491.218 436.41 491.392L436.423 491.38Z" fill="#D1D5DB"/>
<path d="M482.09 514.639C479.985 515.087 480.384 515.659 479.761 516.344C479.138 517.016 475.787 517.7 474.255 517.364C472.723 517.028 471.24 517.364 470.393 517.364C469.546 517.364 467.491 518.895 467.491 518.895C467.491 518.895 464.601 517.924 462.271 516.63C459.942 515.323 460.228 515.161 458.409 513.17C456.591 511.179 453.24 512.996 451.932 511.465C450.624 509.935 448.581 509.487 445.629 510.159C442.676 510.843 443.523 513.904 443.523 516.169C443.523 518.434 444.096 519.405 444.096 520.824C444.096 522.242 444.831 523.039 446.077 523.997C447.323 524.968 447.435 528.427 447.671 529.609C447.896 530.804 447.896 531.65 449.154 532.559C450.4 533.467 449.44 534.662 449.49 536.018C449.552 537.375 448.755 537.039 447.784 538.121C446.824 539.204 448.469 542.203 449.029 543.622C449.602 545.04 449.876 545.264 449.876 547.032C449.876 548.799 452.031 551.86 452.891 552.644C453.738 553.44 455.843 554.685 455.906 557.97C455.955 561.268 458.061 559.675 462.769 559.501C467.478 559.327 465.547 560.011 467.715 560.061C469.87 560.123 470.443 557.622 471.577 555.12C472.71 552.632 475.438 549.396 475.438 549.396C475.438 549.396 477.257 550.528 477.83 551.661C478.403 552.793 479.138 553.59 480.496 552.171C481.854 550.752 481.119 548.824 482.14 548.089C483.162 547.343 483.274 545.7 483.162 544.12C483.05 542.527 484.806 540.324 485.828 539.353C486.849 538.395 488.095 534.649 488.095 533.056C488.095 531.464 488.543 531.638 489.851 530.393C491.159 529.149 489.116 515.074 488.033 513.208C486.961 511.328 484.171 514.166 482.078 514.626L482.09 514.639Z" fill="#D1D5DB"/>
<path d="M512.897 147.677C513.308 147.776 513.931 146.644 513.981 146.283C514.031 145.922 513.881 144.989 513.619 144.317C513.358 143.645 512.324 143.856 511.028 144.317C509.733 144.777 510.044 146.644 510.617 147.677C510.617 147.677 512.486 147.577 512.897 147.677Z" fill="#D1D5DB"/>
<path d="M566.388 378.708C566.388 378.708 566.288 378.683 566.089 378.646L566.388 378.708Z" fill="#D1D5DB"/>
<path d="M617.45 511.528C616.951 511.142 616.727 510.519 616.889 509.91C617.026 509.387 616.926 508.802 616.665 508.429C616.179 507.744 615.457 507.085 614.672 506.774C614.024 506.512 612.492 506.077 611.869 506.575C611.283 507.048 611.919 508.056 612.018 508.616C612.218 509.711 611.931 510.831 611.445 511.913C610.997 512.896 610.424 513.805 609.863 514.726C609.602 515.149 608.655 516.319 608.892 516.854C608.979 517.04 609.178 517.165 609.377 517.215C609.589 517.252 609.801 517.215 610 517.177C610.499 517.078 611.308 516.916 611.62 516.493C611.881 516.12 611.694 515.684 612.168 515.423C612.604 515.174 612.803 515.535 613.202 515.423C613.301 515.398 613.401 515.335 613.488 515.273C614.41 514.651 615.344 514.601 616.378 514.44C617.487 514.265 618.135 513.17 617.861 512.1C617.798 511.876 617.649 511.702 617.437 511.54L617.45 511.528Z" fill="#D1D5DB"/>
<path d="M688.355 411.561C688.53 410.802 690.361 410.292 689.277 409.458C688.804 409.085 687.596 409.52 687.097 409.657C686.674 409.782 685.789 410.342 685.366 410.192C684.282 409.807 685.665 407.305 685.478 406.496C685.316 405.787 684.768 405.19 684.319 406.135C683.858 407.131 683.796 408.375 683.385 409.408C683.036 410.267 682.575 410.578 681.753 410.877C680.507 411.337 679.374 412.208 678.415 413.191C677.817 413.801 676.858 415.008 675.986 414.075C675.375 413.415 675.288 412.283 674.902 411.511C674.441 410.591 674.229 410.354 674.416 409.334C674.553 408.649 675.101 407.977 674.777 407.255C674.391 406.359 673.669 406.745 672.946 406.658C671.65 406.496 669.259 405.177 669.956 403.597C670.18 403.099 671.202 402.452 670.629 401.83C670.156 401.307 668.536 402.539 668.113 402.788C666.506 403.721 664.338 406.148 663.653 407.89C662.831 410.006 663.641 412.358 663.217 414.548C662.719 417.136 661.386 420.073 658.882 421.293C657.997 421.728 656.677 421.579 656.017 422.375C655.207 423.359 655.182 425.723 654.883 426.955C653.862 431.074 651.644 434.982 649.589 438.603C648.181 441.092 645.167 442.735 642.974 444.551C640.682 446.455 638.44 448.422 636.335 450.55C635.487 451.396 634.927 452.367 633.868 453.001C632.896 453.586 631.775 453.86 630.841 454.495C628.823 455.851 627.116 457.618 625.011 458.875C623.317 459.883 621.311 460.132 619.468 460.742C617.337 461.451 615.818 463.679 614.697 465.495C613.787 466.964 613.538 468.694 612.641 470.137C612.155 470.921 611.283 471.282 610.498 471.743C608.829 472.713 607.272 474.07 605.902 475.414C604.22 477.056 602.75 478.911 601.592 480.951C601.006 481.984 600.508 483.067 600.109 484.175C599.91 484.722 599.686 485.295 599.586 485.855C599.474 486.415 599.486 486.95 599.2 487.472C598.938 487.945 598.527 487.995 598.079 488.256C596.883 488.928 598.876 489.725 598.839 490.521C598.801 491.579 597.169 491.629 596.422 491.803C595.799 491.94 595.351 492.189 595.625 492.948C595.861 493.595 596.571 494.615 597.344 494.628C598.216 494.653 599.312 494.541 598.938 495.773C598.726 496.457 598.079 497.092 598.54 497.826C599.312 499.033 600.956 498.71 602.165 498.871C602.526 498.921 602.9 498.996 603.273 499.083C604.544 499.369 605.827 499.705 607.073 499.17C608.044 498.747 609.091 497.428 610.237 497.963C611.582 498.585 611.321 500.639 612.454 501.323C613.912 502.207 616.166 501.099 617.724 501.983C619.081 502.754 618.758 503.687 619.405 504.895C619.742 505.529 620.676 505.492 621.336 505.218C622.358 504.783 623.927 504.048 624.999 504.695C625.646 505.094 625.871 505.94 626.606 506.276C628.001 506.911 628.524 505.691 628.848 505.405C629.483 504.857 630.704 505.131 631.476 505.044C632.386 504.932 633.307 504.683 634.042 504.235C636.721 502.642 637.842 499.543 640.333 497.689C641.504 496.818 641.641 495.81 642.376 494.516C643.136 493.197 644.344 492.724 645.74 492.338C646.3 492.176 648.542 492.027 648.468 491.106C648.418 490.447 647.122 490.235 646.823 489.7C646.051 488.306 647.808 486.838 648.505 485.805C649.34 484.585 649.377 483.03 649.751 481.648C650.212 479.919 651.121 478.176 652.093 476.683C652.99 475.302 653.6 473.895 653.301 472.203C652.927 470.038 653.525 469.079 654.111 467.051C654.485 465.794 654.41 464.375 655.68 463.604C658.184 462.073 660.676 460.431 662.943 458.663C664.924 457.12 666.543 456.871 668.91 456.573C670.405 456.386 677.406 458.004 676.783 455.017C676.297 452.665 673.058 452.528 671.962 450.674C671.165 449.343 671.015 447.551 671.501 446.144C671.924 444.912 673.282 444.327 674.354 443.78C675.986 442.946 677.804 441.801 678.788 440.208C679.86 438.479 680.52 435.927 681.467 433.538C682.089 431.97 683.186 431.671 684.307 430.601C685.279 429.68 685.777 428.399 686.088 427.117C686.562 425.163 688.019 423.993 688.953 422.263C689.651 420.957 689.115 419.911 688.256 418.717C687.72 417.983 686.886 417.435 686.861 416.439C686.823 414.859 691.345 414.137 689.252 412.246C688.966 411.984 688.206 412.32 688.355 411.611V411.561Z" fill="#D1D5DB"/>
<path d="M736.764 354.815C735.705 354.69 734.671 354.466 733.6 354.441C733.039 354.429 732.466 354.566 732.042 354.914C731.557 355.325 731.469 355.872 731.158 356.383C730.859 356.868 730.361 357.254 729.999 357.689C729.526 358.262 729.065 358.859 728.554 359.407C727.533 360.514 726.312 361.398 724.767 361.547C722.102 361.808 719.486 360.452 717.281 359.108C715.611 358.087 713.818 357.254 711.949 356.694C710.753 356.333 708.885 356.432 708.847 354.69C708.81 353.085 708.05 351.504 707.888 349.887C707.788 348.928 707.826 347.983 707.614 347.024C707.465 346.365 707.315 345.655 707.029 345.046C706.817 344.585 706.518 344.199 706.406 343.689C706.319 343.279 706.817 342.495 706.468 342.208C706.132 341.922 705.434 342.32 705.048 342.134C704.587 341.922 704.437 341.3 704.263 340.902C703.964 340.23 703.615 339.558 703.167 338.985C702.806 338.512 701.884 337.691 701.261 338.263C700.613 338.861 701.336 340.205 701.572 340.802C702.282 342.644 703.341 344.411 703.217 346.452C703.167 347.323 703.105 349.351 702.058 349.687C701.41 349.899 701.186 349.152 700.987 348.63C700.538 347.41 700.364 346.489 699.031 345.904C698.383 345.618 697.698 345.68 697.088 345.319C695.518 344.399 694.472 342.694 694.098 340.964C693.936 340.18 693.924 339.396 694.023 338.612C694.123 337.853 694.509 337.106 694.509 336.335C694.509 334.966 693.376 333.908 692.416 333.087C691.333 332.166 689.751 330.884 690.598 329.303C690.859 328.818 691.046 329.017 691.432 328.855C691.818 328.706 691.856 328.619 691.806 328.146C691.719 327.312 691.196 326.516 690.859 325.769C690.324 324.587 689.775 323.405 689.19 322.247C688.928 321.75 688.168 319.572 687.396 319.783C686.836 319.945 686.985 320.779 686.387 320.941C685.789 321.103 685.204 320.48 684.917 320.07C684.556 319.559 684.606 318.838 684.531 318.24C684.282 316.311 680.694 316.287 679.324 316.212C678.614 316.175 677.804 316.262 677.356 315.577C677.231 315.378 677.131 315.017 676.994 314.855C676.671 314.495 676.309 314.631 675.886 314.768C675.325 314.943 674.964 315.042 674.528 314.532C674.204 314.159 672.821 312.578 672.311 311.931C671.551 310.96 672.747 308.783 671.376 308.185C670.604 307.849 668.598 308.285 668.374 309.243C668.137 310.276 669.832 311.247 670.43 311.831C671.177 312.566 671.899 313.337 672.535 314.171C673.606 315.602 674.665 317.643 673.394 319.298C672.747 320.144 672.971 319.97 673.419 320.567C675.873 323.803 678.315 327.039 680.794 330.262C681.33 330.971 681.878 331.668 682.413 332.365C684.618 335.215 686.599 338.263 688.742 341.163C689.564 342.271 689.975 343.639 690.336 344.959C690.473 345.481 690.436 346.004 690.56 346.527C690.598 346.688 690.697 346.85 690.847 346.912C691.208 347.074 691.607 346.527 691.881 346.365C692.205 346.178 692.566 346.054 692.94 346.153C693.413 346.29 694.31 347.099 693.537 347.46C693.089 347.671 692.479 347.36 692.068 347.634C691.731 347.858 691.818 348.443 691.868 348.779C692.03 349.762 692.454 350.658 692.778 351.591C693.525 353.67 694.347 355.735 694.796 357.901C695.531 361.423 694.31 364.434 693.164 367.657C692.416 369.773 692.703 371.863 692.466 374.054C692.342 375.199 692.279 376.381 691.233 377.065C690.249 377.712 688.966 377.6 687.857 377.849C685.802 378.297 683.584 379.405 683.173 381.67C682.936 382.976 683.41 384.681 684.369 385.615C685.278 386.498 686.412 386.399 687.583 386.498C689.514 386.685 688.916 386.971 690.099 388.377C691.382 389.895 693.077 390.829 694.97 391.364C696.602 391.824 698.383 392.223 699.417 393.691C700.812 395.67 701.037 398.482 700.738 400.822C700.426 403.261 698.969 405.401 697.723 407.455C696.826 408.923 695.904 410.379 694.821 411.723C694.173 412.519 693.077 413.627 694.385 414.411C695.032 414.797 695.755 414.324 696.403 414.685C696.864 414.946 697.125 415.519 697.648 415.68C698.159 415.83 698.421 415.556 698.869 415.431C699.255 415.332 699.729 415.357 700.115 415.394C700.763 415.469 701.286 415.867 701.273 416.551C701.261 417.087 700.925 417.746 701.273 418.231C702.033 419.289 704.188 417.945 704.923 417.41C706.929 415.942 708.984 414.436 710.541 412.47C711.389 411.412 711.874 410.068 712.46 408.848C713.095 407.529 713.731 406.223 714.366 404.903C714.839 403.92 715.238 402.701 715.973 401.879C716.483 401.307 717.368 400.946 717.667 400.199C718.041 399.241 717.941 398.134 718.377 397.151C718.738 396.354 719.523 396.08 720.109 395.495C720.657 394.935 721.055 394.251 721.367 393.542C721.977 392.173 722.301 390.655 722.849 389.273C723.273 388.215 723.235 387.046 722.251 386.374C721.329 385.751 721.093 384.594 721.043 383.524C720.881 379.679 725.652 378.335 728.554 377.501C729.539 377.215 730.971 376.829 731.656 377.862C731.968 378.322 732.005 380.848 733.064 380.151C733.276 380.015 733.4 379.791 733.525 379.579C733.786 379.106 734.359 378.646 734.21 378.048C734.061 377.414 733.413 377.463 733.076 377.028C732.441 376.182 732.516 373.942 732.752 372.983C733.002 372 733.712 371.677 734.596 371.428C735.568 371.167 736.39 370.88 737.075 370.084C738.607 368.279 738.184 365.479 738.333 363.302C738.445 361.659 738.695 359.991 739.492 358.523C739.741 358.063 740.015 357.577 740.077 357.055C740.277 355.362 737.947 354.939 736.714 354.802L736.764 354.815Z" fill="#D1D5DB"/>
<path d="M702.557 335.936C702.743 336.048 702.943 336.16 703.155 336.16C704.089 336.185 702.918 334.169 702.743 333.746C702.582 333.335 702.42 332.514 701.996 332.29C701.585 332.079 701.348 332.352 701.224 332.676C701.199 332.751 701.174 332.825 701.149 332.9C700.8 334.306 701.435 335.264 702.557 335.924V335.936Z" fill="#D1D5DB"/>
<circle opacity="0.1" cx="461" cy="441.086" r="111" fill="#0064FF"/>
<circle opacity="0.3" cx="461" cy="441.086" r="69" fill="#0064FF"/>
<circle cx="461" cy="441.086" r="24" fill="#078AFF"/>
</g>
<defs>
<clipPath id="clip0_2060_263">
<rect width="740.14" height="560" fill="white" transform="translate(0 0.0856934)"/>
</clipPath>
</defs>
</svg>
